<svg xmlns="http://www.w3.org/2000/svg" width="16" height="16" viewBox="0 0 16 16">
    <path data-name="Path 42831" d="M13.75-9.25a.748.748 0 0 1-.75.75.748.748 0 0 1-.75-.75A.749.749 0 0 1 13-10a.749.749 0 0 1 .75.75zm-.75 5h-2.5A1.5 1.5 0 0 0 9-2.75a1.5 1.5 0 0 0 1.5 1.5h3a2.5 2.5 0 0 1 0 5H4.363a11.771 11.771 0 0 0 .8-1H13.5a1.5 1.5 0 0 0 0-3h-3a2.523 2.523 0 0 1-2.528-2.5 2.523 2.523 0 0 1 2.528-2.5h1.6c-.888-1.05-2.1-2.728-2.1-4a2.983 2.983 0 0 1 3-3 3 3 0 0 1 3 3c0 1.384-1.437 3.25-2.322 4.262-.394.454-.678.738-.678.738zm1.637-3.822A2.866 2.866 0 0 0 15-9.25a2 2 0 0 0-2-2 2 2 0 0 0-2 2 2.866 2.866 0 0 0 .362 1.178A9.936 9.936 0 0 0 12.3-6.6c.241.322.484.619.7.869.216-.25.459-.547.7-.869a9.936 9.936 0 0 0 .938-1.472zM2.222-1.25a.768.768 0 0 1 .75-.75.731.731 0 0 1 .75.75.731.731 0 0 1-.75.75.768.768 0 0 1-.75-.75zm1.456 4.262c-.062.072-.122.137-.175.2-.3.334-.5.538-.5.538s-.284-.284-.678-.738C1.437 2 0 .134 0-1.25a2.983 2.983 0 0 1 3-3 2.983 2.983 0 0 1 3 3C6 .025 4.778 1.709 3.894 2.762c-.075.088-.147.172-.216.25zm.959-3.084a2.73 2.73 0 0 0 .335-1.178 1.984 1.984 0 0 0-2-2 2.019 2.019 0 0 0-2 2 3.024 3.024 0 0 0 .391 1.178A9.906 9.906 0 0 0 2.3 1.4c.242.322.485.619.672.869A8.817 8.817 0 0 0 3.7 1.4a10.2 10.2 0 0 0 .937-1.472z" transform="translate(0 12.25)" style="fill:#09f"/>
</svg>
