<svg xmlns="http://www.w3.org/2000/svg" width="12" height="16" viewBox="0 0 12 16">
    <path data-name="Path 42854" d="m6.5-6.269 1.278.853a.5.5 0 0 1 .138.694.5.5 0 0 1-.694.137l-1.5-1A.506.506 0 0 1 5.5-6v-2.5A.5.5 0 0 1 6-9a.5.5 0 0 1 .5.5zM2-12a2 2 0 0 1 2-2h4a2 2 0 0 1 2 2v1.5h-.059A5.913 5.913 0 0 1 12-6a5.913 5.913 0 0 1-2.059 4.5H10V0a2 2 0 0 1-2 2H4a2 2 0 0 1-2-2v-1.5h.031A5.989 5.989 0 0 1 0-6a5.989 5.989 0 0 1 2.031-4.5H2zm2-1a1 1 0 0 0-1 1v.8a5.965 5.965 0 0 1 3-.8 6.044 6.044 0 0 1 3 .8v-.8a1 1 0 0 0-1-1zM9-.8A6.057 6.057 0 0 1 6 0a5.978 5.978 0 0 1-3-.8V0a1 1 0 0 0 1 1h4a1 1 0 0 0 1-1zM6-11a5 5 0 0 0-5 5 5 5 0 0 0 5 5 5 5 0 0 0 5-5 5 5 0 0 0-5-5z" transform="translate(0 14)" style="fill:#f90"/>
</svg>
