<svg xmlns="http://www.w3.org/2000/svg" width="15" height="20" viewBox="0 0 15 20">
    <path data-name="Path 88469" d="M7.5-14a7.476 7.476 0 0 0-5.312 2.188A7.476 7.476 0 0 0 0-6.5a7.158 7.158 0 0 0 .313 2.188 9.769 9.769 0 0 0 1.21 2.382Q2.422-.523 4.1 1.859q1.133 1.563 2.617 3.75a.977.977 0 0 0 1.563 0Q9.8 3.383 10.9 1.82q1.68-2.344 2.578-3.75a9.769 9.769 0 0 0 1.211-2.383A7.158 7.158 0 0 0 15-6.5a7.476 7.476 0 0 0-2.187-5.312A7.476 7.476 0 0 0 7.5-14zm0 17.422Q6.484 1.938 5.664.766q-1.68-2.383-2.5-3.633a8.869 8.869 0 0 1-1.055-1.992A4.326 4.326 0 0 1 1.875-6.5a5.766 5.766 0 0 1 1.641-3.984A5.766 5.766 0 0 1 7.5-12.125a5.766 5.766 0 0 1 3.984 1.641A5.766 5.766 0 0 1 13.125-6.5a4.326 4.326 0 0 1-.234 1.641 8.869 8.869 0 0 1-1.055 1.992q-.82 1.25-2.5 3.633-.547.781-1.211 1.758-.313.429-.625.898zm0-13.086a3.163 3.163 0 0 0-2.227.938 3.1 3.1 0 0 0-.9 2.188 3.242 3.242 0 0 0 .9 2.227 3.242 3.242 0 0 0 2.227.9 3.242 3.242 0 0 0 2.227-.9 3.242 3.242 0 0 0 .9-2.227 3.1 3.1 0 0 0-.9-2.187A3.163 3.163 0 0 0 7.5-9.664zm0 4.414a1.217 1.217 0 0 1-.9-.35 1.217 1.217 0 0 1-.352-.9 1.217 1.217 0 0 1 .352-.9 1.217 1.217 0 0 1 .9-.352 1.217 1.217 0 0 1 .9.352 1.217 1.217 0 0 1 .352.9 1.217 1.217 0 0 1-.352.9 1.217 1.217 0 0 1-.9.35z" transform="translate(0 14)" style="fill:#ff4848"/>
</svg>
