<svg xmlns="http://www.w3.org/2000/svg" width="12.25" height="14" viewBox="0 0 12.25 14">
    <path data-name="Path 89276" d="M5.934-12.223 2-11.348a.849.849 0 0 0-.656.6.958.958 0 0 0 .219.875l.629.6v.055a1.252 1.252 0 0 0 .629 1.094 6.388 6.388 0 0 0 1.258.465 7.915 7.915 0 0 0 2.051.219 7.915 7.915 0 0 0 2.051-.219 6.388 6.388 0 0 0 1.258-.465 1.211 1.211 0 0 0 .629-1.094v-.052l.629-.6-.191-.164.191.164a.958.958 0 0 0 .219-.875.849.849 0 0 0-.656-.6l-3.937-.875a.684.684 0 0 0-.389-.003zm.191.848 3.938.875-.738.738a.448.448 0 0 0-.137.328v.219a.408.408 0 0 1-.164.328 5.481 5.481 0 0 1-1.613.492 3.051 3.051 0 0 0 .464-1.585.438.438 0 0 0-.273-.41l-1.312-.52a.506.506 0 0 0-.328 0l-1.312.52a.5.5 0 0 0-.273.41 3.051 3.051 0 0 0 .463 1.585 5.481 5.481 0 0 1-1.613-.492.331.331 0 0 1-.164-.328v-.219a.448.448 0 0 0-.137-.328l-.738-.738zM2.625-7a3.53 3.53 0 0 0 1.012 2.488A3.53 3.53 0 0 0 6.125-3.5a3.53 3.53 0 0 0 2.488-1.012A3.53 3.53 0 0 0 9.625-7v-.246a4.874 4.874 0 0 1-.875.328 2.588 2.588 0 0 1-.793 1.8 2.639 2.639 0 0 1-1.832.738 2.639 2.639 0 0 1-1.832-.738 2.588 2.588 0 0 1-.793-1.8 4.874 4.874 0 0 1-.875-.328zm3.5-1.367a1.737 1.737 0 0 1-.848-1.313l.848-.355.848.355a1.68 1.68 0 0 1-.848 1.313zm-.9 7.875a1.412 1.412 0 0 0 .9.328 1.412 1.412 0 0 0 .9-.328L8.367-1.75h.219a2.815 2.815 0 0 1 1.914.766 2.884 2.884 0 0 1 .875 1.859H9.188V.438h.438A.421.421 0 0 0 10.063 0a.421.421 0 0 0-.437-.437h-.438v-.438a.421.421 0 0 0-.437-.437.421.421 0 0 0-.437.438v.438h-.439A.421.421 0 0 0 7.437 0a.421.421 0 0 0 .438.437h.438v.438H.875A2.884 2.884 0 0 1 1.75-.984a2.815 2.815 0 0 1 1.914-.766h.219L5.25-.492zM8.75 1.75h2.789a.7.7 0 0 0 .711-.711 3.62 3.62 0 0 0-1.066-2.6 3.62 3.62 0 0 0-2.6-1.066h-.217a.818.818 0 0 0-.6.246l-1.34 1.23a.429.429 0 0 1-.6 0l-1.34-1.23a.818.818 0 0 0-.6-.246h-.223a3.62 3.62 0 0 0-2.6 1.066A3.62 3.62 0 0 0 0 1.039a.7.7 0 0 0 .711.711z" transform="translate(0 12.25)" style="fill:#ff6a6a"/>
</svg>
