<svg xmlns="http://www.w3.org/2000/svg" width="16.41" height="20" viewBox="0 0 16.41 20">
    <g data-name="Group 39953" transform="translate(-409.117 -248.373)">
        <path data-name="Path 43686" d="M425.527 256.578c0 6.355-7.6 11.493-7.921 11.709a.512.512 0 0 1-.569 0c-.324-.216-7.921-5.354-7.921-11.709a8.205 8.205 0 0 1 16.41 0z" style="fill:#ec49a7"/>
        <circle data-name="Ellipse 2750" cx="6.537" cy="6.537" r="6.537" transform="translate(410.785 250.041)" style="fill:#fff"/>
        <path data-name="Path 88007" d="M-2.849-.56V0h5.642v-1.26H-.693C.581-2.758.6-2.814 1.785-4.186a3.541 3.541 0 0 0 .994-2.366 2.71 2.71 0 0 0-2.87-2.7 2.817 2.817 0 0 0-2.87 2.408l1.218.294A1.6 1.6 0 0 1-.091-7.994a1.48 1.48 0 0 1 1.624 1.442 2.415 2.415 0 0 1-.672 1.5z" transform="translate(417.46 261.086)" style="fill:#ec49a7"/>
    </g>
</svg>
