<svg xmlns="http://www.w3.org/2000/svg" width="10" height="16" viewBox="0 0 10 16">
    <path data-name="Path 88032" d="M2.75-9H1.219A.244.244 0 0 1 1-9.219a.212.212 0 0 1 .063-.156L5-12.875l3.938 3.5A.212.212 0 0 1 9-9.219.244.244 0 0 1 8.781-9H7.25a.973.973 0 0 0-.719.281A.973.973 0 0 0 6.25-8V.5a.481.481 0 0 1-.5.5h-1.5a.481.481 0 0 1-.5-.5V-8a.973.973 0 0 0-.281-.719A.973.973 0 0 0 2.75-9zm2.688-4.844A.663.663 0 0 0 5-14a.663.663 0 0 0-.437.156l-4.157 3.75A1.1 1.1 0 0 0 0-9.219a1.185 1.185 0 0 0 .344.875A1.185 1.185 0 0 0 1.219-8H2.75V.5a1.631 1.631 0 0 0 .438 1.063A1.631 1.631 0 0 0 4.25 2h1.5a1.631 1.631 0 0 0 1.063-.437A1.631 1.631 0 0 0 7.25.5V-8h1.531a1.185 1.185 0 0 0 .875-.344A1.185 1.185 0 0 0 10-9.219a1.1 1.1 0 0 0-.406-.875z" transform="translate(0 14)" style="fill:#299865"/>
</svg>
