<svg xmlns="http://www.w3.org/2000/svg" xmlns:xlink="http://www.w3.org/1999/xlink" width="237.892" height="320" viewBox="0 0 237.892 320">
  <defs>
    <clipPath id="clip-path">
      <path id="Path_89480" data-name="Path 89480" d="M82.546,25.755a5.291,5.291,0,1,1-10.536-.21,5.291,5.291,0,1,1,10.536.21Z" transform="translate(-72.009 -19.879)" fill="#6b67d4"/>
    </clipPath>
    <clipPath id="clip-path-2">
      <path id="Path_89483" data-name="Path 89483" d="M91.236,27.115a5.764,5.764,0,1,1-5.65-5.875A5.771,5.771,0,0,1,91.236,27.115Z" transform="translate(-79.709 -21.239)" fill="#6b67d4"/>
    </clipPath>
  </defs>
  <g id="OBJECTS" transform="translate(0 0)">
    <g id="Group_40464" data-name="Group 40464">
      <circle id="Ellipse_3214" data-name="Ellipse 3214" cx="114.712" cy="114.712" r="114.712" transform="translate(5.733 38.247)" fill="#f5f9ff"/>
      <g id="Group_40463" data-name="Group 40463">
        <path id="Line_4" data-name="Line 4" d="M237.4.245H0A.247.247,0,0,1-.25,0,.247.247,0,0,1,0-.25H237.4a.247.247,0,0,1,.247.247A.247.247,0,0,1,237.4.245Z" transform="translate(0.25 319.755)" fill="#262552"/>
        <g id="Group_40456" data-name="Group 40456" transform="translate(45.413 14.531)">
          <g id="Group_40435" data-name="Group 40435" transform="translate(8.631 113.086)">
            <g id="Group_40430" data-name="Group 40430" transform="translate(30.775)">
              <g id="Group_40429" data-name="Group 40429" transform="translate(27.157 137.298)">
                <path id="Path_89439" data-name="Path 89439" d="M101.392,223.3,85.85,185.228l17.88-8.468L116.6,217.241Z" transform="translate(-69.287 -176.76)" fill="#edbabb"/>
                <g id="Group_40428" data-name="Group 40428" transform="translate(0 36.524)">
                  <path id="Path_89440" data-name="Path 89440" d="M122.25,202.914s-14.028,6.22-19.438-1.783L74.8,214.888l52.62.21-5.156-12.185Z" transform="translate(-74.798 -201.13)"/>
                  <rect id="Rectangle_10052" data-name="Rectangle 10052" width="4.346" height="52.62" transform="translate(0 18.112) rotate(-89.76)" fill="#303030"/>
                  <path id="Path_89441" data-name="Path 89441" d="M93.59,207.115a.631.631,0,0,1-.285-.24,15.18,15.18,0,0,0-3.282-3.432.7.7,0,0,1-.18-.989.719.719,0,0,1,.989-.195,15.957,15.957,0,0,1,3.642,3.777.715.715,0,0,1-.165.989.742.742,0,0,1-.7.075Z" transform="translate(-67.36 -200.626)" fill="#fff"/>
                  <path id="Path_89442" data-name="Path 89442" d="M91.27,208.315a.631.631,0,0,1-.285-.24,15.18,15.18,0,0,0-3.282-3.432.7.7,0,0,1-.18-.989.722.722,0,0,1,.989-.195,15.957,15.957,0,0,1,3.642,3.777.715.715,0,0,1-.165.989.742.742,0,0,1-.7.075Z" transform="translate(-68.517 -200.027)" fill="#fff"/>
                  <path id="Path_89443" data-name="Path 89443" d="M88.95,209.5a.632.632,0,0,1-.285-.24,14.494,14.494,0,0,0-3.282-3.417.7.7,0,0,1-.18-.989.722.722,0,0,1,.989-.195,15.957,15.957,0,0,1,3.642,3.777.715.715,0,0,1-.165.989.742.742,0,0,1-.7.075Z" transform="translate(-69.675 -199.429)" fill="#fff"/>
                </g>
              </g>
              <path id="Path_89444" data-name="Path 89444" d="M71.113,85.15,57.16,152.338a25.754,25.754,0,0,0,2.518,17.011l42.069,80.422,33.751-1.154L94.014,151.633,90.447,85.15H71.128Z" transform="translate(-56.679 -85.15)" fill="#ffd11a"/>
            </g>
            <g id="Group_40434" data-name="Group 40434" transform="translate(0 0.015)">
              <g id="Group_40432" data-name="Group 40432" transform="translate(0 140.655)">
                <path id="Path_89445" data-name="Path 89445" d="M54.12,218.591l7.943-39.581H81.846l-8.932,40.765Z" transform="translate(-27.18 -179.01)" fill="#edbabb"/>
                <g id="Group_40431" data-name="Group 40431" transform="translate(0 33.152)">
                  <path id="Path_89446" data-name="Path 89446" d="M83.6,202.914s-14.028,6.22-19.438-1.783L36.15,214.888l51.121.21-3.657-12.185Z" transform="translate(-36.142 -201.13)"/>
                  <rect id="Rectangle_10053" data-name="Rectangle 10053" width="4.346" height="51.121" transform="translate(0 18.085) rotate(-89.76)" fill="#303030"/>
                  <path id="Path_89447" data-name="Path 89447" d="M54.94,207.115a.631.631,0,0,1-.285-.24,15.18,15.18,0,0,0-3.282-3.432.7.7,0,0,1-.18-.989.719.719,0,0,1,.989-.195,15.957,15.957,0,0,1,3.642,3.777.715.715,0,0,1-.165.989.742.742,0,0,1-.7.075Z" transform="translate(-28.704 -200.626)" fill="#fff"/>
                  <path id="Path_89448" data-name="Path 89448" d="M52.62,208.315a.631.631,0,0,1-.285-.24,15.18,15.18,0,0,0-3.282-3.432.7.7,0,0,1-.18-.989.722.722,0,0,1,.989-.195,15.958,15.958,0,0,1,3.642,3.777.715.715,0,0,1-.165.989.742.742,0,0,1-.7.075Z" transform="translate(-29.861 -200.027)" fill="#fff"/>
                  <path id="Path_89449" data-name="Path 89449" d="M50.31,209.5a.632.632,0,0,1-.285-.24,14.5,14.5,0,0,0-3.282-3.417.7.7,0,0,1-.18-.989.722.722,0,0,1,.989-.195,15.958,15.958,0,0,1,3.642,3.777.715.715,0,0,1-.165.989.742.742,0,0,1-.7.075Z" transform="translate(-31.013 -199.429)" fill="#fff"/>
                </g>
              </g>
              <g id="Group_40433" data-name="Group 40433" transform="translate(22.623)">
                <path id="Path_89450" data-name="Path 89450" d="M51.255,248.3,88.843,85.16h20.368s16.816,22.781,4.017,72.328-28.97,92.291-28.97,92.291L51.24,248.3Z" transform="translate(-51.24 -85.16)" fill="#ffd11a"/>
                <path id="Path_89451" data-name="Path 89451" d="M62.028,170.289a.158.158,0,0,1-.154-.2l13.865-57.96-4.95-9.885a.158.158,0,0,1,.283-.142l4.976,9.937a.158.158,0,0,1,.012.108L62.182,170.167A.158.158,0,0,1,62.028,170.289Z" transform="translate(-45.857 -76.67)" fill="#302e6e"/>
                <path id="Line_5" data-name="Line 5" d="M0,49.6a.158.158,0,0,1-.047-.007.158.158,0,0,1-.1-.2L15.284-.049a.158.158,0,0,1,.2-.1.158.158,0,0,1,.1.2L.149,49.488A.158.158,0,0,1,0,49.6Z" transform="translate(41.187 92.158)" fill="#302e6e"/>
              </g>
            </g>
          </g>
          <g id="Group_40447" data-name="Group 40447" transform="translate(0 15.758)">
            <g id="Group_40440" data-name="Group 40440">
              <g id="Group_40436" data-name="Group 40436" transform="translate(16.395 39.915)">
                <path id="Path_89452" data-name="Path 89452" d="M92.071,48.053S79.452,44.2,73.2,50.241C66.323,56.88,52.4,68.48,52.4,68.48l10.446,16.4L84.428,71.643l7.643-23.575Z" transform="translate(-35.802 -46.843)" fill="#0f223c"/>
                <path id="Path_89453" data-name="Path 89453" d="M57.923,61.28,44.075,72.6a6.517,6.517,0,0,0-1.9,8.528h0a6.527,6.527,0,0,0,8.962,2.413l15.842-8.408L57.923,61.295Z" transform="translate(-41.325 -39.642)" fill="#edbabb"/>
              </g>
              <g id="Group_40439" data-name="Group 40439">
                <path id="Path_89454" data-name="Path 89454" d="M56.661,86.018,45.96,42.24,39.8,43.769l2.278,43.868c.54,3.177,3.657,6.609,6.864,6.295h0c3.7-.345,8.528-4.286,7.7-7.913Z" transform="translate(-25.691 -9.223)" fill="#edbabb"/>
                <g id="Group_40438" data-name="Group 40438">
                  <path id="Path_89455" data-name="Path 89455" d="M46.964,37.05l-1.544,10.1-5.081.674,1.079-10.071Z" transform="translate(-25.422 -11.811)" fill="#edbabb"/>
                  <g id="Group_40437" data-name="Group 40437">
                    <path id="Path_89456" data-name="Path 89456" d="M30.6,21.394l1.319-1.019h0a.733.733,0,0,1,.465-.165h11.18a2.362,2.362,0,0,1,2.158,1.379L56.678,45.7a1.146,1.146,0,0,1-.18,1.214h0l-.18.165a1.305,1.305,0,0,1-.165.135l-1,.809-.614-.674H45.063a1.146,1.146,0,0,1-1.049-.644L32.878,23.9,30.57,21.409Z" transform="translate(-30.294 -20.21)" fill="#5b5b5b"/>
                    <path id="Path_89457" data-name="Path 89457" d="M44.555,22.254,55.511,46.368a1.169,1.169,0,0,1-1.064,1.649H43.9a1.146,1.146,0,0,1-1.049-.644L30.467,22.014a.8.8,0,0,1,.719-1.154h11.18a2.362,2.362,0,0,1,2.158,1.379Z" transform="translate(-30.386 -19.886)"/>
                  </g>
                  <path id="Path_89458" data-name="Path 89458" d="M44.058,54.171l-2.2-.809L36.894,41.447a6.853,6.853,0,0,1-.764-2.878l.9-11.3c.03-.854.42-1.469,1.244-1.289h0A1.361,1.361,0,0,1,39.337,27.3l-.045,8.932L42.8,30.357a1.1,1.1,0,0,1,2.053-.045h0a1.365,1.365,0,0,1-.015,1.484L41.2,38.555l3.927-4.361c.57-.659,1.244-.644,1.679.015h0a1.769,1.769,0,0,1-.045,1.724l-3.507,5.635,3.912-3.207c.869-.629,1.6-.42,1.963.24h0c.315.57.03.989-.525,1.724l-2.743,3.7a9.066,9.066,0,0,1,.285,5.126C45.707,50.485,44.058,54.171,44.058,54.171Z" transform="translate(-27.521 -17.348)" fill="#edbabb"/>
                </g>
              </g>
            </g>
            <g id="Group_40441" data-name="Group 40441" transform="translate(53.84 39.147)">
              <path id="Path_89459" data-name="Path 89459" d="M102.159,46.33l17.865,6.579a2.91,2.91,0,0,1,1.843,3.312c-.57,2.788-.465,13.279-2.668,20.4L101.71,104.51H66.31l4.661-24.249S65.156,68.526,74.958,58.8l3.387-11.45,23.83-1Z" transform="translate(-66.31 -46.33)" fill="#0f223c"/>
              <path id="Path_89460" data-name="Path 89460" d="M106.6,50.362,95.661,46.33l-16.321.689,1.888,9.247Z" transform="translate(-59.812 -46.33)" fill="#edbabb"/>
              <path id="Path_89461" data-name="Path 89461" d="M68.846,73.075a.158.158,0,0,1-.15-.109,18.486,18.486,0,0,1-.658-6.226,16.9,16.9,0,0,1,1.39-5.837,16.485,16.485,0,0,1,4.5-5.927l.012-.009,1.948-1.349a.158.158,0,0,1,.18.26l-1.942,1.344a16.08,16.08,0,0,0-5.774,11.536A18.128,18.128,0,0,0,69,72.867a.158.158,0,0,1-.15.208Z" transform="translate(-65.384 -42.628)" fill="#3b4248"/>
            </g>
            <g id="Group_40446" data-name="Group 40446" transform="translate(80.816 44.863)">
              <g id="Group_40444" data-name="Group 40444" transform="translate(0 8.342)">
                <path id="Path_89462" data-name="Path 89462" d="M95.56,67.13l29.33,32.537a6.522,6.522,0,0,0,8.738.285h0a6.5,6.5,0,0,0,.7-9.247l-20.068-35L95.56,67.115Z" transform="translate(-78.698 -55.71)" fill="#edbabb"/>
                <g id="Group_40443" data-name="Group 40443" transform="translate(0 31.321)">
                  <path id="Path_89463" data-name="Path 89463" d="M127.646,76.91,93.43,98.642l1.873,4.466,5.261.36,31.368-12.529c3.027-1.124,5.815-4.811,4.916-7.913h0c-1.034-3.567-5.785-7.584-9.187-6.1Z" transform="translate(-79.76 -76.609)" fill="#edbabb"/>
                  <g id="Group_40442" data-name="Group 40442" transform="translate(0 11.791)">
                    <path id="Path_89464" data-name="Path 89464" d="M91.444,88.588l-5.32,2.443a1.284,1.284,0,0,1-1.679-.585h0a1.273,1.273,0,0,1,.48-1.664l6.669-4.017a2.051,2.051,0,0,1,2.863.794l6.714,11.72,6.759-.7s-4.571,5.845-8.273,6.519a3.008,3.008,0,0,1-3.792-2.967l-2.623,4.047a1.426,1.426,0,0,1-2.128.3h0a1.429,1.429,0,0,1-.36-1.694L93.932,96.2l-2.5-7.614Z" transform="translate(-84.309 -84.476)" fill="#edbabb"/>
                    <path id="Path_89465" data-name="Path 89465" d="M91.467,86.68l-6.654,7.6a1.35,1.35,0,0,0-.12,1.634h0a1.379,1.379,0,0,0,2.023.33l8.408-6.909-3.642-2.638Z" transform="translate(-84.227 -83.377)" fill="#edbabb"/>
                    <path id="Path_89466" data-name="Path 89466" d="M91.733,89.01l-5.44,8.513a1.354,1.354,0,0,0,.12,1.634h0a1.357,1.357,0,0,0,2.038.015l7.284-8.093-4-2.068Z" transform="translate(-83.429 -82.215)" fill="#edbabb"/>
                  </g>
                </g>
              </g>
              <g id="Group_40445" data-name="Group 40445" transform="translate(6.656)">
                <path id="Path_89467" data-name="Path 89467" d="M99.9,50.8s11.795-4.017,18.165,7.868L129.305,74.4,107.454,88.745,88.75,64.93,99.9,50.782Z" transform="translate(-88.75 -50.144)" fill="#0f223c"/>
                <path id="Line_6" data-name="Line 6" d="M7.6,10.123a.158.158,0,0,1-.126-.062L-.128.094A.158.158,0,0,1-.1-.128.158.158,0,0,1,.124-.1l7.6,9.967a.158.158,0,0,1-.126.254Z" transform="translate(6.206 22.701)" fill="#3b4248"/>
              </g>
            </g>
          </g>
          <g id="Group_40455" data-name="Group 40455" transform="translate(56.523)">
            <path id="Path_89468" data-name="Path 89468" d="M78.5,19.9s1.244,7.988-4.961,11.57c-8.048,4.676-5.77,14.328-2.068,20.248l36.359-3.852c8.393-.315,14.193-6.894,8.018-17.535-.06-.1-1.978-.585-2.053-.7L78.486,19.89Z" transform="translate(-68.1 -4.611)" fill="#040701"/>
            <path id="Path_89469" data-name="Path 89469" d="M95.155,14.079S81.531,3.318,72.629,15.517C63.8,27.627,94.615,41.071,94.615,41.071l.525-26.992Z" transform="translate(-66.634 -9.695)" fill="#040701"/>
            <path id="Path_89470" data-name="Path 89470" d="M83.928,37.382,81.98,59.054l16.111.09L98.031,28Z" transform="translate(-61.177 -0.566)" fill="#edbabb"/>
            <path id="Path_89471" data-name="Path 89471" d="M82.45,45.84,93.705,34.42l-10.3,2.668Z" transform="translate(-60.943 2.635)" fill="#080000"/>
            <path id="Path_89472" data-name="Path 89472" d="M93.94,13.054a14.15,14.15,0,0,0-16.216,9.967c-1.454,4.811-3.027,11.27-2.233,15.2,1.349,6.609,6.01,11.27,14.553,10.7,0,0,9.727.734,13.833-13.174,3.882-13.114-2.113-21.027-9.937-22.676Z" transform="translate(-64.52 -8.162)" fill="#edbabb"/>
            <g id="Group_40453" data-name="Group 40453" transform="translate(5.859 12.021)">
              <path id="Path_89473" data-name="Path 89473" d="M79.822,28.71a.158.158,0,0,1-.06-.012l-1.694-.689a.158.158,0,0,1-.078-.225l.944-1.664a.158.158,0,0,1,.275.156l-.855,1.507,1.527.621a.158.158,0,0,1-.06.3Z" transform="translate(-68.955 -13.484)" fill="#321326"/>
              <path id="Path_89474" data-name="Path 89474" d="M86.038,19.29s-3.342-1.019-3.717.525c0,0-.225,1.049,2.7,1.873s4.136.9,4.616-.03-2.008-2.023-3.612-2.368Z" transform="translate(-66.868 -17.096)" fill="#040701"/>
              <path id="Path_89475" data-name="Path 89475" d="M77.688,17.737s3.057-.285,3.3,1.274c0,0,.15,1.064-2.533,1.244-1.948.135-2.623-.285-2.728-1-.135-.839.824-1.5,1.963-1.514Z" transform="translate(-70.163 -17.716)" fill="#040701"/>
              <path id="Path_89476" data-name="Path 89476" d="M78.576,29.05l6.115.854s-.285,2.473-3.4,2.053S78.576,29.05,78.576,29.05Z" transform="translate(-68.743 -12.064)" fill="#fff"/>
              <g id="Group_40452" data-name="Group 40452" transform="translate(0 3.242)">
                <path id="Path_89477" data-name="Path 89477" d="M82.466,26.461c-1.544-1.754-4.631-1.244-4.661-1.244l-.315-1.754c.165-.03,4.092-.689,6.31,1.813Z" transform="translate(-69.276 -18.142)" fill="#0f223c"/>
                <g id="Group_40449" data-name="Group 40449">
                  <path id="Path_89478" data-name="Path 89478" d="M82.546,25.755a5.291,5.291,0,1,1-10.536-.21,5.291,5.291,0,1,1,10.536.21Z" transform="translate(-72.009 -19.879)" fill="#0f223c"/>
                  <g id="Group_40448" data-name="Group 40448" clip-path="url(#clip-path)">
                    <path id="Path_89479" data-name="Path 89479" d="M85.216,18.655,69.33,33.747l-.3-11.54,4.616-3.777Z" transform="translate(-73.495 -20.602)" fill="#1a3963"/>
                  </g>
                </g>
                <g id="Group_40451" data-name="Group 40451" transform="translate(11.54 2.038)">
                  <path id="Path_89481" data-name="Path 89481" d="M91.236,27.115a5.764,5.764,0,1,1-5.65-5.875A5.771,5.771,0,0,1,91.236,27.115Z" transform="translate(-79.709 -21.239)" fill="#0f223c"/>
                  <g id="Group_40450" data-name="Group 40450" clip-path="url(#clip-path-2)">
                    <path id="Path_89482" data-name="Path 89482" d="M91.623,20.67,77.49,33.814,79.348,20.85Z" transform="translate(-80.816 -21.523)" fill="#1a3963"/>
                  </g>
                </g>
                <path id="Path_89484" data-name="Path 89484" d="M97.516,29.211,86.68,26.333l.045-1.783,10.821,2.878Z" transform="translate(-64.693 -17.55)" fill="#0f223c"/>
              </g>
            </g>
            <path id="Path_89485" data-name="Path 89485" d="M95.717,35.559s-5.9,1.619-1.544-11.615c2.8-8.483-7.913-11.165-7.913-11.165s17.37-3.837,22.3,10.3c4.032,11.57-5.74,18.884-5.74,18.884L95.7,35.574Z" transform="translate(-59.043 -8.395)" fill="#040701"/>
            <path id="Path_90567" data-name="Path 90567" d="M95.717,35.559s-5.9,1.619-1.544-11.615c2.8-8.483-7.913-11.165-7.913-11.165s17.37-3.837,22.3,10.3c4.032,11.57-5.74,18.884-5.74,18.884L95.7,35.574Z" transform="matrix(0.839, -0.545, 0.545, 0.839, -65.98, 42.809)" fill="#040701"/>
            <g id="Group_40454" data-name="Group 40454" transform="translate(35.333 22.45)">
              <path id="Path_89486" data-name="Path 89486" d="M101.559,31.921a5.16,5.16,0,1,1-2.638-6.8,5.158,5.158,0,0,1,2.638,6.8Z" transform="translate(-91.675 -24.675)" fill="#edbabb"/>
              <path id="Path_89487" data-name="Path 89487" d="M93.668,29.831a.158.158,0,0,1-.154-.2A3.384,3.384,0,0,1,95.2,27.264a4.22,4.22,0,0,1,3.187.015.158.158,0,1,1-.124.291,3.969,3.969,0,0,0-2.924-.023,3.086,3.086,0,0,0-1.522,2.163A.158.158,0,0,1,93.668,29.831Z" transform="translate(-90.678 -23.461)" fill="#321326"/>
            </g>
          </g>
        </g>
        <g id="Group_40462" data-name="Group 40462" transform="translate(17.453)">
          <g id="Group_40459" data-name="Group 40459">
            <g id="Group_40457" data-name="Group 40457">
              <rect id="Rectangle_10054" data-name="Rectangle 10054" width="43.868" height="17.565" rx="2.1" transform="translate(43.868 17.565) rotate(180)" fill="#ffd11a"/>
              <path id="Path_89488" data-name="Path 89488" d="M39.869,9.25v7.374L32.75,9.34Z" transform="translate(-1.247 4.613)" fill="#ffd11a"/>
            </g>
            <g id="Group_40458" data-name="Group 40458" transform="translate(7.082 6.243)">
              <path id="Line_7" data-name="Line 7" d="M15.163.333H0A.336.336,0,0,1-.34,0,.336.336,0,0,1,0-.34H15.163A.336.336,0,0,1,15.5,0,.336.336,0,0,1,15.163.333Z" transform="translate(0.34 0.34)" fill="#fff"/>
              <path id="Line_8" data-name="Line 8" d="M28.952.333H0A.336.336,0,0,1-.34,0,.336.336,0,0,1,0-.34H28.952A.336.336,0,0,1,29.288,0,.336.336,0,0,1,28.952.333Z" transform="translate(0.34 4.117)" fill="#fff"/>
            </g>
          </g>
          <g id="Group_40461" data-name="Group 40461" transform="translate(165.95 52.182)">
            <g id="Group_40460" data-name="Group 40460">
              <path id="Path_89489" data-name="Path 89489" d="M137.553,71.345a18.414,18.414,0,1,1,21.432-14.792,18.431,18.431,0,0,1-21.432,14.792Z" transform="translate(-122.458 -34.818)" fill="#ffd11a"/>
              <path id="Path_89490" data-name="Path 89490" d="M126.886,50.76l-4.226,9.922,10.566-3.4Z" transform="translate(-122.357 -26.867)" fill="#ffd11a"/>
            </g>
            <path id="Path_89491" data-name="Path 89491" d="M150.285,48.146h-3.837a.473.473,0,0,1-.48-.48V43.83a.473.473,0,0,0-.48-.48h-3.867a.473.473,0,0,0-.48.48v3.837h0a.473.473,0,0,1-.48.48h-3.837a.473.473,0,0,1-.48-.48V43.83a.473.473,0,0,0-.48-.48H132.03a.473.473,0,0,0-.48.48v3.852a.473.473,0,0,1-.48.48l-3.852.03a.473.473,0,0,0-.48.48v3.822a.473.473,0,0,0,.48.48h3.837a.473.473,0,0,0,.48-.48V48.655h0a.473.473,0,0,1,.48-.48h3.837a.473.473,0,0,1,.48.48v3.837a.473.473,0,0,0,.48.48h3.822a.473.473,0,0,0,.48-.48V48.64a.5.5,0,0,1,.495-.48h3.852a.473.473,0,0,1,.48.48v3.837a.473.473,0,0,0,.48.48h3.837a.473.473,0,0,0,.48-.48V48.64a.473.473,0,0,0-.48-.48Z" transform="translate(-120.322 -30.562)" fill="#fff" fill-rule="evenodd"/>
          </g>
        </g>
      </g>
    </g>
  </g>
</svg>
