<svg xmlns="http://www.w3.org/2000/svg" width="14" height="16" viewBox="0 0 14 16">
  <path id="Path_42820" data-name="Path 42820" d="M6.75-4.25h3.5A.747.747,0,0,0,11-5a.734.734,0,0,0-.719-.75H6.719A.734.734,0,0,0,6-5,.747.747,0,0,0,6.75-4.25ZM10.656-3H9.344A.347.347,0,0,0,9-2.656v1.313A.347.347,0,0,0,9.344-1h1.313A.347.347,0,0,0,11-1.344V-2.656A.347.347,0,0,0,10.656-3ZM3.344-4H4.656A.347.347,0,0,0,5-4.344V-5.656A.347.347,0,0,0,4.656-6H3.344A.347.347,0,0,0,3-5.656v1.313A.347.347,0,0,0,3.344-4ZM12-12H10.75v-1.25a.734.734,0,0,0-.719-.75.723.723,0,0,0-.531.219.681.681,0,0,0-.25.531V-12H4.75v-1.25A.747.747,0,0,0,4-14a.747.747,0,0,0-.75.75V-12H2a2.02,2.02,0,0,0-1.406.594A2.02,2.02,0,0,0,0-10V0A2.02,2.02,0,0,0,.594,1.406,2.02,2.02,0,0,0,2,2H12a2.02,2.02,0,0,0,1.406-.594A2.02,2.02,0,0,0,14,0V-10a2.02,2.02,0,0,0-.594-1.406A2.02,2.02,0,0,0,12-12Zm.5,12a.481.481,0,0,1-.5.5H2A.481.481,0,0,1,1.5,0V-8h11ZM3.75-1.25h3.5A.747.747,0,0,0,8-2a.734.734,0,0,0-.719-.75H3.719A.734.734,0,0,0,3-2,.747.747,0,0,0,3.75-1.25Z" transform="translate(0 14)" fill="#212121" />
</svg>