<svg xmlns="http://www.w3.org/2000/svg" width="12" height="12" viewBox="0 0 12 12">
  <path id="Path_89311" data-name="Path 89311" d="M6-10.5a6.143,6.143,0,0,1,3,.8,6.2,6.2,0,0,1,2.2,2.2,6.075,6.075,0,0,1,.8,3,6.075,6.075,0,0,1-.8,3A6.2,6.2,0,0,1,9,.7a6.143,6.143,0,0,1-3,.8A6.143,6.143,0,0,1,3,.7,6.2,6.2,0,0,1,.8-1.5a6.075,6.075,0,0,1-.8-3,6.075,6.075,0,0,1,.8-3A6.2,6.2,0,0,1,3-9.7,6.143,6.143,0,0,1,6-10.5ZM5.438-7.687V-4.5a.524.524,0,0,0,.258.469l2.25,1.5A.54.54,0,0,0,8.719-2.7a.54.54,0,0,0-.164-.773L6.563-4.8V-7.687A.56.56,0,0,0,6-8.25.56.56,0,0,0,5.438-7.687Z" transform="translate(0 10.5)" fill="#bdbdbd"/>
</svg>
