<svg xmlns="http://www.w3.org/2000/svg" width="15.963" height="16" viewBox="0 0 15.963 16">
  <path id="Path_89324" data-name="Path 89324" d="M-14-11.247v5.479a2.247,2.247,0,0,0,.694,1.644l6.429,6.429A2.247,2.247,0,0,0-5.233,3a2.328,2.328,0,0,0,1.644-.694L1.306-2.589a2.31,2.31,0,0,0,.658-1.644,2.394,2.394,0,0,0-.658-1.644l-6.429-6.429A2.289,2.289,0,0,0-6.8-13h-5.443a1.906,1.906,0,0,0-1.242.511A1.906,1.906,0,0,0-14-11.247Zm4.091,1.169a1.138,1.138,0,0,1,.84.329,1.138,1.138,0,0,1,.329.84,1.138,1.138,0,0,1-.329.84,1.138,1.138,0,0,1-.84.329,1.138,1.138,0,0,1-.84-.329,1.138,1.138,0,0,1-.329-.84,1.138,1.138,0,0,1,.329-.84A1.138,1.138,0,0,1-9.909-10.078Z" transform="translate(14 13)" fill="#1c9a18"/>
</svg>
