<svg xmlns="http://www.w3.org/2000/svg" xmlns:xlink="http://www.w3.org/1999/xlink" width="24" height="24" viewBox="0 0 24 24">
  <defs>
    <clipPath id="clip-path">
      <path id="Path_118226" data-name="Path 118226" d="M287.857,287.1a12.1,12.1,0,0,1-8.5-3.5,10.6,10.6,0,0,1-3-5.415,12.151,12.151,0,0,1,.27-6.281,12.587,12.587,0,0,1,3.271-5.378,11.456,11.456,0,0,1,7.965-3.422,11.289,11.289,0,0,1,8.35,3.572,12.066,12.066,0,0,1,3.849,8.5,10.858,10.858,0,0,1-3.463,8.425A11.673,11.673,0,0,1,287.857,287.1Z" transform="translate(-276.061 -263.105)"/>
    </clipPath>
  </defs>
  <g id="Group_57411" data-name="Group 57411" transform="translate(-276.061 -263.104)">
    <g id="Group_57389" data-name="Group 57389" transform="translate(276.061 263.105)">
      <path id="Path_118204" data-name="Path 118204" d="M287.857,287.1a12.1,12.1,0,0,1-8.5-3.5,10.6,10.6,0,0,1-3-5.415,12.151,12.151,0,0,1,.27-6.281,12.587,12.587,0,0,1,3.271-5.378,11.456,11.456,0,0,1,7.965-3.422,11.289,11.289,0,0,1,8.35,3.572,12.066,12.066,0,0,1,3.849,8.5,10.858,10.858,0,0,1-3.463,8.425A11.673,11.673,0,0,1,287.857,287.1Z" transform="translate(-276.061 -263.105)" fill="#fdedee"/>
    </g>
    <g id="Group_57410" data-name="Group 57410" transform="translate(276.061 263.105)">
      <g id="Group_57409" data-name="Group 57409" transform="translate(0 0)" clip-path="url(#clip-path)">
        <g id="Group_57396" data-name="Group 57396" transform="translate(3.176 4.355)">
          <g id="Group_57391" data-name="Group 57391" transform="translate(1.279)">
            <path id="Path_118205" data-name="Path 118205" d="M322.933,300.694a1.855,1.855,0,0,0-2.79-.356c-2.228,1.774.243,3.438-2.183,6.52-1.935,2.458,2.123,3.319.121,5.69-1.536,1.82.97,4.03,3.821,3.971S324.873,304.132,322.933,300.694Z" transform="translate(-316.86 -299.839)" fill="#352c38"/>
            <g id="Group_57390" data-name="Group 57390" transform="translate(0 0.029)">
              <path id="Path_118206" data-name="Path 118206" d="M318.872,301.072a1.686,1.686,0,0,0-.132-.169,2.475,2.475,0,0,0-.448-.4,1.687,1.687,0,0,0-.866-.316,1.89,1.89,0,0,0-1.131.338,2.834,2.834,0,0,0-.968,1,3.292,3.292,0,0,0-.283,1.517,7.693,7.693,0,0,1-.155,1.723,4.87,4.87,0,0,1-.748,1.642c-.084.127-.182.244-.273.364s-.2.235-.289.343a3.023,3.023,0,0,0-.254.346l-.1.184c-.026.064-.056.127-.08.191a1.558,1.558,0,0,0-.064.8,2.755,2.755,0,0,0,.28.764,6.529,6.529,0,0,1,.678,1.474,1.638,1.638,0,0,1,0,.771,2.066,2.066,0,0,1-.307.648,5.293,5.293,0,0,1-.421.5,1.983,1.983,0,0,0-.309.468,1.576,1.576,0,0,0-.132.894,1.947,1.947,0,0,0,.171.57c.027.064.056.11.072.142l.026.048-.029-.047c-.018-.031-.049-.075-.081-.138a1.855,1.855,0,0,1-.206-.569,1.639,1.639,0,0,1,.1-.936,2.078,2.078,0,0,1,.3-.508,5.756,5.756,0,0,0,.4-.5,1.924,1.924,0,0,0,.269-.609,1.477,1.477,0,0,0-.017-.7,7.234,7.234,0,0,0-.694-1.421,2.955,2.955,0,0,1-.307-.819,1.774,1.774,0,0,1,.064-.909c.026-.073.059-.143.088-.215s.073-.136.11-.2a3.275,3.275,0,0,1,.268-.374c.1-.124.189-.229.284-.344s.18-.232.261-.353a4.648,4.648,0,0,0,.729-1.56,7.505,7.505,0,0,0,.164-1.678,5.491,5.491,0,0,1,.071-.828,2.4,2.4,0,0,1,.267-.765,2.991,2.991,0,0,1,1.051-1.035,2.327,2.327,0,0,1,.61-.266,1.683,1.683,0,0,1,.6-.048,1.752,1.752,0,0,1,.887.367,2.3,2.3,0,0,1,.43.434A1.71,1.71,0,0,1,318.872,301.072Z" transform="translate(-312.791 -300.086)" fill="#352c38"/>
            </g>
          </g>
          <g id="Group_57395" data-name="Group 57395" transform="translate(0 8.491)">
            <g id="Group_57392" data-name="Group 57392" transform="translate(0.812)">
              <path id="Path_118207" data-name="Path 118207" d="M319.547,375.924c-.828-.663-.059-4.459-.059-4.459H314.8s.769,3.8-.059,4.459-6.265.583-5.766,7.26h15.955C325.543,376.49,320.375,376.587,319.547,375.924Z" transform="translate(-308.939 -371.465)" fill="#ffb8a1"/>
              <path id="Path_118208" data-name="Path 118208" d="M361.743,375.544c-.409-1.169.18-4.08.18-4.08h-4.692a17.762,17.762,0,0,1,.324,2.861A6.983,6.983,0,0,0,361.743,375.544Z" transform="translate(-351.374 -371.464)" fill="#eba38c"/>
              <path id="Path_118209" data-name="Path 118209" d="M318.575,440.869c-3,0-6.009-.072-9.013-.057a6.716,6.716,0,0,0-.429,2,29.324,29.324,0,0,0,16.009.148,7.141,7.141,0,0,0-.348-2.086h-6.219Z" transform="translate(-309.11 -432.59)" fill="#efa084"/>
            </g>
            <g id="Group_57394" data-name="Group 57394" transform="translate(0 4.914)">
              <path id="Path_118210" data-name="Path 118210" d="M339.216,413.622a6.678,6.678,0,0,0-1.807-.658s-.692,2.092-3.824,2.108c-3.133-.017-3.824-2.108-3.824-2.108a6.914,6.914,0,0,0-1.975.68,10.879,10.879,0,0,1-.105,6.146l5.868.043h.073l5.693-.043A10.857,10.857,0,0,1,339.216,413.622Z" transform="translate(-324.595 -412.958)" fill="#fc6a5a"/>
              <g id="Group_57393" data-name="Group 57393">
                <path id="Path_118211" data-name="Path 118211" d="M307.026,416.106l.384-3.186s-3.274-.336-5.165,4.127a8.151,8.151,0,0,0,4.388,1.569Z" transform="translate(-302.245 -412.914)" fill="#fc6a5a"/>
                <path id="Path_118212" data-name="Path 118212" d="M408.52,416.106l-.384-3.186s3.274-.336,5.165,4.127a8.151,8.151,0,0,1-4.388,1.569Z" transform="translate(-395.293 -412.914)" fill="#fc6a5a"/>
              </g>
            </g>
          </g>
        </g>
        <g id="Group_57408" data-name="Group 57408" transform="translate(6.898 3.03)">
          <g id="Group_57402" data-name="Group 57402">
            <g id="Group_57397" data-name="Group 57397" transform="translate(0 2.019)">
              <path id="Path_118213" data-name="Path 118213" d="M333.017,346.986c.23.823.878,1.552,1.387,1.416s.687-1.086.457-1.909-.781-1.207-1.29-1.071S332.787,346.164,333.017,346.986Z" transform="translate(-332.935 -340.69)" fill="#eba38c"/>
              <path id="Path_118214" data-name="Path 118214" d="M405.032,346.986c-.23.823-.878,1.552-1.387,1.416s-.687-1.086-.457-1.909.781-1.207,1.29-1.071S405.262,346.164,405.032,346.986Z" transform="translate(-394.58 -340.69)" fill="#d67558"/>
              <path id="Path_118215" data-name="Path 118215" d="M341.548,310.519c0,3.012,1.9,6.087,4.255,6.087s4.254-3.075,4.254-6.087-1.9-4.821-4.254-4.821S341.548,307.507,341.548,310.519Z" transform="translate(-340.503 -305.698)" fill="#ffb8a1"/>
            </g>
            <g id="Group_57401" data-name="Group 57401" transform="translate(0.625)">
              <g id="Group_57400" data-name="Group 57400" transform="translate(2.807)">
                <path id="Path_118216" data-name="Path 118216" d="M361.3,291.142s-.252,1,.157.913c.656-.136,2.19-1.207,2.269.332.121,2.371.849,1.719,1.637,1.956s-.546,2.312.546,3.023.177.886-.849,3.141-.305,3.971,1.395,4.445,1.293-1.038,3.032-.652c.445.1.364.119.728.474,0,0,1.334-1.9-.364-2.489s2-2.845.485-4.327,1.273-2.964-1.395-4.564c-1.988-1.193-.243-1.719-1.819-3.556C366.368,288.957,362.213,287.171,361.3,291.142Z" transform="translate(-361.226 -288.666)" fill="#352c38"/>
                <g id="Group_57398" data-name="Group 57398" transform="translate(0.766 2.085)">
                  <path id="Path_118217" data-name="Path 118217" d="M367.544,306.375c.121-.032.24-.067.364-.091a1.105,1.105,0,0,1,.378-.023.807.807,0,0,1,.356.138l.148.115c.047.042.089.092.134.138s.074.1.112.154.059.111.089.167.046.117.069.176.034.12.051.181a4.733,4.733,0,0,1,.1.734l.027.365c.009.121.021.241.038.36a2.887,2.887,0,0,0,.068.35l.024.085.012.042v.005l0-.007h0v0l0,.01.01.021a.481.481,0,0,0,.039.078c.015.019.027.039.043.058a.626.626,0,0,0,.272.173,2.7,2.7,0,0,0,.347.091,3.55,3.55,0,0,1,.372.1,1.147,1.147,0,0,1,.362.189l-.015-.011a.454.454,0,0,1,.073.052.316.316,0,0,1,.062.072.345.345,0,0,1,.052.176.661.661,0,0,1-.016.155,1.05,1.05,0,0,0-.021.114v.012l0,.012c-.065.233-.127.466-.171.7a3.156,3.156,0,0,0-.064.7c0,.058.01.114.014.171s.021.111.031.167.034.106.05.16.048.1.072.149.061.092.095.135.073.083.115.119.085.072.132.1l.147.088.024.014.01.012a.711.711,0,0,1,.168.37.594.594,0,0,1-.093.4l-.37.584c-.246.389-.487.779-.7,1.18-.108.2-.211.4-.3.611-.044.1-.1.206-.135.312s-.084.21-.119.318-.071.215-.1.324-.055.219-.08.329-.037.222-.057.333-.021.224-.032.337v-.007l.016.185.028.184a3.118,3.118,0,0,0,.091.361c.017.06.041.117.062.176s.049.114.074.172.057.111.086.167.065.107.1.16.073.1.11.153.081.1.122.145.089.09.133.135.1.082.145.124.1.074.155.111.11.065.165.1l.174.083.182.066-.186-.055-.18-.073c-.057-.03-.116-.057-.173-.089s-.111-.068-.163-.106-.1-.077-.154-.119-.1-.085-.143-.132-.092-.092-.132-.143-.084-.1-.12-.152-.077-.1-.109-.161-.069-.11-.1-.168-.061-.115-.085-.174-.052-.119-.073-.18a3.256,3.256,0,0,1-.106-.373l-.035-.191-.022-.193v-.007c.008-.116.011-.232.023-.348s.025-.232.049-.345.041-.229.072-.341.057-.226.094-.336.073-.221.113-.33.086-.216.129-.324c.093-.213.2-.422.3-.627.218-.41.458-.806.7-1.2l.364-.588a.372.372,0,0,0,.059-.256.492.492,0,0,0-.115-.248l.034.026-.172-.1c-.056-.037-.106-.082-.159-.123s-.093-.1-.139-.146-.076-.111-.114-.166-.059-.12-.085-.181-.043-.125-.058-.188-.028-.127-.034-.191-.015-.128-.014-.192a3.37,3.37,0,0,1,.074-.747c.049-.243.114-.481.182-.715l0,.024a.553.553,0,0,1,.012-.082l.014-.065a.474.474,0,0,0,.013-.108.145.145,0,0,0-.02-.076.118.118,0,0,0-.025-.029.255.255,0,0,0-.036-.027l-.016-.011a1.54,1.54,0,0,0-.645-.249,2.7,2.7,0,0,1-.372-.109.806.806,0,0,1-.34-.235c-.022-.029-.042-.062-.062-.093a.586.586,0,0,1-.041-.087l-.009-.021,0-.011-.005-.014v-.006l-.012-.046-.024-.092a3.035,3.035,0,0,1-.061-.37c-.014-.123-.022-.247-.029-.369l-.017-.366c-.005-.122-.013-.242-.023-.363s-.028-.239-.049-.357c-.014-.058-.025-.117-.041-.174s-.036-.114-.057-.169-.048-.109-.077-.161-.062-.1-.1-.149-.075-.09-.118-.133l-.14-.119a.752.752,0,0,0-.326-.144,1.148,1.148,0,0,0-.367,0C367.788,306.323,367.666,306.351,367.544,306.375Z" transform="translate(-367.544 -306.254)" fill="#352c38"/>
                </g>
                <g id="Group_57399" data-name="Group 57399" transform="translate(0.578 0)">
                  <path id="Path_118218" data-name="Path 118218" d="M374.768,304.816c.054-.154.118-.306.183-.457s.128-.3.185-.454c.025-.077.055-.153.073-.232a1.926,1.926,0,0,0,.047-.236,1.145,1.145,0,0,0,0-.237.463.463,0,0,0-.023-.115.4.4,0,0,0-.039-.11.628.628,0,0,0-.054-.1l-.07-.094c-.026-.029-.057-.055-.085-.082l-.043-.041-.05-.034a1.171,1.171,0,0,0-.2-.124,1.773,1.773,0,0,0-.227-.078,2.125,2.125,0,0,1-.243-.081.572.572,0,0,1-.227-.156.5.5,0,0,1-.106-.257,1.291,1.291,0,0,1,0-.133l.014-.129v-.005l.054-.182.069-.177.081-.171.09-.165q.1-.162.2-.318l.208-.307c.069-.1.137-.2.2-.306s.125-.207.181-.313c.027-.053.051-.108.077-.161s.042-.11.064-.165.032-.112.048-.168l.03-.17v.012l-.007-.12-.019-.119-.031-.118c-.014-.039-.026-.078-.042-.116a2.954,2.954,0,0,0-.239-.448c-.092-.147-.19-.294-.28-.45q-.068-.116-.128-.239c-.039-.082-.074-.167-.105-.253l0-.008v-.005l-.031-.223c0-.075,0-.15,0-.225s.015-.148.023-.221l.041-.215c.033-.141.07-.279.107-.414s.07-.27.1-.4l0,.01c0-.076.013-.151.008-.227a1.423,1.423,0,0,0-.022-.225,1.5,1.5,0,0,0-.052-.221,2.1,2.1,0,0,0-.082-.213,1.99,1.99,0,0,0-.11-.2,1.781,1.781,0,0,0-.131-.191c-.044-.064-.1-.12-.148-.18s-.107-.114-.166-.167a3.366,3.366,0,0,0-.369-.3c-.063-.048-.133-.088-.2-.132s-.138-.081-.208-.12l-.107-.055-.058-.031-.054-.03a1.23,1.23,0,0,1-.115-.074c-.039-.027-.071-.057-.106-.086a.97.97,0,0,1-.175-.214.583.583,0,0,1-.086-.284v.012c-.032-.287-.054-.574-.088-.856-.017-.141-.035-.282-.061-.42a3.975,3.975,0,0,0-.094-.409c-.018-.067-.043-.132-.064-.2s-.051-.129-.08-.191a2.092,2.092,0,0,0-.21-.355l-.062-.083-.069-.077a1.521,1.521,0,0,0-.146-.147c-.048-.048-.1-.091-.161-.139s-.113-.089-.17-.13-.114-.083-.175-.12-.119-.078-.182-.111a3.819,3.819,0,0,0-.383-.193c-.131-.058-.266-.106-.4-.151l-.207-.058-.211-.046a4.086,4.086,0,0,0-.428-.057c-.072-.009-.144-.008-.216-.011s-.144,0-.216,0-.144,0-.216.013-.144.011-.215.025c-.143.019-.285.049-.426.081H367.9l-.172.025-.17.038-.166.052-.161.066-.155.079c-.049.031-.1.059-.148.092s-.095.067-.14.1-.09.074-.131.115-.084.081-.121.125-.077.087-.111.134-.07.092-.1.142-.063.1-.089.149-.056.1-.079.155-.048.106-.068.161-.039.109-.056.165l-.046.168.037-.171c.015-.056.033-.112.049-.168s.04-.11.06-.165.048-.107.072-.161.056-.1.084-.155.065-.1.1-.149.072-.094.108-.141.08-.088.119-.132.087-.082.13-.123.094-.075.14-.112.1-.067.15-.1l.158-.088.166-.074.172-.06.176-.046.18-.032h-.008a4.349,4.349,0,0,1,.436-.1c.073-.015.148-.021.222-.03s.148-.015.223-.018.149-.008.224-.006.15,0,.224.006a4.238,4.238,0,0,1,.446.05l.22.044.217.056a4.479,4.479,0,0,1,.423.149,4.025,4.025,0,0,1,.4.193c.067.034.13.073.193.113s.127.079.188.124.124.086.18.132.116.089.172.142a1.688,1.688,0,0,1,.163.159l.077.085.069.091a2.3,2.3,0,0,1,.233.387c.032.068.059.137.088.206s.05.14.07.211a4.141,4.141,0,0,1,.1.43c.028.144.048.288.066.432.036.288.061.574.094.857v.012a.371.371,0,0,0,.057.174.748.748,0,0,0,.135.161c.029.022.056.048.085.068a.891.891,0,0,0,.093.059l.054.03.051.026.113.058c.074.04.147.082.22.125s.144.088.212.138a3.618,3.618,0,0,1,.4.316c.064.056.121.119.181.179s.115.126.163.2a2.032,2.032,0,0,1,.143.212,2.22,2.22,0,0,1,.121.227,2.332,2.332,0,0,1,.09.241,1.7,1.7,0,0,1,.057.251,1.64,1.64,0,0,1,.024.257c0,.086-.007.171-.011.257v.01c-.032.141-.066.281-.105.418s-.075.271-.108.4l-.04.2-.022.2c0,.066,0,.132,0,.2l.026.2,0-.013c.028.078.058.156.094.232s.076.151.118.225c.085.149.18.295.273.446a3.147,3.147,0,0,1,.252.481c.017.043.031.087.046.131s.023.09.035.136l.022.139.007.141v.012l-.038.191c-.019.062-.036.124-.057.185s-.047.12-.073.177-.055.115-.086.17c-.061.111-.127.218-.2.323s-.14.206-.212.307l-.213.3q-.1.151-.2.306l-.09.157-.081.161-.069.165-.054.169v-.005l-.015.114c0,.037,0,.075,0,.111a.37.37,0,0,0,.073.193.447.447,0,0,0,.177.125,2.412,2.412,0,0,0,.228.083,1.83,1.83,0,0,1,.242.093,1.263,1.263,0,0,1,.215.141l.052.038.046.046c.03.031.062.06.089.093l.074.107a.715.715,0,0,1,.056.116.462.462,0,0,1,.038.122.523.523,0,0,1,.02.126,1.211,1.211,0,0,1-.008.252,1.962,1.962,0,0,1-.058.242c-.021.08-.054.156-.082.234C375.054,304.227,374.891,304.512,374.768,304.816Z" transform="translate(-365.991 -288.669)" fill="#352c38"/>
                </g>
              </g>
              <path id="Path_118219" data-name="Path 118219" d="M341.09,305.948s1.274,2.292-2.082,4.228a5.291,5.291,0,0,0-.243,2.292s-.529-.418-.669-1.948S339.129,304.979,341.09,305.948Z" transform="translate(-338.085 -303.768)" fill="#352c38"/>
            </g>
          </g>
          <g id="Group_57407" data-name="Group 57407" transform="translate(1.885 5.914)">
            <g id="Group_57406" data-name="Group 57406">
              <g id="Group_57403" data-name="Group 57403" transform="translate(3.422 2.139)">
                <path id="Path_118220" data-name="Path 118220" d="M376.926,356.6c.026.051.049.1.072.153s.048.1.069.148.051.1.072.144l.076.139.081.134c.031.042.059.085.088.128l.1.121c.035.038.07.075.1.114l.1.112-.114.071c-.069.043-.14.081-.21.121s-.143.076-.215.114a3.544,3.544,0,0,1-.454.192,3.442,3.442,0,0,1,.358-.334c.064-.05.126-.1.191-.149s.13-.1.2-.141l-.018.182c-.042-.042-.083-.085-.124-.128l-.107-.141c-.03-.05-.061-.1-.088-.152l-.071-.159-.052-.164c-.014-.055-.023-.112-.034-.167s-.011-.114-.017-.17S376.923,356.656,376.926,356.6Z" transform="translate(-376.686 -356.599)" fill="#de8569"/>
              </g>
              <path id="Path_118221" data-name="Path 118221" d="M366.519,376.836a1.911,1.911,0,0,0,2.781.046" transform="translate(-364.33 -372.298)" fill="#fff"/>
              <g id="Group_57404" data-name="Group 57404" transform="translate(3.823)">
                <path id="Path_118222" data-name="Path 118222" d="M379.993,339.543a.27.27,0,0,1,.009-.037.783.783,0,0,1,.036-.1,1.219,1.219,0,0,1,.076-.154,1.37,1.37,0,0,1,.13-.184,1.465,1.465,0,0,1,.193-.193,1.52,1.52,0,0,1,.125-.088l.067-.044.074-.035a1.57,1.57,0,0,1,.155-.067c.055-.016.112-.031.169-.045a.827.827,0,0,1,.176-.024,1.437,1.437,0,0,1,.179-.007l.176.02c.029,0,.059.007.087.012l.082.024a1.465,1.465,0,0,1,.31.116,2.194,2.194,0,0,1,.262.15c.076.057.145.113.207.165a1.076,1.076,0,0,1,.156.157c.044.049.079.094.109.131.058.073.087.118.087.118s-.054-.018-.14-.053c-.043-.018-.1-.039-.152-.066a1.873,1.873,0,0,0-.194-.083c-.072-.027-.147-.058-.225-.091s-.166-.051-.25-.082a1.984,1.984,0,0,0-.264-.065l-.067-.016-.067-.005-.135-.013a1.02,1.02,0,0,0-.133,0,.68.68,0,0,0-.132.009c-.043.008-.086.015-.129.02s-.082.025-.124.034l-.062.017-.058.024c-.038.016-.078.029-.115.047-.072.037-.144.07-.2.111s-.12.077-.173.11-.1.068-.13.1-.065.051-.084.067Z" transform="translate(-379.993 -338.558)" fill="#161114"/>
              </g>
              <g id="Group_57405" data-name="Group 57405">
                <path id="Path_118223" data-name="Path 118223" d="M348.474,339.543a.268.268,0,0,1,.009-.037.782.782,0,0,1,.036-.1,1.223,1.223,0,0,1,.076-.154,1.372,1.372,0,0,1,.13-.184,1.467,1.467,0,0,1,.193-.193,1.525,1.525,0,0,1,.125-.088l.067-.044.074-.035a1.573,1.573,0,0,1,.155-.067c.055-.016.112-.031.169-.045a.827.827,0,0,1,.176-.024,1.437,1.437,0,0,1,.179-.007l.176.02c.029,0,.059.007.087.012l.082.024a1.465,1.465,0,0,1,.31.116,2.2,2.2,0,0,1,.262.15c.076.057.145.113.207.165a1.074,1.074,0,0,1,.156.157c.044.049.079.094.109.131.058.073.087.118.087.118s-.054-.018-.14-.053c-.043-.018-.1-.039-.152-.066a1.881,1.881,0,0,0-.194-.083c-.072-.027-.147-.058-.225-.091s-.166-.051-.25-.082a1.983,1.983,0,0,0-.264-.065l-.067-.016-.067-.005-.135-.013a1.02,1.02,0,0,0-.133,0,.68.68,0,0,0-.132.009c-.043.008-.086.015-.129.02s-.082.025-.124.034l-.062.017-.058.024c-.038.016-.078.029-.115.047-.072.037-.144.07-.2.111s-.12.077-.173.11-.1.068-.13.1-.065.051-.084.067Z" transform="translate(-348.474 -338.558)" fill="#161114"/>
              </g>
              <path id="Path_118224" data-name="Path 118224" d="M360.071,351.836c0,.327-.093.593-.207.593s-.207-.265-.207-.593.093-.593.207-.593S360.071,351.508,360.071,351.836Z" transform="translate(-358.301 -349.739)" fill="#161114"/>
              <path id="Path_118225" data-name="Path 118225" d="M389.87,351.159c0,.327-.093.593-.207.593s-.207-.265-.207-.593.093-.593.207-.593S389.87,350.831,389.87,351.159Z" transform="translate(-384.485 -349.143)" fill="#161114"/>
            </g>
          </g>
        </g>
      </g>
    </g>
  </g>
</svg>
