<svg xmlns="http://www.w3.org/2000/svg" width="80" height="80" viewBox="0 0 80 80">
  <g id="Group_41793" data-name="Group 41793" transform="translate(-100.58 -370.87)">
    <path id="Path_90566" data-name="Path 90566" d="M24.781,0H55.219A24.781,24.781,0,0,1,80,24.781V55.219A24.781,24.781,0,0,1,55.219,80H24.781A24.781,24.781,0,0,1,0,55.219V24.781A24.781,24.781,0,0,1,24.781,0Z" transform="translate(100.58 370.87)" fill="#0f223c"/>
    <g id="Group_41792" data-name="Group 41792" transform="translate(111.688 380.318)">
      <path id="Path_90546" data-name="Path 90546" d="M225.812,404.883a17.307,17.307,0,0,0-7.032.009v-.009a3.516,3.516,0,0,1,7.032,0Z" transform="translate(-193.274 -401.37)" fill="#ffd11a"/>
      <g id="Group_41791" data-name="Group 41791" transform="translate(0 3.909)">
        <path id="Path_90547" data-name="Path 90547" d="M183.125,428.936h-.44a17.407,17.407,0,0,0-13.707-14.59,17.309,17.309,0,0,0-7.032.009,17.4,17.4,0,0,0-13.667,14.581h-.446a11.426,11.426,0,0,0-11.393,11.393v4.321a1.466,1.466,0,0,0,1.459,1.462h4.451v-.09a9.042,9.042,0,0,1,18.084,0v.09H170.61v-.09a9.042,9.042,0,0,1,18.084,0v.09h4.371a1.471,1.471,0,0,0,1.462-1.462v-4.321a11.427,11.427,0,0,0-11.4-11.393Zm-29.5,0a12.094,12.094,0,0,1,23.7,0Z" transform="translate(-136.44 -413.99)" fill="#fff"/>
        <path id="Path_90548" data-name="Path 90548" d="M178.646,506.408v.087a4.934,4.934,0,0,1-9.866,0v-.087a4.936,4.936,0,1,1,9.872,0Z" transform="translate(-158.762 -474.372)" fill="#ffd11a"/>
        <path id="Path_90549" data-name="Path 90549" d="M269.876,506.408v.087a4.934,4.934,0,0,1-9.866,0v-.087a4.936,4.936,0,1,1,9.872,0Z" transform="translate(-221.732 -474.372)" fill="#ffd11a"/>
        <path id="Path_90550" data-name="Path 90550" d="M194.071,560.435a17.336,17.336,0,0,1-16-10.6,2.64,2.64,0,0,1,4.863-2.057,12.087,12.087,0,0,0,22.238.068,2.641,2.641,0,1,1,4.851,2.088,17.35,17.35,0,0,1-15.956,10.507Z" transform="translate(-165.033 -505.219)" fill="#ffd11a"/>
      </g>
      <rect id="Rectangle_10770" data-name="Rectangle 10770" width="2.763" height="7.828" rx="1.382" transform="translate(32.206 13.286)" fill="#fff"/>
    </g>
  </g>
</svg>
