<svg xmlns="http://www.w3.org/2000/svg" width="10.5" height="12" viewBox="0 0 10.5 12">
  <path id="Path_89313" data-name="Path 89313" d="M5.25-4.5a2.912,2.912,0,0,0,1.5-.4A3.1,3.1,0,0,0,7.852-6a3,3,0,0,0,.4-1.5,3,3,0,0,0-.4-1.5,3.1,3.1,0,0,0-1.1-1.1,2.912,2.912,0,0,0-1.5-.4,2.912,2.912,0,0,0-1.5.4A3.1,3.1,0,0,0,2.648-9a3,3,0,0,0-.4,1.5,3,3,0,0,0,.4,1.5,3.1,3.1,0,0,0,1.1,1.1A2.912,2.912,0,0,0,5.25-4.5ZM4.172-3.375A4.224,4.224,0,0,0,1.219-2.156,4.224,4.224,0,0,0,0,.8a.627.627,0,0,0,.211.492A.627.627,0,0,0,.7,1.5H9.8a.627.627,0,0,0,.492-.211A.627.627,0,0,0,10.5.8,4.224,4.224,0,0,0,9.281-2.156,4.224,4.224,0,0,0,6.328-3.375Z" transform="translate(0 10.5)" fill="#bdbdbd"/>
</svg>
