<svg version="1.2" xmlns="http://www.w3.org/2000/svg" viewBox="0 0 1500 1000" width="1500" height="1000">
	<defs>
		<clipPath clipPathUnits="userSpaceOnUse" id="cp1">
			<path d="m1170.04 603.87c-2.45-7.9-31.88-43.99-42.03-52.92-10.16-8.94-19.27-10.31-36.09-11.69-16.81-1.37-71.81-3.44-79.87-3.44-8.06 0-63.04 2.07-79.86 3.44-16.82 1.38-25.92 2.75-36.08 11.69-10.16 8.93-39.59 45.02-42.04 52.92-2.45 7.91 3.16 12.03 23.82 9.63 20.67-2.41 134.16-2.07 134.16-2.07 0 0 113.51-0.34 134.18 2.07 20.66 2.4 26.27-1.72 23.81-9.63z"/>
		</clipPath>
		<clipPath clipPathUnits="userSpaceOnUse" id="cp2">
			<path d="m769.47 791.99c0 16.64-13.61 30.25-30.24 30.25l-223.29-0.01c-16.64 0-30.25-13.6-30.25-30.24v-471.01c0-16.63 13.61-30.24 30.25-30.23h29.5v6.77c0 12.11 9.9 22.01 22.01 22.01h120.26c12.11 0 22.02-9.91 22.02-22.01v-6.77h29.5c16.63 0 30.24 13.61 30.24 30.24z"/>
		</clipPath>
	</defs>
	<style>
		.s0 { mix-blend-mode: multiply;fill: #bcbec0 } 
		.s1 { fill: #ffe100 } 
		.s2 { opacity: .4;mix-blend-mode: multiply;fill: #ffe100 } 
		.s3 { fill: #414042 } 
		.s4 { opacity: .3;mix-blend-mode: multiply;fill: #414042 } 
		.s5 { fill: #231f20 } 
		.s6 { opacity: .3;mix-blend-mode: multiply;fill: #ffe100 } 
		.s7 { fill: #fdbb30 } 
		.s8 { fill: #a9b4b8 } 
		.s9 { opacity: .2;fill: #00ebff } 
		.s10 { fill: #ffffff } 
		.s11 { fill: #323232 } 
		.s12 { fill: #f6f6f6 } 
		.s13 { fill: #cfe0f3 } 
		.s14 { fill: #fc642b } 
		.s15 { fill: #e6e7e8 } 
		.s16 { fill: #000000 } 
		.s17 { fill: #58595b } 
		.s18 { fill: #c8e0ae } 
		.s19 { fill: #62daae } 
		.s20 { fill: #a4d1ff } 
		.s21 { fill: #a4c3e5 } 
		.s22 { fill: #bcbec0 } 
		.s23 { opacity: .6;mix-blend-mode: multiply;fill: #efeae4 } 
		.s24 { fill: #ffd900 } 
		.s25 { fill: #fca82b } 
		.s26 { fill: #6d6e71 } 
		.s27 { fill: #343132 } 
		.s28 { fill: #a7a9ac } 
		.s29 { fill: #59595b } 
		.s30 { fill: #663700 } 
		.s31 { opacity: .4;mix-blend-mode: multiply;fill: #663700 } 
		.s32 { fill: #e9814f } 
		.s33 { fill: #fcb378 } 
		.s34 { opacity: .4;mix-blend-mode: multiply;fill: #fcb378 } 
		.s35 { opacity: .4;mix-blend-mode: multiply;fill: #323232 } 
		.s36 { fill: #67652f } 
		.s37 { opacity: .2;mix-blend-mode: multiply;fill: #67652f } 
		.s38 { fill: #fdcba3 } 
		.s39 { fill: #d26c00 } 
		.s40 { opacity: .3;mix-blend-mode: multiply;fill: #d26c00 } 
		.s41 { opacity: .3;mix-blend-mode: multiply;fill: #fdcba3 } 
		.s42 { fill: #572700 } 
		.s43 { fill: #fbb480 } 
	</style>
	<g id="OBJECTS">
		<g id="&lt;Group&gt;">
			<g id="&lt;Group&gt;">
				<g id="&lt;Group&gt;">
					<path id="&lt;Path&gt;" class="s0" d="m1264.65 833.71c0 2.02-108.64 3.66-242.65 3.66-134.02 0-242.66-1.64-242.66-3.66 0-2.02 108.64-3.66 242.66-3.66 134.01 0 242.65 1.64 242.65 3.66z"/>
					<g id="&lt;Group&gt;">
						<g id="&lt;Group&gt;">
							<g id="&lt;Group&gt;">
								<g id="&lt;Group&gt;">
									<g id="&lt;Group&gt;">
										<path id="&lt;Path&gt;" class="s1" d="m839.42 609.28c0 0-1.01-18.28-4.44-22.35-3.39-4.06-21.01-4.99-34.12-2.32-13.12 2.67-13.94 1.77-13.94 7.44 0 5.66-2.61 10.64 6.13 11.62 8.73 1 46.37 5.61 46.37 5.61z"/>
									</g>
									<path id="&lt;Path&gt;" class="s2" d="m834.98 586.93c-2.44-2.93-12.26-4.2-22.46-3.7 17.21 2.06 19.21 11.9 15.63 17.73-3.6 5.84-26.76 1.13-33.94 0.9-7.2-0.23-7.36-8.37-7.36-8.37-0.31 5.05-1.78 9.28 6.2 10.18 8.73 1 46.37 5.61 46.37 5.61 0 0-1.01-18.28-4.44-22.35z"/>
								</g>
								<g id="&lt;Group&gt;">
									<g id="&lt;Group&gt;">
										<path id="&lt;Path&gt;" class="s1" d="m1184.68 609.28c0 0 1.02-18.28 4.43-22.35 3.4-4.06 21.02-4.99 34.12-2.32 13.13 2.66 13.95 1.77 13.95 7.43 0 5.67 2.61 10.65-6.12 11.63-8.74 1-46.38 5.61-46.38 5.61z"/>
									</g>
									<path id="&lt;Path&gt;" class="s2" d="m1189.11 586.93c2.46-2.93 12.27-4.2 22.46-3.7-17.2 2.06-19.2 11.9-15.61 17.73 3.59 5.84 26.74 1.13 33.93 0.9 7.19-0.23 7.35-8.37 7.35-8.37 0.33 5.05 1.79 9.28-6.18 10.18-8.74 1-46.38 5.61-46.38 5.61 0 0 1.02-18.28 4.43-22.35z"/>
								</g>
							</g>
							<g id="&lt;Group&gt;">
								<path id="&lt;Path&gt;" class="s3" d="m961 529.6c0 0 11.04-16.3 14.99-21.26 3.42-4.31 7.32-5.07 11.46-5.07 3.45 0 18.76-0.26 23.79-0.35v-0.02c0 0 0.31 0.01 0.83 0.01 0.49 0 0.81-0.01 0.81-0.01v0.02c5.02 0.09 20.34 0.35 23.78 0.35 4.11 0 8.06 0.76 11.47 5.07 3.95 4.96 14.98 21.26 14.98 21.26z"/>
								<path id="&lt;Path&gt;" class="s4" d="m961 529.6h102.11c0 0-11.03-16.3-14.98-21.26-3.41-4.31-7.36-5.07-11.47-5.07-2.09 0-8.53-0.1-14.4-0.19q0.02 0 0.01 0c25.13 1.88 24.95 13.97 18.35 16.11-6.59 2.14-55.24 1.78-63.61 1.25-8.22-0.53-1.77-11.05-1.52-11.46-4.26 5.52-14.49 20.62-14.49 20.62z"/>
							</g>
							<g id="&lt;Group&gt;">
								<path id="&lt;Path&gt;" class="s5" d="m856.64 825.89c0 4.54-3.72 8.25-8.25 8.25h-30.27c-4.54 0-8.26-3.71-8.26-8.25v-82.52c0-4.54 3.72-8.26 8.26-8.26h30.27c4.53 0 8.25 3.72 8.25 8.26z"/>
								<path id="&lt;Path&gt;" class="s5" d="m1214.25 825.89c0 4.54-3.72 8.25-8.25 8.25h-30.27c-4.53 0-8.25-3.71-8.25-8.25v-82.52c0-4.54 3.72-8.26 8.25-8.26h30.27c4.53 0 8.25 3.72 8.25 8.26z"/>
							</g>
							<g id="&lt;Group&gt;">
								<path id="&lt;Path&gt;" class="s1" d="m1213.32 631.57c-16.33-15.64-75.3-89.89-80.03-94.05-12.19-11.75-28.53-13.7-58.81-13.7-30.28 0-62.43 0-62.43 0 0 0-40.55 0-70.83 0-30.29 0-45.52 4.73-53.47 11.88-10.34 5.57-60.62 80.23-76.95 95.87-16.54 15.85-21.69 77.56-18.7 115.05 3.08 38.55 15.66 36.03 47.45 42.34 31.94 6.34 172.5 8.87 172.5 8.87 0 0 140.58-2.53 172.52-8.87 31.8-6.31 44.37-3.79 47.44-42.34 2.99-37.49-2.16-99.2-18.69-115.05z"/>
								<path id="&lt;Path&gt;" class="s6" d="m1232.01 746.62c2.99-37.49-2.16-99.2-18.69-115.05-9.05-8.66-31.15-35.29-49.9-58.04 0 0 43.5 56.91 40.37 73.68-0.89 4.78-33.29 11.84-41.33 18.39-20.2 16.46-27.22 33.83-27.22 33.83 0 0 69.9-4.01 82.01-0.4 12.13 3.61 8.79 31.69-4.36 33.76-13.16 2.06-50.56 13.94-59.23 19.95-8.67 6.01-21.34 15.56-48.01 19.78-26.67 4.23-136.93 2.23-174.27-0.66-37.34-2.89-32.02 4.89-42.02 12.67-10 7.78-18.44 3.34-39.56-0.23-21.11-3.54-35.39-14.99-35.39-14.99-10.68-16.97 45.48-17.68 45.48-17.68-11.71-9.51-29.92-13.11-45.74-17.93-15.81-4.8-13.64-22.66-8.58-30.56 5.06-7.9 16.28-4.13 33.47-2.07 17.19 2.06 48.82-1.8 48.82-1.8 0 0-11.13-27.29-16.5-30.75-5.37-3.46-51.17-19.49-55.17-23.75-3.99-4.26 2.2-8.69 7.7-16.26 5.43-7.48 55.74-84.46 56.76-86.03-17.52 19.82-55.94 75.77-69.85 89.09-16.54 15.85-21.69 77.56-18.7 115.05 3.08 38.55 15.66 36.03 47.45 42.34 31.94 6.34 172.5 8.87 172.5 8.87 0 0 140.58-2.53 172.52-8.87 31.8-6.31 44.37-3.79 47.44-42.34z"/>
							</g>
							<g id="&lt;Group&gt;">
								<path id="&lt;Path&gt;" class="s7" d="m1175.17 603.59c-2.51-8.24-32.9-45.81-43.39-55.11-10.49-9.31-19.91-10.74-37.25-12.16-17.38-1.44-74.17-3.58-82.48-3.58-8.32 0-65.1 2.14-82.46 3.58-17.36 1.42-26.78 2.86-37.25 12.16-10.5 9.3-40.88 46.87-43.41 55.11-2.51 8.21 3.26 12.51 24.6 10.01 21.34-2.5 138.52-2.14 138.52-2.14 0 0 117.2-0.36 138.53 2.14 21.33 2.5 27.12-1.8 24.59-10.01z"/>
								<g id="&lt;Group&gt;">
									<path id="&lt;Path&gt;" class="s8" d="m1170.04 603.87c-2.45-7.9-31.88-43.99-42.03-52.92-10.16-8.94-19.27-10.31-36.09-11.69-16.81-1.37-71.81-3.44-79.87-3.44-8.06 0-63.04 2.07-79.86 3.44-16.82 1.38-25.92 2.75-36.08 11.69-10.16 8.93-39.59 45.02-42.04 52.92-2.45 7.91 3.16 12.03 23.82 9.63 20.67-2.41 134.16-2.07 134.16-2.07 0 0 113.51-0.34 134.18 2.07 20.66 2.4 26.27-1.72 23.81-9.63z"/>
									<path id="&lt;Path&gt;" class="s3" d="m1146.22 613.5c20.67 2.4 26.28-1.72 23.81-9.63-2.43-7.83-31.27-43.26-41.71-52.62 1.98 3.04 19.09 29.74 28.57 52.4-12.46-2.12-25.73-3.97-39.65-5.53v-36.51c0-4.54-3.71-8.26-8.25-8.26h-33.09c-4.53 0-8.26 3.72-8.26 8.26v32.42c-17.91-0.98-36.5-1.51-55.62-1.51-19.12 0-37.72 0.53-55.63 1.51v-32.42c0-4.54-3.72-8.26-8.25-8.26h-33.09c-4.55 0-8.26 3.72-8.26 8.26v36.51c-13.92 1.56-27.19 3.41-39.64 5.54 9.33-22.3 26.03-48.49 28.43-52.21-10.58 9.6-39.1 44.64-41.51 52.42-2.45 7.91 3.16 12.03 23.82 9.63 20.67-2.41 134.16-2.07 134.16-2.07 0 0 113.51-0.34 134.17 2.07z"/>
									<path id="&lt;Path&gt;" class="s9" d="m1170.04 603.87c-2.45-7.9-31.88-43.99-42.03-52.92-10.16-8.94-19.27-10.31-36.09-11.69-16.81-1.37-71.81-3.44-79.87-3.44-8.06 0-63.04 2.07-79.86 3.44-16.82 1.38-25.92 2.75-36.08 11.69-10.16 8.93-39.59 45.02-42.04 52.92-2.45 7.91 3.16 12.03 23.82 9.63 20.67-2.41 134.16-2.07 134.16-2.07 0 0 113.51-0.34 134.18 2.07 20.66 2.4 26.27-1.72 23.81-9.63z"/>
									<g id="&lt;Clip Group&gt;" clip-path="url(#cp1)">
										<g id="&lt;Group&gt;" style="opacity: .3">
											<path id="&lt;Path&gt;" class="s10" d="m955.85 616.43h-130.39l76.81-88.95h130.4z"/>
											<path id="&lt;Path&gt;" class="s10" d="m999.08 616.43h-33.01l76.83-88.95h33z"/>
										</g>
									</g>
								</g>
							</g>
							<g id="&lt;Group&gt;">
								<path id="&lt;Path&gt;" class="s11" d="m1137.42 793.57q-1.07-1.19-1.52-1.59c-12.2-11.75-28.53-13.69-58.82-13.69-30.28 0-62.42 0-62.42 0 0 0-40.55 0-70.84 0-30.28 0-45.52 4.72-53.47 11.87-0.9 0.49-2.2 1.66-3.65 3.11 52.88 3.21 127.96 4.56 127.96 4.56 0 0 70.29-1.27 122.76-4.26z"/>
								<g id="&lt;Group&gt;">
									<g id="&lt;Group&gt;">
										<g id="&lt;Group&gt;">
											<path id="&lt;Path&gt;" class="s11" d="m1147.12 781.87c0 0 3.95-25.1 25.59-30.44 21.62-5.34 47.42-10.37 47.42-10.37 0 0 5.62-0.29 3.85 4.45-1.78 4.74-2.12 21.04-10.85 26.37-8.71 5.33-67.99 19.27-66.01 9.99z"/>
											<path id="&lt;Path&gt;" class="s3" d="m1199.19 763.3c0 6.46-5.23 11.69-11.7 11.69-6.45 0-11.68-5.23-11.68-11.69 0-6.44 5.23-11.69 11.68-11.69 6.47 0 11.7 5.25 11.7 11.69z"/>
										</g>
										<g id="&lt;Group&gt;">
											<path id="&lt;Path&gt;" class="s11" d="m799.83 744.16c0 0 3.96 25.1 25.6 30.45 21.63 5.33 47.41 10.36 47.41 10.36 0 0 5.64 0.31 3.85-4.44-1.78-4.74-2.12-21.04-10.84-26.38-8.72-5.33-67.99-19.26-66.02-9.99z"/>
											<path id="&lt;Path&gt;" class="s3" d="m851.9 762.73c0-6.45-5.23-11.69-11.69-11.69-6.45 0-11.69 5.24-11.69 11.69 0 6.46 5.24 11.7 11.69 11.7 6.46 0 11.69-5.24 11.69-11.7z"/>
										</g>
									</g>
									<g id="&lt;Group&gt;">
										<path id="&lt;Path&gt;" class="s7" d="m1185.17 714.46c-16.73 3.43-39.38 8.02-55.55 22.31-16.19 14.31-24.26 24.03-48.53 25.18-24.28 1.14-69.04 3.03-69.04 3.03 0 0-44.77-1.89-69.03-3.03-24.26-1.15-32.34-10.87-48.54-25.18-16.17-14.29-38.83-18.88-55.54-22.31-16.72-3.44-41.53-14.87-41.53-14.87 9.17 10.3 38.85 20.59 64.17 25.74 25.36 5.15 47.46 34.34 62.57 40.62 15.09 6.3 87.9 5.15 87.9 5.15 0 0 72.81 1.15 87.9-5.15 15.11-6.29 37.22-35.47 62.56-40.62 25.35-5.15 55.01-15.44 64.18-25.75 0 0-24.81 11.44-41.52 14.88z"/>
										<g id="&lt;Group&gt;">
											<g id="&lt;Group&gt;">
												<path id="&lt;Path&gt;" class="s3" d="m1028.54 720.08c-9.06 0.46-23.9 0.46-32.96 0l-72.97-1.71c-9.06-0.62-10.57 3.39-3.39 8.93 0 0 4.81 3.68 17.19 13.31 12.38 9.64 59.14 9.26 59.14 9.26 9.08-0.07 23.93-0.07 33.01 0 0 0 46.77 0.38 59.15-9.26 12.38-9.63 17.18-13.31 17.18-13.31 7.19-5.54 5.68-9.56-3.38-8.94z"/>
												<path id="&lt;Path&gt;" class="s4" d="m1101.51 718.36l-72.97 1.72c-5.06 0.26-11.91 0.37-18.56 0.33q0.02 0.01 0.05 0.01c77.53 1.81 65.69 18.92 17.65 22.84-48.03 3.91-94.6-5.23-94.6-5.23 1.05 0.82 2.13 1.65 3.33 2.58 12.38 9.64 59.14 9.26 59.14 9.26 9.08-0.07 23.93-0.07 33.01 0 0 0 46.77 0.38 59.15-9.26 12.38-9.63 17.18-13.31 17.18-13.31 7.19-5.54 5.68-9.56-3.38-8.94z"/>
											</g>
											<g id="&lt;Group&gt;">
												<g id="&lt;Group&gt;">
													<path id="&lt;Path&gt;" class="s7" d="m1012.05 669.41c-19.5-1.25-112.82 1.5-112.82 1.5 19.18 2.38 112.82 4.75 112.82 4.75 0 0 93.64-2.37 112.83-4.75 0 0-97.26-2.69-112.83-1.5z"/>
													<path id="&lt;Path&gt;" class="s7" d="m1012.05 688.14c-16.92-1.24-97.95 1.51-97.95 1.51 16.65 2.37 97.95 4.76 97.95 4.76 0 0 81.29-2.39 97.94-4.76 0 0-84.42-2.69-97.94-1.51z"/>
													<path id="&lt;Path&gt;" class="s7" d="m1012.05 699.58c-13.03-1.24-75.38 1.51-75.38 1.51 12.81 2.37 75.38 4.76 75.38 4.76 0 0 62.56-2.39 75.38-4.76 0 0-64.98-2.69-75.38-1.51z"/>
												</g>
												<g id="&lt;Group&gt;">
													<g id="&lt;Group&gt;">
														<path id="&lt;Path&gt;" class="s12" d="m1131.09 694.42c0 0 13.14-23.59 21.66-25.89 6.48-1.77 53.09-16.51 53.09-16.51 0 0 6.19-0.52 5.16 5.67-1.04 6.19-5.84 29.2-5.84 29.2 0 0-1.68 4.06-6.23 5.96-10.17 4.24-65.53 6.67-65.53 6.67 0 0-4.37-0.58-2.31-5.1z"/>
														<path id="&lt;Path&gt;" class="s13" d="m1205.84 652.02c0 0-2.04 0.66-5.23 1.66 12.65 1.24 4.22 26.34-2.74 33.57-6.97 7.24-53.04 8.31-58.4 5.1-5.33-3.2 11.03-22.66 11.24-22.91-8.42 4.9-19.62 24.98-19.62 24.98-2.06 4.52 2.31 5.1 2.31 5.1 0 0 55.36-2.43 65.53-6.67 4.55-1.9 6.23-5.96 6.23-5.96 0 0 4.8-23.01 5.84-29.2 1.03-6.19-5.16-5.67-5.16-5.67z"/>
													</g>
													<g id="&lt;Group&gt;">
														<path id="&lt;Path&gt;" class="s12" d="m893.02 694.42c0 0-13.14-23.59-21.65-25.9-6.49-1.76-53.11-16.5-53.11-16.5 0 0-6.18-0.52-5.15 5.67 1.03 6.19 5.84 29.2 5.84 29.2 0 0 1.67 4.06 6.23 5.96 10.16 4.24 65.53 6.67 65.53 6.67 0 0 4.37-0.58 2.31-5.1z"/>
														<path id="&lt;Path&gt;" class="s13" d="m818.26 652.02c0 0 2.05 0.66 5.24 1.66-12.65 1.24-4.22 26.34 2.74 33.57 6.97 7.24 53.04 8.31 58.4 5.1 5.32-3.2-11.03-22.66-11.24-22.91 8.42 4.91 19.62 24.98 19.62 24.98 2.06 4.52-2.31 5.1-2.31 5.1 0 0-55.37-2.43-65.53-6.67-4.56-1.9-6.23-5.96-6.23-5.96 0 0-4.81-23.01-5.84-29.2-1.03-6.19 5.15-5.67 5.15-5.67z"/>
													</g>
												</g>
											</g>
										</g>
									</g>
								</g>
							</g>
						</g>
						<g id="&lt;Group&gt;">
							<path id="&lt;Compound Path&gt;" fill-rule="evenodd" class="s14" d="m1049.07 417.83c0 6.67-1.72 12.93-4.72 18.39-4.76 10.55-14.38 25.21-33.61 43.73-42.92-41.33-38-63.48-38-63.48h0.07c0.72-20.44 17.48-36.81 38.1-36.81 21.07 0 38.16 17.09 38.16 38.17zm-22.06 0c0-8.89-7.21-16.1-16.1-16.1-8.9 0-16.1 7.21-16.1 16.1 0 8.89 7.2 16.1 16.1 16.1 8.89 0 16.1-7.21 16.1-16.1z"/>
						</g>
					</g>
				</g>
				<g id="&lt;Group&gt;">
					<path id="&lt;Path&gt;" class="s0" d="m785.88 833.71c0 2.02-69.66 3.66-155.58 3.66-85.93 0-155.59-1.64-155.59-3.66 0-2.02 69.66-3.66 155.59-3.66 85.92 0 155.58 1.64 155.58 3.66z"/>
					<g id="&lt;Group&gt;">
						<g id="&lt;Group&gt;">
							<g id="&lt;Group&gt;">
								<g id="&lt;Group&gt;">
									<g id="&lt;Group&gt;">
										<path id="&lt;Path&gt;" class="s15" d="m769.47 791.99c0 16.64-13.61 30.25-30.24 30.25l-223.29-0.01c-16.64 0-30.25-13.6-30.25-30.24v-471.01c0-16.63 13.61-30.24 30.25-30.23h223.29c16.63 0 30.24 13.61 30.24 30.24z"/>
									</g>
									<path id="&lt;Compound Path&gt;" fill-rule="evenodd" class="s16" d="m783.02 319.21v470.29c0 24.55-20.09 44.64-44.64 44.64h-221.59c-24.56 0-44.64-20.09-44.64-44.64v-470.29c0-24.56 20.08-44.65 44.64-44.65l221.59 0.01c24.55 0 44.64 20.09 44.64 44.64zm-13.55 1.78c0-16.63-13.61-30.24-30.24-30.24h-29.5v6.77c0 12.1-9.91 22.01-22.02 22.01h-120.26c-12.11 0-22.01-9.9-22.01-22.01v-6.77h-29.5c-16.64-0.01-30.25 13.6-30.25 30.23v471.01c0 16.64 13.61 30.24 30.25 30.24l223.29 0.01c16.63 0 30.24-13.61 30.24-30.25z"/>
								</g>
								<g id="&lt;Group&gt;">
									<path id="&lt;Path&gt;" class="s3" d="m767.41 285.42c6.76 7.83 10.88 17.98 10.88 29.07v470.28c0 24.56-20.09 44.65-44.65 44.65h-221.58c-11.08 0-21.21-4.12-29.04-10.85 8.2 9.51 20.3 15.57 33.77 15.57h221.59c24.55 0 44.64-20.09 44.64-44.64v-470.29c0-13.48-6.08-25.58-15.61-33.79z"/>
								</g>
								<g id="&lt;Group&gt;">
									<path id="&lt;Path&gt;" class="s17" d="m518.36 824.66h223.3c16.63 0 30.24-13.6 30.24-30.23v-471.01c0-8.93-3.94-16.96-10.15-22.51 4.78 5.35 7.72 12.38 7.72 20.08v471c0 16.64-13.61 30.25-30.24 30.25l-223.29-0.01c-7.71 0-14.74-2.94-20.09-7.72 5.55 6.21 13.58 10.15 22.51 10.15z"/>
									<path id="&lt;Path&gt;" class="s17" d="m474.58 791.93v-470.29c0-24.56 20.08-44.65 44.64-44.65l221.58 0.01c11.67 0 22.28 4.57 30.26 11.96-8.17-8.82-19.79-14.39-32.69-14.39l-221.58-0.01c-24.56 0-44.64 20.09-44.64 44.65v470.29c0 12.89 5.57 24.52 14.39 32.69-7.39-7.98-11.96-18.6-11.96-30.26z"/>
								</g>
							</g>
						</g>
						<g id="&lt;Clip Group&gt;" clip-path="url(#cp2)">
							<g id="&lt;Group&gt;">
								<g id="&lt;Group&gt;">
									<g id="&lt;Group&gt;">
										<g id="&lt;Group&gt;">
											<g id="&lt;Group&gt;">
												<g id="&lt;Group&gt;">
													<g id="&lt;Group&gt;">
														<path id="&lt;Path&gt;" class="s18" d="m736.07 351.58l199.78-24.47-19.19-4.35h-260.08z"/>
														<path id="&lt;Path&gt;" class="s19" d="m671.07 452.44l105.84-19.62 239.78 151.11-46.96 20.84-127.35-101.9z"/>
													</g>
													<g id="&lt;Group&gt;">
														<path id="&lt;Path&gt;" class="s20" d="m397.01 362.74l23.75-30.17c0 0 133.79-7.28 159.73-3.51 26.56 3.86 33.3-0.33 46.91 0 13.65 0.32 33.98 8.41 23.22 15.05-13.11 7.84-25.06 7.91-46.32 5.4-20.93-2.49-30.98-5.28-47.75-0.36-43.82 13.69-150.5 12.84-159.54 13.59z"/>
														<path id="&lt;Path&gt;" class="s21" d="m1082 526.82c-16.41-6.9-35.41-7.87-46.43-19.29-10.58-10.98-15.07-12.77-23.21-17.2-8.02-4.36-17.98-0.73-33.94-5.22-22.15-6.66-33.23-1.52-20.82 13.91 11.99 16.28 42.92 16.07 49.78 22.85 7.04 6.95 14.32 38.64 70.27 21.33 0 0 19.77-5.8 4.35-16.38z"/>
													</g>
													<g id="&lt;Group&gt;">
														<path id="&lt;Path&gt;" class="s22" d="m1014.72 686.76l-84.39 49.51-53-25.65 98.71-55.17z"/>
														<path id="&lt;Path&gt;" class="s23" d="m1168.3 913.71l-202.81-81.9 31.6-59.62-52.05-26.33 79.35-49.2 126.13 100.41z"/>
														<g id="&lt;Group&gt;">
															<path id="&lt;Path&gt;" class="s22" d="m675.56 588.09l-25.12-7.07 11.22-13.68 24.63 6.73z"/>
															<path id="&lt;Path&gt;" class="s22" d="m638.94 636.1l-26.71-8.3 13.14-16.02 26.16 7.87z"/>
														</g>
														<g id="&lt;Group&gt;">
															<path id="&lt;Path&gt;" class="s22" d="m730.03 601.8l-26.55-7.04 9.94-14.46 26 6.68z"/>
															<path id="&lt;Path&gt;" class="s22" d="m714.62 626.63l-27.48-7.63 10.78-15.7 26.88 7.25z"/>
															<path id="&lt;Path&gt;" class="s22" d="m609.69 594.61l-24.8-6.86 12.77-14.12 24.33 6.52z"/>
															<path id="&lt;Path&gt;" class="s22" d="m689.63 498.25l-24.79-5.05 12.76-14.11 24.32 6.89z"/>
															<path id="&lt;Path&gt;" class="s22" d="m1031.8 654.38l-22.14-17.27 35.33-20.79 20.3 15.98z"/>
															<path id="&lt;Path&gt;" class="s22" d="m502.19 571.7l-18.74-10.33 16.42-11.42 18.64 9.89z"/>
															<path id="&lt;Path&gt;" class="s22" d="m468.69 553.19l-18.74-10.33 16.42-11.43 18.64 9.89z"/>
															<path id="&lt;Path&gt;" class="s22" d="m549.27 500.86l-17.74-6.28 42.31-19.12 13.91 4.29z"/>
															<path id="&lt;Path&gt;" class="s22" d="m697.94 652.69l-28.41-8.31 11.69-17.02 27.78 7.86z"/>
														</g>
														<path id="&lt;Path&gt;" class="s22" d="m931.67 357.65l101.26-14.62 16.21 6.54 68.69-6 1.07 9.75-160.36 14.92z"/>
														<path id="&lt;Path&gt;" class="s22" d="m918.3 346.53l-41.24 5.65-7.74-2.29 41.09-5.58z"/>
														<path id="&lt;Path&gt;" class="s22" d="m988.59 335.59l-41.22 5.66-7.74-2.29 41.08-5.58z"/>
														<path id="&lt;Path&gt;" class="s22" d="m1065.37 322.24l-41.24 5.66-7.72-2.29 41.08-5.58z"/>
														<path id="&lt;Path&gt;" class="s22" d="m845.26 357.04l-43.86 6.02-7.44-2.43 43.69-5.95z"/>
														<path id="&lt;Path&gt;" class="s22" d="m631.53 364.26l38.77 1.97-4.79 3.84-39.91-2.26z"/>
														<path id="&lt;Path&gt;" class="s22" d="m568.65 360.94l38.23 1.95-5.43 3.8-39.31-2.24z"/>
														<path id="&lt;Path&gt;" class="s22" d="m461.28 446.31l86.1-11.15 7.02 12.6-92.42 16.66z"/>
														<path id="&lt;Path&gt;" class="s22" d="m668.43 418.72l62.77-11.27 7.63 6.55-65.72 13.88z"/>
														<path id="&lt;Path&gt;" class="s22" d="m924.38 397.37l21.04-0.57 14.32 10.07-21.16 0.63z"/>
														<path id="&lt;Path&gt;" class="s22" d="m839.38 378.14l15.34-2.21 13.01 9.07-19.23 0.85z"/>
														<path id="&lt;Path&gt;" class="s22" d="m982.99 396.23l18.88-0.69 16.34 10.11-18.66 0.84z"/>
													</g>
													<g id="&lt;Group&gt;">
														<path id="&lt;Path&gt;" class="s19" d="m657.98 385.2l11.45-10.12-98.71-3.89-136.91 4.84-2.22 18 97.07 7.59 70.5-16.46z"/>
														<path id="&lt;Path&gt;" class="s22" d="m617.59 540.93l40.92-36.21 96.33 18.52 16.32-24.53 59.5 14.14 40.78 33.21-81.66 39.18z"/>
														<path id="&lt;Path&gt;" class="s23" d="m860.24 360.64l259.63-41.57-0.47 41.52-222.84 19.98z"/>
														<path id="&lt;Path&gt;" class="s23" d="m818.04 424.55l17.21-4.92 28.9 3.75 40.34 49.56z"/>
													</g>
													<g id="&lt;Group&gt;">
														<path id="&lt;Compound Path&gt;" fill-rule="evenodd" class="s10" d="m762.44 355.66c0.03-1.02 1.48-1.87 3.32-1.97 4.26-0.4 77.85-9.76 140.45-17.76q0.02 0 0.04 0c21.13-2.7 128.19-19.79 144.12-21.84 1.69-0.21 3.88 0.35 4.9 1.27 1.01 0.91 0.46 1.84-1.24 2.06-17.59 2.28-121.27 18.98-136.81 20.99l26.34 7.22 174.13-28.29c1.65-0.25 3.99 0.31 5.2 1.26 1.22 0.96 0.86 1.96-0.82 2.21l-209.74 33.95 44.52 17.97 160.43-14.25c1.95-0.17 4.49 0.62 5.67 1.79 1.19 1.18 0.58 2.29-1.39 2.47l-221.31 19.92 9.36 5.83 173.44-4.63c2.15-0.06 4.79 0.95 5.88 2.26 1.11 1.33 0.22 2.46-1.96 2.52l-73.17 1.75 65.23 40.95c2.32 1.45 2.93 3.3 1.35 4.13-0.51 0.26-1.18 0.39-1.95 0.39-1.57 0-3.54-0.56-5.1-1.56l-68.46-43.64-47.96 1.39 53.12 34.25c2.13 1.36 2.58 3.2 1 4.08-0.57 0.31-1.31 0.46-2.14 0.46-1.51 0-3.24-0.49-4.61-1.39l-56.64-37.12-190.51 5.56q-0.1 0.01-0.21 0.01c-2.2 0-3.98-1.06-4.02-2.4-0.04-1.38 1.76-2.54 4.02-2.61l77.58-2.23-24.06-20.03-39.12 6.09q-0.52 0.08-1.03 0.08c-1.72 0-3.3-0.66-3.76-1.67-0.54-1.18 0.7-2.4 2.78-2.72l133.49-20.52 31.9-4.9-26.66-7.4c-91.16 11.79-140.56 18.09-141.94 18.09-2.05 0-3.69-0.9-3.66-2.02zm137.58 33.11l-40.68-25.76-41.29 6.44 25.7 20.94zm4.33-32.76l-37.52 5.85 26.66 16.6 53.85-4.86z"/>
														<path id="&lt;Compound Path&gt;" fill-rule="evenodd" class="s10" d="m1169.2 523.84l-184.04 106.97 202.95 162.55c5.49 4.4 8.86 11.21 7.46 15.23-0.65 1.85-2.21 2.77-4.26 2.77-2.4 0-5.45-1.26-8.44-3.72l-208.19-170.74-76.57 44.5q-0.78 0.66-1.73 1.02l-40.67 23.63q-0.6 0.45-1.27 0.74l-43.88 25.5c-1.04 0.6-2.2 0.91-3.39 0.91q-1.07 0.01-2.15-0.34l-104.78-33.68q-0.78 0.19-1.57 0.2-1.64 0.01-3.12-0.8c-0.68-0.38-1.23-0.89-1.72-1.46l-174.76-56.18c-1.79-0.58-2.84-2.07-2.8-4.01 0.02-1.93 1.07-4.11 2.86-5.87l130.78-129.32c1.55-1.54 4.07-2.31 6.21-1.9l95.98 18.29 13.82-20.38-102.6-31.06-154.95 126.47c-1.75 1.42-3.89 2.32-5.83 2.44l-113.02 11.5-130.63 339.43c-3.12 8.15-11.01 16.39-17.57 18.26q-1.35 0.39-2.47 0.38c-4.71 0-6.24-4.91-3.33-12.03l142.25-349.3c0.13-0.55 0.34-1.14 0.69-1.77q0.04-0.07 0.08-0.12l44.58-109.45c0.83-2.07 3.99-4.11 7.05-4.56 3.04-0.46 4.9 0.82 4.09 2.88l-12.37 32.16 80.01-28.07c1.64-0.6 3.3-0.73 4.52-0.35l43.41 13.06q0.46-0.36 1.01-0.66l55.85-31.25-32.29-13.19c-2.04-0.84-2.11-2.9-0.19-4.59 1.9-1.69 5.08-2.39 7.1-1.58l37.68 15.09c1.29 0.52 1.97 1.53 1.85 2.71-0.15 1.2-1.1 2.4-2.57 3.25l-58.39 33.24 26.43 7.95 68.29-54.54-35.02-10.59c-2.2-0.67-2.72-2.59-1.17-4.28 1.53-1.67 4.55-2.49 6.73-1.84l207 61.54q1.25 0.37 2.2 1.13l138.23 110.71 141.7-80.04-102.72-58.77-100.25-16.15c-1.61-0.26-3.12-1.04-4.04-2.09l-44.01-50.28c-1.22-1.4-0.54-2.98 1.53-3.55 2.06-0.56 4.72 0.1 5.96 1.49l14.6 16.25 75.37 9.25q0.04 0 0.05 0.01l65.39 8.02c2.19 0.27 4.43 1.43 5.49 2.85l25.82 34.48 24.16 3.83-33.82-52.27c-1.08-1.66 0.05-2.98 2.51-2.98q0.04 0 0.07 0c2.51 0.02 5.43 1.38 6.57 3.06l38.21 57.14c0.8 1.19 0.84 2.32 0.11 3.07-0.55 0.55-1.49 0.84-2.64 0.84q-0.6 0-1.26-0.11l-60.53-9.75 91.16 51.29 36.13-20.41c1.89-1.06 5.83-0.17 8.88 2 3.07 2.19 4.07 4.86 2.19 5.94zm-144.77-73.06l-55.54-6.92 20.73 27.56 56.32 8.93zm-46.23 18.83l-19.74-27.04-28.35-3.53c4.5 6.25 13.76 17.72 20.83 26.24zm-64.25-10.19l25.29 4.01c-6.04-7.56-15.62-19.77-19.36-25.66l-28.58-3.55zm-440.76 53.61l76.46 34.85 27.12-21.66-76.02-23.36zm66.03 43.17l-80.79-37.73-40.07 13.69-24.38 63.36 110.05-11.2zm85.24-16.19l36.46 8.71q0.84 0.08 1.59 0.38l126.36 30.17 73.21-34.73-34.18-28.03-52.14-15.78-16.05 24.57c-1.21 1.86-3.81 2.83-6.29 2.34l-98.02-19.02zm72.63 141.08l55.35-99.08-41.96-10.23-65.38 93.01zm-65.02-20.37l66.76-91.78-37.87-9.23-73.54 87.02zm-96.71-30.31l39.7 12.43 74.71-85.86-33.88-8.25zm299.37 68.17l-55.16-31.72c-3.26-1.88-4.59-6.01-3.08-9.45l24.17-54.71-13.92-12.33-22.22-5.41-53.67 100.44 94.68 29.68zm45.35-25.63l-69.13-61.15-19.03 45.59 58.08 32.56zm82.06-46.34l-90.74-74.43-71.11 34.5 92.12 79.31z"/>
														<path id="&lt;Path&gt;" class="s10" d="m520.28 403.53l95.04 10.38q0.35 0.03 0.69 0.03c2.09 0 4.29-0.95 5.14-2.29 0.95-1.48-0.1-2.86-2.33-3.1l-79.83-8.59 59.8-12.42 58.43 0.05h0.02 0.02l102.89 0.07h0.01c2.23 0 4.06-1.07 4.08-2.38 0.03-1.3-1.74-2.35-3.94-2.35l-95.21-0.07 31.43-27.44c1.14-1.01 0.65-2.23-1.07-2.72-1.72-0.49-4.03-0.07-5.18 0.93l-22.47 19.13-55.85-2.18 23.05-13.3c1.57-0.9 1.7-2.15 0.31-2.8-1.38-0.64-3.76-0.45-5.32 0.44l-26.94 15.31-30.84-1.21q-0.25 0-0.53 0l-39.64 1.51 45.06-16.65c1.94-0.72 2.82-1.96 1.95-2.77-0.85-0.81-3.08-0.9-5.01-0.19l-55.09 20.12-104.63 3.96c-2.2 0.08-4.69 1.14-5.57 2.37-0.88 1.23 0.21 2.18 2.45 2.09l158.26-6.05 93.35 3.7-6.59 5.74-55.96-0.04h-0.01q-0.74 0-1.51 0.15l-75.03 15.39-128.9-10.32c-2.12-0.16-4.97 0.81-6.38 2.18-1.42 1.38-0.84 2.64 1.29 2.81l108.91 8.83-56.63 28.01c-2.59 1.28-3.81 3.18-2.71 4.23 0.48 0.46 1.32 0.68 2.32 0.68 1.33 0 2.95-0.39 4.44-1.13l61.93-31.07z"/>
													</g>
													<path id="&lt;Path&gt;" class="s24" d="m1123.84 431.24l-287.94-28.36c-1.38-0.15-2.78-0.12-4.1 0.11l-47.11 8.07-26.99-15.91 20.42-14.08c1.63-1.13 2.33-2.6 1.94-4.05-0.39-1.43-1.82-2.69-3.93-3.48l-119.89-45.66c-3.05-1.14-5.2-1.88-8.15-0.16-2.99 1.75-0.98 2.36 2.09 3.51l108.03 47.59-17.71 11.71-314.51 33.99c-5.96 0.67-15.6 7.69-17.75 11.36-1.94 3.3-2.89 9.44 2.01 9.44q0.97 0 2.07-0.13l329.35-43.49 21.88 13.44-381.99 73.71c-7.26 1.45-14.84 6.41-16.93 11.16-1.71 3.92-3.38 11.54 1.74 11.54q1.79 0 3.97-0.44l409.45-85.99 643.64 404.41c7.7 4.79 14.6 7.19 19.55 7.19 5.28 0 15.02-7.38 14.38-12.68-1.18-10.08-1.14-25.5-16.58-34.5l-639.08-368.46 34.92-6.18 300.63 36.43c6.38 0.73 7.3-4.52 4.93-8.4-2.31-3.81-12.29-11.03-18.34-11.69z"/>
												</g>
												<g id="&lt;Group&gt;">
													<path id="&lt;Path&gt;" class="s10" d="m1121.49 929.34c-1.92 0-4.07-0.43-6.29-1.34l-756.3-293.04c-3.69-1.49-3.78-5.08-0.27-7.99 3.45-2.86 9.17-4.01 12.82-2.58l749.89 284.51c7.43 2.92 9.1 7.94 8.77 13.95-0.24 4.33-3.95 6.49-8.62 6.49z"/>
												</g>
											</g>
											<g id="&lt;Group&gt;">
												<path id="&lt;Path&gt;" class="s10" d="m481.81 673.61l-12.71-3.75 25.7-81.43 12.71 3.75z"/>
											</g>
										</g>
										<path id="&lt;Path&gt;" class="s19" d="m400.2 670.18l490.49 196.97-574.33 21.18z"/>
									</g>
								</g>
								<g id="&lt;Group&gt;">
									<g id="&lt;Group&gt;">
										<g id="&lt;Group&gt;">
											<path id="&lt;Path&gt;" class="s25" d="m645.06 729.4l-165.35-64.13 22.34-69.16 167.51-135.62-29.68-11.61 151.49-31.91-33.66-19.38 200.22-6.87c0 0-3.85-3.09-3.89-3.09l-215.32 4.79 34.17 21.9-158.44 31.39 40.07 16.68-159.34 131.87-25.02 75.4 164.51 67.55z"/>
										</g>
									</g>
								</g>
							</g>
						</g>
						<g id="&lt;Group&gt;">
							<path id="&lt;Compound Path&gt;" fill-rule="evenodd" class="s14" d="m703.23 628.27c0 11.86-3.06 22.99-8.39 32.68-8.47 18.76-25.56 44.83-59.76 77.75-76.29-73.47-67.55-112.85-67.55-112.85h0.14c1.27-36.35 31.06-65.43 67.72-65.43 37.48 0 67.84 30.38 67.84 67.85zm-39.22 0c0-15.81-12.81-28.62-28.62-28.62-15.82 0-28.62 12.81-28.62 28.62 0 15.81 12.8 28.61 28.62 28.61 15.81 0 28.62-12.8 28.62-28.61z"/>
						</g>
						<path id="&lt;Path&gt;" class="s26" d="m746.82 291.76h-37.09v5.76c0 12.1-9.91 22.01-22.02 22.01h-120.26c-12.11 0-22.01-9.9-22.01-22.01v-5.76h-37.11c-12.98 3.39-22.64 15.22-22.64 29.22v24.67h283.78v-24.66c0-14.01-9.67-25.84-22.65-29.23z"/>
						<path id="&lt;Path&gt;" class="s16" d="m676.34 812.4c0 1.17-0.97 2.13-2.14 2.13h-93.24c-1.17 0-2.13-0.96-2.13-2.13v-0.01c0-1.17 0.96-2.13 2.13-2.13h93.24c1.17 0 2.14 0.96 2.14 2.13z"/>
					</g>
				</g>
				<g id="&lt;Group&gt;">
					<path id="&lt;Path&gt;" class="s22" d="m240.98 831.56c5.61-0.76 6.48-0.43 28.25-1.99 12.45-0.9 19.1-0.22 37.05 1.66 17.95 1.88 28.73 0.32 42.77-5.18 14.04-5.49 18.9-3.79 28.66-3.79 9.77 0 6.9 2.26 23.26 1.49 6.15-0.28 10.47-2.32 25.62-0.45 27.28 3.37 44.87 7.68 40.3 9.16-20.78 6.73-29.7 6.41-46.14 0.1-15-5.76-37.79-4.52-51.74 0.62-28.41 10.47-31.65-0.13-51.27 3.37-19.62 3.5-104.87-1.18-76.76-4.99z"/>
					<g id="&lt;Group&gt;">
						<g id="&lt;Group&gt;">
							<g id="&lt;Group&gt;">
								<g id="&lt;Group&gt;">
									<g id="&lt;Group&gt;">
										<path id="&lt;Path&gt;" class="s3" d="m271.87 818.88c0.92 5.58-2.86 10.85-8.42 11.76-5.58 0.91-10.84-2.86-11.78-8.43-0.9-5.57 2.87-10.83 8.44-11.76 5.57-0.91 10.84 2.86 11.76 8.43z"/>
										<path id="&lt;Path&gt;" class="s27" d="m268.37 819.49c0.48 2.88-1.48 5.61-4.36 6.08-2.89 0.47-5.6-1.48-6.08-4.35-0.47-2.9 1.48-5.61 4.36-6.08 2.87-0.48 5.6 1.46 6.08 4.35z"/>
									</g>
									<path id="&lt;Path&gt;" class="s28" d="m294.94 716.75l-2.93-0.96 20.24-60.09 2.93 0.96z"/>
									<path id="&lt;Path&gt;" class="s28" d="m312.3 719.89l-2.95-0.95 20.26-60.09 2.93 0.95z"/>
									<path id="&lt;Path&gt;" class="s29" d="m339.7 656.57c-0.14 2.59-3.1 4.56-6.59 4.39l-22.59-1.1c-3.48-0.17-6.23-2.44-6.1-5.03 0.12-2.59 3.09-4.57 6.59-4.39l22.59 1.1c3.47 0.18 6.22 2.43 6.1 5.03z"/>
									<path id="&lt;Path&gt;" class="s30" d="m241.27 785.05c0 0-3.27 28.37 7.28 33.72 10.53 5.37 39.17 8.6 53.47 3.97 14.29-4.62 14.85-8.13 21.24-21.11 6.38-12.98 11.93-53.37 13.19-62.96 1.27-9.58-4.68-17.98-14.57-22.88-9.87-4.89-35.77-8.57-42.27-8.35-6.49 0.21-21.26 5.48-26.5 25.37-5.23 19.9-9.5 42.19-11.84 52.24z"/>
									<path id="&lt;Path&gt;" class="s31" d="m321.88 715.79c-9.87-4.89-35.77-8.57-42.27-8.35-0.73 0.02-1.58 0.12-2.51 0.29 15.46-0.98 30.24 9.32 33.67 16.43 3.44 7.11-0.51 52.06-9.72 78.86-7.6 22.09-28.72 21.35-35.91 20.39 12.46 2.02 27.66 2.32 36.88-0.67 14.29-4.62 14.85-8.13 21.24-21.11 6.38-12.98 11.93-53.37 13.19-62.96 1.27-9.58-4.68-17.98-14.57-22.88z"/>
									<g id="&lt;Group&gt;">
										<path id="&lt;Path&gt;" class="s3" d="m318.62 822.25c0.91 5.57-2.85 10.83-8.44 11.76-5.57 0.91-10.83-2.85-11.74-8.44-0.92-5.58 2.85-10.83 8.43-11.75 5.57-0.91 10.83 2.85 11.75 8.43z"/>
										<path id="&lt;Path&gt;" class="s27" d="m315.1 822.85c0.48 2.89-1.47 5.61-4.34 6.08-2.88 0.47-5.59-1.47-6.08-4.35-0.48-2.89 1.47-5.61 4.36-6.08 2.88-0.47 5.59 1.47 6.06 4.35z"/>
									</g>
								</g>
							</g>
							<g id="&lt;Group&gt;">
								<path id="&lt;Path&gt;" class="s32" d="m303.53 733.63c-0.13 0.61-0.8 1-1.48 0.84l-38.5-7.92c-0.69-0.13-1.15-0.75-1.01-1.36 0.13-0.6 0.77-0.98 1.47-0.84l38.5 7.94c0.69 0.15 1.14 0.75 1.02 1.34z"/>
								<path id="&lt;Path&gt;" class="s32" d="m301.72 740.6c-0.12 0.6-0.78 0.99-1.46 0.85l-38.5-7.94c-0.69-0.14-1.15-0.75-1.03-1.35 0.12-0.6 0.78-0.98 1.48-0.84l38.49 7.92c0.7 0.15 1.14 0.76 1.02 1.36z"/>
								<path id="&lt;Path&gt;" class="s32" d="m299.61 747.45c-0.14 0.61-0.8 0.98-1.49 0.84l-38.48-7.92c-0.69-0.16-1.16-0.76-1.03-1.37 0.13-0.59 0.78-0.97 1.47-0.84l38.5 7.94c0.69 0.15 1.16 0.75 1.03 1.35z"/>
							</g>
						</g>
						<g id="&lt;Group&gt;">
							<g id="&lt;Group&gt;">
								<g id="&lt;Group&gt;">
									<g id="&lt;Group&gt;">
										<g id="&lt;Group&gt;">
											<path id="&lt;Path&gt;" class="s33" d="m417 790.66l14.39 0.09c0 0-0.21 12.95-0.43 15.46-0.21 2.52-7.66 8.33-11.64 5.52z"/>
											<path id="&lt;Path&gt;" class="s34" d="m431.39 790.75c0 0-0.09 5.61-0.21 10.16 0 0-10.9-0.29-12.65 3.69l-1.53-13.94z"/>
										</g>
										<g id="&lt;Group&gt;">
											<g id="&lt;Group&gt;">
												<g id="&lt;Group&gt;">
													<path id="&lt;Path&gt;" class="s11" d="m418.89 807.91c0 0 0 2.4 2.36 2 3.4-0.56 6.77-6.59 12.06-5.55 5.3 1.03 12.26 9.85 15.23 12.95 2.95 3.09 7.34 5.87 6.86 10.29-0.48 4.41-16.3 7.14-22.13 4.68-5.83-2.44-12.94-7.91-14.21-8.22-1.28-0.32-1.93-8.4-2.19-11.71-0.27-3.32 2.02-4.44 2.02-4.44z"/>
													<g id="&lt;Group&gt;">
														<g id="&lt;Group&gt;">
															<path id="&lt;Path&gt;" class="s10" d="m435.84 820.95c-0.38 0.06-0.78-0.1-1.01-0.44-0.3-0.46-0.16-1.08 0.3-1.38 0.16-0.1 4.14-2.64 10.29-3.47 0.55-0.09 1.05 0.3 1.13 0.85 0.07 0.54-0.34 1.03-0.86 1.12-5.74 0.76-9.44 3.15-9.48 3.17q-0.18 0.12-0.37 0.15z"/>
														</g>
														<g id="&lt;Group&gt;">
															<path id="&lt;Path&gt;" class="s10" d="m432.98 817.18c-0.39 0.07-0.8-0.09-1.02-0.46-0.28-0.47-0.13-1.08 0.34-1.37 0.18-0.1 4.22-2.48 10.42-3.08 0.55-0.05 1.03 0.35 1.09 0.9 0.06 0.54-0.26 1.04-0.89 1.08-5.78 0.56-9.55 2.79-9.58 2.81q-0.18 0.11-0.36 0.12z"/>
														</g>
														<g id="&lt;Group&gt;">
															<path id="&lt;Path&gt;" class="s10" d="m429.92 814.41c-0.38 0.08-0.79-0.1-1-0.44-0.3-0.46-0.16-1.09 0.3-1.38 0.17-0.11 4.12-2.6 10.34-3.33 0.55-0.07 1.04 0.32 1.11 0.86 0.07 0.56-0.3 1.09-0.87 1.12-5.76 0.7-9.47 3.02-9.51 3.04q-0.18 0.11-0.37 0.13z"/>
														</g>
													</g>
												</g>
												<path id="&lt;Path&gt;" class="s35" d="m418.89 807.91c0 0 0 2.4 2.36 2 2.79-0.46 5.56-4.6 9.41-5.5-2.61 0.97-5.76 5.32-8.25 6.7-2.96 1.62-2.07 3.7-1.92 6.36 0.14 2.65 1.92 3.26 6.36 6.8 4.44 3.55 10.64 4.85 20.41 2.96 7.21-1.4 7.25-3.33 6.79-4.24 0.95 1.36 1.54 2.85 1.35 4.61-0.48 4.41-16.3 7.14-22.13 4.68-5.83-2.44-12.94-7.91-14.21-8.22-1.28-0.32-1.93-8.4-2.19-11.71-0.27-3.32 2.02-4.44 2.02-4.44z"/>
											</g>
											<path id="&lt;Path&gt;" class="s15" d="m417.89 821.15c0 0 1.17 0.67 4.19 1.63 3.83 1.19 5.3 6.23 14.48 6.33 9.17 0.09 13.71-0.48 16.32-1.73 2.61-1.25 2.61-1.25 2.61-1.25 0 0 3.05 4.12 1.34 6.14-1.73 2.01-11.99 5.5-22.96 2.52-6.19-1.67-8.68-4.56-11.45-5.17-2.76-0.61-5.84-2.4-4.53-8.47z"/>
										</g>
									</g>
									<g id="&lt;Group&gt;">
										<g id="&lt;Group&gt;">
											<path id="&lt;Path&gt;" class="s33" d="m373.69 791.93l-14.39 0.09c0 0 0.21 12.94 0.43 15.46 0.21 2.52 7.66 8.33 11.64 5.52z"/>
											<path id="&lt;Path&gt;" class="s34" d="m359.3 792.02c0 0 0.09 5.61 0.21 10.15 0 0 10.9-0.29 12.64 3.69l1.54-13.93z"/>
										</g>
										<g id="&lt;Group&gt;">
											<g id="&lt;Group&gt;">
												<g id="&lt;Group&gt;">
													<path id="&lt;Path&gt;" class="s11" d="m371.79 809.18c0 0 0 2.39-2.35 2-3.4-0.57-6.77-6.59-12.07-5.55-5.29 1.03-12.25 9.85-15.21 12.94-2.96 3.1-7.35 5.87-6.87 10.3 0.48 4.41 16.3 7.14 22.12 4.68 5.84-2.44 12.94-7.91 14.22-8.23 1.27-0.31 1.92-8.39 2.19-11.7 0.27-3.32-2.03-4.44-2.03-4.44z"/>
													<g id="&lt;Group&gt;">
														<g id="&lt;Group&gt;">
															<path id="&lt;Path&gt;" class="s10" d="m354.85 822.22c0.38 0.06 0.77-0.1 1.01-0.44 0.29-0.46 0.16-1.09-0.3-1.38-0.16-0.11-4.14-2.64-10.3-3.47-0.54-0.08-1.04 0.3-1.12 0.85-0.07 0.54 0.33 1.02 0.86 1.12 5.73 0.76 9.43 3.15 9.47 3.17q0.18 0.12 0.38 0.15z"/>
														</g>
														<g id="&lt;Group&gt;">
															<path id="&lt;Path&gt;" class="s10" d="m357.7 818.46c0.39 0.07 0.8-0.1 1.01-0.47 0.29-0.47 0.15-1.09-0.33-1.37-0.17-0.1-4.22-2.49-10.42-3.08-0.55-0.06-1.04 0.35-1.09 0.9-0.06 0.54 0.27 1.04 0.89 1.08 5.78 0.56 9.56 2.79 9.59 2.81q0.17 0.1 0.35 0.13z"/>
														</g>
														<g id="&lt;Group&gt;">
															<path id="&lt;Path&gt;" class="s10" d="m360.77 815.69c0.38 0.06 0.78-0.11 1.01-0.45 0.28-0.46 0.16-1.09-0.31-1.38-0.17-0.11-4.12-2.6-10.34-3.34-0.55-0.07-1.05 0.33-1.11 0.87-0.07 0.55 0.3 1.08 0.87 1.11 5.76 0.71 9.47 3.03 9.5 3.04q0.19 0.11 0.38 0.15z"/>
														</g>
													</g>
												</g>
												<path id="&lt;Path&gt;" class="s35" d="m371.79 809.18c0 0 0 2.39-2.35 2-2.8-0.47-5.57-4.61-9.41-5.5 2.6 0.96 5.75 5.32 8.24 6.7 2.97 1.63 2.08 3.7 1.93 6.36-0.15 2.66-1.93 3.25-6.36 6.81-4.44 3.54-10.65 4.84-20.41 2.94-7.23-1.39-7.26-3.32-6.79-4.23-0.95 1.36-1.55 2.85-1.35 4.61 0.48 4.41 16.3 7.14 22.12 4.68 5.84-2.44 12.94-7.91 14.22-8.23 1.27-0.31 1.92-8.39 2.19-11.7 0.27-3.32-2.03-4.44-2.03-4.44z"/>
											</g>
											<path id="&lt;Path&gt;" class="s15" d="m372.8 822.42c0 0-1.17 0.68-4.2 1.63-3.82 1.18-5.29 6.23-14.47 6.33-9.18 0.09-13.71-0.48-16.33-1.74-2.61-1.25-2.61-1.25-2.61-1.25 0 0-3.04 4.13-1.33 6.16 1.71 2 11.97 5.49 22.95 2.51 6.2-1.67 8.69-4.56 11.45-5.17 2.76-0.61 5.84-2.4 4.54-8.47z"/>
										</g>
									</g>
								</g>
								<g id="&lt;Group&gt;">
									<path id="&lt;Path&gt;" class="s36" d="m363.08 637.05c0 0-5.03 77.87-5.67 100.66-0.64 22.8-2.54 59.52-2.54 59.52l22.8 1.9c0 0 8.23-65.22 12.66-87.37 4.43-22.16 9.5-32.92 9.5-32.92 0 0 13 118.67 12.66 119.66-0.63 1.91 20.34 0.75 24.15-1.14l-5.79-113.46-5.09-51.28c0 0-37.35 9.5-62.68 4.43z"/>
									<path id="&lt;Path&gt;" class="s37" d="m390.33 711.76c-4.43 22.15-12.66 87.37-12.66 87.37l-22.8-1.9c0 0 1.9-36.72 2.54-59.52 0.64-22.79 5.67-100.66 5.67-100.66 10.91 2.18 24.04 1.65 35.46 0.36 4.5 0.28 7.62 0.51 7.93 0.58 1.27 0.32 22.16 1.59 10.44 10.42-11.71 8.83-45.58 5.73-49.06 8.58-3.49 2.85-5.39 37.99-7.91 75.66-2.53 37.69 4.43 60.78 10.45 60.47 6.01-0.32 5.37-10.45 8.54-32.61 3.17-22.16 11.08-72.49 13.29-77.88 2.23-5.39-7.59-9.81-7.59-9.81 0 0 5.38 2.22 14.55 1.58 9.18-0.63 10.77-3.48 10.77-3.48 0 0-3.17 5.7-3.48 11.08-0.31 5.38 5.38 67.75 7.28 87.06 1.9 19.3 9.18 26.59 15.82 26.27 6.63-0.3 6.59-7.25 6.59-7.3l0.48 9.33c-3.81 1.89-24.78 3.05-24.15 1.14 0.34-0.99-12.66-119.66-12.66-119.66 0 0-5.07 10.76-9.5 32.92z"/>
								</g>
							</g>
							<g id="&lt;Group&gt;">
								<path id="&lt;Path&gt;" class="s38" d="m354.19 557.95c0 0-14.48-7.73-17.7-5.15-3.22 2.58-12.72 31.68-14.34 41.98-1.6 10.3-5.98 45.13-6.66 48.11 0 0-2.58 7.76-3 10.07-0.4 2.31-1.36 8.17 0.28 8.85 1.63 0.67 2.71 0.27 4.21 0.4 1.5 0.14 2.72-0.14 3.68 0.68 0.95 0.81 3.39 1.09 4.89 0.14 1.5-0.96 3.82-1.23 5.17-1.36 1.36-0.14 2.59-2.05 3-4.63 0.4-2.58 0.27-6.39-0.41-8.98-0.68-2.58-2.18-7.47-2.18-7.47 0 0 4.24-36.55 7.1-42.67 2.86-6.12 13.57-30.79 15.96-39.97z"/>
								<g id="&lt;Group&gt;">
									<path id="&lt;Path&gt;" class="s38" d="m504.36 552.21c0 0 1.14-1.66 2.09-5.7 0.96-4.04-1.41-4.62-2.61-3.32-1.2 1.29-5.37 11.16 0.52 9.02z"/>
									<g id="&lt;Group&gt;">
										<path id="&lt;Path&gt;" class="s26" d="m476.14 557.36c-0.96 1.36-0.5 3.07 1.03 3.76l11.75 5.4c1.5 0.7 3.53 0.14 4.48-1.23l19.53-28.2c0.97-1.38 0.5-3.07-1.03-3.77l-11.73-5.41c-1.53-0.69-3.54-0.14-4.49 1.24z"/>
										<path id="&lt;Path&gt;" class="s38" d="m440.26 554.68c0 0 15.56 26.21 16.4 27.82 0.83 1.61 24.36-20.59 24.36-20.59 0 0-1.98-0.89-3.02-2.21-1.07-1.38-1.81-3.44-0.75-5.42 1.04-1.99 3-1.17 3.69-2.95 1.98-5.16 3.15-2.11 4.89-4.96 2.44-3.98 2.33-2.19 4.39-3.3 0.83-0.44 1.7-2.22 2.55-2.43 1.22-0.31 2.45-0.19 3.65 0.85 2.04 1.75 4.84 4.17 6.36 8.81 1.54 4.65 3.64 7.36-3.06 13.33-6.7 5.97-10.05 5.74-12.04 7.79-1.99 2.04-19.77 26.23-27.17 31.52-4.94 3.55-11.37 5.99-19.06-4.63-7.7-10.61-18.57-32.29-18.57-32.29z"/>
									</g>
								</g>
								<g id="&lt;Group&gt;">
									<path id="&lt;Path&gt;" class="s39" d="m428.52 599.07c-0.97 17 5.71 41.83 5.71 41.83 0 0-43.06 25.9-78.52 1.54 0 0 5.07-23.17 4.43-39.8-0.63-16.64-3.37-34.16-3.37-34.16l-6.11 8.81-25.68-11.3c0 0 10.22-18.78 22.87-29.48 12.67-10.69 31.63-13.06 31.63-13.06l24.92-0.63c0 0 11.31 1.08 19.55 7.02 8.24 5.94 22.3 24.69 22.3 24.69l-20.26 13.65c0 0 3.14 20.21 2.53 30.89z"/>
									<path id="&lt;Path&gt;" class="s40" d="m355.71 642.44c0 0 5.07-23.17 4.43-39.8-0.63-16.64-3.37-34.16-3.37-34.16l-6.11 8.81-25.68-11.3c0 0 1.2-2.2 3.25-5.49-1.31 7.36 15.39 11.7 22.59 7.95 7.2-3.75 7.2-16.25 7.2-16.25 0 0 6.53 18.13 6.53 33.12 0 15-5.55 53.75 5.89 59.39 11.45 5.62 49.72-0.62 54.3-5.95 4.58-5.32-1.96-13.43-2.62-25-0.66-11.57 0.66-19.38 2.29-29.38 1.64-10.01-7.52-35.63-7.52-35.63 3.92 3.76 9.16 14.38 9.16 14.38 0 0 10.47-6.56 13.41-9.06 2.93-2.5-10.93-20.23-11.04-20.36 8.03 7.77 17.83 20.82 17.83 20.82l-20.26 13.65c0 0 3.14 20.21 2.53 30.89-0.97 17 5.71 41.83 5.71 41.83 0 0-43.06 25.9-78.52 1.54z"/>
								</g>
								<g id="&lt;Group&gt;">
									<path id="&lt;Path&gt;" class="s38" d="m381.08 504.3c0 0 1.22 16.44-2.58 22.88 0 0 13.41 16.29 27.87-0.88 0 0-5.74-2.88-1.92-12.71 0 0-16.05 0.25-23.37-9.29z"/>
									<path id="&lt;Path&gt;" class="s41" d="m404.45 513.59c-0.33 0.82-0.5 1.55-0.69 2.29-1.81 0.92-4.79 2.04-6.37 2.04-5.25 0-11.47-5.1-16.23-12.21-0.04-0.81-0.08-1.41-0.08-1.41 7.32 9.54 23.37 9.29 23.37 9.29z"/>
									<g id="&lt;Group&gt;">
										<path id="&lt;Path&gt;" class="s38" d="m372.27 481.45c1.1-0.31 2.35 0.14 3.5 1.03 0.69-16.89 10.43-30.65 22.46-30.3 18.85 0.53 21.39 14.14 21.39 31.91 0 17.76-13.11 32.43-21.39 32.43-7.07 0-18.14-9.03-21.23-21.54-2.3 0.46-5.18-1.97-6.48-5.61-1.36-3.73-0.57-7.29 1.75-7.92z"/>
										<g id="&lt;Group&gt;">
											<g id="&lt;Group&gt;">
												<g id="&lt;Group&gt;">
													<path id="&lt;Path&gt;" class="s42" d="m392.4 486.58c-0.01 1.66 0.65 2.98 1.48 2.95 0.82-0.02 1.51-1.37 1.53-3.03 0.01-1.67-0.66-2.98-1.5-2.95-0.81 0.02-1.5 1.38-1.51 3.03z"/>
													<g id="&lt;Group&gt;">
														<path id="&lt;Path&gt;" class="s42" d="m388.85 480.48q0.11 0 0.21-0.06c4.64-2.32 7.18-0.19 7.21-0.16 0.2 0.16 0.52 0.14 0.69-0.06 0.18-0.2 0.16-0.51-0.03-0.7-0.14-0.1-3.08-2.55-8.29 0.05-0.24 0.12-0.34 0.42-0.22 0.66 0.09 0.16 0.26 0.27 0.43 0.27z"/>
													</g>
												</g>
												<g id="&lt;Group&gt;">
													<path id="&lt;Path&gt;" class="s42" d="m409.09 486.19c-0.02 1.43 0.6 2.56 1.38 2.53 0.78-0.03 1.41-1.18 1.43-2.59 0-1.42-0.62-2.53-1.41-2.53-0.76 0.01-1.4 1.17-1.4 2.59z"/>
													<g id="&lt;Group&gt;">
														<path id="&lt;Path&gt;" class="s42" d="m407.29 480.2q0.12-0.01 0.22-0.05c4.64-2.35 7.19-0.22 7.23-0.2 0.18 0.17 0.48 0.15 0.67-0.05 0.18-0.21 0.18-0.5-0.05-0.68-0.12-0.12-3.07-2.57-8.27 0.06-0.25 0.12-0.34 0.42-0.22 0.65 0.08 0.18 0.25 0.28 0.42 0.27z"/>
													</g>
												</g>
											</g>
											<path id="&lt;Path&gt;" class="s10" d="m408.48 497.8c0 0-7.8 1.73-14.17-0.58 0 0-0.86 6.7 6.54 7.61 5.02 0.61 6.12-1.82 7.63-7.03z"/>
											<path id="&lt;Path&gt;" class="s43" d="m402.09 489.53c0 0 0.1 1.68 1.4 2.17 1.71 0.66 1.72 2.05 1.06 2.74-0.74 0.79-2.28 0.58-2.28 0.58 0 0 2.72 0.99 3.41-1.26 0.71-2.26-2.74-1.4-3.59-4.23z"/>
										</g>
									</g>
									<path id="&lt;Path&gt;" class="s42" d="m375.77 482.48c0 0 7.19-3.2 6.62-12.62-0.26-4.42 5.99-3.14 13.7 1.14 4.16 2.31 21.03 5.5 19.13 4.29-4.82-3.12-7.37-2.94-9.13-4.86 0 0 7.04 1.63 17.42 7.71 0 0 5.42-21.13-12-29.98-18.08-9.19-30.71 0.39-30.71 0.39 0 0-0.88-3.19 7.23-6.18 0 0-10.84 0.66-12.74 10.32 0 0-4.97-0.98-7.55 7.47-2.59 8.45-0.03 15.55 4.53 21.29 0 0 1.56-1.26 3.5 1.03z"/>
								</g>
							</g>
						</g>
					</g>
				</g>
			</g>
		</g>
	</g>
</svg>