<svg xmlns="http://www.w3.org/2000/svg" width="72" height="72" viewBox="0 0 72 72">
    <defs>
        <filter id="h8whuukaba" x="0" y="0" width="72" height="72" filterUnits="userSpaceOnUse">
            <feOffset dy="4"/>
            <feGaussianBlur stdDeviation="4" result="blur"/>
            <feFlood flood-color="red" flood-opacity=".078"/>
            <feComposite operator="in" in2="blur"/>
            <feComposite in="SourceGraphic"/>
        </filter>
        <filter id="jrm1gihbob" x="1" y="1" width="70" height="70" filterUnits="userSpaceOnUse">
            <feOffset dy="4"/>
            <feGaussianBlur stdDeviation="4" result="blur-2"/>
            <feFlood flood-opacity=".078"/>
            <feComposite operator="in" in2="blur-2"/>
            <feComposite in="SourceGraphic"/>
        </filter>
    </defs>
    <g data-name="Group 57640">
        <g style="filter:url(#h8whuukaba)">
            <rect data-name="Rectangle 12015" width="48" height="48" rx="24" transform="translate(12 8)" style="fill:#ec0000"/>
        </g>
        <g style="filter:url(#jrm1gihbob)">
            <g data-name="Rectangle 12016" transform="translate(14 10)" style="stroke:#fff;fill:none">
                <rect width="44" height="44" rx="22" style="stroke:none"/>
                <rect x="-.5" y="-.5" width="45" height="45" rx="22.5" style="fill:none"/>
            </g>
        </g>
        <path data-name="Exclusion 15" d="M16.817 14.714h-1.956a3.831 3.831 0 0 1-3.827-3.827v-7.06A3.831 3.831 0 0 1 14.861 0h1.956a3.831 3.831 0 0 1 3.827 3.827v7.06a3.831 3.831 0 0 1-3.827 3.827zM14.861 2.551a1.277 1.277 0 0 0-1.276 1.276v7.06a1.277 1.277 0 0 0 1.276 1.276h1.956a1.277 1.277 0 0 0 1.276-1.276v-7.06a1.277 1.277 0 0 0-1.276-1.276zm12.6 12.155h-.025c-2.314-.01-4.773-1.453-4.773-4.109a1.276 1.276 0 0 1 2.551 0c0 1.128 1.37 1.554 2.234 1.558.465 0 1.985-.114 2-1.581.01-.972-.625-1.346-2.671-2.048l-.139-.046-.189-.062c-1.272-.449-3.919-1.383-3.892-4.307A3.932 3.932 0 0 1 24.085.948 4.957 4.957 0 0 1 27.091 0h.025c2.314.01 4.773 1.453 4.773 4.109a1.276 1.276 0 1 1-2.551 0c0-1.128-1.37-1.554-2.234-1.558-.465 0-1.983.114-2 1.583-.008.722.282 1.174 1.95 1.791l.157.054.39.134.015.005a10.273 10.273 0 0 1 2.759 1.262A3.754 3.754 0 0 1 32 10.6a3.923 3.923 0 0 1-1.53 3.163 4.957 4.957 0 0 1-3.007.944zm-22.555 0h-.025C2.568 14.7.11 13.253.11 10.6a1.276 1.276 0 0 1 2.551 0c0 1.128 1.369 1.554 2.232 1.558h.014c.462 0 1.971-.114 1.985-1.581.008-.977-.627-1.349-2.671-2.051l-.15-.049-.179-.059C2.62 7.97-.025 7.036 0 4.111A3.932 3.932 0 0 1 1.529.948a4.954 4.954 0 0 1 3-.948h.03c2.317.01 4.776 1.453 4.776 4.109a1.276 1.276 0 1 1-2.551 0c0-1.128-1.37-1.554-2.234-1.558h-.032c-.458 0-1.953.114-1.966 1.584-.006.722.285 1.175 1.952 1.791l.184.063.361.125a10.309 10.309 0 0 1 2.77 1.266 3.75 3.75 0 0 1 1.624 3.22 3.926 3.926 0 0 1-1.528 3.163 4.965 4.965 0 0 1-3.006.944z" transform="translate(20 25)" style="fill:#fff"/>
    </g>
</svg>
