<svg xmlns="http://www.w3.org/2000/svg" width="488" height="455.492" viewBox="0 0 488 455.492">
  <g id="Asset_2" data-name="Asset 2" transform="translate(0 -43.313)">
    <g id="Layer_2" transform="translate(0 43.313)">
      <g id="Ñëîé_1">
        <g id="Group_43896" data-name="Group 43896">
          <g id="Group_43870" data-name="Group 43870">
            <rect id="Rectangle_10910" data-name="Rectangle 10910" width="44.835" height="70.642" transform="translate(0 359.229)" fill="#f5f5f5"/>
            <path id="Path_92454" data-name="Path 92454" d="M250.81,673.069V834.056H178.074l0-123.379h12.965V693.983h19.573V659.86Z" transform="translate(-105.655 -444.359)" fill="#f5f5f5"/>
            <path id="Path_92455" data-name="Path 92455" d="M1168.814,898.634v112.679H1147.44V882.79Z" transform="translate(-680.814 -576.631)" fill="#f5f5f5"/>
            <rect id="Rectangle_10911" data-name="Rectangle 10911" width="70.715" height="178.852" transform="translate(376.041 276.635)" fill="#f5f5f5"/>
            <rect id="Rectangle_10912" data-name="Rectangle 10912" width="30.557" height="11.057" transform="translate(426.382 279.116) rotate(180)" fill="#f5f5f5"/>
            <rect id="Rectangle_10913" data-name="Rectangle 10913" width="35.36" height="5.673" transform="translate(429.29 270.092) rotate(180)" fill="#f5f5f5"/>
            <rect id="Rectangle_10914" data-name="Rectangle 10914" width="93.167" height="119.414" transform="translate(0 327.838)" fill="#f5f5f5"/>
            <rect id="Rectangle_10915" data-name="Rectangle 10915" width="30.557" height="11.057" transform="translate(42.672 330.315) rotate(180)" fill="#f5f5f5"/>
            <rect id="Rectangle_10916" data-name="Rectangle 10916" width="35.36" height="5.673" transform="translate(45.579 321.295) rotate(180)" fill="#f5f5f5"/>
            <rect id="Rectangle_10917" data-name="Rectangle 10917" width="29.996" height="11.074" transform="translate(224.195 92.293) rotate(180)" fill="#f5f5f5"/>
            <rect id="Rectangle_10918" data-name="Rectangle 10918" width="47.299" height="45.608" transform="translate(232.849 137.901) rotate(180)" fill="#f5f5f5"/>
            <rect id="Rectangle_10919" data-name="Rectangle 10919" width="67.836" height="160.589" transform="translate(243.118 302.19) rotate(180)" fill="#f5f5f5"/>
            <path id="Path_92456" data-name="Path 92456" d="M431.02,472.741h67.836l-10.268-3.7h-47.3Z" transform="translate(-255.739 -331.139)" fill="#f5f5f5"/>
            <path id="Path_92457" data-name="Path 92457" d="M438.56,781.56v95h77.067v-95l-12.3-4.14-31.313,2.672-33.127,1.448Z" transform="translate(-260.212 -514.111)" fill="#f5f5f5"/>
            <path id="Path_92458" data-name="Path 92458" d="M398.43,639.99V791.465h46.376V637.839L411.679,634Z" transform="translate(-236.402 -429.016)" fill="#f5f5f5"/>
            <path id="Path_92459" data-name="Path 92459" d="M508.33,214.388h4.957l-1.773-84.448H510.1Z" transform="translate(-301.609 -129.94)" fill="#f5f5f5"/>
            <rect id="Rectangle_10920" data-name="Rectangle 10920" width="152.793" height="101.097" transform="translate(335.207 354.39)" fill="#f5f5f5"/>
            <rect id="Rectangle_10921" data-name="Rectangle 10921" width="69.475" height="35.002" transform="translate(418.525 420.485)" fill="#f5f5f5"/>
            <path id="Path_92460" data-name="Path 92460" d="M552.34,827.6V978.64h35.417l42.529,0V827.6Z" transform="translate(-327.722 -543.885)" fill="#f5f5f5"/>
            <path id="Path_92461" data-name="Path 92461" d="M261.1,799.58V975.894h35.421l42.525,0V799.58Z" transform="translate(-154.919 -527.26)" fill="#f5f5f5"/>
            <rect id="Rectangle_10922" data-name="Rectangle 10922" width="167.16" height="38.56" transform="translate(0 416.927)" fill="#f5f5f5"/>
            <rect id="Rectangle_10923" data-name="Rectangle 10923" width="87.539" height="244.191" transform="translate(271.08 211.296)" fill="#f5f5f5"/>
            <path id="Path_92462" data-name="Path 92462" d="M724.014,575.41v30.146H666.58V588.179Z" transform="translate(-395.504 -394.252)" fill="#f5f5f5"/>
            <rect id="Rectangle_10924" data-name="Rectangle 10924" width="320.368" height="158.75" transform="translate(72.106 296.736)" fill="#f5f5f5"/>
          </g>
          <g id="Group_43888" data-name="Group 43888" transform="translate(97.681 212.024)">
            <g id="Group_43875" data-name="Group 43875" transform="translate(113.354)">
              <path id="Path_92472" data-name="Path 92472" d="M587.7,675.966q-34.16,0-68.32,0c-.142,0-.329.114-.439-.089.72-4.055,2.208-7.893,3.245-11.858a36.573,36.573,0,0,1,1.558-4.864,12.449,12.449,0,0,1,1.964-3.176,13.77,13.77,0,0,1,6.242-4.246,11.064,11.064,0,0,1,2.656-.37c.142-.012.293.045.423-.049h.488a.828.828,0,0,0,.476.045h34.648a.866.866,0,0,0,.476-.045h.586c.468.081.939.081,1.407.118a10.509,10.509,0,0,1,4.917,1.9,14.2,14.2,0,0,1,5.885,8.491c1.127,4.083,2.355,8.137,3.526,12.212a5.6,5.6,0,0,1,.26,1.944Z" transform="translate(-518.94 -651.31)" fill="#0f223c"/>
              <path id="Path_92473" data-name="Path 92473" d="M595.31,651.31a1.694,1.694,0,0,1-.765.1H560.479a1.832,1.832,0,0,1-.769-.1Z" transform="translate(-543.13 -651.31)" fill="#a1a1a1"/>
            </g>
            <g id="Group_43876" data-name="Group 43876" transform="translate(129.877 6.311)">
              <path id="Path_92474" data-name="Path 92474" d="M568.073,666.83h-8.5v2.887h2.5v9.17h3.506v-9.17h2.5Z" transform="translate(-559.57 -666.83)" fill="#fff"/>
              <path id="Path_92475" data-name="Path 92475" d="M601.872,666.83H598.55l-1.94,3.245-1.871-3.245h-4.319l3.725,5.832-3.762,6.031-3.721-11.862h-3.912l-3.721,12.054h3.005l.724-2.375h3.229l.679,2.375h6.983l2.245-3.8,2.229,3.8h4.307l-4.059-6.462,3.505-5.592Zm-18.487,7.048.976-3.5.976,3.5Z" transform="translate(-571.116 -666.83)" fill="#fff"/>
              <rect id="Rectangle_10925" data-name="Rectangle 10925" width="3.701" height="12.054" transform="translate(32.114)" fill="#fff"/>
            </g>
            <g id="Group_43887" data-name="Group 43887" transform="translate(0 23.918)">
              <g id="Group_43877" data-name="Group 43877" transform="translate(11.346 140.318)">
                <rect id="Rectangle_10926" data-name="Rectangle 10926" width="47.47" height="79.227" rx="12" transform="translate(225.407)" fill="#212121"/>
                <rect id="Rectangle_10927" data-name="Rectangle 10927" width="47.47" height="79.227" rx="12" fill="#212121"/>
              </g>
              <path id="Path_92476" data-name="Path 92476" d="M534.89,793.933c-5.026-6.007-12.749-9.3-16.523-12.562-4.372-3.774-16.816-33.611-27.092-53.09S469.165,711,453.907,710.375v.016c-12.529-.216-93.07-.48-104.55.016-14.847.521-26.437-1.236-36.519,17.873-10.276,19.475-22.725,49.316-27.092,53.09-3.774,3.261-11.5,6.555-16.523,12.562-6.576,7.857-6.181,55.815-3.4,81.679,1.68,15.669,2.525,22.163,7.873,25.738,4.152,2.773,17.71,2.4,26.934,2.172,5.933,0,193.081-.024,201.788-.024,9.207.22,23.692.736,28.011-2.147,5.352-3.575,6.193-10.069,7.873-25.738,2.778-25.864,3.168-73.822-3.4-81.679Z" transform="translate(-254.274 -710.125)" fill="#ffd11a"/>
              <path id="Path_92477" data-name="Path 92477" d="M554.84,789.269c-2.8-9.057-13.087-32.753-18.068-42.794-3.652-7.361-3.424-7.434-11.521-8.211-7.169-.691-51.9-.858-70.565-.891v0H448.9v0c-18.67.029-63.4.2-70.565.891-8.093.777-7.869.854-11.521,8.211-4.982,10.041-15.27,33.741-18.068,42.794-1.147,3.709-2.948,6.084,5.4,6.084H549.436c8.345,0,6.543-2.375,5.4-6.084Z" transform="translate(-304.008 -726.29)" fill="#383636"/>
              <path id="Path_92478" data-name="Path 92478" d="M558.045,795.682c-1.395,1.318-4.278,1.163-6.356,1.163-.2,0-.667,0-1.326-.008-9.813-.077-65.929-.675-88.914-.691-17.251.008-53.151.35-74.148.557-6.978.069-12.31.118-14.762.138-.659.008-1.122.008-1.334.008-3.388,0-8.914.4-6.661-5.832.077-.216.163-.443.248-.683,2.908-8.048,10.614-29.817,16.438-38.942a16.313,16.313,0,0,1,2.525-3.225c3.969-3.619,67.9-2.847,77.7-2.8,9.8-.053,73.729-.821,77.7,2.8,1.846,1.684,4.071,5.559,6.356,10.366.1.216.207.427.309.651.411.862.821,1.761,1.224,2.676.24.541.48,1.078.72,1.627q.708,1.616,1.4,3.286a.157.157,0,0,0,.016.053c1.11,2.668,2.2,5.388,3.209,8.032.187.48.366.96.549,1.427.273.712.537,1.411.805,2.1,0,.008,0,.016.008.016.171.451.342.907.5,1.35.118.333.248.659.366.984.045.118.085.232.13.35.077.224.163.435.24.651q.256.708.512,1.379c.11.309.224.614.325.915.915,2.481,1.684,4.636,2.265,6.242.008.016.008.033.016.053.085.248.171.48.248.691.045.13.085.248.13.366.72,2.2.4,3.514-.435,4.3Z" transform="translate(-313.666 -730.975)" fill="#5d8cae"/>
              <g id="Group_43878" data-name="Group 43878" transform="translate(68.69 133.483)">
                <path id="Path_92479" data-name="Path 92479" d="M565.062,1040.846c-2.712-2.867-11.423-2.464-16.95-2.464H428.3c-5.527,0-14.237-.4-16.95,2.464-2.977,3.144-3.009,6.393.061,13.477,1.053,2.432,7.47,13.961,12.387,22.293s9.825,8.333,13.717,8.333H538.9c3.888,0,8.8,0,13.717-8.333s11.334-19.866,12.387-22.293c3.07-7.084,3.038-10.333.061-13.477Z" transform="translate(-409.109 -1038.362)" fill="#285170"/>
                <rect id="Rectangle_10928" data-name="Rectangle 10928" width="135.249" height="5.323" transform="translate(12.705 7.327)" fill="#4770a0" opacity="0.79"/>
                <rect id="Rectangle_10929" data-name="Rectangle 10929" width="125.424" height="5.323" transform="translate(17.617 16.197)" fill="#4770a0" opacity="0.79"/>
                <rect id="Rectangle_10930" data-name="Rectangle 10930" width="114.233" height="5.323" transform="translate(23.213 25.07)" fill="#4770a0" opacity="0.79"/>
                <rect id="Rectangle_10931" data-name="Rectangle 10931" width="99.219" height="5.323" transform="translate(30.72 33.939)" fill="#4770a0" opacity="0.79"/>
              </g>
              <g id="Group_43879" data-name="Group 43879" transform="translate(18.138 96.9)">
                <path id="Path_92480" data-name="Path 92480" d="M286.866,953.27a16.211,16.211,0,0,0-1.671,11.46c.789,3.676,2.786,7.735,14.689,8.5s25.3,1.419,32.468-1.224,4.482-9.919-.972-12.68c-2.379-1.2-22.956-10.215-30.972-10.8-6.482-.472-11.167.248-13.538,4.742Z" transform="translate(-284.801 -948.403)" fill="#fdfdfd"/>
                <path id="Path_92481" data-name="Path 92481" d="M844.619,953.27a16.211,16.211,0,0,1,1.671,11.46c-.789,3.676-2.786,7.735-14.689,8.5s-25.3,1.419-32.468-1.224-4.481-9.919.972-12.68c2.379-1.2,22.956-10.215,30.972-10.8,6.482-.472,11.167.248,13.538,4.742Z" transform="translate(-587.395 -948.403)" fill="#fdfdfd"/>
              </g>
              <path id="Path_92482" data-name="Path 92482" d="M558.045,853.974c-1.395,1.318-4.278,1.163-6.356,1.163-.2,0-.667,0-1.326-.008-9.813-.077-65.929-.675-88.914-.691-17.251.008-53.151.35-74.148.557-6.978.069-12.31.118-14.762.138-.659.008-1.122.008-1.334.008-3.388,0-8.914.4-6.661-5.832.077-.216.163-.443.248-.683,7.674-3.139,18.971-5.116,31.578-5.116a107.8,107.8,0,0,1,18.328,1.5,82.964,82.964,0,0,0,28.422,0,107.416,107.416,0,0,1,18.328-1.5,102.243,102.243,0,0,1,23.119,2.481,41.349,41.349,0,0,0,18.853,0,102.169,102.169,0,0,1,23.111-2.481c12.6,0,23.9,1.976,31.57,5.108.085.248.171.48.248.691.045.13.085.248.13.366.72,2.2.4,3.514-.435,4.3Z" transform="translate(-313.666 -789.267)" fill="#4770a0" opacity="0.79"/>
              <path id="Path_92483" data-name="Path 92483" d="M443.652,979.6H568.539a4.394,4.394,0,0,1,4.392,4.392v5.2a4.394,4.394,0,0,1-4.392,4.392H443.652a4.394,4.394,0,0,1-4.392-4.392v-5.2A4.394,4.394,0,0,1,443.652,979.6Z" transform="translate(-358.309 -870.013)" fill="#285170"/>
              <path id="Path_92484" data-name="Path 92484" d="M559.128,763.369c-4.152-4.278-26.214-3.607-58.873-3.595-32.472-.012-56.4-.683-60.549,3.595-5.815,5.99-14.559,20.431-10.777,23.851,2.595,2.346,5.9,1.862,14.237,1.862H555.659c8.337,0,11.647.484,14.237-1.862,3.782-3.42-4.961-17.861-10.777-23.851Z" transform="translate(-351.634 -739.557)" fill="#6cb7e5"/>
              <g id="Group_43884" data-name="Group 43884" transform="translate(82.7 33.636)">
                <g id="Group_43881" data-name="Group 43881">
                  <path id="Path_92485" data-name="Path 92485" d="M475.329,815.286c-.541-4.811-.663-13.652-4.27-18.284-3.591-4.607-10.805-4.156-11.59-4.152s-8-.455-11.59,4.152c-3.607,4.632-3.729,13.473-4.27,18.284s3.55,5.291,4.811,5.291h22.1C471.782,820.576,475.869,820.1,475.329,815.286Z" transform="translate(-443.56 -792.836)" fill="#285170"/>
                  <g id="Group_43880" data-name="Group 43880" transform="translate(4.844 26.598)">
                    <rect id="Rectangle_10932" data-name="Rectangle 10932" width="2.525" height="5.474" fill="#285170"/>
                    <rect id="Rectangle_10933" data-name="Rectangle 10933" width="2.525" height="5.474" transform="translate(19.605)" fill="#285170"/>
                  </g>
                </g>
                <g id="Group_43883" data-name="Group 43883" transform="translate(98.352)">
                  <path id="Path_92486" data-name="Path 92486" d="M717.178,815.286c-.541-4.811-.663-13.652-4.27-18.284-3.591-4.607-10.805-4.156-11.59-4.152s-8-.455-11.59,4.152c-3.607,4.632-3.729,13.473-4.27,18.284s3.55,5.291,4.811,5.291h22.1c1.265,0,5.352-.48,4.811-5.291Z" transform="translate(-685.409 -792.836)" fill="#285170"/>
                  <g id="Group_43882" data-name="Group 43882" transform="translate(4.839 26.598)">
                    <rect id="Rectangle_10934" data-name="Rectangle 10934" width="2.525" height="5.474" fill="#285170"/>
                    <rect id="Rectangle_10935" data-name="Rectangle 10935" width="2.525" height="5.474" transform="translate(19.609)" fill="#285170"/>
                  </g>
                </g>
              </g>
              <g id="Group_43885" data-name="Group 43885" transform="translate(24.236 161.171)">
                <path id="Path_92487" data-name="Path 92487" d="M838.934,1125.238c-.5-.13-1-.24-1.492-.39a3.832,3.832,0,0,1-1.9-1.314,2.826,2.826,0,0,1,.59-4.127,6.449,6.449,0,0,1,.769-.517q10.029-5.832,20.069-11.647a5.542,5.542,0,0,1,5.636,0,3.733,3.733,0,0,1,1.8,2.2v1.074c-.142,2.119-.484,4.209-.83,6.3-.277,1.667-.561,3.33-.805,5a3.914,3.914,0,0,1-2.294,3.066,4.93,4.93,0,0,1-1.643.3c-.126.017-.26-.036-.378.049H842.745a22.537,22.537,0,0,0-3.318,0h-.488Z" transform="translate(-617.291 -1106.461)" fill="#0f223c"/>
                <path id="Path_92488" data-name="Path 92488" d="M305.56,1125.224a10.012,10.012,0,0,1-2.094-.76,3.641,3.641,0,0,1-1.806-2.692c-.594-3.7-1.183-7.405-1.806-11.106a3,3,0,0,1,1.517-3.31,5.442,5.442,0,0,1,5.8-.138c3.9,2.208,7.767,4.49,11.647,6.747q4.24,2.464,8.471,4.929a5.391,5.391,0,0,1,1.029.736,2.847,2.847,0,0,1-.167,4.4,4.762,4.762,0,0,1-2.135,1.008,1.679,1.679,0,0,0-.74.187h-.683a.865.865,0,0,0-.476-.045H307.7a.9.9,0,0,0-.476.045h-1.659Z" transform="translate(-299.796 -1106.446)" fill="#0f223c"/>
                <path id="Path_92489" data-name="Path 92489" d="M318.05,1152.475a1.076,1.076,0,0,1,.618-.1h16.141a1.076,1.076,0,0,1,.618.1H318.054Z" transform="translate(-310.627 -1133.698)" fill="#ff9d00"/>
                <path id="Path_92490" data-name="Path 92490" d="M846.02,1152.446a7.539,7.539,0,0,1,2.074-.089,2.634,2.634,0,0,1,1.244.089Z" transform="translate(-623.889 -1133.668)" fill="#ff9d00"/>
              </g>
              <path id="Path_92491" data-name="Path 92491" d="M542.788,890.57h-194.9c-11.322,0-17.434,10.264-.7,17.641s20.968,10.907,31.041,10.907H512.446c10.073,0,14.3-3.53,31.041-10.907s10.622-17.641-.7-17.641Z" transform="translate(-297.556 -817.189)" fill="#fff" opacity="0.22"/>
              <g id="Group_43886" data-name="Group 43886" transform="translate(0 55.277)">
                <path id="Path_92492" data-name="Path 92492" d="M274.116,866.376c-3.644.138-16.234,1.318-23.513-.968s-10.4-5.474-10.4-10.163a3.858,3.858,0,0,1,.024-.427c.333-3.4,4.628-7.946,12.3-8.418,8-.48,14.677-1.078,15.457,2.83.777,3.876-.634,8,.464,9l.024.024c1.139.96,10.142.293,13.814-3.916s1.342,11.659-8.17,12.033Z" transform="translate(-240.2 -846.052)" fill="#ffd11a"/>
                <path id="Path_92493" data-name="Path 92493" d="M903.187,855.26c0-3.428-4.331-8.361-12.33-8.841s-14.673-1.082-15.457,2.826.663,8.068-.48,9.028-10.15.293-13.819-3.916-1.342,11.659,8.166,12.033c3.652.142,16.238,1.322,23.513-.964s10.4-5.474,10.4-10.163Z" transform="translate(-607.622 -846.062)" fill="#ffd11a"/>
              </g>
              <path id="Path_92494" data-name="Path 92494" d="M268.479,858.241c-20.459-.008-26.1-.582-28.219-3.412.333-3.4,4.628-7.946,12.3-8.418,8-.48,14.677-1.078,15.457,2.831.777,3.875-.634,8,.464,9Z" transform="translate(-240.236 -790.781)" fill="#fff" opacity="0.22"/>
              <path id="Path_92495" data-name="Path 92495" d="M897.554,858.241c20.459-.008,26.1-.582,28.219-3.412-.333-3.4-4.628-7.946-12.3-8.418-8-.48-14.677-1.078-15.457,2.831-.777,3.875.634,8-.464,9Z" transform="translate(-630.228 -790.781)" fill="#fff" opacity="0.22"/>
            </g>
          </g>
          <g id="Group_43895" data-name="Group 43895" transform="translate(35.225 102.472)">
            <g id="Group_43889" data-name="Group 43889" transform="translate(18.642)">
              <circle id="Ellipse_3368" data-name="Ellipse 3368" cx="22.696" cy="22.696" r="22.696" fill="#0f223c"/>
              <circle id="Ellipse_3369" data-name="Ellipse 3369" cx="6.706" cy="6.706" r="6.706" transform="translate(7.337 9.914) rotate(-21.5)" fill="#fff" opacity="0.5"/>
              <path id="Path_92496" data-name="Path 92496" d="M180.947,477.695a33.372,33.372,0,0,1-31.622-.012l-.024-.024v.008c2.672,8,8.76,13.607,15.848,13.607s13.168-5.6,15.836-13.6c0-.008.008-.016.008-.024l-.045.045Z" transform="translate(-142.452 -438.72)" fill="#546989"/>
            </g>
            <g id="Group_43894" data-name="Group 43894" transform="translate(0 52.021)">
              <rect id="Rectangle_10936" data-name="Rectangle 10936" width="82.679" height="5.567" transform="translate(0 295.427)" fill="#546989"/>
              <g id="Group_43891" data-name="Group 43891" transform="translate(24.396 212.585)">
                <path id="Path_92497" data-name="Path 92497" d="M180.5,1121H146.61l.333-5.567.106-1.7.069-1.163,4.786-79.983h23.3l4.575,76.392.142,2.4.244,4.05Z" transform="translate(-146.61 -1032.59)" fill="#546989"/>
                <g id="Group_43890" data-name="Group 43890" transform="translate(0.333 78.792)" opacity="0.25">
                  <path id="Path_92498" data-name="Path 92498" d="M180.651,1230.39H147.43l.106-1.7,32.871-2.355Z" transform="translate(-147.43 -1226.34)" fill="#22353d"/>
                </g>
                <rect id="Rectangle_10937" data-name="Rectangle 10937" width="375" height="4" transform="translate(-19.621 84.414)" fill="#0f223c"/>
              </g>
              <g id="Group_43893" data-name="Group 43893" transform="translate(35.307)">
                <path id="Path_92499" data-name="Path 92499" d="M185.506,722.425H173.44l.008-.809L176,509.84h6.942l2.538,210.812Z" transform="translate(-173.44 -509.84)" fill="#546989"/>
                <g id="Group_43892" data-name="Group 43892" transform="translate(0 210.812)" opacity="0.25">
                  <path id="Path_92500" data-name="Path 92500" d="M185.506,1030H173.44l.008-.809,12.033-.964Z" transform="translate(-173.44 -1028.23)" fill="#22353d"/>
                </g>
              </g>
            </g>
          </g>
        </g>
      </g>
    </g>
  </g>
</svg>
