<svg xmlns="http://www.w3.org/2000/svg" width="16" height="12.444" viewBox="0 0 16 12.444">
    <path data-name="Path 1322" d="M10.222-4.333h2.667A.664.664 0 0 0 13.556-5a.664.664 0 0 0-.667-.667h-2.667A.664.664 0 0 0 9.556-5a.664.664 0 0 0 .666.667zM5.778-5a1.8 1.8 0 0 0 1.25-.528 1.8 1.8 0 0 0 .528-1.25 1.8 1.8 0 0 0-.528-1.25 1.8 1.8 0 0 0-1.25-.528 1.8 1.8 0 0 0-1.25.528A1.8 1.8 0 0 0 4-6.778a1.8 1.8 0 0 0 .528 1.25A1.8 1.8 0 0 0 5.778-5zm8.444-8H1.778a1.8 1.8 0 0 0-1.25.528A1.8 1.8 0 0 0 0-11.222v8.889a1.8 1.8 0 0 0 .528 1.25 1.8 1.8 0 0 0 1.25.528h12.444a1.8 1.8 0 0 0 1.25-.528A1.8 1.8 0 0 0 16-2.333v-8.889a1.8 1.8 0 0 0-.528-1.25 1.8 1.8 0 0 0-1.25-.528zm.444 10.667a.428.428 0 0 1-.444.444H8.889a2.305 2.305 0 0 0-.639-1.583 2.305 2.305 0 0 0-1.583-.639H4.889a2.305 2.305 0 0 0-1.583.639 2.305 2.305 0 0 0-.639 1.583h-.889a.428.428 0 0 1-.444-.444v-7.111h13.333zm-4.444-4.223h2.667a.664.664 0 0 0 .667-.667.664.664 0 0 0-.667-.667h-2.667a.664.664 0 0 0-.667.667.664.664 0 0 0 .667.667z" transform="translate(0 13)" style="fill:#212529"/>
</svg>
