<svg xmlns="http://www.w3.org/2000/svg" width="12" height="16" viewBox="0 0 12 16">
    <path data-name="Path 43104" d="M11-10h-1v-2.5A1.5 1.5 0 0 0 8.5-14h-3A1.5 1.5 0 0 0 4-12.5v2.5H3a2 2 0 0 0-2 2v7a2 2 0 0 0 2 2v.5a.5.5 0 0 0 1 0V1h6v.5a.5.5 0 0 0 1 0V1a2 2 0 0 0 2-2v-7a2 2 0 0 0-2-2zm-6-2.5a.5.5 0 0 1 .5-.5h3a.5.5 0 0 1 .5.5v2.5H5zM12-1a1 1 0 0 1-1 1H3a1 1 0 0 1-1-1v-7a1 1 0 0 1 1-1h8a1 1 0 0 1 1 1zM9.5-3.5h-5A.5.5 0 0 0 4-3a.5.5 0 0 0 .5.5h5A.5.5 0 0 0 10-3a.5.5 0 0 0-.5-.5zm0-3h-5A.5.5 0 0 0 4-6a.5.5 0 0 0 .5.5h5A.5.5 0 0 0 10-6a.5.5 0 0 0-.5-.5z" transform="translate(-1.004 14)" style="fill:#212121"/>
</svg>
