<svg xmlns="http://www.w3.org/2000/svg" width="16" height="14.223" viewBox="0 0 16 14.223">
  <path id="Path_89410" data-name="Path 89410" d="M15.109-6a.938.938,0,0,0,.611-.278A.938.938,0,0,0,16-6.89a.764.764,0,0,0-.306-.667L14.22-8.862v-3.361a.865.865,0,0,0-.25-.639.865.865,0,0,0-.639-.25h-.889a.865.865,0,0,0-.639.25.865.865,0,0,0-.25.639V-11.2L8.61-13.806A1,1,0,0,0,8.027-14a.838.838,0,0,0-.611.222L.278-7.557A.909.909,0,0,0,0-6.89a.831.831,0,0,0,.25.611A.968.968,0,0,0,.889-6h.889v5.11a1.009,1.009,0,0,0,.333.778A1.009,1.009,0,0,0,2.889.22H5.11a1.009,1.009,0,0,0,.778-.333,1.009,1.009,0,0,0,.333-.778V-3.335a.865.865,0,0,1,.25-.639.865.865,0,0,1,.639-.25H8.888a.865.865,0,0,1,.639.25.865.865,0,0,1,.25.639V-.891a1.009,1.009,0,0,0,.333.778,1.009,1.009,0,0,0,.778.333h2.222a1.009,1.009,0,0,0,.778-.333,1.009,1.009,0,0,0,.333-.778v-.444a.913.913,0,0,1,.028-.222L14.22-6Z" transform="translate(0 14.003)" fill="#212529" />
</svg>