<svg xmlns="http://www.w3.org/2000/svg" width="12" height="16" viewBox="0 0 12 16">
    <path data-name="Path 38134" d="M6-10.5a5.981 5.981 0 0 0-4.25 1.75A5.981 5.981 0 0 0 0-4.5a5.727 5.727 0 0 0 .25 1.75 7.815 7.815 0 0 0 .969 1.906Q1.937.281 3.281 2.187q.906 1.25 2.094 3a.781.781 0 0 0 1.25 0q1.219-1.781 2.094-3.031 1.344-1.875 2.063-3a7.816 7.816 0 0 0 .968-1.906A5.727 5.727 0 0 0 12-4.5a5.981 5.981 0 0 0-1.75-4.25A5.981 5.981 0 0 0 6-10.5zM6 3.438Q5.187 2.25 4.531 1.312q-1.344-1.906-2-2.906a7.1 7.1 0 0 1-.844-1.594A3.461 3.461 0 0 1 1.5-4.5a4.613 4.613 0 0 1 1.313-3.188A4.613 4.613 0 0 1 6-9a4.613 4.613 0 0 1 3.188 1.312A4.613 4.613 0 0 1 10.5-4.5a3.461 3.461 0 0 1-.187 1.312 7.1 7.1 0 0 1-.844 1.594q-.656 1-2 2.906-.438.625-.969 1.406-.25.344-.5.72zM6-7.031a2.531 2.531 0 0 0-1.781.75 2.48 2.48 0 0 0-.719 1.75 2.594 2.594 0 0 0 .719 1.781A2.594 2.594 0 0 0 6-2.031a2.594 2.594 0 0 0 1.781-.719A2.594 2.594 0 0 0 8.5-4.531a2.48 2.48 0 0 0-.719-1.75A2.531 2.531 0 0 0 6-7.031zM6-3.5a.973.973 0 0 1-.719-.281A.973.973 0 0 1 5-4.5a.973.973 0 0 1 .281-.719A.973.973 0 0 1 6-5.5a.973.973 0 0 1 .719.281A.973.973 0 0 1 7-4.5a.973.973 0 0 1-.281.719A.973.973 0 0 1 6-3.5z" transform="translate(0 10.5)" style="fill:#212529"/>
</svg>
