<svg xmlns="http://www.w3.org/2000/svg" width="11" height="16" viewBox="0 0 11 16">
    <path data-name="Path 1321" d="M9.5-14h-7a2.02 2.02 0 0 0-1.406.594A2.02 2.02 0 0 0 .5-12V0a2.02 2.02 0 0 0 .594 1.406A2.02 2.02 0 0 0 2.5 2h7a2.02 2.02 0 0 0 1.406-.594A2.02 2.02 0 0 0 11.5 0v-12a2.02 2.02 0 0 0-.594-1.406A2.02 2.02 0 0 0 9.5-14zM10 0a.481.481 0 0 1-.5.5h-7A.481.481 0 0 1 2 0v-12a.481.481 0 0 1 .5-.5h7a.481.481 0 0 1 .5.5zM6-1.75a.747.747 0 0 0-.75.75.747.747 0 0 0 .75.75.747.747 0 0 0 .75-.75.747.747 0 0 0-.75-.75z" transform="translate(-.5 14)" style="fill:#212121"/>
</svg>
