<svg xmlns="http://www.w3.org/2000/svg" width="16" height="15" viewBox="0 0 16 15">
  <path id="Path_89413" data-name="Path 89413" d="M5.75-12.5h4.5a.269.269,0,0,1,.25.25V-11h-5v-1.25A.269.269,0,0,1,5.75-12.5ZM4-12.25V-11H2a2.02,2.02,0,0,0-1.406.594A2.02,2.02,0,0,0,0-9v3H16V-9a2.02,2.02,0,0,0-.594-1.406A2.02,2.02,0,0,0,14-11H12v-1.25a1.877,1.877,0,0,0-.5-1.25,1.877,1.877,0,0,0-1.25-.5H5.75a1.877,1.877,0,0,0-1.25.5A1.877,1.877,0,0,0,4-12.25ZM16-5H10v1a.973.973,0,0,1-.281.719A.973.973,0,0,1,9-3H7a.973.973,0,0,1-.719-.281A.973.973,0,0,1,6-4V-5H0v4A2.02,2.02,0,0,0,.594.406,2.02,2.02,0,0,0,2,1H14A2.02,2.02,0,0,0,15.406.406,2.02,2.02,0,0,0,16-1Z" transform="translate(0 14)" fill="#212529" />
</svg>