<svg xmlns="http://www.w3.org/2000/svg" width="14" height="16" viewBox="0 0 14 16">
    <path data-name="Path 43124" d="M3-10a4.035 4.035 0 0 1 1.156-2.844A4.035 4.035 0 0 1 7-14a4.035 4.035 0 0 1 2.844 1.156A4.035 4.035 0 0 1 11-10v.5a4.035 4.035 0 0 1-1.156 2.844A4.035 4.035 0 0 1 7-5.5a4.035 4.035 0 0 1-2.844-1.156A4.035 4.035 0 0 1 3-9.5zm6.281-1H9.25a1.924 1.924 0 0 1-1.562-.781A2.506 2.506 0 0 1 5.5-10.5h-.937a2.055 2.055 0 0 0-.063.5v.5a2.594 2.594 0 0 0 .719 1.781A2.594 2.594 0 0 0 7-7a2.594 2.594 0 0 0 1.781-.719A2.594 2.594 0 0 0 9.5-9.5v-.5a2.336 2.336 0 0 0-.219-1zm-.312 7a5.122 5.122 0 0 1 3.563 1.469A5.122 5.122 0 0 1 14 1.031a.935.935 0 0 1-.281.688.935.935 0 0 1-.688.281H.969a.935.935 0 0 1-.687-.281A.935.935 0 0 1 0 1.031a5.122 5.122 0 0 1 1.469-3.562A5.122 5.122 0 0 1 5.031-4z" transform="translate(0 14)" style="fill:#212121"/>
</svg>
