<svg xmlns="http://www.w3.org/2000/svg" width="16" height="15.516" viewBox="0 0 16 15.516">
    <path data-name="Path 43106" d="M8.749-.788 4.572 1.431a.692.692 0 0 1-.743-.052.81.81 0 0 1-.318-.712l.821-4.713-3.366-3.34a.723.723 0 0 1-.179-.743.725.725 0 0 1 .585-.491l4.644-.688 2.078-4.282a.73.73 0 0 1 .655-.41.727.727 0 0 1 .655.41l2.079 4.282 4.647.688a.728.728 0 0 1 .585.491.729.729 0 0 1-.179.743l-3.37 3.34.8 4.713a.729.729 0 0 1-1.061.764zm-1.861-8.1a.972.972 0 0 1-.73.536l-4.165.615 3.025 3a.981.981 0 0 1 .273.852L4.575.343l3.716-1.986a.961.961 0 0 1 .915 0L12.923.343l-.713-4.228a.964.964 0 0 1 .273-.852l3.025-2.995-4.168-.615a.9.9 0 0 1-.73-.536l-1.861-3.834z" transform="translate(-.75 14)" style="fill:#212121"/>
</svg>
