<svg xmlns="http://www.w3.org/2000/svg" width="16" height="16" viewBox="0 0 16 16">
    <path data-name="Path 43107" d="M0-6a8 8 0 0 1 8-8 8 8 0 0 1 8 8 8 8 0 0 1-8 8 8 8 0 0 1-8-8zm6.941 3.647L4.628-4.637A2.806 2.806 0 0 1 4.387-5H1.071A7.026 7.026 0 0 0 7.5.981V-2a1.477 1.477 0 0 1-.559-.353zM8.5-2V.981A7.025 7.025 0 0 0 14.928-5h-3.315a1.5 1.5 0 0 1-.269.363L9.059-2.353A1.477 1.477 0 0 1 8.5-2zm3.253-4H15a7 7 0 0 0-7-7 7 7 0 0 0-7 7h3.247a1.167 1.167 0 0 1 .128-.369l.4-.8A1.476 1.476 0 0 1 6.119-8h3.762a1.507 1.507 0 0 1 1.344.828l.372.8a.767.767 0 0 1 .156.372zm-6.484.078a.454.454 0 0 0 .094.55l2.284 2.313a.5.5 0 0 0 .706 0l2.284-2.312a.454.454 0 0 0 .094-.55l-.4-.8A.5.5 0 0 0 9.881-7H6.119a.5.5 0 0 0-.447.275z" transform="translate(0 14)" style="fill:#212121"/>
</svg>
