<svg xmlns="http://www.w3.org/2000/svg" width="35.342" height="32" viewBox="0 0 35.342 32">
  <path id="Path_89352" data-name="Path 89352" d="M.91,5.529a5.188,5.188,0,0,1,0-5.12l6.258-10.88a5.153,5.153,0,0,1,4.48-2.56H24.163a5.153,5.153,0,0,1,4.48,2.56L34.9.409a5.188,5.188,0,0,1,0,5.12l-6.258,10.88a5.153,5.153,0,0,1-4.48,2.56H11.648a5.153,5.153,0,0,1-4.48-2.56ZM16.2,9.227a1.707,1.707,0,1,0,3.413,0V4.675h4.551a1.707,1.707,0,1,0,0-3.413H19.612V-3.289A1.7,1.7,0,0,0,17.905-5,1.7,1.7,0,0,0,16.2-3.289V1.262H11.648a1.707,1.707,0,1,0,0,3.413H16.2Z" transform="translate(-0.234 13.031)" fill="#212529"/>
</svg>
