<svg xmlns="http://www.w3.org/2000/svg" width="80" height="80" viewBox="0 0 80 80">
  <g id="Group_40390" data-name="Group 40390" transform="translate(-5154.622 2470.38)">
    <path id="Path_89381" data-name="Path 89381" d="M320.622,266.889a26.269,26.269,0,0,0-26.269-26.269h0a26.146,26.146,0,0,0-13.731,3.871,26.146,26.146,0,0,0-13.731-3.871h0a26.269,26.269,0,0,0-26.269,26.269h0a26.146,26.146,0,0,0,3.871,13.731,26.145,26.145,0,0,0-3.871,13.731h0a26.269,26.269,0,0,0,26.269,26.269h0a26.146,26.146,0,0,0,13.731-3.871,26.145,26.145,0,0,0,13.731,3.871h0a26.269,26.269,0,0,0,26.269-26.269h0a26.146,26.146,0,0,0-3.871-13.731,26.146,26.146,0,0,0,3.871-13.731Z" transform="translate(4914 -2711)" fill="#dfffde"/>
    <g id="Group_40392" data-name="Group 40392" transform="translate(5223.105 -2414.44)">
      <path id="Path_89382" data-name="Path 89382" d="M3313.59,2752.59l.85.515a1.664,1.664,0,0,0,1.726,0l.849-.515-.515.849a1.664,1.664,0,0,0,0,1.726l.515.85-.849-.515a1.664,1.664,0,0,0-1.726,0l-.85.515.515-.85a1.664,1.664,0,0,0,0-1.726Z" transform="translate(-3313.366 -2752.366)" fill="#94e3ff"/>
      <path id="Path_89383" data-name="Path 89383" d="M3303.821,2746.47a.223.223,0,0,1-.191-.339l.515-.85a1.437,1.437,0,0,0,0-1.494l-.515-.85a.223.223,0,0,1,.307-.307l.85.516a1.437,1.437,0,0,0,1.494,0l.85-.516a.224.224,0,0,1,.307.307l-.515.85a1.437,1.437,0,0,0,0,1.494l.515.85a.224.224,0,0,1-.307.307l-.85-.515a1.435,1.435,0,0,0-1.494,0l-.85.515A.219.219,0,0,1,3303.821,2746.47Zm.665-2.984.042.069a1.882,1.882,0,0,1,0,1.958l-.042.069.069-.042a1.882,1.882,0,0,1,1.958,0l.069.042-.042-.069a1.882,1.882,0,0,1,0-1.958l.042-.069-.069.042a1.882,1.882,0,0,1-1.958,0Z" transform="translate(-3303.597 -2742.598)" fill="#3b5c91"/>
    </g>
    <g id="Group_40393" data-name="Group 40393" transform="translate(5224.817 -2464.546)">
      <path id="Path_89384" data-name="Path 89384" d="M3390.19,513.951l.965-.236a1.664,1.664,0,0,0,1.22-1.22l.236-.965.236.965a1.665,1.665,0,0,0,1.221,1.22l.965.236-.965.236a1.665,1.665,0,0,0-1.221,1.22l-.236.965-.236-.965a1.664,1.664,0,0,0-1.22-1.22Z" transform="translate(-3389.966 -511.305)" fill="#ffd385"/>
      <path id="Path_89385" data-name="Path 89385" d="M3382.833,506.819h0a.224.224,0,0,1-.217-.17l-.236-.965a1.435,1.435,0,0,0-1.056-1.057l-.965-.236a.224.224,0,0,1,0-.434l.965-.236a1.435,1.435,0,0,0,1.056-1.057l.236-.965a.224.224,0,0,1,.435,0l.236.965a1.437,1.437,0,0,0,1.057,1.057l.965.236a.224.224,0,0,1,0,.434l-.965.236a1.437,1.437,0,0,0-1.057,1.057l-.236.965A.224.224,0,0,1,3382.833,506.819Zm-1.482-2.646.079.019a1.882,1.882,0,0,1,1.384,1.384l.019.078.02-.078a1.882,1.882,0,0,1,1.384-1.384l.079-.019-.079-.019a1.882,1.882,0,0,1-1.384-1.385l-.02-.078-.019.078a1.882,1.882,0,0,1-1.384,1.385Z" transform="translate(-3380.188 -501.528)" fill="#3b5c91"/>
    </g>
    <g id="Group_40394" data-name="Group 40394" transform="translate(5156.73 -2448.863)">
      <path id="Path_89386" data-name="Path 89386" d="M344.96,1213.8l.787,2.938a.665.665,0,0,0,1.112.3l2.151-2.151a.665.665,0,0,0-.3-1.112l-2.938-.787A.664.664,0,0,0,344.96,1213.8Z" transform="translate(-344.713 -1212.744)" fill="#ffd385"/>
      <path id="Path_89387" data-name="Path 89387" d="M336.613,1207.679a.9.9,0,0,1-.234-.031.879.879,0,0,1-.628-.628l-.787-2.938h0a.888.888,0,0,1,1.088-1.088l2.938.787a.888.888,0,0,1,.4,1.486l-2.151,2.151A.879.879,0,0,1,336.613,1207.679Zm-1.217-3.713.787,2.938a.441.441,0,0,0,.738.2l2.151-2.151a.441.441,0,0,0-.2-.738l-2.938-.787a.441.441,0,0,0-.54.54Z" transform="translate(-334.933 -1202.963)" fill="#3b5c91"/>
    </g>
    <g id="Group_40395" data-name="Group 40395" transform="translate(5195.839 -2398.319)">
      <path id="Path_89388" data-name="Path 89388" d="M2097.786,3477.389l.5-3a.664.664,0,0,0-.889-.731l-2.848,1.068a.665.665,0,0,0-.188,1.135l2.349,1.932A.665.665,0,0,0,2097.786,3477.389Z" transform="translate(-2093.893 -3473.39)" fill="#ff9494"/>
      <path id="Path_89389" data-name="Path 89389" d="M2087.343,3468.376a.879.879,0,0,1-.561-.2l-2.349-1.932a.888.888,0,0,1,.252-1.517l2.848-1.068a.888.888,0,0,1,1.188.977l-.5,3a.88.88,0,0,1-.564.686A.9.9,0,0,1,2087.343,3468.376Zm.5-4.331a.448.448,0,0,0-.156.028l-2.848,1.068a.441.441,0,0,0-.125.753l2.349,1.932a.441.441,0,0,0,.715-.268h0l.5-3a.441.441,0,0,0-.434-.514Z" transform="translate(-2084.108 -3463.597)" fill="#3b5c91"/>
    </g>
    <g id="Group_40396" data-name="Group 40396" transform="translate(5156.681 -2406.801)">
      <path id="Path_89390" data-name="Path 89390" d="M335.1,3085.983l.858-.857a.5.5,0,0,0-.709-.709l-.858.857-.858-.857a.5.5,0,0,0-.709.709l.858.857-.858.858a.5.5,0,0,0,.709.709l.858-.858.858.858a.5.5,0,0,0,.709-.709Z" transform="translate(-332.678 -3084.27)" fill="#ff9494"/>
    </g>
    <g id="Group_40397" data-name="Group 40397" transform="translate(5185.299 -2467.229)">
      <path id="Path_89391" data-name="Path 89391" d="M1616.176,383.114h-1.086v-1.086a.449.449,0,1,0-.9,0v1.086h-1.086a.449.449,0,1,0,0,.9h1.086V385.1a.449.449,0,1,0,.9,0v-1.086h1.086a.449.449,0,0,0,0-.9Z" transform="translate(-1612.656 -381.579)" fill="#ff9494"/>
    </g>
    <g id="Group_40403" data-name="Group 40403" transform="translate(5166.279 -2458.533)">
      <g id="Group_40402" data-name="Group 40402" transform="translate(0 0)">
        <g id="Group_40400" data-name="Group 40400">
          <path id="Path_89394" data-name="Path 89394" d="M807.576,843.137a27.259,27.259,0,0,1-5.453-.55,26.943,26.943,0,0,1-9.687-4.076,27.146,27.146,0,0,1-9.806-11.91,26.964,26.964,0,0,1-1.579-5.087,27.311,27.311,0,0,1,0-10.907,26.949,26.949,0,0,1,4.076-9.687,27.145,27.145,0,0,1,11.91-9.806,26.965,26.965,0,0,1,5.087-1.579,27.309,27.309,0,0,1,10.907,0,26.946,26.946,0,0,1,9.687,4.076c.236.159.479.33.723.506l.393.285-4.575,4.574-.282-.187a20.663,20.663,0,1,0,8.565,11.794l-.064-.232,4.987-4.986.234.58a27.064,27.064,0,0,1-25.122,37.192Z" transform="translate(-780.086 -788.571)" fill="#3e913b"/>
          <path id="Path_89395" data-name="Path 89395" d="M816.421,792.443A27.427,27.427,0,0,0,815,787.709l-.468-1.16-.885.885-4.374,4.374-.34.34.127.464a20.318,20.318,0,1,1-8.395-11.558l.563.373.478-.478,3.993-3.992.191-.191.5-.5-.786-.569c-.248-.179-.495-.352-.734-.514a27.49,27.49,0,0,0-34.811,42.231l.148.146.028.028.142.138q.16.155.323.307l.168.156.143.13.025.022a27.5,27.5,0,0,0,45.394-25.9Zm-.81,10.907a26.532,26.532,0,0,1-4.014,9.539,26.731,26.731,0,0,1-11.728,9.657,26.55,26.55,0,0,1-5.009,1.555,26.9,26.9,0,0,1-10.741,0,26.536,26.536,0,0,1-9.539-4.014,26.8,26.8,0,0,1-6.873-6.728q-.165-.233-.325-.47A26.661,26.661,0,0,1,804.4,775.872q.237.16.47.326l.242.173-3.993,3.992a21.075,21.075,0,1,0,8.736,12.029l4.374-4.374a26.564,26.564,0,0,1,1.382,4.591,26.89,26.89,0,0,1,0,10.741Z" transform="translate(-762 -770.49)" fill="#3e913b"/>
        </g>
        <g id="Group_40401" data-name="Group 40401" transform="translate(14.264 4.016)">
          <path id="Path_89398" data-name="Path 89398" d="M1430.543,1002.175a2.64,2.64,0,0,1-1.879-.779l-9.421-9.421a2.658,2.658,0,0,1,0-3.759l2.725-2.725a2.658,2.658,0,0,1,3.759,0l4.816,4.816,20.927-20.923a2.658,2.658,0,0,1,3.759,0l2.725,2.725a2.658,2.658,0,0,1,0,3.759l-21.219,21.215-4.312,4.312A2.64,2.64,0,0,1,1430.543,1002.175Z" transform="translate(-1418.05 -968.192)" fill="#a4ffa1"/>
          <path id="Path_89399" data-name="Path 89399" d="M1440.156,953.735l-2.725-2.725a3.072,3.072,0,0,0-4.344,0l-8.512,8.511-12.122,12.12-4.524-4.524a3.071,3.071,0,0,0-4.344,0l-2.726,2.725a3.052,3.052,0,0,0-.9,2.172c0,.021,0,.042,0,.063s0,.032,0,.048,0,.028,0,.042,0,.014,0,.021,0,.032,0,.048,0,.03,0,.045v.01c0,.018,0,.037.005.055s0,.045.008.067,0,.028.006.042.005.034.008.051v0l.009.054c0,.018.007.036.01.054s.007.036.011.053l.012.053c0,.018.009.036.013.054.022.087.048.174.078.258l.005.014.013.037.02.051.02.05.021.05.019.043.031.065c.014.029.029.058.044.087l.026.048.026.048c.018.031.036.063.056.094l.029.046a3.068,3.068,0,0,0,.416.516l9.421,9.421a3.071,3.071,0,0,0,4.344,0l4.313-4.312,10.878-10.876,10.341-10.339a3.082,3.082,0,0,0,.26-.3c.026-.033.051-.067.075-.1l.036-.052.035-.052.034-.053.033-.054c.021-.036.042-.072.062-.109l.019-.036.014-.027.019-.039.008-.017.021-.044.008-.018.018-.04.008-.019q.034-.079.064-.16l.019-.053,0-.006.02-.059,0-.006.017-.054c.011-.038.022-.076.031-.115l0-.011.013-.057c0-.018.008-.035.012-.053l0-.014c0-.019.008-.038.011-.057s.005-.029.008-.043,0-.019,0-.028V956.4c0-.016,0-.031.007-.047s.005-.038.008-.057,0-.009,0-.014l.005-.044,0-.024q.009-.088.012-.178c0-.021,0-.042,0-.063v0c0-.021,0-.042,0-.063A3.052,3.052,0,0,0,1440.156,953.735Zm-.585,3.759-21.219,21.215-4.312,4.312a2.244,2.244,0,0,1-3.174,0l-9.421-9.421a2.243,2.243,0,0,1,0-3.174l2.725-2.725a2.244,2.244,0,0,1,3.174,0l5.108,5.108,21.219-21.216a2.244,2.244,0,0,1,3.174,0l2.725,2.725a2.242,2.242,0,0,1,0,3.174Z" transform="translate(-1399.96 -950.11)" fill="#3e913b"/>
        </g>
      </g>
    </g>
  </g>
</svg>
