<svg xmlns="http://www.w3.org/2000/svg" width="16" height="16" viewBox="0 0 16 16">
  <path id="Path_42831" data-name="Path 42831" d="M13.75-9.25A.748.748,0,0,1,13-8.5a.748.748,0,0,1-.75-.75A.749.749,0,0,1,13-10,.749.749,0,0,1,13.75-9.25Zm-.75,5H10.5A1.5,1.5,0,0,0,9-2.75a1.5,1.5,0,0,0,1.5,1.5h3a2.5,2.5,0,0,1,0,5H4.363a11.771,11.771,0,0,0,.8-1H13.5a1.5,1.5,0,0,0,0-3h-3a2.523,2.523,0,0,1-2.528-2.5A2.523,2.523,0,0,1,10.5-5.25h1.6C11.212-6.3,10-7.978,10-9.25a2.983,2.983,0,0,1,3-3,3,3,0,0,1,3,3C16-7.866,14.563-6,13.678-4.988,13.284-4.534,13-4.25,13-4.25Zm1.637-3.822A2.866,2.866,0,0,0,15-9.25a2,2,0,0,0-2-2,2,2,0,0,0-2,2,2.866,2.866,0,0,0,.362,1.178A9.936,9.936,0,0,0,12.3-6.6c.241.322.484.619.7.869.216-.25.459-.547.7-.869A9.936,9.936,0,0,0,14.638-8.072ZM2.222-1.25A.768.768,0,0,1,2.972-2a.731.731,0,0,1,.75.75.731.731,0,0,1-.75.75A.768.768,0,0,1,2.222-1.25ZM3.678,3.012c-.062.072-.122.137-.175.2h0c-.3.334-.5.538-.5.538s-.284-.284-.678-.738C1.437,2,0,.134,0-1.25a2.983,2.983,0,0,1,3-3,2.983,2.983,0,0,1,3,3C6,.025,4.778,1.709,3.894,2.762c-.075.088-.147.172-.216.25ZM4.637-.072A2.73,2.73,0,0,0,4.972-1.25a1.984,1.984,0,0,0-2-2,2.019,2.019,0,0,0-2,2A3.024,3.024,0,0,0,1.363-.072,9.906,9.906,0,0,0,2.3,1.4c.242.322.485.619.672.869A8.817,8.817,0,0,0,3.7,1.4,10.2,10.2,0,0,0,4.637-.072Z" transform="translate(0 12.25)" fill="#09f"/>
</svg>
