<svg xmlns="http://www.w3.org/2000/svg" width="9" height="5" viewBox="0 0 9 5">
  <g id="Group_40388" data-name="Group 40388" transform="translate(-311.5 -103.15)">
    <path id="Path_89369" data-name="Path 89369" d="M2863.175-3523.85h-8a.5.5,0,0,1-.5-.5.5.5,0,0,1,.5-.5h8a.5.5,0,0,1,.5.5A.5.5,0,0,1,2863.175-3523.85Z" transform="translate(-2543.175 3628)" fill="#9e9e9e"/>
    <path id="Path_89370" data-name="Path 89370" d="M2863.175-3523.85h-8a.5.5,0,0,1-.5-.5.5.5,0,0,1,.5-.5h8a.5.5,0,0,1,.5.5A.5.5,0,0,1,2863.175-3523.85Z" transform="translate(-2543.175 3632)" fill="#9e9e9e"/>
  </g>
</svg>
