<svg xmlns="http://www.w3.org/2000/svg" width="11.455" height="14" viewBox="0 0 11.455 14">
  <g id="Layer_2" data-name="Layer 2" transform="translate(-3.001 -0.999)">
    <path id="Path_89330" data-name="Path 89330" d="M12.366,2.3a5.725,5.725,0,1,0-7.124,8.963,9.7,9.7,0,0,1,2.5,2.684l.445.741a.636.636,0,0,0,1.091,0l.427-.711a8.1,8.1,0,0,1,2.277-2.545A5.721,5.721,0,0,0,12.367,2.3ZM8.728,9.272a2.545,2.545,0,1,1,2.545-2.545A2.545,2.545,0,0,1,8.728,9.272Z" transform="translate(0 0)" fill="#212121"/>
  </g>
</svg>
