<svg xmlns="http://www.w3.org/2000/svg" width="13.091" height="16" viewBox="0 0 13.091 16">
  <g id="Layer_2" data-name="Layer 2" transform="translate(-3.001 -0.999)">
    <path id="Path_89330" data-name="Path 89330" d="M13.7,2.49A6.543,6.543,0,1,0,5.563,12.733,11.091,11.091,0,0,1,8.414,15.8l.509.847a.727.727,0,0,0,1.247,0l.488-.813a9.251,9.251,0,0,1,2.6-2.909,6.538,6.538,0,0,0,.445-10.438ZM9.546,10.454a2.909,2.909,0,1,1,2.909-2.909A2.909,2.909,0,0,1,9.546,10.454Z" transform="translate(0 0)" fill="#ff4848"/>
  </g>
</svg>
