<svg xmlns="http://www.w3.org/2000/svg" width="16" height="15.878" viewBox="0 0 16 15.878">
  <path id="Path_42832" data-name="Path 42832" d="M5.259-9.351a1.44,1.44,0,0,0,.144.112c-.481.018-.95.059-1.4.12V-9.75a1.551,1.551,0,0,1,.606-1.157,4.305,4.305,0,0,1,1.334-.727A12.3,12.3,0,0,1,10-12.25a12.42,12.42,0,0,1,4.059.616,4.305,4.305,0,0,1,1.334.727A1.551,1.551,0,0,1,16-9.75v6.809a1.609,1.609,0,0,1-.6,1.188,4.669,4.669,0,0,1-1.338.762A8.606,8.606,0,0,1,13-.669V-1.7q.384-.1.712-.225A3.345,3.345,0,0,0,14.734-2.5.637.637,0,0,0,15-2.941V-5.009a5,5,0,0,1-.934.459A8.607,8.607,0,0,1,13-4.228V-5.259q.384-.1.712-.225a3.412,3.412,0,0,0,1.022-.572C14.95-6.278,15-6.4,15-6.5V-8.309a4.944,4.944,0,0,1-.941.444,9.638,9.638,0,0,1-1.875.456.734.734,0,0,0-.175-.169,4.677,4.677,0,0,0-1.056-.7,9.894,9.894,0,0,0,2.737-.525,3.214,3.214,0,0,0,1.05-.544c.219-.187.259-.324.259-.4s-.041-.212-.259-.4a3.225,3.225,0,0,0-1.05-.545A11.041,11.041,0,0,0,10-11.25a11.345,11.345,0,0,0-3.719.556,3.349,3.349,0,0,0-1.022.545c-.219.187-.287.324-.287.4S5.041-9.538,5.259-9.351ZM0-5.75A1.646,1.646,0,0,1,.606-6.934a5,5,0,0,1,1.334-.7A12.282,12.282,0,0,1,6-8.25a12.4,12.4,0,0,1,4.059.616,4.979,4.979,0,0,1,1.334.7A1.652,1.652,0,0,1,12-5.75V1.059a1.609,1.609,0,0,1-.6,1.188,4.669,4.669,0,0,1-1.338.762A11.839,11.839,0,0,1,6,3.628a11.749,11.749,0,0,1-4.067-.619A4.3,4.3,0,0,1,.6,2.247,1.612,1.612,0,0,1,0,1.059V-5.75Zm1.258.4a3.378,3.378,0,0,0,1.024.544A11.328,11.328,0,0,0,6-4.25a11.031,11.031,0,0,0,3.691-.556,3.239,3.239,0,0,0,1.05-.544c.219-.187.259-.325.259-.4s-.041-.212-.259-.4a3.239,3.239,0,0,0-1.05-.544A10.357,10.357,0,0,0,6-7.25a10.628,10.628,0,0,0-3.718.556,3.378,3.378,0,0,0-1.024.544c-.218.188-.258.325-.258.4S1.041-5.538,1.258-5.35Zm8.8,1.484A12.4,12.4,0,0,1,6-3.25a12.282,12.282,0,0,1-4.06-.616A5.115,5.115,0,0,1,1-4.309V-2.5c0,.1.05.222.267.444a3.358,3.358,0,0,0,1.022.572A10.906,10.906,0,0,0,6-.906a10.923,10.923,0,0,0,3.713-.578,3.412,3.412,0,0,0,1.022-.572C10.95-2.278,11-2.4,11-2.5V-4.309A5.141,5.141,0,0,1,10.059-3.866ZM1.267,1.5a3.294,3.294,0,0,0,1.022.572A10.964,10.964,0,0,0,6,2.628a10.98,10.98,0,0,0,3.712-.553A3.345,3.345,0,0,0,10.734,1.5.637.637,0,0,0,11,1.059V-1.009a5,5,0,0,1-.934.459A11.8,11.8,0,0,1,6,.094,11.706,11.706,0,0,1,1.933-.55a6.506,6.506,0,0,1-.961-.459V1.059c0,.1.078.25.295.444Z" transform="translate(0 12.25)" fill="#299865"/>
</svg>
