<svg xmlns="http://www.w3.org/2000/svg" width="16" height="16" viewBox="0 0 16 16">
  <path id="Path_89356" data-name="Path 89356" d="M16-11a4.317,4.317,0,0,1-.5,1.75,16.957,16.957,0,0,1-1.094,1.781q-.625.813-1.062,1.313A.413.413,0,0,1,12.906-6H10a.973.973,0,0,0-.719.281A.973.973,0,0,0,9-5a.973.973,0,0,0,.281.719A.973.973,0,0,0,10-4h3a2.99,2.99,0,0,1,2.125.875A2.99,2.99,0,0,1,16-1a2.99,2.99,0,0,1-.875,2.125A2.99,2.99,0,0,1,13,2H4.375q.406-.469.938-1.156Q5.594.469,5.906,0H13a.973.973,0,0,0,.719-.281A.973.973,0,0,0,14-1a.973.973,0,0,0-.281-.719A.973.973,0,0,0,13-2H10a2.99,2.99,0,0,1-2.125-.875A2.99,2.99,0,0,1,7-5a2.99,2.99,0,0,1,.875-2.125A2.99,2.99,0,0,1,10-8h1.25a12.552,12.552,0,0,1-.875-1.531A4.132,4.132,0,0,1,10-11a2.99,2.99,0,0,1,.875-2.125A2.99,2.99,0,0,1,13-14a2.99,2.99,0,0,1,2.125.875A2.99,2.99,0,0,1,16-11ZM3.656,1.281q-.188.219-.312.344l-.062.063a.458.458,0,0,1-.625-.062Q2.25,1.187,1.625.406A11.885,11.885,0,0,1,.5-1.281,4.1,4.1,0,0,1,0-3,2.99,2.99,0,0,1,.875-5.125,2.99,2.99,0,0,1,3-6a2.99,2.99,0,0,1,2.125.875A2.99,2.99,0,0,1,6-3a4.1,4.1,0,0,1-.406,1.531A13.126,13.126,0,0,1,4.656.063Q4.125.75,3.688,1.25ZM4-3a.973.973,0,0,0-.281-.719A.973.973,0,0,0,3-4a.973.973,0,0,0-.719.281A.973.973,0,0,0,2-3a.973.973,0,0,0,.281.719A.973.973,0,0,0,3-2a.973.973,0,0,0,.719-.281A.973.973,0,0,0,4-3Zm9-7a.973.973,0,0,0,.719-.281A.973.973,0,0,0,14-11a.973.973,0,0,0-.281-.719A.973.973,0,0,0,13-12a.973.973,0,0,0-.719.281A.973.973,0,0,0,12-11a.973.973,0,0,0,.281.719A.973.973,0,0,0,13-10Z" transform="translate(0 14)" fill="#fff"/>
</svg>
