<svg xmlns="http://www.w3.org/2000/svg" xmlns:xlink="http://www.w3.org/1999/xlink" width="40" height="40" viewBox="0 0 40 40">
  <defs>
    <clipPath id="clip-path">
      <ellipse id="Ellipse_3194" data-name="Ellipse 3194" cx="20" cy="20" rx="20" ry="20" transform="translate(-22348 -19839)" fill="#03a3ff"/>
    </clipPath>
  </defs>
  <g id="Mask_Group_63" data-name="Mask Group 63" transform="translate(22348 19839)" clip-path="url(#clip-path)">
    <ellipse id="Ellipse_3193" data-name="Ellipse 3193" cx="20" cy="20" rx="20" ry="20" transform="translate(-22348 -19839)" fill="#b0e1fc"/>
    <g id="Group_39918" data-name="Group 39918" transform="translate(-22345 -19833.791)">
      <g id="Group_39834" data-name="Group 39834" transform="translate(0 24.538)">
        <g id="Group_39833" data-name="Group 39833">
          <path id="Path_88253" data-name="Path 88253" d="M356.979,394.788H323.67s.335-4.155,2.346-4.96c.813-.324,2.675-1.251,4.607-2.241.717-.367,1.444-.743,2.13-1.1l.216-.112c.562-.293,1.093-.57,1.563-.817,1.035-.543,1.775-.937,1.916-1.011l.024-.013.254.057q.478.108.959.183t.954.124a15.878,15.878,0,0,0,5.263-.362l.009,0s.782.4,1.932.989c.477.244,1.02.52,1.6.811l.219.11.862.435c.311.157.626.316.941.473,2.147,1.075,4.3,2.126,5.174,2.476C356.644,390.633,356.979,394.788,356.979,394.788Z" transform="translate(-323.67 -384.534)" fill="#07a3fd"/>
        </g>
      </g>
      <g id="Group_39836" data-name="Group 39836" transform="translate(9.082 26.338)">
        <g id="Group_39835" data-name="Group 39835" transform="translate(0)">
          <path id="Path_88254" data-name="Path 88254" d="M375.983,392.059c-.114.333-.245.674-.4,1.014a8.432,8.432,0,0,1-2.326,3.181,6.637,6.637,0,0,1-4.3,1.453,8.16,8.16,0,0,1-6.823-3.753,12.522,12.522,0,0,1-1.057-1.851l.216-.112a12.311,12.311,0,0,0,1.044,1.831,7.77,7.77,0,0,0,6.62,3.642c2.927,0,5.082-1.511,6.406-4.489.153-.344.285-.689.4-1.026Z" transform="translate(-361.079 -391.949)" fill="#0068a4"/>
        </g>
      </g>
      <g id="Group_39837" data-name="Group 39837" transform="translate(10.86 24.537)">
        <path id="Path_88255" data-name="Path 88255" d="M379.716,385.522a5.641,5.641,0,0,1-5.518,4.551,6.12,6.12,0,0,1-5.794-4.516c1.035-.543,1.775-.937,1.916-1.011l.024-.013.254.057q.478.107.959.183t.954.124a15.88,15.88,0,0,0,5.263-.362l.008,0S378.566,384.936,379.716,385.522Z" transform="translate(-368.404 -384.533)" fill="#fff7f1"/>
      </g>
      <g id="Group_39917" data-name="Group 39917" transform="translate(7.227 0)">
        <g id="Group_39848" data-name="Group 39848" transform="translate(5.203 20.336)">
          <g id="Group_39842" data-name="Group 39842">
            <g id="Group_39841" data-name="Group 39841">
              <g id="Group_39840" data-name="Group 39840">
                <g id="Group_39839" data-name="Group 39839">
                  <g id="Group_39838" data-name="Group 39838">
                    <path id="Path_88256" data-name="Path 88256" d="M382.847,372.277s-.653,2.053-3.655,2.053c-3.5,0-4.325-1.867-4.325-1.867a15.212,15.212,0,0,0,.654-2.22h0a11.951,11.951,0,0,0,.28-2.772l6.151-.243c.057.521.149,1.134.254,1.751C382.485,370.617,382.847,372.277,382.847,372.277Z" transform="translate(-374.867 -367.228)" fill="#ffb8a1"/>
                  </g>
                </g>
              </g>
            </g>
          </g>
          <g id="Group_39847" data-name="Group 39847" transform="translate(0.655)">
            <g id="Group_39846" data-name="Group 39846">
              <g id="Group_39845" data-name="Group 39845">
                <g id="Group_39844" data-name="Group 39844">
                  <g id="Group_39843" data-name="Group 39843">
                    <path id="Path_88257" data-name="Path 88257" d="M384.251,368.979c-.953.663-3.036,1.649-6.685,1.265a11.954,11.954,0,0,0,.28-2.772l6.151-.243C384.054,367.749,384.146,368.362,384.251,368.979Z" transform="translate(-377.566 -367.228)" fill="#3f2037"/>
                  </g>
                </g>
              </g>
            </g>
          </g>
        </g>
        <g id="Group_39865" data-name="Group 39865" transform="translate(0 11.016)">
          <g id="Group_39864" data-name="Group 39864">
            <g id="Group_39853" data-name="Group 39853">
              <g id="Group_39852" data-name="Group 39852">
                <g id="Group_39851" data-name="Group 39851">
                  <g id="Group_39850" data-name="Group 39850">
                    <g id="Group_39849" data-name="Group 39849">
                      <path id="Path_88258" data-name="Path 88258" d="M357.227,330.379s-1.9-2.591-3.384-1.058,1.375,6.874,3.966,5.711Z" transform="translate(-353.437 -328.836)" fill="#ffb8a1"/>
                    </g>
                  </g>
                </g>
              </g>
            </g>
            <g id="Group_39858" data-name="Group 39858" transform="translate(1.005 1.339)">
              <g id="Group_39857" data-name="Group 39857">
                <g id="Group_39856" data-name="Group 39856">
                  <g id="Group_39855" data-name="Group 39855">
                    <g id="Group_39854" data-name="Group 39854">
                      <path id="Path_88259" data-name="Path 88259" d="M359.453,337.617a.132.132,0,0,1-.13-.113,4.874,4.874,0,0,0-1.7-2.916.132.132,0,0,1,.159-.21,5.066,5.066,0,0,1,1.8,3.089.131.131,0,0,1-.112.148Z" transform="translate(-357.575 -334.352)" fill="#ff8a8a"/>
                    </g>
                  </g>
                </g>
              </g>
            </g>
            <g id="Group_39863" data-name="Group 39863" transform="translate(1.269 2.69)">
              <g id="Group_39862" data-name="Group 39862">
                <g id="Group_39861" data-name="Group 39861">
                  <g id="Group_39860" data-name="Group 39860">
                    <g id="Group_39859" data-name="Group 39859">
                      <path id="Path_88260" data-name="Path 88260" d="M359.878,340.539a.132.132,0,0,1-.109-.058c-.191-.283-.763-.311-.966-.3a.131.131,0,0,1-.016-.262c.036,0,.886-.05,1.2.414a.131.131,0,0,1-.035.183A.133.133,0,0,1,359.878,340.539Z" transform="translate(-358.664 -339.918)" fill="#ff8a8a"/>
                    </g>
                  </g>
                </g>
              </g>
            </g>
          </g>
        </g>
        <g id="Group_39882" data-name="Group 39882" transform="translate(14.804 11.016)">
          <g id="Group_39881" data-name="Group 39881">
            <g id="Group_39870" data-name="Group 39870">
              <g id="Group_39869" data-name="Group 39869">
                <g id="Group_39868" data-name="Group 39868">
                  <g id="Group_39867" data-name="Group 39867">
                    <g id="Group_39866" data-name="Group 39866">
                      <path id="Path_88261" data-name="Path 88261" d="M415,330.379s1.9-2.591,3.384-1.058-1.375,6.874-3.966,5.711Z" transform="translate(-414.417 -328.836)" fill="#ffb8a1"/>
                    </g>
                  </g>
                </g>
              </g>
            </g>
            <g id="Group_39875" data-name="Group 39875" transform="translate(1.358 1.339)">
              <g id="Group_39874" data-name="Group 39874">
                <g id="Group_39873" data-name="Group 39873">
                  <g id="Group_39872" data-name="Group 39872">
                    <g id="Group_39871" data-name="Group 39871">
                      <path id="Path_88262" data-name="Path 88262" d="M420.142,337.617h-.018a.131.131,0,0,1-.112-.148,5.066,5.066,0,0,1,1.8-3.089.132.132,0,0,1,.159.209,4.887,4.887,0,0,0-1.7,2.916A.132.132,0,0,1,420.142,337.617Z" transform="translate(-420.011 -334.352)" fill="#ff8a8a"/>
                    </g>
                  </g>
                </g>
              </g>
            </g>
            <g id="Group_39880" data-name="Group 39880" transform="translate(1.757 2.69)">
              <g id="Group_39879" data-name="Group 39879">
                <g id="Group_39878" data-name="Group 39878">
                  <g id="Group_39877" data-name="Group 39877">
                    <g id="Group_39876" data-name="Group 39876">
                      <path id="Path_88263" data-name="Path 88263" d="M421.785,340.539a.131.131,0,0,1-.109-.205c.314-.464,1.164-.416,1.2-.414a.132.132,0,0,1-.016.263c-.2-.012-.776.017-.966.3A.132.132,0,0,1,421.785,340.539Z" transform="translate(-421.654 -339.917)" fill="#ff8a8a"/>
                    </g>
                  </g>
                </g>
              </g>
            </g>
          </g>
        </g>
        <g id="Group_39888" data-name="Group 39888" transform="translate(1.902)">
          <g id="Group_39887" data-name="Group 39887">
            <g id="Group_39886" data-name="Group 39886">
              <g id="Group_39885" data-name="Group 39885">
                <g id="Group_39883" data-name="Group 39883" transform="translate(0.643 4.524)">
                  <path id="Path_88264" data-name="Path 88264" d="M372.178,302.1c-5.425,0-8.794,2.809-8.189,9.262.361,3.852,2.343,8.617,6.913,8.724,4.763.112,6.674-5.074,7.354-9.008.622-3.6-1.209-7.593-4.682-8.731A7.552,7.552,0,0,0,372.178,302.1Z" transform="translate(-363.919 -302.098)" fill="#ffb8a1"/>
                </g>
                <g id="Group_39884" data-name="Group 39884">
                  <path id="Path_88265" data-name="Path 88265" d="M361.922,296.071s-.631-6.117-.65-7.473c-.045-3.3,3.281-5.146,8.163-5.135,3.937.008,4.422,1.732,4.739,3.127,0,0,2.911.075,3.355,2.1s-1.4,8.158-1.4,8.158a20.144,20.144,0,0,1-1.063-3.44c-.444-2.03-1.022-3.271-2.29-3.3a8.093,8.093,0,0,0-4.566,1.053c-1.713,1.015-3.425,1.142-4.63.254C363.576,291.422,363.254,294.485,361.922,296.071Z" transform="translate(-361.272 -283.463)" fill="#3f2037"/>
                </g>
              </g>
            </g>
          </g>
        </g>
        <g id="Group_39890" data-name="Group 39890" transform="translate(3.481 14.327)" opacity="0.5">
          <g id="Group_39889" data-name="Group 39889">
            <path id="Path_88266" data-name="Path 88266" d="M371.57,343.311c0,.46-.85.833-1.9.833s-1.9-.373-1.9-.833.85-.833,1.9-.833S371.57,342.851,371.57,343.311Z" transform="translate(-367.774 -342.478)" fill="#ff8a8a"/>
          </g>
        </g>
        <g id="Group_39892" data-name="Group 39892" transform="translate(12.41 14.327)" opacity="0.5">
          <g id="Group_39891" data-name="Group 39891">
            <path id="Path_88267" data-name="Path 88267" d="M408.349,343.311c0,.46-.85.833-1.9.833s-1.9-.373-1.9-.833.85-.833,1.9-.833S408.349,342.851,408.349,343.311Z" transform="translate(-404.553 -342.478)" fill="#ff8a8a"/>
          </g>
        </g>
        <g id="Group_39893" data-name="Group 39893" transform="translate(2.552 11.306)">
          <path id="Path_88268" data-name="Path 88268" d="M378.317,331.335a34.51,34.51,0,0,1-.928,6.724c-1.422,6-6.3,5.2-6.3,5.2s-4.785.8-6.207-5.2a34.508,34.508,0,0,1-.928-6.724l.779-1.3s.546,5.174,2.526,6.07c0,0,.88-1.338,3.83-.088,2.95-1.251,3.925.088,3.925.088,1.98-.9,2.527-6.07,2.527-6.07Z" transform="translate(-363.951 -330.033)" fill="#3f2037"/>
        </g>
        <g id="Group_39895" data-name="Group 39895" transform="translate(9.047 13.317)">
          <g id="Group_39894" data-name="Group 39894">
            <path id="Path_88269" data-name="Path 88269" d="M391.562,341.78a1.892,1.892,0,0,1-.748-.178.188.188,0,0,1-.111-.2l.381-2.924a.188.188,0,0,1,.372.048l-.362,2.78a.942.942,0,0,0,.9-.036.188.188,0,1,1,.21.311A1.117,1.117,0,0,1,391.562,341.78Z" transform="translate(-390.702 -338.317)" fill="#ff8a8a"/>
          </g>
        </g>
        <g id="Group_39897" data-name="Group 39897" transform="translate(7.559 17.729)">
          <g id="Group_39896" data-name="Group 39896">
            <path id="Path_88270" data-name="Path 88270" d="M386.574,357.81a4.335,4.335,0,0,1-1.9-.452.188.188,0,0,1,.183-.328,3.472,3.472,0,0,0,3.966-.494.188.188,0,0,1,.255.276A3.59,3.59,0,0,1,386.574,357.81Z" transform="translate(-384.573 -356.487)" fill="#734669"/>
          </g>
        </g>
        <g id="Group_39899" data-name="Group 39899" transform="translate(8.944 19.553)">
          <g id="Group_39898" data-name="Group 39898">
            <path id="Path_88271" data-name="Path 88271" d="M391.2,364.575a2.883,2.883,0,0,1-.788-.111.188.188,0,0,1,.111-.358h0a2.1,2.1,0,0,0,1.426-.077.188.188,0,1,1,.185.327A1.9,1.9,0,0,1,391.2,364.575Z" transform="translate(-390.277 -364.004)" fill="#734669"/>
          </g>
        </g>
        <g id="Group_39901" data-name="Group 39901" transform="translate(5.184 10.187)">
          <g id="Group_39900" data-name="Group 39900">
            <path id="Path_88272" data-name="Path 88272" d="M375.508,327.021a5.083,5.083,0,0,1,1.567-.569.489.489,0,0,0,.4-.648l-.021-.059a.487.487,0,0,0-.51-.321,3.44,3.44,0,0,0-2.01.823.486.486,0,0,0-.118.49h0A.487.487,0,0,0,375.508,327.021Z" transform="translate(-374.79 -325.422)" fill="#3f2037"/>
          </g>
        </g>
        <g id="Group_39903" data-name="Group 39903" transform="translate(11.675 10.187)">
          <g id="Group_39902" data-name="Group 39902">
            <path id="Path_88273" data-name="Path 88273" d="M403.519,327.021a5.082,5.082,0,0,0-1.567-.569.489.489,0,0,1-.4-.648l.021-.059a.487.487,0,0,1,.51-.321,3.44,3.44,0,0,1,2.01.823.486.486,0,0,1,.118.49h0A.487.487,0,0,1,403.519,327.021Z" transform="translate(-401.526 -325.422)" fill="#3f2037"/>
          </g>
        </g>
        <g id="Group_39916" data-name="Group 39916" transform="translate(6.539 12.307)">
          <g id="Group_39909" data-name="Group 39909">
            <g id="Group_39908" data-name="Group 39908">
              <g id="Group_39907" data-name="Group 39907">
                <g id="Group_39906" data-name="Group 39906">
                  <g id="Group_39905" data-name="Group 39905">
                    <g id="Group_39904" data-name="Group 39904">
                      <path id="Path_88274" data-name="Path 88274" d="M381.242,335.067c.009.508-.179.924-.419.928s-.442-.4-.451-.913.179-.924.419-.928S381.233,334.559,381.242,335.067Z" transform="translate(-380.373 -334.154)" fill="#3f2037"/>
                    </g>
                  </g>
                </g>
              </g>
            </g>
          </g>
          <g id="Group_39915" data-name="Group 39915" transform="translate(5.413)">
            <g id="Group_39914" data-name="Group 39914">
              <g id="Group_39913" data-name="Group 39913">
                <g id="Group_39912" data-name="Group 39912">
                  <g id="Group_39911" data-name="Group 39911">
                    <g id="Group_39910" data-name="Group 39910">
                      <path id="Path_88275" data-name="Path 88275" d="M402.669,335.067c-.009.508.179.924.419.928s.442-.4.451-.913-.179-.924-.419-.928S402.678,334.559,402.669,335.067Z" transform="translate(-402.669 -334.154)" fill="#3f2037"/>
                    </g>
                  </g>
                </g>
              </g>
            </g>
          </g>
        </g>
      </g>
    </g>
  </g>
</svg>
