<svg xmlns="http://www.w3.org/2000/svg" width="14" height="14" viewBox="0 0 14 14">
  <path id="Path_89331" data-name="Path 89331" d="M4.294-3.47l-.848-.848a.87.87,0,0,1-.219-.875q.137-.383.328-.93H.656a.623.623,0,0,1-.574-.328.7.7,0,0,1,0-.656l1.45-2.434a1.929,1.929,0,0,1,1.7-.957H5.47q.109-.164.191-.3a7.228,7.228,0,0,1,2.516-2.352,7.109,7.109,0,0,1,2.708-.82,9.6,9.6,0,0,1,2.352.109.85.85,0,0,1,.629.629,9.6,9.6,0,0,1,.109,2.352,7.109,7.109,0,0,1-.82,2.708A7.228,7.228,0,0,1,10.8-5.658q-.137.082-.3.191v2.243a1.929,1.929,0,0,1-.957,1.7L7.111-.079a.7.7,0,0,1-.656,0,.623.623,0,0,1-.328-.574V-3.58l-.985.328A.814.814,0,0,1,4.294-3.47ZM10.5-9.4a1.126,1.126,0,0,0,.957-.547,1.162,1.162,0,0,0,0-1.094,1.126,1.126,0,0,0-.957-.547,1.126,1.126,0,0,0-.957.547,1.162,1.162,0,0,0,0,1.094A1.126,1.126,0,0,0,10.5-9.4Z" transform="translate(0 13.997)" fill="currentColor"/>
</svg>
