<svg xmlns="http://www.w3.org/2000/svg" width="16" height="16.001" viewBox="0 0 16 16.001">
  <g id="Group_40383" data-name="Group 40383" transform="translate(-588 83.001) rotate(-90)">
    <path id="Path_89361" data-name="Path 89361" d="M15.759-10.55l-3.5-3.25a.751.751,0,0,0-.81-.138.75.75,0,0,0-.45.688L11-11H1a.994.994,0,0,0-1,.972A1.042,1.042,0,0,0,1-9H11l0,2.25a.749.749,0,0,0,.45.688.751.751,0,0,0,.81-.138l3.5-3.25A.747.747,0,0,0,15.759-10.55Z" transform="translate(67 602)" fill="#212121"/>
    <path id="Path_89360" data-name="Path 89360" d="M16-2.028A1,1,0,0,1,15-1H5L5,1.25a.75.75,0,0,1-1.261.55L.239-1.45a.75.75,0,0,1,0-1.1l3.5-3.25a.751.751,0,0,1,.81-.138A.749.749,0,0,1,5-5.25L5-3H15A.993.993,0,0,1,16-2.028Z" transform="translate(67 602)" fill="#212121"/>
  </g>
</svg>
