<svg xmlns="http://www.w3.org/2000/svg" width="16" height="16" viewBox="0 0 16 16">
  <path id="Path_89365" data-name="Path 89365" d="M13.656,10.344H13.1a1.4,1.4,0,0,0-2.64,0H9.438a.938.938,0,0,1,0-1.875h3.281a.526.526,0,0,0,.375-.188l2.251-3.032a3.281,3.281,0,1,0-5.252,0l1.689,2.283H9.438a1.875,1.875,0,0,0,0,3.75h1.024a1.4,1.4,0,0,0,2.64,0h.555a1.408,1.408,0,0,1,1.406,1.406,1.435,1.435,0,0,1-1.406,1.438H10.289a1.4,1.4,0,0,0-2.64,0H4.219l1.689-2.283A3.281,3.281,0,1,0,0,9.875a3.252,3.252,0,0,0,.655,1.967c.055.073,2.262,3.059,2.331,3.117a.474.474,0,0,0,.294.1H7.649a1.4,1.4,0,0,0,2.64,0h3.368A2.373,2.373,0,0,0,16,12.687,2.346,2.346,0,0,0,13.656,10.344ZM11.313,3.281a1.406,1.406,0,1,1,1.406,1.406A1.408,1.408,0,0,1,11.313,3.281Zm-8.031,8A1.406,1.406,0,1,1,4.688,9.875,1.408,1.408,0,0,1,3.281,11.281Z" fill="#212121"/>
</svg>
