<svg xmlns="http://www.w3.org/2000/svg" width="32" height="31.773" viewBox="0 0 32 31.773">
  <path id="Path_89342" data-name="Path 89342" d="M26.2,26.494l-4.27-2.465a1.746,1.746,0,0,0-2.379.637l-.169.292a2.885,2.885,0,0,1-4.229.865,37.03,37.03,0,0,1-3.951-3.439,37,37,0,0,1-3.439-3.95,2.883,2.883,0,0,1,.865-4.228l.292-.168a1.747,1.747,0,0,0,.638-2.379L7.1,7.387A1.741,1.741,0,0,0,4.942,6.64l-.053.02A16.009,16.009,0,0,0,1.121,8.445C-.714,10.28.071,13.6.89,15.712A30.755,30.755,0,0,0,7.83,25.76,30.766,30.766,0,0,0,17.877,32.7a11.724,11.724,0,0,0,4.113.89,4.325,4.325,0,0,0,3.154-1.121,17.376,17.376,0,0,0,1.79-3.781l.021-.052a1.726,1.726,0,0,0-.752-2.141ZM24.888,9.742a1.016,1.016,0,0,1,.673.956v4.863h.189a1.016,1.016,0,1,1,0,2.032h-.189v1.125a1.016,1.016,0,0,1-2.032,0V17.593H19.707a1.016,1.016,0,0,1-.785-1.661l4.838-5.88A1.017,1.017,0,0,1,24.888,9.742Zm-1.359,5.819h-1.67l1.67-2.029Zm-6.886-2.006a1.331,1.331,0,0,0-.328-1.513,1.735,1.735,0,0,0-1.784-.149.99.99,0,0,0-.494,1.072,1.016,1.016,0,0,1-2.022.195,2.986,2.986,0,0,1,1.544-3.052,3.749,3.749,0,0,1,4.018.341A3.312,3.312,0,0,1,18.6,14.091a5.576,5.576,0,0,1-2.232,2.535c-.43.335-.886.691-1.3,1.077h2.952a1.016,1.016,0,0,1,0,2.032H13a1.015,1.015,0,0,1-.914-1.459,9.9,9.9,0,0,1,3.032-3.251c.635-.5,1.425-1.113,1.523-1.468ZM32,15.049a13.146,13.146,0,0,1-3.876,9.356,1.016,1.016,0,1,1-1.437-1.437A11.2,11.2,0,0,0,10.849,7.129,1.016,1.016,0,0,1,9.412,5.692,13.232,13.232,0,0,1,32,15.049Z" transform="translate(0 -1.817)" fill="#1a5dd1" fill-rule="evenodd"/>
</svg>
