<svg xmlns="http://www.w3.org/2000/svg" width="12" height="16" viewBox="0 0 12 16">
  <path id="Path_42854" data-name="Path 42854" d="M6.5-6.269l1.278.853a.5.5,0,0,1,.138.694.5.5,0,0,1-.694.137l-1.5-1A.506.506,0,0,1,5.5-6V-8.5A.5.5,0,0,1,6-9a.5.5,0,0,1,.5.5ZM2-12a2,2,0,0,1,2-2H8a2,2,0,0,1,2,2v1.5H9.941A5.913,5.913,0,0,1,12-6,5.913,5.913,0,0,1,9.941-1.5H10V0A2,2,0,0,1,8,2H4A2,2,0,0,1,2,0V-1.5h.031A5.989,5.989,0,0,1,0-6a5.989,5.989,0,0,1,2.031-4.5H2Zm2-1a1,1,0,0,0-1,1v.8A5.965,5.965,0,0,1,6-12a6.044,6.044,0,0,1,3,.8V-12a1,1,0,0,0-1-1ZM9-.8A6.057,6.057,0,0,1,6,0,5.978,5.978,0,0,1,3-.8V0A1,1,0,0,0,4,1H8A1,1,0,0,0,9,0ZM6-11A5,5,0,0,0,1-6,5,5,0,0,0,6-1a5,5,0,0,0,5-5A5,5,0,0,0,6-11Z" transform="translate(0 14)" fill="#f90"/>
</svg>
