<svg xmlns="http://www.w3.org/2000/svg" width="16" height="16" viewBox="0 0 16 16">
  <path id="Path_89347" data-name="Path 89347" d="M8,2A8.19,8.19,0,0,0,12,.938,8.267,8.267,0,0,0,14.938-2,8.1,8.1,0,0,0,16-6a8.1,8.1,0,0,0-1.062-4A8.267,8.267,0,0,0,12-12.937,8.19,8.19,0,0,0,8-14a8.19,8.19,0,0,0-4,1.063A8.267,8.267,0,0,0,1.063-10,8.1,8.1,0,0,0,0-6,8.1,8.1,0,0,0,1.063-2,8.267,8.267,0,0,0,4,.938,8.19,8.19,0,0,0,8,2ZM6.75-3.5H7.5v-2H6.75A.747.747,0,0,1,6-6.25.747.747,0,0,1,6.75-7h1.5A.747.747,0,0,1,9-6.25V-3.5h.25a.747.747,0,0,1,.75.75A.747.747,0,0,1,9.25-2H6.75A.747.747,0,0,1,6-2.75.747.747,0,0,1,6.75-3.5ZM8-10a.973.973,0,0,1,.719.281A.973.973,0,0,1,9-9a.973.973,0,0,1-.281.719A.973.973,0,0,1,8-8a.973.973,0,0,1-.719-.281A.973.973,0,0,1,7-9a.973.973,0,0,1,.281-.719A.973.973,0,0,1,8-10Z" transform="translate(0 14)" fill="#212121"/>
</svg>
