<svg xmlns="http://www.w3.org/2000/svg" width="16" height="16" viewBox="0 0 16 16">
  <path id="Path_89346" data-name="Path 89346" d="M8-12.5a6.455,6.455,0,0,0-4.594,1.906A6.455,6.455,0,0,0,1.5-6v1.25A.747.747,0,0,1,.75-4,.747.747,0,0,1,0-4.75V-6a7.939,7.939,0,0,1,1.094-4.031,7.925,7.925,0,0,1,2.875-2.875A7.939,7.939,0,0,1,8-14a7.939,7.939,0,0,1,4.031,1.094,7.925,7.925,0,0,1,2.875,2.875A7.939,7.939,0,0,1,16-6v4.5A2.742,2.742,0,0,1,15.188.438a2.742,2.742,0,0,1-1.937.813H9.813A1.505,1.505,0,0,1,8.5,2h-1a1.631,1.631,0,0,1-1.062-.437A1.631,1.631,0,0,1,6,.5,1.631,1.631,0,0,1,6.438-.562,1.631,1.631,0,0,1,7.5-1h1a1.505,1.505,0,0,1,1.313.75H13.25a1.135,1.135,0,0,0,.875-.375A1.135,1.135,0,0,0,14.5-1.5V-6a6.455,6.455,0,0,0-1.906-4.594A6.455,6.455,0,0,0,8-12.5Zm-3.5,5H5a.973.973,0,0,1,.719.281A.973.973,0,0,1,6-6.5V-3a.973.973,0,0,1-.281.719A.973.973,0,0,1,5-2H4.5a2.02,2.02,0,0,1-1.406-.594A2.02,2.02,0,0,1,2.5-4V-5.5a2.02,2.02,0,0,1,.594-1.406A2.02,2.02,0,0,1,4.5-7.5Zm7,0a2.02,2.02,0,0,1,1.406.594A2.02,2.02,0,0,1,13.5-5.5V-4a2.02,2.02,0,0,1-.594,1.406A2.02,2.02,0,0,1,11.5-2H11a.973.973,0,0,1-.719-.281A.973.973,0,0,1,10-3V-6.5a.973.973,0,0,1,.281-.719A.973.973,0,0,1,11-7.5Z" transform="translate(0 14)" fill="#212121"/>
</svg>
