<svg xmlns="http://www.w3.org/2000/svg" width="16" height="16" viewBox="0 0 16 16">
  <path id="Path_89345" data-name="Path 89345" d="M9.969-13.719A1.043,1.043,0,0,0,9.25-14a1.043,1.043,0,0,0-.719.281l-3.75,3.75A1.043,1.043,0,0,0,4.5-9.25a1.043,1.043,0,0,0,.281.719l.5.5A1.043,1.043,0,0,0,6-7.75a1.043,1.043,0,0,0,.719-.281l.125-.125,3.313,3.313-.125.125A1.043,1.043,0,0,0,9.75-4a1.043,1.043,0,0,0,.281.719l.5.5a1.043,1.043,0,0,0,.719.281,1.043,1.043,0,0,0,.719-.281l3.75-3.75A1.043,1.043,0,0,0,16-7.25a1.043,1.043,0,0,0-.281-.719l-.5-.5A1.043,1.043,0,0,0,14.5-8.75a1.043,1.043,0,0,0-.719.281l-.125.125-3.312-3.312.125-.125a1.043,1.043,0,0,0,.281-.719,1.043,1.043,0,0,0-.281-.719Zm-4.75,9A1.043,1.043,0,0,0,4.5-5a1.043,1.043,0,0,0-.719.281l-3.5,3.5A1.043,1.043,0,0,0,0-.5,1.043,1.043,0,0,0,.281.219l1.5,1.5a1.059,1.059,0,0,0,1.438,0l3.5-3.5A1.043,1.043,0,0,0,7-2.5a1.043,1.043,0,0,0-.281-.719L6.656-3.25,8.5-5.094,7.094-6.5,5.25-4.656Z" transform="translate(0 14)" fill="#212121"/>
</svg>
