<svg xmlns="http://www.w3.org/2000/svg" width="14" height="16" viewBox="0 0 14 16">
  <path id="Path_89351" data-name="Path 89351" d="M7-6a3.882,3.882,0,0,0,2-.531A4.134,4.134,0,0,0,10.469-8,3.993,3.993,0,0,0,11-10a3.993,3.993,0,0,0-.531-2A4.134,4.134,0,0,0,9-13.469,3.882,3.882,0,0,0,7-14a3.882,3.882,0,0,0-2,.531A4.134,4.134,0,0,0,3.531-12,3.993,3.993,0,0,0,3-10a3.993,3.993,0,0,0,.531,2A4.134,4.134,0,0,0,5-6.531,3.882,3.882,0,0,0,7-6ZM5.563-4.5A5.632,5.632,0,0,0,1.625-2.875,5.632,5.632,0,0,0,0,1.063a.836.836,0,0,0,.281.656A.836.836,0,0,0,.938,2H13.063a.836.836,0,0,0,.656-.281A.836.836,0,0,0,14,1.063a5.632,5.632,0,0,0-1.625-3.937A5.632,5.632,0,0,0,8.438-4.5Z" transform="translate(0 14)" fill="#212121"/>
</svg>
