<svg xmlns="http://www.w3.org/2000/svg" width="14.003" height="16" viewBox="0 0 14.003 16">
  <path id="Path_89344" data-name="Path 89344" d="M7-14a.973.973,0,0,0-.719.281A.973.973,0,0,0,6-13v.594a4.87,4.87,0,0,0-2.844,1.719A4.945,4.945,0,0,0,2-7.5v.594A6.065,6.065,0,0,1,.5-2.937l-.25.281A.947.947,0,0,0,.094-1.594,1.007,1.007,0,0,0,1-1H13a1.007,1.007,0,0,0,.906-.594.947.947,0,0,0-.156-1.062l-.219-.281A5.91,5.91,0,0,1,12-6.906V-7.5a4.945,4.945,0,0,0-1.156-3.187A4.87,4.87,0,0,0,8-12.406V-13a.973.973,0,0,0-.281-.719A.973.973,0,0,0,7-14ZM8.406,1.406A1.922,1.922,0,0,0,9,0H5a1.922,1.922,0,0,0,.594,1.406,1.962,1.962,0,0,0,2.813,0Z" transform="translate(0.001 14)" fill="#212121"/>
</svg>
