<svg xmlns="http://www.w3.org/2000/svg" width="16" height="16" viewBox="0 0 16 16">
  <path id="Path_89350" data-name="Path 89350" d="M6-14a.973.973,0,0,0-.719.281A.973.973,0,0,0,5-13v1a3.029,3.029,0,0,0-1.625.594A2.93,2.93,0,0,0,2.344-10L1.25-6.844a1.922,1.922,0,0,0-.906.719A1.94,1.94,0,0,0,0-5V1A.963.963,0,0,0,1,2H2A.963.963,0,0,0,3,1V-.5H13V1a.963.963,0,0,0,1,1h1a.963.963,0,0,0,1-1V-5a1.94,1.94,0,0,0-.344-1.125,1.922,1.922,0,0,0-.906-.719L13.656-10a2.93,2.93,0,0,0-1.031-1.406A3.029,3.029,0,0,0,11-12v-1a.973.973,0,0,0-.281-.719A.973.973,0,0,0,10-14Zm-.844,4h5.688a.98.98,0,0,1,.938.656L12.594-7H3.406l.813-2.344A.98.98,0,0,1,5.156-10ZM3-5a.973.973,0,0,1,.719.281A.973.973,0,0,1,4-4a.973.973,0,0,1-.281.719A.973.973,0,0,1,3-3a.973.973,0,0,1-.719-.281A.973.973,0,0,1,2-4a.973.973,0,0,1,.281-.719A.973.973,0,0,1,3-5Zm9,1a.973.973,0,0,1,.281-.719A.973.973,0,0,1,13-5a.973.973,0,0,1,.719.281A.973.973,0,0,1,14-4a.973.973,0,0,1-.281.719A.973.973,0,0,1,13-3a.973.973,0,0,1-.719-.281A.973.973,0,0,1,12-4Z" transform="translate(0 14)" fill="#212121"/>
</svg>
