<svg xmlns="http://www.w3.org/2000/svg" xmlns:xlink="http://www.w3.org/1999/xlink" width="240" height="204.282" viewBox="0 0 240 204.282">
  <defs>
    <radialGradient id="radial-gradient" cx="0.5" cy="0.192" r="0.529" gradientUnits="objectBoundingBox">
      <stop offset="0" stop-color="#d6d6d6"/>
      <stop offset="1" stop-color="#fff"/>
    </radialGradient>
    <radialGradient id="radial-gradient-2" cy="0.192" r="0.54" xlink:href="#radial-gradient"/>
  </defs>
  <g id="Group_26275" data-name="Group 26275" transform="translate(-228.372 -658)">
    <path id="Path_42128" data-name="Path 42128" d="M1805.117,3848.193c6.115,0,8.632,8.172,3.624,11.808-9.091,6.6-25.57,11.007-44.392,11.007s-35.3-4.409-44.392-11.007c-5.009-3.636-2.491-11.808,3.624-11.808Z" transform="translate(-1409.201 -3019.389)" fill="url(#radial-gradient)" style="mix-blend-mode: multiply;isolation: isolate"/>
    <g id="Group_26266" data-name="Group 26266" transform="translate(372.486 678.591)">
      <g id="Group_26262" data-name="Group 26262" transform="translate(74.082 58.313)">
        <path id="Path_42129" data-name="Path 42129" d="M4325.553,2164.981a10.913,10.913,0,0,1-21.8,0c0-9.5,7.066-24.871,9.821-32.583a1.217,1.217,0,0,1,2.162,0C4318.487,2140.11,4325.553,2156.149,4325.553,2164.981Z" transform="translate(-4303.749 -2131.74)" fill="#f9f9f9"/>
        <path id="Path_42130" data-name="Path 42130" d="M4493.177,2680.845a.8.8,0,0,1-.8-.8v-19.88a.8.8,0,0,1,1.606,0v19.88A.8.8,0,0,1,4493.177,2680.845Z" transform="translate(-4482.275 -2631.11)" fill="#eee" opacity="0.5"/>
      </g>
      <g id="Group_26263" data-name="Group 26263" transform="translate(0 58.313)">
        <path id="Path_42131" data-name="Path 42131" d="M2941.877,2164.981a10.913,10.913,0,0,1-21.8,0c0-9.5,7.066-24.871,9.821-32.583a1.217,1.217,0,0,1,2.162,0C2934.811,2140.11,2941.877,2156.149,2941.877,2164.981Z" transform="translate(-2920.073 -2131.74)" fill="#f9f9f9"/>
        <path id="Path_42132" data-name="Path 42132" d="M3109.5,2680.845a.8.8,0,0,1-.8-.8v-19.88a.8.8,0,0,1,1.606,0v19.88A.8.8,0,0,1,3109.5,2680.845Z" transform="translate(-3098.599 -2631.11)" fill="#eee" opacity="0.5"/>
      </g>
      <g id="Group_26264" data-name="Group 26264" transform="translate(46.498 0)">
        <path id="Path_42133" data-name="Path 42133" d="M3823.385,1130.588c0,11.213-7.8,20.3-17.417,20.3s-17.417-9.09-17.417-20.3c0-18.5,13.793-78.359,16.4-87.239a1.067,1.067,0,0,1,2.043,0C3809.593,1052.23,3823.385,1113.391,3823.385,1130.588Z" transform="translate(-3788.551 -1042.592)" fill="#eee"/>
        <path id="Path_42134" data-name="Path 42134" d="M4097.772,2101.707a.91.91,0,0,1-.91-.91v-62.539a.91.91,0,1,1,1.82,0V2100.8A.91.91,0,0,1,4097.772,2101.707Z" transform="translate(-4080.355 -1984.089)" fill="#e9e9e9"/>
      </g>
      <g id="Group_26265" data-name="Group 26265" transform="translate(18.757 45.097)">
        <path id="Path_42135" data-name="Path 42135" d="M3305.242,1938c0,9.2-7.8,16.659-17.417,16.659s-17.417-7.458-17.417-16.659c0-15.175,11.289-39.734,15.69-52.055a1.945,1.945,0,0,1,3.454,0C3293.953,1898.261,3305.242,1923.885,3305.242,1938Z" transform="translate(-3270.408 -1884.89)" fill="#e0e0e0"/>
        <path id="Path_42136" data-name="Path 42136" d="M3579.629,2768.353a.91.91,0,0,1-.91-.91v-31.76a.91.91,0,0,1,1.82,0v31.76A.91.91,0,0,1,3579.629,2768.353Z" transform="translate(-3562.212 -2689.27)" fill="#e9e9e9"/>
      </g>
    </g>
    <g id="Group_26271" data-name="Group 26271" transform="translate(228.372 678.591)">
      <g id="Group_26267" data-name="Group 26267" transform="translate(74.082 58.313)">
        <path id="Path_42137" data-name="Path 42137" d="M1633.852,2164.981a10.913,10.913,0,0,1-21.8,0c0-9.5,7.066-24.871,9.821-32.583a1.217,1.217,0,0,1,2.162,0C1626.786,2140.11,1633.852,2156.149,1633.852,2164.981Z" transform="translate(-1612.048 -2131.74)" fill="#f9f9f9"/>
        <path id="Path_42138" data-name="Path 42138" d="M1801.477,2680.845a.8.8,0,0,1-.8-.8v-19.88a.8.8,0,0,1,1.606,0v19.88A.8.8,0,0,1,1801.477,2680.845Z" transform="translate(-1790.575 -2631.11)" fill="#eee" opacity="0.5"/>
      </g>
      <g id="Group_26268" data-name="Group 26268" transform="translate(0 58.313)">
        <path id="Path_42139" data-name="Path 42139" d="M250.176,2164.981a10.913,10.913,0,0,1-21.8,0c0-9.5,7.066-24.871,9.821-32.583a1.217,1.217,0,0,1,2.162,0C243.11,2140.11,250.176,2156.149,250.176,2164.981Z" transform="translate(-228.372 -2131.74)" fill="#eee"/>
        <path id="Path_42140" data-name="Path 42140" d="M415.908,2679.059a.91.91,0,0,1-.91-.91v-19.88a.91.91,0,0,1,1.82,0v19.88A.91.91,0,0,1,415.908,2679.059Z" transform="translate(-405.006 -2629.217)" fill="#e9e9e9"/>
      </g>
      <g id="Group_26269" data-name="Group 26269" transform="translate(46.498 0)">
        <path id="Path_42141" data-name="Path 42141" d="M1131.685,1130.588c0,11.213-7.8,20.3-17.417,20.3s-17.417-9.09-17.417-20.3c0-18.5,13.793-78.359,16.4-87.239a1.067,1.067,0,0,1,2.043,0C1117.892,1052.23,1131.685,1113.391,1131.685,1130.588Z" transform="translate(-1096.851 -1042.592)" fill="#eee"/>
        <path id="Path_42142" data-name="Path 42142" d="M1406.071,2101.707a.91.91,0,0,1-.91-.91v-62.539a.91.91,0,1,1,1.82,0V2100.8A.91.91,0,0,1,1406.071,2101.707Z" transform="translate(-1388.654 -1984.089)" fill="#e9e9e9"/>
      </g>
      <g id="Group_26270" data-name="Group 26270" transform="translate(18.757 45.097)">
        <path id="Path_42143" data-name="Path 42143" d="M613.541,1938c0,9.2-7.8,16.659-17.417,16.659S578.707,1947.2,578.707,1938c0-15.175,11.289-39.734,15.69-52.055a1.945,1.945,0,0,1,3.454,0C602.252,1898.261,613.541,1923.885,613.541,1938Z" transform="translate(-578.707 -1884.89)" fill="#f9f9f9"/>
        <path id="Path_42144" data-name="Path 42144" d="M889.821,2770.139a.8.8,0,0,1-.8-.8v-31.76a.8.8,0,1,1,1.606,0v31.76A.8.8,0,0,1,889.821,2770.139Z" transform="translate(-872.404 -2691.163)" fill="#eee" opacity="0.5"/>
      </g>
    </g>
    <g id="Group_26272" data-name="Group 26272" transform="translate(309.814 658)">
      <path id="Rectangle_7167" data-name="Rectangle 7167" d="M10.521,0h8.348A10.521,10.521,0,0,1,29.391,10.521v0a0,0,0,0,1,0,0H0a0,0,0,0,1,0,0v0A10.521,10.521,0,0,1,10.521,0Z" transform="translate(35.765 165.479) rotate(0.244)" fill="#8fa4af"/>
      <path id="Path_42145" data-name="Path 42145" d="M1975.689,1977.373l.07-16.373a72.1,72.1,0,0,1,3.338-21.38l3.921-12.431c5.068-17.5,19.408-41.834,26.618-57.674-4.21,10.7-22.6,26-36.664,25.944-14.338-.061-31.7-6.775-39.972-17.191a138.9,138.9,0,0,1,23.473,46.287l4.646,14.817a72.1,72.1,0,0,1,3.3,21.882l-.069,16.08C1965.518,1977.371,1974.67,1977.393,1975.689,1977.373Z" transform="translate(-1923.177 -1804.65)" fill="#b0bec5"/>
      <path id="Path_42146" data-name="Path 42146" d="M1790.945,814.6a72.1,72.1,0,0,0-3.3-21.882L1783,777.905a139.3,139.3,0,0,0-23.94-46.667,45.4,45.4,0,1,1,71,.928,135.765,135.765,0,0,0-25.275,48.373l-3.921,12.431a72.1,72.1,0,0,0-3.339,21.381l-.078,18.411-6.57-.028Z" transform="translate(-1749.522 -658)" fill="#cfd8dc"/>
      <circle id="Ellipse_2600" data-name="Ellipse 2600" cx="33.228" cy="33.228" r="33.228" transform="translate(12.173 12.173)" fill="#fff"/>
      <path id="Path_42147" data-name="Path 42147" d="M2436.278,1004.138a1.366,1.366,0,0,1-1.191-.7l-7.755-13.851a1.365,1.365,0,0,1,2.383-1.334l5.22,9.323.094-21.912a1.366,1.366,0,0,1,1.365-1.36h.006a1.365,1.365,0,0,1,1.36,1.371l-.115,27.1a1.367,1.367,0,0,1-1.365,1.36Z" transform="translate(-2390.877 -957.371)" fill="#7d5fff"/>
      <path id="Path_42148" data-name="Path 42148" d="M1968.259,2132.346q1.538.007,3.067-.023l.07-16.373a72.1,72.1,0,0,1,3.339-21.381l3.921-12.431a135.808,135.808,0,0,1,24.985-48.016,45.4,45.4,0,0,1-70.4-.892,139.239,139.239,0,0,1,23.637,46.275l4.646,14.817a72.1,72.1,0,0,1,3.3,21.882l-.069,16.08Q1966.5,2132.338,1968.259,2132.346Z" transform="translate(-1923.401 -1959.6)" fill="#cfd8dc"/>
      <path id="Path_42149" data-name="Path 42149" d="M2338.755,3749.115l-22.782-.1a3.3,3.3,0,0,0-3.318,3.29l-.031,7.217,29.39.125.031-7.217A3.3,3.3,0,0,0,2338.755,3749.115Z" transform="translate(-2282.476 -3583.525)" fill="#b0bec5"/>
      <path id="Path_42150" data-name="Path 42150" d="M1978.436,920.062a32.5,32.5,0,0,1,60.932-15.752,33.269,33.269,0,1,0-44.184,44.184A32.49,32.49,0,0,1,1978.436,920.062Z" transform="translate(-1963.802 -872.895)" fill="#eceff1"/>
      <path id="Path_42151" data-name="Path 42151" d="M1980.094,2077.471a135.313,135.313,0,0,1,23.545-43.349,45.4,45.4,0,0,1-70.4-.892,142.363,142.363,0,0,1,13.627,21.31Z" transform="translate(-1923.401 -1959.6)" fill="#c4cfd4"/>
    </g>
    <g id="Group_26274" data-name="Group 26274" transform="translate(308.775 744.773)">
      <path id="Path_42152" data-name="Path 42152" d="M1913.752,2467.74l-11.953-8.011-9.365-.014-5.764,3.5a5.83,5.83,0,0,0-2.4,2.885l-5.6,14.609a7.75,7.75,0,0,0-.318,1.595l-.367,17.8h3.441l2.961-16.915a5.582,5.582,0,0,1,.384-1.392l2.8-6.652-1.639,19.681h22.45l-1.927-19.777,5.634.124a3.75,3.75,0,0,0,3.819-3.423l.024-.271A3.75,3.75,0,0,0,1913.752,2467.74Z" transform="translate(-1870.069 -2450.022)" fill="#7d5fff"/>
      <path id="Path_42153" data-name="Path 42153" d="M1781.542,4144.911c3.581,0,5.056,6.3,2.122,9.1-5.324,5.088-14.976,8.488-26,8.488s-20.675-3.4-26-8.488c-2.933-2.8-1.459-9.1,2.122-9.1Z" transform="translate(-1730.105 -4044.994)" fill="url(#radial-gradient-2)" style="mix-blend-mode: multiply;isolation: isolate"/>
      <path id="Path_42154" data-name="Path 42154" d="M2116,2697.877l1.131.524a.927.927,0,0,0,.632.054l.268-.072a.749.749,0,0,0,.533-.9h0a.3.3,0,0,0-.206-.216h0a.3.3,0,0,1-.147-.474l.695-.851a.3.3,0,0,1,.277-.106l10.284,1.958-.257-2.615-8.9-1.016-2.663-1.857-4.31,3.118,1.437,1.822Z" transform="translate(-2092.816 -2670.161)" fill="#7d5fff"/>
      <path id="Path_42155" data-name="Path 42155" d="M2108.078,2658.93h-3.43a2.734,2.734,0,0,0-2.046.92l-1.792,2.021a1.575,1.575,0,0,0-.249,1.71l1.218,2.613a1.34,1.34,0,0,0,1.669.694l.984-.356a.644.644,0,0,0,.317-.962h0a.644.644,0,0,0-.677-.271l-.485.109a.509.509,0,0,1-.605-.373l-.132-.528a.508.508,0,0,1,.407-.625l1.407-.243a1.885,1.885,0,0,0,1.329-.945l.134-.242,1.951.122Z" transform="translate(-2080.587 -2638.572)" fill="#fccbbc"/>
      <path id="Path_42156" data-name="Path 42156" d="M1950.047,3115.531l-.968,52.2-2.923,1.724a.875.875,0,0,0-.43.754v.283a.875.875,0,0,0,.875.875h4.689a.909.909,0,0,0,.909-.9l7.846-43.482a.847.847,0,0,1,1.692-.037l1.507,43.591a.909.909,0,0,0,.905.826h5.473a.875.875,0,0,0,.875-.875h0a.875.875,0,0,0-.286-.647l-3.237-2.377,5.524-51.932Z" transform="translate(-1934.181 -3070.727)" fill="#212121"/>
      <rect id="Rectangle_7168" data-name="Rectangle 7168" width="1.016" height="4.029" transform="matrix(0.99, -0.142, 0.142, 0.99, 25.709, 20.212)" fill="#263238"/>
      <rect id="Rectangle_7169" data-name="Rectangle 7169" width="2.042" height="0.596" rx="0.298" transform="translate(25.139 19.837) rotate(-8.155)" fill="#263238"/>
      <path id="Path_42157" data-name="Path 42157" d="M1861.638,3214.545l-.916,4.38.911,1.4.722-1.212a.545.545,0,0,1,.456-.266l.94-.021a.545.545,0,0,1,.466.243l.053.079a.381.381,0,0,1-.09.518l-.384.284a.374.374,0,0,0-.1.491h0a.374.374,0,0,0,.495.143l1.055-.781a.686.686,0,0,0,.251-.74l-.6-2.1.192-2.418Z" transform="translate(-1853.729 -3164.44)" fill="#fccbbc"/>
      <path id="Path_42158" data-name="Path 42158" d="M2131.774,2321.005c0,3.151-.7,8.439-5.706,8.439s-5.706-5.288-5.706-8.439a5.706,5.706,0,1,1,11.412,0Z" transform="translate(-2099.468 -2313.34)" fill="#fccbbc"/>
      <path id="Path_42159" data-name="Path 42159" d="M1860.722,3283.961l1.226,2.8,1.892.666.946-1.016-.421-.561-.7.385-1.191-.561.07-2.418Z" transform="translate(-1853.729 -3229.476)" fill="#fccbbc"/>
      <path id="Path_42160" data-name="Path 42160" d="M2058.557,2286.419l-4.694.962a2.149,2.149,0,0,0-1.8,1.5l-.409,1.335a12.537,12.537,0,0,1-4.315-9.777c3.55,0,8.248-1.748,9.761-1.73a5.506,5.506,0,0,1,5.981,5.14c.675,5.133-1.114,7.221-1.114,7.221a9.381,9.381,0,0,0-1.013-3.612A2.264,2.264,0,0,0,2058.557,2286.419Z" transform="translate(-2030.35 -2278.701)" fill="#263238"/>
      <g id="Group_26273" data-name="Group 26273" transform="translate(6.175 54.411)">
        <rect id="Rectangle_7170" data-name="Rectangle 7170" width="6.347" height="22.929" rx="3.173" transform="translate(0 3.545)" fill="#7d5fff"/>
        <path id="Rectangle_7171" data-name="Rectangle 7171" d="M.6,0h0a.6.6,0,0,1,.6.6V4.431a.6.6,0,0,1-.6.6h0a.6.6,0,0,1-.6-.6V.6A.6.6,0,0,1,.6,0Z" transform="translate(2.573)" fill="#7d5fff"/>
      </g>
      <rect id="Rectangle_7172" data-name="Rectangle 7172" width="2.895" height="0.874" rx="0.437" transform="translate(24.959 13.978)" fill="#fff"/>
    </g>
  </g>
</svg>
