<svg xmlns="http://www.w3.org/2000/svg" width="24" height="24" viewBox="0 0 24 24">
  <path id="Path_42801" data-name="Path 42801" d="M18.75-12H1.5a1.46,1.46,0,0,0-1.078.422A1.46,1.46,0,0,0,0-10.5v9A4.486,4.486,0,0,0,1.313,1.688,4.486,4.486,0,0,0,4.5,3h9a4.486,4.486,0,0,0,3.188-1.312A4.486,4.486,0,0,0,18-1.5h.75a5.09,5.09,0,0,0,3.7-1.547A5.09,5.09,0,0,0,24-6.75a5.09,5.09,0,0,0-1.547-3.7A5.09,5.09,0,0,0,18.75-12Zm-3,10.5A2.446,2.446,0,0,1,15.094.094,2.446,2.446,0,0,1,13.5.75h-9A2.446,2.446,0,0,1,2.906.094,2.446,2.446,0,0,1,2.25-1.5V-9.75h13.5Zm3-2.25H18v-6h.75a3.03,3.03,0,0,1,2.109.891A3.03,3.03,0,0,1,21.75-6.75a3.03,3.03,0,0,1-.891,2.109A3.03,3.03,0,0,1,18.75-3.75ZM5.063-16.266A1.853,1.853,0,0,1,6-14.625,1.12,1.12,0,0,0,7.125-13.5a1.021,1.021,0,0,0,.8-.375,1.032,1.032,0,0,0,.328-.75,3.934,3.934,0,0,0-.562-2.062,3.762,3.762,0,0,0-1.5-1.547,1.93,1.93,0,0,1-.937-1.641A1.12,1.12,0,0,0,4.125-21,1.12,1.12,0,0,0,3-19.875a3.934,3.934,0,0,0,.563,2.063A3.762,3.762,0,0,0,5.063-16.266Zm5.25,0a1.853,1.853,0,0,1,.938,1.641A1.12,1.12,0,0,0,12.375-13.5a1.021,1.021,0,0,0,.8-.375,1.032,1.032,0,0,0,.328-.75,3.934,3.934,0,0,0-.562-2.062,3.762,3.762,0,0,0-1.5-1.547,1.93,1.93,0,0,1-.937-1.641A1.12,1.12,0,0,0,9.375-21,1.12,1.12,0,0,0,8.25-19.875a3.934,3.934,0,0,0,.563,2.063A3.762,3.762,0,0,0,10.313-16.266Z" transform="translate(0 21)" fill="#fff"/>
</svg>
