<svg xmlns="http://www.w3.org/2000/svg" width="24" height="24" viewBox="0 0 24 24">
    <path data-name="Path 43223" d="m22.716-5.5-4.772-2.05a2.141 2.141 0 0 0-2.473.613l-1.553 1.9a14.748 14.748 0 0 1-5.874-5.873l1.9-1.556a2.111 2.111 0 0 0 .6-2.477L8.5-19.717a2.131 2.131 0 0 0-2.428-1.229l-4.423 1.027A2.109 2.109 0 0 0 0-17.854 20.879 20.879 0 0 0 20.855 3a2.114 2.114 0 0 0 2.07-1.647l1.022-4.428A2.132 2.132 0 0 0 22.716-5.5zm-1.252 6.52a.629.629 0 0 1-.608.483A19.375 19.375 0 0 1 1.5-17.854a.618.618 0 0 1 .485-.6l4.425-1.027a.612.612 0 0 1 .14-.016.627.627 0 0 1 .574.376l2.043 4.767a.628.628 0 0 1-.177.731l-2.367 1.937a.749.749 0 0 0-.2.909 16.236 16.236 0 0 0 7.355 7.355.749.749 0 0 0 .911-.2l1.94-2.367a.632.632 0 0 1 .727-.18l4.763 2.042a.626.626 0 0 1 .362.713l-1.017 4.431z" transform="translate(0 21)" style="fill:#fff"/>
</svg>
