<svg xmlns="http://www.w3.org/2000/svg" width="23.969" height="24.011" viewBox="0 0 23.969 24.011">
    <path data-name="Path 43225" d="m22.5-6-4.594-1.969a2.4 2.4 0 0 0-1.547-.141 2.3 2.3 0 0 0-1.312.844l-1.313 1.594a14.158 14.158 0 0 1-5.062-5.016L10.266-12a2.3 2.3 0 0 0 .844-1.312 2.4 2.4 0 0 0-.141-1.547L9-19.5a2.351 2.351 0 0 0-1.172-1.219 2.281 2.281 0 0 0-1.641-.234l-4.266.984a2.555 2.555 0 0 0-1.406.891 2.362 2.362 0 0 0-.515 1.5A20.269 20.269 0 0 0 2.813-7.172a21.272 21.272 0 0 0 7.359 7.36A20.269 20.269 0 0 0 20.578 3a2.362 2.362 0 0 0 1.5-.516 2.334 2.334 0 0 0 .844-1.406l.984-4.266a2.443 2.443 0 0 0-.187-1.641A2.351 2.351 0 0 0 22.5-6zm-.75 2.3L20.766.609a.3.3 0 0 1-.187.141 18.146 18.146 0 0 1-9.234-2.484 19.118 19.118 0 0 1-6.611-6.61 18.146 18.146 0 0 1-2.484-9.234.184.184 0 0 1 .141-.187L6.7-18.75h.05q.094 0 .188.141l1.969 4.594a.212.212 0 0 1-.047.234l-2.3 1.828a1.093 1.093 0 0 0-.328 1.359 17.369 17.369 0 0 0 3.049 4.266 15.868 15.868 0 0 0 4.266 3.047 1.111 1.111 0 0 0 1.359-.328l1.875-2.25a.19.19 0 0 1 .234-.094l4.594 1.969a.405.405 0 0 1 .141.284z" transform="translate(0 21.011)" style="fill:#7d5fff"/>
</svg>
