<svg xmlns="http://www.w3.org/2000/svg" width="18.008" height="16" viewBox="0 0 18.008 16">
  <path id="Path_43831" data-name="Path 43831" d="M1.5,0V-12a.507.507,0,0,1,.5-.5H7V-10a.973.973,0,0,0,.281.719A.973.973,0,0,0,8-9h2.469v2.938L12-7.531V-9.656a1.958,1.958,0,0,0-.594-1.437L9.094-13.406A1.958,1.958,0,0,0,7.656-14H2a2.02,2.02,0,0,0-1.406.594A2.02,2.02,0,0,0,0-12V0A2.02,2.02,0,0,0,.594,1.406,2.02,2.02,0,0,0,2,2h8a1.786,1.786,0,0,0,1.219-.437A1.99,1.99,0,0,0,11.938.5H2A.481.481,0,0,1,1.5,0ZM9.156-3.312A.511.511,0,0,0,9-2.937V-2H8.531a.323.323,0,0,1-.312-.187,1.311,1.311,0,0,0-.937-.719,1.353,1.353,0,0,0-1.125.25L5.719-3.937A.76.76,0,0,0,5-4.469a.76.76,0,0,0-.719.531L3.719-2.25A.344.344,0,0,1,3.375-2H3a.481.481,0,0,0-.5.5A.481.481,0,0,0,3-1h.375a1.378,1.378,0,0,0,1.281-.906l.344-1,.531,1.563A.5.5,0,0,0,5.969-1H6a.442.442,0,0,0,.438-.281l.25-.469q.188-.219.313-.187.125-.062.313.188A1.382,1.382,0,0,0,8.531-1h2.406a.511.511,0,0,0,.375-.156l4.906-4.937L14.094-8.219Zm8.625-5.469-1-.969a.792.792,0,0,0-1.125,0l-.875.844,2.125,2.125.844-.875A.775.775,0,0,0,17.781-8.781Z" transform="translate(0 14)" fill="#fff"/>
</svg>
