<svg xmlns="http://www.w3.org/2000/svg" width="30" height="21" viewBox="0 0 30 21">
  <path id="Path_43830" data-name="Path 43830" d="M25.453-10.922a.191.191,0,0,1,.047-.141v-.187a5.09,5.09,0,0,0-1.547-3.7,5.09,5.09,0,0,0-3.7-1.547,5.156,5.156,0,0,0-1.547.234,8.219,8.219,0,0,0-2.719-2.344,7.442,7.442,0,0,0-3.609-.891A7.8,7.8,0,0,0,6.8-17.156a7.635,7.635,0,0,0-2.3,5.578A6.55,6.55,0,0,0,1.266-9.187,6.8,6.8,0,0,0,0-5.25,6.919,6.919,0,0,0,1.969-.469,6.919,6.919,0,0,0,6.75,1.5H23.625a6.176,6.176,0,0,0,4.5-1.875A6.176,6.176,0,0,0,30-4.875a6.3,6.3,0,0,0-1.266-3.8A6.368,6.368,0,0,0,25.453-10.922ZM23.625-.75H6.75A4.486,4.486,0,0,1,3.563-2.062,4.486,4.486,0,0,1,2.25-5.25a4.183,4.183,0,0,1,.844-2.578A4.548,4.548,0,0,1,5.25-9.469l1.5-.516v-1.781a5.521,5.521,0,0,1,1.688-3.891,5.6,5.6,0,0,1,3.938-1.594,5.558,5.558,0,0,1,4.547,2.344l.938,1.266,1.5-.469a2.979,2.979,0,0,1,2.859.563,3.229,3.229,0,0,1,.984,2.484l-.094,1.734,1.688.516a4.118,4.118,0,0,1,2.156,1.5,4,4,0,0,1,.8,2.438,4.113,4.113,0,0,1-1.219,2.906A4.113,4.113,0,0,1,23.625-.75ZM15.75-12.8a1.1,1.1,0,0,0-.375-.234,1,1,0,0,0-.844,0q-.141.094-.328.234L10.078-8.672a1.132,1.132,0,0,0,0,1.594,1.132,1.132,0,0,0,1.594,0l2.2-2.2v5.906A1.12,1.12,0,0,0,15-2.25a1.12,1.12,0,0,0,1.125-1.125V-9.281l2.2,2.2a1.085,1.085,0,0,0,.8.328,1.085,1.085,0,0,0,.8-.328,1.132,1.132,0,0,0,0-1.594Z" transform="translate(0 19.5)" fill="#e0e0e0"/>
</svg>
