<svg data-name="Group 47535" xmlns="http://www.w3.org/2000/svg" width="19.998" height="20" viewBox="0 0 19.998 20">
    <defs>
        <clipPath id="ejhiug1s5a">
            <path data-name="Rectangle 10698" style="fill:#7d5fff" d="M0 0h19.998v20H0z"/>
        </clipPath>
    </defs>
    <g data-name="Group 47534" style="clip-path:url(#ejhiug1s5a)">
        <path data-name="Path 102281" d="M19.7 6.707c-.474-1.126-1.423-1.814-3.321-3.181l-1.34-.967C12.687.856 11.515 0 10 0S7.311.856 4.957 2.558l-1.34.967C1.72 4.893.78 5.572.3 6.707s-.307 2.27.037 4.53l.276 1.823c.493 3.2.744 4.809 2.028 5.879S5.6 20 8.939 20h2.121c3.34 0 5 .009 6.3-1.06s1.535-2.679 2.028-5.879l.279-1.823c.344-2.26.521-3.4.037-4.53M8.939 18.614c-.381 0-.744 0-1.079-.009l-.2-2.614v-.335a2.336 2.336 0 0 1 4.66.335l-.181 2.609c-.335.009-.7.009-1.079.009z" style="fill:#7d5fff"/>
    </g>
</svg>
