<svg xmlns="http://www.w3.org/2000/svg" width="20" height="19.997" viewBox="0 0 20 19.997">
    <path data-name="Union 75" d="M21848.939 10182c-3.336 0-5.014 0-6.293-1.064s-1.535-2.677-2.029-5.876l-.279-1.826c-.352-2.261-.521-3.4-.039-4.532s1.426-1.811 3.324-3.182l1.34-.966c2.348-1.7 3.527-2.551 5.035-2.551s2.693.851 5.043 2.551l1.338.966c1.893 1.371 2.848 2.058 3.324 3.182s.307 2.271-.037 4.532l-.281 1.826c-.494 3.2-.74 4.8-2.029 5.876s-2.957 1.064-6.3 1.064zm0-1.394h3.201l.189-2.615a2.337 2.337 0 0 0-2.332-2.5 2.291 2.291 0 0 0-1.705.746 2.323 2.323 0 0 0-.621 1.755l.189 2.615c.34-.007.697-.007 1.079-.007zm-3.16-14.923-1.338.972c-1.689 1.218-2.535 1.827-2.859 2.595s-.176 1.772.133 3.774l.279 1.821c.439 2.853.658 4.285 1.541 5.015a4.733 4.733 0 0 0 2.924.721l-.18-2.493a3.729 3.729 0 1 1 7.439 0l-.176 2.493a4.7 4.7 0 0 0 2.918-.721c.883-.729 1.1-2.162 1.541-5.015l.281-1.821c.307-2 .461-3.006.137-3.774s-1.174-1.377-2.859-2.595l-1.338-.972c-2.107-1.52-3.16-2.287-4.225-2.287s-2.116.765-4.218 2.285z" transform="translate(-21840 -10162)" style="fill:#616161"/>
</svg>
