<svg xmlns="http://www.w3.org/2000/svg" width="32" height="32" viewBox="0 0 32 32">
  <g id="Group_44245" data-name="Group 44245" transform="translate(-24 -352)">
    <rect id="Rectangle_10240" data-name="Rectangle 10240" width="32" height="32" rx="8" transform="translate(24 352)" fill="#d500aa"/>
    <path id="Path_94921" data-name="Path 94921" d="M11-6q0,1.031-.094,2H5.094Q5-4.969,5-6t.094-2h5.813Q11-7.031,11-6Zm.906-2H15.75A7.972,7.972,0,0,1,16-6a7.972,7.972,0,0,1-.25,2H11.906Q12-4.969,12-6T11.906-8Zm3.5-1H11.781a10.9,10.9,0,0,0-1.75-4.75A8.461,8.461,0,0,1,13.313-12,8.221,8.221,0,0,1,15.406-9ZM10.75-9H5.25a11.952,11.952,0,0,1,.844-2.969,5.128,5.128,0,0,1,1.031-1.594A1.313,1.313,0,0,1,8-14a1.313,1.313,0,0,1,.875.438,5.128,5.128,0,0,1,1.031,1.594A11.952,11.952,0,0,1,10.75-9ZM4.219-9H.594a8.221,8.221,0,0,1,2.094-3,8.461,8.461,0,0,1,3.281-1.75A10.9,10.9,0,0,0,4.219-9ZM.25-8H4.094Q4-7.031,4-6t.094,2H.25A7.972,7.972,0,0,1,0-6,7.972,7.972,0,0,1,.25-8ZM6.094-.031A11.952,11.952,0,0,1,5.25-3h5.5A11.952,11.952,0,0,1,9.906-.031,5.128,5.128,0,0,1,8.875,1.563,1.313,1.313,0,0,1,8,2a1.313,1.313,0,0,1-.875-.437A5.128,5.128,0,0,1,6.094-.031ZM4.219-3a10.9,10.9,0,0,0,1.75,4.75A8.461,8.461,0,0,1,2.688,0,8.221,8.221,0,0,1,.594-3ZM15.406-3a8.221,8.221,0,0,1-2.094,3,8.483,8.483,0,0,1-3.25,1.75A11.181,11.181,0,0,0,11.781-3Z" transform="translate(32 374.002)" fill="#fff"/>
  </g>
</svg>
