<svg xmlns="http://www.w3.org/2000/svg" width="16" height="14.222" viewBox="0 0 16 14.222">
  <path id="Path_1324" data-name="Path 1324" d="M7.111-10.444H8.889a.865.865,0,0,0,.639-.25.865.865,0,0,0,.25-.639v-1.778a.865.865,0,0,0-.25-.639A.865.865,0,0,0,8.889-14H7.111a.865.865,0,0,0-.639.25.865.865,0,0,0-.25.639v1.778a.865.865,0,0,0,.25.639A.865.865,0,0,0,7.111-10.444ZM8-5.556a1.8,1.8,0,0,0,1.25-.528,1.8,1.8,0,0,0,.528-1.25,1.8,1.8,0,0,0-.528-1.25A1.8,1.8,0,0,0,8-9.111a1.8,1.8,0,0,0-1.25.528,1.8,1.8,0,0,0-.528,1.25,1.8,1.8,0,0,0,.528,1.25A1.8,1.8,0,0,0,8-5.556Zm6.222-6.667H10.667v1.333h3.556a.428.428,0,0,1,.444.444v8.889a.428.428,0,0,1-.444.444H1.778a.428.428,0,0,1-.444-.444v-8.889a.428.428,0,0,1,.444-.444H5.333v-1.333H1.778a1.8,1.8,0,0,0-1.25.528A1.8,1.8,0,0,0,0-10.444v8.889A1.8,1.8,0,0,0,.528-.306a1.8,1.8,0,0,0,1.25.528H14.222a1.8,1.8,0,0,0,1.25-.528A1.8,1.8,0,0,0,16-1.556v-8.889a1.8,1.8,0,0,0-.528-1.25A1.8,1.8,0,0,0,14.222-12.222ZM5.333-2h5.333a.428.428,0,0,0,.444-.444,2.305,2.305,0,0,0-.639-1.583,2.305,2.305,0,0,0-1.583-.639H7.111a2.305,2.305,0,0,0-1.583.639,2.305,2.305,0,0,0-.639,1.583A.428.428,0,0,0,5.333-2Z" transform="translate(0 14)" fill="#212529"/>
</svg>
