<svg id="Location" xmlns="http://www.w3.org/2000/svg" width="108.253" height="112.001" viewBox="0 0 108.253 112.001">
  <g id="Group_44244" data-name="Group 44244" transform="translate(0 0)">
    <g id="Group_44239" data-name="Group 44239" transform="translate(0 0)">
      <g id="Group_44130" data-name="Group 44130" transform="translate(0 56.618)">
        <g id="Group_44128" data-name="Group 44128" transform="translate(1.95 1.614)">
          <path id="Path_94836" data-name="Path 94836" d="M4327.832,2591.253a.11.11,0,0,0,.1-.145,3.017,3.017,0,0,1-.1-1.943c.529-1.461,2.155-.759,3.167-1.043.875-.246,1.268-1.2.979-2.367a.111.111,0,0,0-.133-.08.109.109,0,0,0-.08.133c.259,1.047-.072,1.893-.825,2.1-.964.271-2.724-.451-3.313,1.179a3.223,3.223,0,0,0,.1,2.088A.11.11,0,0,0,4327.832,2591.253Z" transform="translate(-4327.5 -2585.673)" fill="#a6b6f8"/>
        </g>
        <g id="Group_44129" data-name="Group 44129" transform="translate(0)">
          <path id="Path_94837" data-name="Path 94837" d="M4403.544,2528.665c-.37-1.3-.053-2.438.789-2.83.825-.385,2-.142,2.8-.655a1.334,1.334,0,0,0,.573-1.388.109.109,0,0,0-.216.033,1.122,1.122,0,0,1-.475,1.17c-.687.443-1.979.272-2.771.641-.957.446-1.313,1.657-.907,3.087A.109.109,0,0,0,4403.544,2528.665Z" transform="translate(-4403.168 -2523.7)" fill="#a6b6f8"/>
        </g>
      </g>
      <g id="Group_44238" data-name="Group 44238" transform="translate(3.545)">
        <g id="Group_44233" data-name="Group 44233" transform="translate(0)">
          <g id="Group_44131" data-name="Group 44131" transform="translate(14.951 14.23)">
            <path id="Path_94838" data-name="Path 94838" d="M3479.483,901.4a5.06,5.06,0,1,0,5.063-5.057A5.058,5.058,0,0,0,3479.483,901.4Z" transform="translate(-3479.483 -896.34)" fill="#15142b"/>
          </g>
          <g id="Group_44132" data-name="Group 44132" transform="translate(9.801 17.152)">
            <path id="Path_94839" data-name="Path 94839" d="M3736.654,1012.778a4.285,4.285,0,1,0,4.287-4.283A4.284,4.284,0,0,0,3736.654,1012.778Z" transform="translate(-3736.654 -1008.495)" fill="#15142b"/>
          </g>
          <g id="Group_44133" data-name="Group 44133" transform="translate(10.871 20.365)">
            <path id="Path_94840" data-name="Path 94840" d="M3695.555,1136.168a4.285,4.285,0,1,0,4.288-4.283A4.284,4.284,0,0,0,3695.555,1136.168Z" transform="translate(-3695.555 -1131.885)" fill="#15142b"/>
          </g>
          <g id="Group_44134" data-name="Group 44134" transform="translate(11.876 13.097)">
            <path id="Path_94841" data-name="Path 94841" d="M3656.974,857.128a4.285,4.285,0,1,0,4.288-4.283A4.284,4.284,0,0,0,3656.974,857.128Z" transform="translate(-3656.974 -852.845)" fill="#15142b"/>
          </g>
          <g id="Group_44145" data-name="Group 44145" transform="translate(29.639 21.499)">
            <g id="Group_44136" data-name="Group 44136" transform="translate(0 5.684)">
              <g id="Group_44135" data-name="Group 44135">
                <path id="Path_94842" data-name="Path 94842" d="M2348.484,1410.031c6.991,0,12.62-6.49,16.407-12.36l-6.243-4.027c-4.886,7.574-8.328,8.86-9.944,8.952a3.925,3.925,0,0,1-3.041-1.343l.042.055-5.932,4.474A11.321,11.321,0,0,0,2348.484,1410.031Z" transform="translate(-2339.774 -1393.643)" fill="#feb9a5"/>
              </g>
            </g>
            <g id="Group_44144" data-name="Group 44144" transform="translate(18.792)">
              <g id="Group_44139" data-name="Group 44139" transform="translate(0)">
                <g id="Group_44138" data-name="Group 44138">
                  <g id="Group_44137" data-name="Group 44137">
                    <path id="Path_94843" data-name="Path 94843" d="M2275.9,1182.372a43.822,43.822,0,0,1-2.95,4.562l-5.017-5.693s2.081-4.694,3.04-4.429c1.066.295.219,2.116.219,2.116s2.088-3.927,3.26-3.488-.682,3.622-.682,3.622,1.1-.156.832,1.085c0,0,.607-.167.84.158.219.305-.085.915-.085.915s.544,0,.712.3C2276.271,1181.874,2275.9,1182.372,2275.9,1182.372Z" transform="translate(-2267.937 -1175.406)" fill="#feb9a5"/>
                  </g>
                </g>
              </g>
              <g id="Group_44140" data-name="Group 44140" transform="translate(5.23 3.569)">
                <path id="Path_94844" data-name="Path 94844" d="M2355.246,1313.249l.52-.7a.087.087,0,1,0-.14-.1l-.521.7a.087.087,0,0,0,.14.1Z" transform="translate(-2355.088 -1312.411)" fill="#0d243f"/>
              </g>
              <g id="Group_44141" data-name="Group 44141" transform="translate(6.065 4.667)">
                <path id="Path_94845" data-name="Path 94845" d="M2323.186,1355.432l.52-.7a.087.087,0,0,0-.14-.1l-.52.7a.087.087,0,0,0,.14.1Z" transform="translate(-2323.029 -1354.594)" fill="#0d243f"/>
              </g>
              <g id="Group_44142" data-name="Group 44142" transform="translate(6.823 5.728)">
                <path id="Path_94846" data-name="Path 94846" d="M2294.1,1396.172l.52-.7a.087.087,0,1,0-.14-.1l-.521.7a.087.087,0,0,0,.14.1Z" transform="translate(-2293.939 -1395.334)" fill="#0d243f"/>
              </g>
              <g id="Group_44143" data-name="Group 44143" transform="translate(2.661 3.416)">
                <path id="Path_94847" data-name="Path 94847" d="M2453.846,1307.388l.52-.7a.087.087,0,0,0-.14-.1l-.52.7a.087.087,0,0,0,.017.122A.088.088,0,0,0,2453.846,1307.388Z" transform="translate(-2453.688 -1306.549)" fill="#0d243f"/>
              </g>
            </g>
          </g>
          <g id="Group_44147" data-name="Group 44147" transform="translate(0 43.693)">
            <g id="Group_44146" data-name="Group 44146">
              <path id="Path_94848" data-name="Path 94848" d="M4127.349,2039.789a6.6,6.6,0,0,0,5.5,2.679l-.026-7.421a1.1,1.1,0,0,1,.591.459,7.211,7.211,0,0,1,.044-3.107,16.91,16.91,0,0,1,.615-2.587l-7.049-2.338a25.327,25.327,0,0,0-.953,3.937C4125.657,2034.094,4125.645,2037.429,4127.349,2039.789Z" transform="translate(-4125.84 -2027.473)" fill="#feb9a5"/>
            </g>
          </g>
          <g id="Group_44151" data-name="Group 44151" transform="translate(4.197 79.926)">
            <g id="Group_44148" data-name="Group 44148">
              <path id="Path_94849" data-name="Path 94849" d="M3279.2,3425.965a3.191,3.191,0,0,0,3.191,3.19h19.6a3.192,3.192,0,0,0,0-6.385h-19.6A3.192,3.192,0,0,0,3279.2,3425.965Z" transform="translate(-3279.093 -3422.66)" fill="#ccd7f6"/>
              <path id="Path_94850" data-name="Path 94850" d="M3278.3,3425.176h19.6a3.3,3.3,0,0,0,0-6.6h-19.6a3.3,3.3,0,0,0,0,6.6Zm19.6-6.385a3.083,3.083,0,0,1,0,6.167h-19.6a3.083,3.083,0,0,1,0-6.167Z" transform="translate(-3275.001 -3418.572)" fill="#a6b6f8"/>
            </g>
            <g id="Group_44149" data-name="Group 44149" transform="translate(11.849 6.385)">
              <rect id="Rectangle_10270" data-name="Rectangle 10270" width="2.282" height="21.898" transform="translate(0.109 0.109)" fill="#fff"/>
              <path id="Path_94851" data-name="Path 94851" d="M3730.062,3685.838h2.282a.109.109,0,0,0,.109-.109v-21.9a.109.109,0,0,0-.109-.109h-2.282a.11.11,0,0,0-.11.109v21.9A.11.11,0,0,0,3730.062,3685.838Zm2.172-.219h-2.063v-21.679h2.063Z" transform="translate(-3729.952 -3663.722)" fill="#a6b6f8"/>
            </g>
            <g id="Group_44150" data-name="Group 44150" transform="translate(6.929 27.628)">
              <path id="Path_94852" data-name="Path 94852" d="M3545.261,4487.576h12.122c0-2.253-2.713-4.079-6.061-4.079S3545.261,4485.323,3545.261,4487.576Z" transform="translate(-3545.152 -4483.388)" fill="#ccd7f6"/>
              <path id="Path_94853" data-name="Path 94853" d="M3541.174,4483.594H3553.3a.11.11,0,0,0,.109-.11c0-2.309-2.768-4.187-6.17-4.187s-6.17,1.879-6.17,4.188A.11.11,0,0,0,3541.174,4483.594Zm12.01-.218h-11.9c.087-2.139,2.723-3.86,5.949-3.86S3553.1,4481.237,3553.184,4483.375Z" transform="translate(-3541.065 -4479.296)" fill="#a6b6f8"/>
            </g>
          </g>
          <g id="Group_44167" data-name="Group 44167" transform="translate(22.56 96.627)">
            <g id="Group_44166" data-name="Group 44166" transform="translate(0 0)">
              <g id="Group_44163" data-name="Group 44163">
                <g id="Group_44152" data-name="Group 44152" transform="translate(0.213 4.439)">
                  <path id="Path_94854" data-name="Path 94854" d="M3227.53,4230.533l.158,3.289,8.7-.419-.156-3.243Z" transform="translate(-3227.53 -4230.16)" fill="#f3f1fc"/>
                </g>
                <g id="Group_44161" data-name="Group 44161" transform="translate(0)">
                  <g id="Group_44159" data-name="Group 44159" transform="translate(0.31 6.348)">
                    <g id="Group_44158" data-name="Group 44158">
                      <g id="Group_44153" data-name="Group 44153">
                        <path id="Path_94855" data-name="Path 94855" d="M2899.9,4310.327l-17.459.74-.3-7.106c3.22,1.441,3.579-.958,8.7-.418,0,0,2.641,3.29,4.682,3.638a10.83,10.83,0,0,1,1.42.34C2898.508,4308.016,2899.879,4308.909,2899.9,4310.327Z" transform="translate(-2882.14 -4303.461)" fill="#00d3bd"/>
                      </g>
                      <g id="Group_44154" data-name="Group 44154" transform="translate(0.163 4.361)">
                        <path id="Path_94856" data-name="Path 94856" d="M3431.151,4474l.219-.009a3.243,3.243,0,0,0-3.379-3.1l.009.219A3.023,3.023,0,0,1,3431.151,4474Z" transform="translate(-3427.991 -4470.887)" fill="#fff"/>
                      </g>
                      <g id="Group_44157" data-name="Group 44157" transform="translate(9.769 1.287)">
                        <g id="Group_44155" data-name="Group 44155">
                          <path id="Path_94857" data-name="Path 94857" d="M3068.395,4355.306a.11.11,0,0,0,.106-.134,3.158,3.158,0,0,0-2.73-2.3c-.345.056-.521.324-.481.733.148,1.532,2.979,1.692,3.1,1.7Zm-2.48-2.224a3.136,3.136,0,0,1,2.334,1.994c-.58-.054-2.629-.329-2.741-1.488-.029-.3.069-.46.3-.5A.655.655,0,0,1,3065.915,4353.082Z" transform="translate(-3065.284 -4352.864)" fill="#333"/>
                        </g>
                        <g id="Group_44156" data-name="Group 44156" transform="translate(2.988 0.171)">
                          <path id="Path_94858" data-name="Path 94858" d="M3020.122,4361.709a2.056,2.056,0,0,0,1.222-1.979.41.41,0,0,0-.554-.262c-.984.241-.824,2.072-.817,2.149A.111.111,0,0,0,3020.122,4361.709Zm.834-2.045a.168.168,0,0,1,.18.132,1.867,1.867,0,0,1-.954,1.645c-.016-.428,0-1.6.66-1.761A.491.491,0,0,1,3020.956,4359.664Z" transform="translate(-3019.959 -4359.445)" fill="#333"/>
                        </g>
                      </g>
                    </g>
                  </g>
                  <g id="Group_44160" data-name="Group 44160" transform="translate(0)">
                    <rect id="Rectangle_10271" data-name="Rectangle 10271" width="5.36" height="8.711" transform="translate(0.255 5.768) rotate(-92.723)" fill="#feb9a5"/>
                  </g>
                </g>
                <g id="Group_44162" data-name="Group 44162" transform="translate(14.343 10.406)">
                  <path id="Path_94859" data-name="Path 94859" d="M2885.865,4462.079l-3.437.146a2.473,2.473,0,0,1,.484-2.953C2884.473,4459.768,2885.845,4460.661,2885.865,4462.079Z" transform="translate(-2882.14 -4459.272)" fill="#332f51"/>
                </g>
              </g>
              <g id="Group_44164" data-name="Group 44164" transform="translate(0.034 1.375)">
                <path id="Path_94860" data-name="Path 94860" d="M3243.454,4114.225a21.2,21.2,0,0,1-8.674,1.82l-.181-3.493Z" transform="translate(-3234.6 -4112.552)" fill="#eda594"/>
              </g>
              <g id="Group_44165" data-name="Group 44165" transform="translate(0.609 13.213)">
                <path id="Path_94861" data-name="Path 94861" d="M2898.333,4567.04l.031.725a.661.661,0,0,1-.633.69l-16.137.684a.661.661,0,0,1-.689-.632l-.032-.728Z" transform="translate(-2880.872 -4567.04)" fill="#332f51"/>
              </g>
            </g>
          </g>
          <g id="Group_44183" data-name="Group 44183" transform="translate(46.62 96.061)">
            <g id="Group_44182" data-name="Group 44182" transform="translate(0 0)">
              <g id="Group_44179" data-name="Group 44179" transform="translate(0 0)">
                <g id="Group_44168" data-name="Group 44168" transform="translate(0.572 4.4)">
                  <path id="Path_94862" data-name="Path 94862" d="M2282.02,4208.066l.432,3.265,8.636-1.142-.426-3.219Z" transform="translate(-2282.02 -4206.97)" fill="#f3f1fc"/>
                </g>
                <g id="Group_44177" data-name="Group 44177">
                  <g id="Group_44175" data-name="Group 44175" transform="translate(0.838 6.372)">
                    <g id="Group_44174" data-name="Group 44174">
                      <g id="Group_44169" data-name="Group 44169">
                        <path id="Path_94863" data-name="Path 94863" d="M1938.358,4288.668l-3.413.431-13.924,1.762-.891-7.056c3.329,1.167,3.487-1.254,8.637-1.143,0,0,2.906,3.059,4.969,3.235a10.913,10.913,0,0,1,1.444.22C1936.779,4286.48,1938.22,4287.256,1938.358,4288.668Z" transform="translate(-1920.13 -4282.658)" fill="#00d3bd"/>
                      </g>
                      <g id="Group_44170" data-name="Group 44170" transform="translate(0.484 4.957)">
                        <path id="Path_94864" data-name="Path 94864" d="M2465.564,4475.852l.217-.026a3.248,3.248,0,0,0-3.625-2.813l.027.216A3.027,3.027,0,0,1,2465.564,4475.852Z" transform="translate(-2462.156 -4472.987)" fill="#fff"/>
                      </g>
                      <g id="Group_44173" data-name="Group 44173" transform="translate(9.85 0.953)">
                        <g id="Group_44171" data-name="Group 44171" transform="translate(0 0.106)">
                          <path id="Path_94865" data-name="Path 94865" d="M2116.12,4325.581c.071,0,.117,0,.13,0a.11.11,0,0,0,.1-.143,3.15,3.15,0,0,0-2.912-2.062.592.592,0,0,0-.418.771C2113.264,4325.494,2115.539,4325.581,2116.12,4325.581Zm-2.447-2.015a3.2,3.2,0,0,1,2.417,1.795c-.583-.006-2.647-.108-2.855-1.254-.053-.294.031-.464.256-.52A.713.713,0,0,1,2113.673,4323.566Z" transform="translate(-2113.001 -4323.348)" fill="#333"/>
                        </g>
                        <g id="Group_44172" data-name="Group 44172" transform="translate(3.078)">
                          <path id="Path_94866" data-name="Path 94866" d="M2073.294,4321.591a2.054,2.054,0,0,0,1.053-2.073.41.41,0,0,0-.574-.216c-.961.322-.649,2.133-.635,2.21A.109.109,0,0,0,2073.294,4321.591Zm.686-2.107a.164.164,0,0,1,.166.116,1.868,1.868,0,0,1-.813,1.719c-.052-.425-.13-1.6.511-1.809A.419.419,0,0,1,2073.98,4319.483Z" transform="translate(-2073.08 -4319.265)" fill="#333"/>
                        </g>
                      </g>
                    </g>
                  </g>
                  <g id="Group_44176" data-name="Group 44176" transform="translate(0)">
                    <rect id="Rectangle_10272" data-name="Rectangle 10272" width="5.36" height="8.711" transform="translate(0.7 6.451) rotate(-97.505)" fill="#feb9a5"/>
                  </g>
                </g>
                <g id="Group_44178" data-name="Group 44178" transform="translate(15.26 9.83)">
                  <path id="Path_94867" data-name="Path 94867" d="M1923.935,4418l-3.413.431a2.472,2.472,0,0,1,.236-2.982C1922.357,4415.813,1923.8,4416.589,1923.935,4418Z" transform="translate(-1920.13 -4415.449)" fill="#332f51"/>
                </g>
              </g>
              <g id="Group_44180" data-name="Group 44180" transform="translate(0.107 2.088)">
                <path id="Path_94868" data-name="Path 94868" d="M2312.853,4119.12a21.2,21.2,0,0,1-8.492,2.536l-.471-3.465Z" transform="translate(-2303.89 -4118.191)" fill="#eda594"/>
              </g>
              <g id="Group_44181" data-name="Group 44181" transform="translate(1.728 12.381)">
                <path id="Path_94869" data-name="Path 94869" d="M1933.7,4513.391l.092.72a.662.662,0,0,1-.573.741l-16.024,2.027a.662.662,0,0,1-.74-.573l-.093-.722Z" transform="translate(-1916.362 -4513.391)" fill="#332f51"/>
              </g>
            </g>
          </g>
          <g id="Group_44184" data-name="Group 44184" transform="translate(89.775 19.014)">
            <path id="Path_94870" data-name="Path 94870" d="M749.415,1082.52c1.819,0,3.244-.553,3.244-1.258s-1.425-1.262-3.244-1.262-3.244.555-3.244,1.262S747.6,1082.52,749.415,1082.52Zm0-2.3c1.81,0,3.026.54,3.026,1.044s-1.216,1.04-3.026,1.04-3.026-.538-3.026-1.04S747.605,1080.217,749.415,1080.217Z" transform="translate(-746.171 -1079.999)" fill="#a6b6f8"/>
          </g>
          <g id="Group_44186" data-name="Group 44186" transform="translate(86.183)">
            <g id="Group_44185" data-name="Group 44185" transform="translate(0)">
              <path id="Path_94871" data-name="Path 94871" d="M602.984,357.093c0,3.175-4.892,10.318-6.738,12.458a.873.873,0,0,1-1.352-.033c-.387-.5-.917-1.19-1.5-2-1.975-2.734-4.587-7.986-4.587-10.421a7.09,7.09,0,1,1,14.18,0Zm-7.092,2.925a3.251,3.251,0,1,0-3.249-3.249A3.247,3.247,0,0,0,595.892,360.018Z" transform="translate(-588.804 -350.001)" fill="#a6b6f8"/>
            </g>
          </g>
          <g id="Group_44187" data-name="Group 44187" transform="translate(48.524 22.398)">
            <path id="Path_94872" data-name="Path 94872" d="M450.819,1279.454a.109.109,0,0,0,0-.219q-.875,0-1.747-.012a.107.107,0,0,0-.11.108.109.109,0,0,0,.108.111q.873.011,1.75.012Zm1.749-.009h0q.877-.01,1.751-.031a.109.109,0,0,0,0-.219h0q-.872.022-1.748.032a.109.109,0,0,0,0,.218Zm-5.245-.034a.109.109,0,0,0,0-.218q-.879-.02-1.748-.049a.1.1,0,0,0-.113.106.11.11,0,0,0,.106.113q.87.029,1.75.049Zm8.743-.055c.288-.013.834-.032,1.753-.085a.109.109,0,0,0,.1-.115.107.107,0,0,0-.115-.1q-.867.05-1.745.084a.109.109,0,0,0,0,.219Zm-12.24-.059a.109.109,0,0,0,0-.219q-.882-.036-1.746-.081a.1.1,0,0,0-.115.1.109.109,0,0,0,.1.115C443.088,1279.267,443.7,1279.291,443.827,1279.3Zm15.731-.141c.078-.006.794-.058,1.753-.151a.109.109,0,0,0,.1-.119.114.114,0,0,0-.12-.1c-.569.056-1.154.106-1.74.151A.109.109,0,0,0,459.558,1279.155Zm-19.225-.035a.109.109,0,0,0,.006-.218q-.886-.052-1.745-.11a.114.114,0,0,0-.116.1.11.11,0,0,0,.1.116C439.552,1279.075,440.194,1279.111,440.333,1279.12Zm-3.491-.233a.109.109,0,0,0,.008-.218q-.893-.066-1.743-.136a.111.111,0,0,0-.118.1.109.109,0,0,0,.1.118C436.06,1278.83,436.646,1278.872,436.841,1278.887Zm26.212-.075c.591-.073,1.175-.153,1.736-.239a.109.109,0,0,0,.092-.124.111.111,0,0,0-.124-.092c-.559.085-1.141.165-1.73.238a.109.109,0,1,0,.027.217Zm-29.7-.21a.109.109,0,0,0,.009-.218c-.6-.054-1.186-.108-1.741-.161a.112.112,0,0,0-.119.1.109.109,0,0,0,.1.119C432.583,1278.535,433.2,1278.588,433.354,1278.6Zm33.162-.323c.589-.111,1.167-.232,1.716-.36a.109.109,0,1,0-.049-.213c-.546.127-1.12.248-1.707.359a.109.109,0,0,0,.041.215Zm-36.645-.012a.109.109,0,0,0,.011-.218c-.628-.065-1.21-.128-1.739-.187a.109.109,0,1,0-.024.217c.53.059,1.112.122,1.741.187Zm-3.371-.484a.109.109,0,0,0-.1-.121c-1.113-.134-1.738-.219-1.738-.219a.112.112,0,0,0-.123.094.109.109,0,0,0,.094.123s.626.086,1.742.22A.109.109,0,0,0,426.5,1277.782Zm43.43-.306c.586-.17,1.147-.353,1.669-.544a.109.109,0,0,0-.075-.205c-.517.189-1.074.37-1.655.539a.109.109,0,0,0,.061.21Zm3.292-1.219a13.889,13.889,0,0,0,1.543-.848.109.109,0,1,0-.118-.184,13.7,13.7,0,0,1-1.518.834A.109.109,0,0,0,473.222,1276.258Zm2.94-1.925a6.841,6.841,0,0,0,1.13-1.36.109.109,0,0,0-.186-.115,6.612,6.612,0,0,1-1.094,1.316.109.109,0,1,0,.15.159Zm1.832-2.989a4.474,4.474,0,0,0,.1-1.77.109.109,0,0,0-.216.032,4.26,4.26,0,0,1-.092,1.684.109.109,0,0,0,.212.054Zm-.523-3.281a.109.109,0,0,0,.043-.148,7.4,7.4,0,0,0-1.042-1.42.109.109,0,0,0-.161.148,7.185,7.185,0,0,1,1.011,1.378A.109.109,0,0,0,477.47,1268.062Zm-2.276-2.61a.11.11,0,0,0-.017-.154c-.427-.343-.909-.687-1.43-1.026a.109.109,0,1,0-.119.183c.515.334.99.675,1.412,1.013A.11.11,0,0,0,475.195,1265.452Zm-2.914-1.932a.109.109,0,0,0-.043-.148c-.486-.269-1.011-.54-1.56-.807a.109.109,0,0,0-.1.2c.545.265,1.067.535,1.55.8A.109.109,0,0,0,472.281,1263.52Zm-3.142-1.545a.109.109,0,0,0-.056-.144c-.514-.225-1.059-.452-1.619-.676a.109.109,0,1,0-.081.2c.559.223,1.1.449,1.613.673A.109.109,0,0,0,469.14,1261.974Zm-3.249-1.307a.109.109,0,0,0-.065-.141c-.528-.195-1.083-.393-1.652-.589a.109.109,0,0,0-.071.207c.567.2,1.122.393,1.648.587A.109.109,0,0,0,465.89,1260.667Zm-3.309-1.147a.109.109,0,0,0-.07-.138q-.829-.269-1.672-.528a.109.109,0,0,0-.064.209q.84.258,1.668.527A.109.109,0,0,0,462.581,1259.52Zm-3.345-1.033a.109.109,0,0,0-.074-.135q-.842-.247-1.687-.484a.109.109,0,1,0-.059.21q.843.237,1.685.483A.109.109,0,0,0,459.236,1258.487Zm-3.479-.87a.109.109,0,0,0,.029-.215q-.85-.23-1.693-.45a.108.108,0,0,0-.133.078.109.109,0,0,0,.078.133C455.707,1257.6,455.713,1257.617,455.757,1257.617Zm-3.283-.971a.109.109,0,0,0-.079-.133q-.859-.219-1.7-.428a.109.109,0,1,0-.053.212q.839.209,1.7.428A.109.109,0,0,0,452.474,1256.646Zm-3.4-.85a.109.109,0,0,0-.08-.132l-1.7-.416a.109.109,0,0,0-.052.212l1.7.416A.109.109,0,0,0,449.075,1255.8Zm-3.4-.831a.109.109,0,0,0-.08-.132q-.882-.215-1.7-.418a.109.109,0,1,0-.052.212c.546.136,1.115.275,1.7.419A.109.109,0,0,0,445.671,1254.965Zm-3.508-.764a.109.109,0,0,0,.027-.215c-.606-.156-1.172-.306-1.693-.451a.109.109,0,0,0-.059.21C440.59,1253.788,442.109,1254.2,442.162,1254.2Zm-3.272-1.027a.109.109,0,0,0-.07-.138,12.338,12.338,0,0,1-1.618-.635.109.109,0,1,0-.092.2,12.6,12.6,0,0,0,1.642.644A.109.109,0,0,0,438.89,1253.174Zm-3.2-1.408a.109.109,0,0,0-.043-.148c-.526-.289-1.027-.591-1.489-.9a.109.109,0,1,0-.121.182c.467.31.973.616,1.5.908A.11.11,0,0,0,435.691,1251.766Zm-2.913-1.927a.11.11,0,0,0-.014-.154,10.848,10.848,0,0,1-1.239-1.205.109.109,0,1,0-.165.143,11.055,11.055,0,0,0,1.264,1.23A.109.109,0,0,0,432.778,1249.839Zm24.36-2.476a.109.109,0,0,0,.108-.111.106.106,0,0,0-.111-.108q-.859.009-1.746,0a.11.11,0,0,0-.11.108.109.109,0,0,0,.108.111C455.965,1247.369,456.55,1247.37,457.138,1247.364Zm-3.5-.037a.109.109,0,0,0,0-.219q-.865-.026-1.746-.068a.1.1,0,0,0-.114.1.109.109,0,0,0,.1.114C452.805,1247.3,453.367,1247.317,453.639,1247.327Zm5.246,0h0c.594-.021,1.183-.05,1.75-.086a.109.109,0,0,0,.1-.116.113.113,0,0,0-.116-.1c-.565.036-1.151.065-1.743.085a.109.109,0,0,0,0,.219Zm-28.371-.118a.109.109,0,0,0,.05-.146,4.272,4.272,0,0,1-.451-1.63.106.106,0,0,0-.115-.1.109.109,0,0,0-.1.115,4.484,4.484,0,0,0,.473,1.714A.109.109,0,0,0,430.514,1247.206Zm19.631-.047a.109.109,0,0,0,.007-.218q-.868-.057-1.741-.128a.11.11,0,0,0-.118.1.109.109,0,0,0,.1.118C449.322,1247.106,449.939,1247.144,450.144,1247.159Zm12.23-.062c.208-.023.837-.079,1.752-.214a.109.109,0,1,0-.032-.216c-.543.08-1.125.151-1.73.212a.109.109,0,0,0,.011.218Zm-15.715-.223a.109.109,0,0,0,.011-.218q-.871-.085-1.739-.184a.109.109,0,1,0-.025.217C445.84,1246.8,446.422,1246.85,446.66,1246.874Zm19.194-.3a16.694,16.694,0,0,0,1.7-.453.109.109,0,1,0-.068-.207,16.492,16.492,0,0,1-1.678.447.109.109,0,1,0,.046.214Zm-22.672-.1a.109.109,0,0,0,.014-.218q-.872-.114-1.731-.241a.109.109,0,1,0-.032.216C441.763,1246.283,443.129,1246.477,443.181,1246.477Zm-3.352-.606a.109.109,0,0,0-.09-.126q-.872-.146-1.72-.306a.109.109,0,0,0-.041.215q.85.16,1.724.307A.11.11,0,0,0,439.829,1245.871Zm29.346-.455a3.085,3.085,0,0,0,1.275-1.245.109.109,0,0,0-.2-.1,2.874,2.874,0,0,1-1.189,1.152.109.109,0,0,0,.111.189Zm-32.784-.189a.109.109,0,0,0-.084-.13c-.583-.123-1.157-.252-1.7-.383a.108.108,0,0,0-.132.081.109.109,0,0,0,.081.132c.549.131,1.124.26,1.709.384A.109.109,0,0,0,436.39,1245.227Zm-3.4-.809a.109.109,0,0,0-.077-.134c-.582-.158-1.146-.322-1.675-.488a.109.109,0,1,0-.065.209c.532.167,1.1.332,1.683.49A.109.109,0,0,0,432.987,1244.418Zm-2.592-.649a5.486,5.486,0,0,1,.9-1.451.109.109,0,1,0-.168-.141,5.718,5.718,0,0,0-.932,1.51.109.109,0,0,0,.2.082Zm-.747-.392a.109.109,0,0,0-.065-.14c-.578-.213-1.121-.434-1.613-.656a.109.109,0,0,0-.09.2c.5.224,1.045.447,1.627.661A.109.109,0,0,0,429.648,1243.377Zm40.722-.838a.109.109,0,0,0,.058-.143,3.98,3.98,0,0,0-1.082-1.41.109.109,0,0,0-.144.164,3.767,3.767,0,0,1,1.024,1.33A.11.11,0,0,0,470.37,1242.539Zm-43.9-.6a.109.109,0,0,0-.038-.15A12.2,12.2,0,0,1,425,1240.8a.109.109,0,0,0-.137.17,13.18,13.18,0,0,0,1.449,1A.109.109,0,0,0,426.466,1241.936Zm6.062-.819a14.554,14.554,0,0,1,1.411-1.008.109.109,0,1,0-.117-.185,14.826,14.826,0,0,0-1.432,1.023.109.109,0,0,0,.138.17Zm35.4-.983a.109.109,0,0,0-.042-.148,15.053,15.053,0,0,0-1.589-.757.109.109,0,0,0-.083.2,14.8,14.8,0,0,1,1.566.746A.109.109,0,0,0,467.932,1240.133Zm-44.189-.369a.109.109,0,0,0,.011-.154,7.165,7.165,0,0,1-.971-1.416.109.109,0,0,0-.194.1,7.372,7.372,0,0,0,1,1.46A.109.109,0,0,0,423.744,1239.765Zm11.7-.515a15.364,15.364,0,0,1,1.6-.675.109.109,0,1,0-.074-.206,15.683,15.683,0,0,0-1.621.685.109.109,0,0,0,.1.2Zm29.273-.485a.109.109,0,0,0-.07-.137c-.531-.171-1.1-.335-1.686-.488a.109.109,0,0,0-.055.212c.584.151,1.147.314,1.674.484A.109.109,0,0,0,464.72,1238.765Zm-26.015-.71c.535-.145,1.105-.28,1.695-.4a.109.109,0,1,0-.044-.214c-.594.122-1.168.258-1.708.4A.109.109,0,0,0,438.7,1238.055Zm22.529-.1a.109.109,0,0,0,.023-.216c-.552-.117-1.131-.227-1.722-.329a.109.109,0,0,0-.037.216C460.853,1237.858,461.172,1237.956,461.233,1237.956Zm-3.339-.688a.109.109,0,0,0-.093-.123c-.57-.078-1.155-.149-1.74-.21a.107.107,0,0,0-.12.1.109.109,0,0,0,.1.12c.583.061,1.166.132,1.734.209A.109.109,0,0,0,457.894,1237.267Zm-15.78.081c.556-.085,1.138-.162,1.729-.227a.109.109,0,0,0-.024-.217c-.595.066-1.179.143-1.738.228A.109.109,0,0,0,442.115,1237.348Zm12.193-.354a.109.109,0,0,0,.008-.218c-.584-.044-1.172-.08-1.75-.108a.109.109,0,0,0-.01.218C453.432,1236.928,454.034,1236.975,454.307,1236.994Zm-8.735-.032c.28-.018.815-.061,1.749-.1a.11.11,0,0,0,.1-.114.111.111,0,0,0-.114-.1c-.589.024-1.177.057-1.748.1a.109.109,0,0,0,.008.218Zm5.24-.134a.109.109,0,0,0,0-.219c-.585-.012-1.17-.014-1.752-.008a.109.109,0,0,0-.108.11.1.1,0,0,0,.11.108C449.955,1236.812,450.525,1236.825,450.812,1236.828Zm-28.664-.126a.109.109,0,0,0,.09-.126,4.948,4.948,0,0,1,.013-1.7.11.11,0,0,0-.088-.127.111.111,0,0,0-.127.088,5.171,5.171,0,0,0-.013,1.774A.11.11,0,0,0,422.149,1236.7Zm.668-3.433a7.336,7.336,0,0,1,.981-1.408.109.109,0,1,0-.164-.144,7.563,7.563,0,0,0-1.01,1.45.109.109,0,0,0,.193.1Zm2.231-2.6a13.436,13.436,0,0,1,1.419-.992.109.109,0,1,0-.114-.187,13.653,13.653,0,0,0-1.442,1.008.109.109,0,1,0,.137.17Zm2.946-1.818c.5-.241,1.04-.472,1.6-.686a.109.109,0,0,0-.079-.2c-.562.216-1.105.449-1.613.693a.109.109,0,0,0,.095.2Zm3.242-1.254c.538-.166,1.1-.323,1.678-.467a.109.109,0,0,0-.053-.212c-.579.144-1.148.3-1.689.47a.109.109,0,1,0,.064.208Zm3.378-.845c.556-.11,1.133-.212,1.716-.3a.109.109,0,0,0,.091-.125.111.111,0,0,0-.125-.091c-.586.091-1.167.193-1.726.3a.109.109,0,1,0,.043.214Zm3.431-.534c.264-.028.842-.1,1.748-.173a.109.109,0,0,0,.1-.118.116.116,0,0,0-.118-.1c-.591.049-1.177.107-1.742.173a.109.109,0,0,0,.012.218Zm15.717-.217a.109.109,0,0,0,0-.218q-.855,0-1.747-.016h0a.109.109,0,0,0,0,.218q.893.012,1.749.016Zm1.748,0s1.181-.009,1.75-.018a.109.109,0,0,0,0-.218h0q-.851.014-1.747.018a.109.109,0,0,0,0,.218Zm-5.244-.045a.109.109,0,0,0,0-.219q-.857-.018-1.747-.042h0a.109.109,0,0,0,0,.219q.89.024,1.749.042Zm8.739-.012c.33-.01.84-.023,1.752-.062a.11.11,0,0,0,.1-.114.106.106,0,0,0-.114-.1q-.845.036-1.745.062a.109.109,0,0,0,0,.218Zm-17.477-.016c.372-.017.832-.044,1.749-.067a.109.109,0,0,0-.005-.218c-.586.014-1.174.036-1.75.067a.109.109,0,0,0,.006.218Zm5.242-.065a.109.109,0,0,0,0-.219c-.589-.014-1.178-.021-1.75-.022a.109.109,0,0,0,0,.219c.571,0,1.158.008,1.745.022Zm15.728-.071c.252-.017.842-.049,1.752-.125a.109.109,0,0,0,.1-.118.115.115,0,0,0-.118-.1c-.55.046-1.136.088-1.741.124a.109.109,0,0,0,.007.218Zm3.483-.292c.177-.021.867-.093,1.75-.225a.109.109,0,0,0-.032-.216c-.54.081-1.122.156-1.729.223a.109.109,0,0,0,.012.218Zm3.477-.53c.63-.131,1.2-.276,1.7-.432a.109.109,0,0,0,.072-.137.108.108,0,0,0-.137-.072c-.494.153-1.06.3-1.683.426a.109.109,0,0,0,.044.214Zm3.337-1.106a2.188,2.188,0,0,0,1.188-1.324.109.109,0,0,0-.083-.13.111.111,0,0,0-.13.083,1.99,1.99,0,0,1-1.083,1.18.109.109,0,1,0,.108.19Zm.559-2.837a.109.109,0,0,0,.009-.154,7.582,7.582,0,0,0-1.348-1.146.109.109,0,0,0-.124.18,7.367,7.367,0,0,1,1.309,1.112A.109.109,0,0,0,473.353,1221.03Zm-2.8-2.07a.109.109,0,0,0-.043-.148c-.383-.212-.849-.444-1.518-.855a.109.109,0,1,0-.114.186c.65.4,1.139.646,1.527.86A.109.109,0,0,0,470.557,1218.96Zm-2.963-1.844a.109.109,0,0,0-.015-.154,6.87,6.87,0,0,1-1.193-1.233.109.109,0,0,0-.176.129,7.08,7.08,0,0,0,1.231,1.272A.109.109,0,0,0,467.593,1217.116Zm-1.962-2.909a5.2,5.2,0,0,1-.175-1.694.109.109,0,0,0-.1-.115.111.111,0,0,0-.115.1,5.422,5.422,0,0,0,.183,1.765A.109.109,0,0,0,465.631,1214.207Zm.114-3.391c.066-.24.144-.493.233-.75a.109.109,0,0,0-.207-.072c-.09.262-.17.518-.238.764a.109.109,0,0,0,.211.058Z" transform="translate(-421.953 -1209.922)" fill="#a6b6f8"/>
          </g>
          <g id="Group_44196" data-name="Group 44196" transform="translate(0.232 28.417)">
            <g id="Group_44188" data-name="Group 44188" transform="translate(7.31 34.226)">
              <path id="Path_94873" data-name="Path 94873" d="M2268.2,2771.906c1.945.822,7.543.5,7.543.5l3.217,20.527c.048.524,10.371-.52,10.327-1.049l-.782-23.752s4.357,2.238,6.154,4.274a12.288,12.288,0,0,1,1.158,1.6s0,.009,0,.013c3.557,5.73,7.521,18.713,7.521,18.713.057.45,10.484-1.1,10.427-1.547,0,0-4.926-23.276-10.546-28.437a38.223,38.223,0,0,0-6.7-5.025c-5.532-3.2-8.933-2.7-9.164-2.666a.034.034,0,0,1-.013,0l-22.2,2.531s-.022.109-.057.31C2264.744,2759.791,2263.206,2769.794,2268.2,2771.906Z" transform="translate(-2264.594 -2755.011)" fill="#ffc427"/>
            </g>
            <g id="Group_44189" data-name="Group 44189" transform="translate(45.098 67.554)">
              <path id="Path_94874" data-name="Path 94874" d="M2286.646,4036.395a26.979,26.979,0,0,0,2.979-.268c1.593-.2,3.376-.477,4.771-.738,2.5-.47,2.483-.641,2.469-.753a.088.088,0,0,0-.173,0c-.464.478-9.893,1.878-10.483,1.558a.084.084,0,0,0-.089-.048.087.087,0,0,0-.076.1C2286.05,4036.3,2286.062,4036.395,2286.646,4036.395Z" transform="translate(-2286.041 -4034.558)" fill="#0d243f"/>
            </g>
            <g id="Group_44190" data-name="Group 44190" transform="translate(21.169 68.287)">
              <path id="Path_94875" data-name="Path 94875" d="M3206.376,4064.118c.647,0,1.643-.046,3.173-.181.663-.058,6.475-.582,6.429-1.142a.082.082,0,0,0-.094-.08.087.087,0,0,0-.08.077c-.151.174-1.921.526-4.946.843-3.213.336-5.318.376-5.523.221a.085.085,0,0,0-.091-.061.087.087,0,0,0-.079.1C3205.171,4063.959,3205.185,4064.118,3206.376,4064.118Zm9.428-1.309h0Z" transform="translate(-3205.164 -4062.715)" fill="#0d243f"/>
            </g>
            <g id="Group_44191" data-name="Group 44191" transform="translate(8.403 34.724)">
              <path id="Path_94876" data-name="Path 94876" d="M3552.424,2811.767h.014a.087.087,0,0,0,.073-.1c-3.753-23.478-3.513-22.729-3.675-22.732-.056,0-5.6.313-7.5-.491-5.393-2.278-3.027-14.095-3-14.214a.087.087,0,0,0-.171-.035c-.1.492-2.418,12.077,3.105,14.41,1.837.776,6.787.547,7.5.509l3.572,22.581A.088.088,0,0,0,3552.424,2811.767Z" transform="translate(-3537.591 -2774.124)" fill="#0d243f"/>
            </g>
            <g id="Group_44192" data-name="Group 44192" transform="translate(7.801 34.226)">
              <path id="Path_94877" data-name="Path 94877" d="M2926.855,2757.9a8.362,8.362,0,0,0,4.015,2.137,21.757,21.757,0,0,0,6.123.284c6.979-.363,14.3-1.7,21.292-2.6-5.533-3.195-8.933-2.7-9.164-2.666a.037.037,0,0,1-.013,0l-22.2,2.531S2926.89,2757.7,2926.855,2757.9Z" transform="translate(-2926.855 -2755.009)" fill="#f9ac00"/>
            </g>
            <g id="Group_44193" data-name="Group 44193" transform="translate(0 15.276)">
              <path id="Path_94878" data-name="Path 94878" d="M4125.836,2031.415a1.21,1.21,0,0,0,.119.031c.572.1,1.2.035,1.783.092a16.151,16.151,0,0,1,2.15.354,17.338,17.338,0,0,0,2.526.516,5.581,5.581,0,0,0,.808,0,16.9,16.9,0,0,1,.617-2.587l-7.05-2.338A25.28,25.28,0,0,0,4125.836,2031.415Z" transform="translate(-4125.836 -2027.477)" fill="#eda594"/>
            </g>
            <g id="Group_44194" data-name="Group 44194" transform="translate(0)">
              <path id="Path_94879" data-name="Path 94879" d="M3024.165,1458.844c-.043.73,8.02,1.184,8.059.455l-.616,18.884c.2,1.4,26.964-.922,26.763-2.325l-2.421-19.364,4.912-.464c-.921-14.815-14.421-14.959-14.421-14.959-.231-.018-.459-.031-.686-.039a22.5,22.5,0,0,0-7.735.822C3026,1445.414,3024.165,1458.844,3024.165,1458.844Z" transform="translate(-3024.165 -1440.989)" fill="#fe674b"/>
            </g>
            <g id="Group_44195" data-name="Group 44195" transform="translate(7.354 34.78)">
              <path id="Path_94880" data-name="Path 94880" d="M3119.86,2779.212q1.835,0,4.634-.152c4.527-.246,9.9-.759,13.692-1.306,1.594-.23,2.842-.456,3.709-.671,1.318-.326,1.469-.554,1.443-.734a.087.087,0,0,0-.173.025c0,.008.014.211-1.312.54-.862.214-2.1.438-3.692.667-8.76,1.264-21.47,1.908-21.588,1.094a.086.086,0,0,0-.1-.074.088.088,0,0,0-.074.1C3116.45,2779.041,3117.61,2779.212,3119.86,2779.212Z" transform="translate(-3116.4 -2776.275)" fill="#0d243f"/>
            </g>
          </g>
          <g id="Group_44197" data-name="Group 44197" transform="translate(28.245 68.044)">
            <path id="Path_94881" data-name="Path 94881" d="M2957.071,2970.092s4.357,2.238,6.153,4.274a12.289,12.289,0,0,1,1.158,1.6c-4.335-12.018-10.515-13.6-10.515-13.6C2956.608,2964.254,2957.163,2967.588,2957.071,2970.092Z" transform="translate(-2953.867 -2962.374)" fill="#f9ac00"/>
          </g>
          <g id="Group_44198" data-name="Group 44198" transform="translate(28.157 67.956)">
            <path id="Path_94882" data-name="Path 94882" d="M3234.2,2966.9a.087.087,0,0,0,.087-.084c.074-2.031-.249-5.742-3.241-7.793a.088.088,0,1,0-.1.145c2.924,2,3.238,5.647,3.166,7.642a.088.088,0,0,0,.084.09Z" transform="translate(-3230.904 -2959.01)" fill="#0d243f"/>
          </g>
          <g id="Group_44215" data-name="Group 44215" transform="translate(12.434 18.655)">
            <g id="Group_44214" data-name="Group 44214" transform="translate(0)">
              <g id="Group_44199" data-name="Group 44199" transform="translate(1.652 9.762)">
                <path id="Path_94883" data-name="Path 94883" d="M3602.688,1441.848l.018.323c.052,1.049,1.267,1.625,3.422,1.625.494,0,3.011-.052,3.955-1.04.554-.576.339-1.124.341-1.731A22.5,22.5,0,0,0,3602.688,1441.848Z" transform="translate(-3602.688 -1440.985)" fill="#ea452f"/>
              </g>
              <g id="Group_44200" data-name="Group 44200" transform="translate(2.156 4.389)">
                <path id="Path_94884" data-name="Path 94884" d="M3639.089,1234.73l.3,6.22c.065,1.353-6.117,1.653-6.183.3l-.3-6.22Z" transform="translate(-3632.907 -1234.73)" fill="#feb9a5"/>
              </g>
              <g id="Group_44201" data-name="Group 44201" transform="translate(4.483 8.947)">
                <path id="Path_94885" data-name="Path 94885" d="M3637.407,1411.191c-1.422.052-3.593-.148-4.147-1.373l4.076-.109Z" transform="translate(-3633.26 -1409.709)" fill="#eda594"/>
              </g>
              <g id="Group_44202" data-name="Group 44202" transform="translate(1.356)">
                <path id="Path_94886" data-name="Path 94886" d="M3565.573,1066.31c2.754-.586,2.32,1.693,5.784,1.327,0,0,2.334,5.589-1.391,7.688a4.74,4.74,0,0,1-6.2-1.294l-.785-3.358c-.091-1.964.465-3.447,2-4.17A2.688,2.688,0,0,1,3565.573,1066.31Z" transform="translate(-3562.973 -1066.213)" fill="#feb9a5"/>
              </g>
              <g id="Group_44203" data-name="Group 44203" transform="translate(0 3.849)">
                <path id="Path_94887" data-name="Path 94887" d="M3817.882,1215.8a1.962,1.962,0,1,1-2.087-1.828A1.963,1.963,0,0,1,3817.882,1215.8Z" transform="translate(-3813.962 -1213.969)" fill="#feb9a5"/>
              </g>
              <g id="Group_44204" data-name="Group 44204" transform="translate(0.572 5.089)">
                <path id="Path_94888" data-name="Path 94888" d="M3912.969,1263.232a.109.109,0,1,0,0-.218.615.615,0,0,1,0-1.191h0a.109.109,0,1,0,0-.218h0a.827.827,0,0,0,0,1.627Z" transform="translate(-3912.291 -1261.605)" fill="#15142b"/>
              </g>
              <g id="Group_44213" data-name="Group 44213" transform="translate(4.19 1.946)">
                <g id="Group_44205" data-name="Group 44205" transform="translate(4.584 1.267)">
                  <path id="Path_94889" data-name="Path 94889" d="M3593.944,1189.918a.452.452,0,1,1-.524-.367A.452.452,0,0,1,3593.944,1189.918Z" transform="translate(-3593.046 -1189.544)" fill="#15142b"/>
                </g>
                <g id="Group_44206" data-name="Group 44206" transform="translate(1.149 1.718)">
                  <path id="Path_94890" data-name="Path 94890" d="M3724.321,1207.247a.472.472,0,1,1-.546-.383A.472.472,0,0,1,3724.321,1207.247Z" transform="translate(-3723.384 -1206.856)" fill="#15142b"/>
                </g>
                <g id="Group_44207" data-name="Group 44207" transform="translate(2.999 1.432)">
                  <path id="Path_94891" data-name="Path 94891" d="M3658.953,1198.08h0a.629.629,0,0,0,.575-.3c.316-.57-.33-1.718-.4-1.847a.109.109,0,0,0-.189.109c.186.321.62,1.24.4,1.632a.424.424,0,0,1-.393.19.109.109,0,0,0,0,.218Z" transform="translate(-3658.844 -1195.875)" fill="#15142b"/>
                </g>
                <g id="Group_44210" data-name="Group 44210" transform="translate(1.887 4.44)">
                  <g id="Group_44208" data-name="Group 44208" transform="translate(0.109 0.109)">
                    <path id="Path_94892" data-name="Path 94892" d="M3655.525,1315.64a.959.959,0,0,1-1.915-.059Z" transform="translate(-3653.61 -1315.581)" fill="#feb9a5"/>
                  </g>
                  <g id="Group_44209" data-name="Group 44209">
                    <path id="Path_94893" data-name="Path 94893" d="M3651.541,1311.558a.11.11,0,0,0-.106-.113l-1.914-.059a.121.121,0,0,0-.078.03.11.11,0,0,0-.035.076,1.068,1.068,0,0,0,2.133.066Zm-.229.1a.856.856,0,0,1-1.68-.052Z" transform="translate(-3649.408 -1311.386)" fill="#15142b"/>
                  </g>
                </g>
                <g id="Group_44211" data-name="Group 44211" transform="translate(3.902)">
                  <path id="Path_94894" data-name="Path 94894" d="M3598.423,1141.553a1.474,1.474,0,0,1,1.151-.425.1.1,0,0,0,.113-.106.109.109,0,0,0-.105-.113,1.693,1.693,0,0,0-1.313.488.109.109,0,0,0,.154.155Z" transform="translate(-3598.237 -1140.908)" fill="#15142b"/>
                </g>
                <g id="Group_44212" data-name="Group 44212" transform="translate(0 0.725)">
                  <path id="Path_94895" data-name="Path 94895" d="M3748.233,1169.381a1.468,1.468,0,0,1,1.151-.425.107.107,0,0,0,.113-.106.11.11,0,0,0-.106-.113,1.7,1.7,0,0,0-1.313.488.109.109,0,1,0,.154.155Z" transform="translate(-3748.047 -1168.736)" fill="#15142b"/>
                </g>
              </g>
            </g>
          </g>
          <g id="Group_44216" data-name="Group 44216" transform="translate(7.823 52.935)">
            <path id="Path_94896" data-name="Path 94896" d="M3705.7,2390.434c9.807-2.382,11.354-8.1,11.354-8.1l-11.184,3.081Z" transform="translate(-3705.705 -2382.336)" fill="#ea452f"/>
          </g>
          <g id="Group_44218" data-name="Group 44218" transform="translate(15.818 32.04)">
            <g id="Group_44217" data-name="Group 44217">
              <path id="Path_94897" data-name="Path 94897" d="M2941.69,1585.667l2.771,20.55,6.809,2.771,6.288-3.71,7.282,2.6-2.859-21.184-6.817-2.4-6.837,3.731Z" transform="translate(-2941.581 -1584.191)" fill="#fff"/>
              <path id="Path_94898" data-name="Path 94898" d="M2947.188,1605.006a.108.108,0,0,0,.055-.015l6.244-3.684,7.234,2.586a.109.109,0,0,0,.145-.118l-2.859-21.183a.108.108,0,0,0-.072-.089l-6.817-2.4a.108.108,0,0,0-.088.007l-6.795,3.708-6.59-2.348a.108.108,0,0,0-.105.018.11.11,0,0,0-.04.1l2.771,20.55a.109.109,0,0,0,.067.087l6.808,2.771A.106.106,0,0,0,2947.188,1605.006Zm6.288-3.929a.112.112,0,0,0-.056.015l-6.242,3.683-6.7-2.727-2.739-20.31,6.468,2.3a.108.108,0,0,0,.089-.007l6.8-3.708,6.708,2.36,2.826,20.939-7.113-2.543A.108.108,0,0,0,2953.476,1601.077Z" transform="translate(-2937.499 -1580.099)" fill="#a6b6f8"/>
            </g>
          </g>
          <g id="Group_44219" data-name="Group 44219" transform="translate(8.117 44.794)">
            <path id="Path_94899" data-name="Path 94899" d="M3772.15,2077.635l9.33-7.875-9.212,4.244Z" transform="translate(-3772.15 -2069.76)" fill="#ea452f"/>
          </g>
          <g id="Group_44221" data-name="Group 44221" transform="translate(6.957 47.481)">
            <g id="Group_44220" data-name="Group 44220">
              <path id="Path_94900" data-name="Path 94900" d="M3706.406,2184.119c5.671-.042,11.115-4.789,12.149-5.74l-5.03-5.467c-1.978,1.82-5.165,3.763-7.173,3.778Z" transform="translate(-3706.351 -2172.912)" fill="#feb9a5"/>
            </g>
          </g>
          <g id="Group_44226" data-name="Group 44226" transform="translate(14.101 43.925)">
            <g id="Group_44222" data-name="Group 44222">
              <path id="Path_94901" data-name="Path 94901" d="M3600.621,2040.476c1.218,1.308-2.707,4.953-2.707,4.953l-5.075-5.449s4.736-4.406,5.655-3.419c.449.482-.064,1.051-.583,1.547a1.366,1.366,0,0,1,1.417-.332c.726.387-.128,1.251-.659,1.721.391-.276.993-.594,1.3-.231.4.459-.459,1.211-.784,1.456C3599.478,2040.505,3600.215,2040.04,3600.621,2040.476Z" transform="translate(-3592.839 -2036.417)" fill="#feb9a5"/>
            </g>
            <g id="Group_44223" data-name="Group 44223" transform="translate(5.372 4.218)">
              <path id="Path_94902" data-name="Path 94902" d="M3653.617,2199.33a.087.087,0,0,0,.059-.023l.888-.806a.087.087,0,1,0-.117-.129l-.889.806a.087.087,0,0,0,.059.152Z" transform="translate(-3653.53 -2198.349)" fill="#0d243f"/>
            </g>
            <g id="Group_44224" data-name="Group 44224" transform="translate(4.756 3.019)">
              <path id="Path_94903" data-name="Path 94903" d="M3677.239,2153.3a.088.088,0,0,0,.059-.022l.889-.806a.087.087,0,1,0-.118-.129l-.888.805a.087.087,0,0,0-.006.124A.088.088,0,0,0,3677.239,2153.3Z" transform="translate(-3677.152 -2152.32)" fill="#0d243f"/>
            </g>
            <g id="Group_44225" data-name="Group 44225" transform="translate(4.017 1.712)">
              <path id="Path_94904" data-name="Path 94904" d="M3705.639,2103.12a.086.086,0,0,0,.059-.023l.888-.805a.087.087,0,1,0-.117-.129l-.888.805a.087.087,0,0,0,.059.152Z" transform="translate(-3705.552 -2102.139)" fill="#0d243f"/>
            </g>
          </g>
          <g id="Group_44227" data-name="Group 44227" transform="translate(29.293 32.04)">
            <path id="Path_94905" data-name="Path 94905" d="M3219.568,1601.309h.013a.109.109,0,0,0,.1-.121l-2.393-20.978a.113.113,0,0,0-.121-.1.109.109,0,0,0-.1.121l2.393,20.978A.11.11,0,0,0,3219.568,1601.309Z" transform="translate(-3217.065 -1580.113)" fill="#a6b6f8"/>
          </g>
          <g id="Group_44228" data-name="Group 44228" transform="translate(22.455 35.771)">
            <path id="Path_94906" data-name="Path 94906" d="M3461.549,1744.533h.016a.109.109,0,0,0,.093-.123l-2.943-20.957a.112.112,0,0,0-.124-.093.109.109,0,0,0-.093.123l2.943,20.957A.109.109,0,0,0,3461.549,1744.533Z" transform="translate(-3458.497 -1723.358)" fill="#a6b6f8"/>
          </g>
          <g id="Group_44229" data-name="Group 44229" transform="translate(58.873 71.173)">
            <path id="Path_94907" data-name="Path 94907" d="M1415.2,3102.637s-.183-1.134.685-1.278a1.757,1.757,0,0,1,1.362.265s-.084-1.386,1.193-1.459a1.818,1.818,0,0,0,3.146-1.687s-2.493-.833-1.795-2.1,3.577-1.207,3.577-1.207-3.854-2.458-2.821-3.737,4.77,1.483,4.77,1.483-2.865-5.977-.393-6.181,2.938,6.137,2.938,6.137,1.323-2.4,2.356-1.513,0,3.04,0,3.04,1.483-.553,1.919.655a3.545,3.545,0,0,1,.16,2.094s2.865.378,2.734,2.574" transform="translate(-1415.076 -3086.624)" fill="#fff"/>
            <path id="Path_94908" data-name="Path 94908" d="M1411.146,3098.652a.109.109,0,0,0,.091-.125c-.007-.042-.155-1.028.594-1.153a1.669,1.669,0,0,1,1.275.242.109.109,0,0,0,.178-.091,1.564,1.564,0,0,1,.319-1,1.85,1.85,0,0,1,2.422.252.11.11,0,0,0,.2-.087,1.775,1.775,0,0,1,1.321-2.195.109.109,0,0,0,.006-.209c-.015,0-1.489-.506-1.791-1.28a.743.743,0,0,1,.057-.662c.658-1.193,3.452-1.151,3.48-1.15a.11.11,0,0,0,.061-.2c-1.055-.672-3.584-2.6-2.8-3.576s3.6.751,4.62,1.5a.109.109,0,0,0,.163-.135c-.02-.042-2-4.207-1.2-5.6a1.1,1.1,0,0,1,1.695-.084c1.5,1.286,1.839,5.651,1.843,5.694a.109.109,0,0,0,.2.045c.465-.835,1.464-2.106,2.189-1.482.958.823-.017,2.888-.027,2.909a.109.109,0,0,0,.136.149,1.908,1.908,0,0,1,1.258-.009c.74.344.872,1.963.679,2.623a.11.11,0,0,0,.09.141c.113.015,2.762.392,2.639,2.459a.109.109,0,0,0,.1.115.106.106,0,0,0,.115-.1c.12-2.005-2.155-2.562-2.709-2.668.167-.787.028-2.371-.827-2.766a1.905,1.905,0,0,0-1.194-.064c.238-.584.773-2.184-.122-2.953-.808-.695-1.774.36-2.349,1.254-.11-1.07-.551-4.368-1.888-5.512a1.324,1.324,0,0,0-2.026.142c-.717,1.25.545,4.354,1.023,5.432-.958-.654-3.68-2.354-4.587-1.229-.887,1.1,1.391,2.9,2.553,3.7-.808.03-2.742.21-3.32,1.259a.96.96,0,0,0-.07.846,3.053,3.053,0,0,0,1.635,1.3,1.918,1.918,0,0,0-1.225,2.023,2.052,2.052,0,0,0-2.526-.025,1.647,1.647,0,0,0-.369.959,2,2,0,0,0-1.275-.177c-.772.128-.844.975-.774,1.4A.109.109,0,0,0,1411.146,3098.652Z" transform="translate(-1411 -3082.531)" fill="#a6b6f8"/>
          </g>
          <g id="Group_44230" data-name="Group 44230" transform="translate(8.205 40.949)">
            <path id="Path_94909" data-name="Path 94909" d="M4060.341,1928.008a.088.088,0,0,0,.084-.064l1.563-5.69a.088.088,0,0,0-.062-.107.087.087,0,0,0-.107.061l-1.563,5.69a.088.088,0,0,0,.084.111Z" transform="translate(-4060.254 -1922.143)" fill="#0d243f"/>
          </g>
          <g id="Group_44231" data-name="Group 44231" transform="translate(2.503 55.543)">
            <path id="Path_94910" data-name="Path 94910" d="M4263.609,2484.17a.088.088,0,0,0,.054-.018l1.97-1.537a.087.087,0,1,0-.108-.138l-1.97,1.536a.087.087,0,0,0,.053.156Z" transform="translate(-4263.522 -2482.459)" fill="#0d243f"/>
          </g>
          <g id="Group_44232" data-name="Group 44232" transform="translate(42.604 40.178)">
            <path id="Path_94911" data-name="Path 94911" d="M2770.918,1894.754l-.771-2.139a.087.087,0,1,0-.164.059l.77,2.139A.087.087,0,0,0,2770.918,1894.754Z" transform="translate(-2769.978 -1892.557)" fill="#0d243f"/>
          </g>
        </g>
        <g id="Group_44234" data-name="Group 44234" transform="translate(37.931 22.594)">
          <path id="Path_94912" data-name="Path 94912" d="M2869.5,1220.5a1.534,1.534,0,1,0-1.534-1.533A1.535,1.535,0,0,0,2869.5,1220.5Zm0-2.849a1.315,1.315,0,1,1-1.315,1.315A1.317,1.317,0,0,1,2869.5,1217.646Z" transform="translate(-2867.97 -1217.428)" fill="#a6b6f8"/>
        </g>
        <g id="Group_44237" data-name="Group 44237" transform="translate(42.177 59.455)">
          <g id="Group_44235" data-name="Group 44235" transform="translate(0 0)">
            <path id="Path_94913" data-name="Path 94913" d="M2731.731,2635.056a.109.109,0,0,0,0-.155l-2.213-2.213a.109.109,0,0,0-.155.155l2.213,2.213A.109.109,0,0,0,2731.731,2635.056Z" transform="translate(-2729.332 -2632.657)" fill="#a6b6f8"/>
          </g>
          <g id="Group_44236" data-name="Group 44236" transform="translate(0)">
            <path id="Path_94914" data-name="Path 94914" d="M2729.524,2635.056l2.213-2.213a.109.109,0,0,0-.155-.155l-2.213,2.213a.109.109,0,0,0,.155.155Z" transform="translate(-2729.337 -2632.656)" fill="#a6b6f8"/>
          </g>
        </g>
        <path id="Union_58" data-name="Union 58" d="M6.913-5761.087v-5.826H1.087A1.087,1.087,0,0,1,0-5768a1.087,1.087,0,0,1,1.087-1.087H6.913v-5.826A1.087,1.087,0,0,1,8-5776a1.087,1.087,0,0,1,1.087,1.087v5.826h5.826A1.087,1.087,0,0,1,16-5768a1.087,1.087,0,0,1-1.087,1.087H9.087v5.826A1.087,1.087,0,0,1,8-5760,1.087,1.087,0,0,1,6.913-5761.087Z" transform="translate(63.455 5784)" fill="#a6b6f8"/>
      </g>
    </g>
    <g id="Group_44243" data-name="Group 44243" transform="translate(95.861 100.979)">
      <g id="Group_44240" data-name="Group 44240" transform="translate(1.929)">
        <path id="Path_94915" data-name="Path 94915" d="M780.906,4237.886h.01a.11.11,0,0,0,.1-.119l-.922-10.8a.112.112,0,0,0-.118-.1.109.109,0,0,0-.1.118l.922,10.8A.109.109,0,0,0,780.906,4237.886Z" transform="translate(-779.876 -4226.865)" fill="#a6b6f8"/>
      </g>
      <g id="Group_44241" data-name="Group 44241" transform="translate(0 5.571)">
        <path id="Path_94916" data-name="Path 94916" d="M869.65,4446.214h.011a.108.108,0,0,0,.1-.119l-.529-5.232a.109.109,0,0,0-.217.022l.529,5.231A.109.109,0,0,0,869.65,4446.214Z" transform="translate(-869.012 -4440.764)" fill="#a6b6f8"/>
      </g>
      <g id="Group_44242" data-name="Group 44242" transform="translate(4.778 7.56)">
        <path id="Path_94917" data-name="Path 94917" d="M684.5,4520.586l.019,0a.11.11,0,0,0,.089-.127l-.575-3.242a.111.111,0,0,0-.126-.089.11.11,0,0,0-.089.127l.575,3.242A.11.11,0,0,0,684.5,4520.586Z" transform="translate(-683.819 -4517.125)" fill="#a6b6f8"/>
      </g>
    </g>
  </g>
</svg>
