<svg xmlns="http://www.w3.org/2000/svg" width="16.003" height="16" viewBox="0 0 16.003 16">
  <path id="Path_42806" data-name="Path 42806" d="M8-6.5a3.887,3.887,0,0,0-.594-2.125,3.888,3.888,0,0,0-1.625-1.437,3.065,3.065,0,0,0-.937-1.281,3.209,3.209,0,0,0-1.5-.625,2.308,2.308,0,0,0-1.125.094A3.768,3.768,0,0,0,.938-13.437,3.509,3.509,0,0,0-1-14a3.375,3.375,0,0,0-1.937.594,3.554,3.554,0,0,0-1.281,1.531,2.707,2.707,0,0,0-1.156-.094,2.953,2.953,0,0,0-1.812.938A3.079,3.079,0,0,0-8-9.156a3.894,3.894,0,0,0,.094.813,2.619,2.619,0,0,0,.25.719,5.254,5.254,0,0,1,.594,1.688,1.041,1.041,0,0,0-.625.344A1.184,1.184,0,0,0-8-4.687,6.26,6.26,0,0,0-6.875-1.594,6.213,6.213,0,0,0-4.344.5a1.544,1.544,0,0,0,.531,1.063A1.523,1.523,0,0,0-2.687,2H2.719a1.591,1.591,0,0,0,1.125-.437A1.734,1.734,0,0,0,4.375.5a6.26,6.26,0,0,0,2.5-2.094A6.26,6.26,0,0,0,8-4.687a1.311,1.311,0,0,0-.187-.687A3.355,3.355,0,0,0,8-6.5Zm-9.5-4A.481.481,0,0,1-1-11a.481.481,0,0,1,.5.5V-6h-1ZM-5.844-9.344a.456.456,0,0,1,.688,0L-1.781-6H-3.219L-5.844-8.656A.456.456,0,0,1-5.844-9.344ZM3.375-.719l-.5.188V.313Q2.875.5,2.719.5H-2.687q-.156,0-.187-.187V-.531l-.5-.187A4.529,4.529,0,0,1-5.437-2.156,5.074,5.074,0,0,1-6.469-4.5H6.469A4.871,4.871,0,0,1,5.438-2.187,4.755,4.755,0,0,1,3.375-.719ZM6.438-6H1.563A1.938,1.938,0,0,1,1.5-6.469,2.594,2.594,0,0,1,2.219-8.25,2.594,2.594,0,0,1,4-8.969a2.4,2.4,0,0,1,1.781.781A2.52,2.52,0,0,1,6.5-6.469a1.586,1.586,0,0,1-.062.438Q6.437-6,6.438-6Z" transform="translate(8.003 14)" fill="#212529"/>
</svg>
