<svg xmlns="http://www.w3.org/2000/svg" width="24" height="18" viewBox="0 0 24 18">
    <path data-name="Path 43226" d="M21-18H3a3.03 3.03 0 0 0-2.109.891A3.03 3.03 0 0 0 0-15v12A3.03 3.03 0 0 0 .891-.891 3.03 3.03 0 0 0 3 0h18a3.03 3.03 0 0 0 2.109-.891A3.03 3.03 0 0 0 24-3v-12a3.03 3.03 0 0 0-.891-2.109A3.03 3.03 0 0 0 21-18zM3-15.75h18a.722.722 0 0 1 .75.75v1.031L13.922-7.5A2.919 2.919 0 0 1 12-6.8a2.919 2.919 0 0 1-1.922-.7L2.25-13.969V-15a.722.722 0 0 1 .75-.75zm18 13.5H3A.722.722 0 0 1 2.25-3v-8.016l6.375 5.3A5.214 5.214 0 0 0 12-4.5a5.214 5.214 0 0 0 3.375-1.219l6.375-5.3V-3a.722.722 0 0 1-.75.75z" transform="translate(0 18)" style="fill:#7d5fff"/>
</svg>
