<svg xmlns="http://www.w3.org/2000/svg" width="14" height="16" viewBox="0 0 14 16">
  <path id="Path_1315" data-name="Path 1315" d="M2.469-10.812v1.375a10.835,10.835,0,0,0,4.5.938,11.136,11.136,0,0,0,4.563-.937v-1.375l.688-.687a.723.723,0,0,0,.219-.531.751.751,0,0,0-.594-.75L7.219-13.969a1.016,1.016,0,0,0-.5,0L2.094-12.781a.793.793,0,0,0-.562.75.849.849,0,0,0,.25.531ZM7-5.5a2.422,2.422,0,0,1-1.656-.656A2.516,2.516,0,0,1,4.531-7.75Q3.75-7.906,3-8.125V-8A4.035,4.035,0,0,0,4.156-5.156,3.925,3.925,0,0,0,6.969-4,3.925,3.925,0,0,0,9.781-5.156,4.035,4.035,0,0,0,10.938-8v-.125a11.57,11.57,0,0,1-1.469.375,2.516,2.516,0,0,1-.812,1.594A2.422,2.422,0,0,1,7-5.5Zm3,2.531L7.906.5,7.5-1.25,8.5-3h-3l1,1.75L6.094.5,4-2.969a4.214,4.214,0,0,0-2.844,1.25A4.072,4.072,0,0,0,0,1.156.827.827,0,0,0,.844,2H13.156A.827.827,0,0,0,14,1.156a4.012,4.012,0,0,0-1.187-2.875A4.1,4.1,0,0,0,10-2.969ZM1.594.5A2.635,2.635,0,0,1,3.25-1.344L4.344.5ZM9.656.5,10.75-1.344A2.636,2.636,0,0,1,12.406.5Z" transform="translate(0 14)" fill="#212121"/>
</svg>
