<svg xmlns="http://www.w3.org/2000/svg" width="24" height="24" viewBox="0 0 24 24">
  <path id="Path_42773" data-name="Path 42773" d="M5.25,1.25a1.444,1.444,0,0,0-1.5,1.5,1.444,1.444,0,0,0,1.5,1.5,1.444,1.444,0,0,0,1.5-1.5,1.444,1.444,0,0,0-1.5-1.5Zm13.5,0a1.444,1.444,0,0,0-1.5,1.5,1.5,1.5,0,1,0,3,0,1.444,1.444,0,0,0-1.5-1.5ZM21.7-1.891,19.781-6.672A4.068,4.068,0,0,0,16.5-9.2V-10.75a1.46,1.46,0,0,0-.422-1.078A1.46,1.46,0,0,0,15-12.25H9a1.46,1.46,0,0,0-1.078.422A1.46,1.46,0,0,0,7.5-10.75V-9.2A4.068,4.068,0,0,0,4.219-6.672L2.3-1.891A4.23,4.23,0,0,0,.656-.3,4.19,4.19,0,0,0,0,2v8.25a1.444,1.444,0,0,0,1.5,1.5A1.444,1.444,0,0,0,3,10.25V8H21v2.25a1.5,1.5,0,1,0,3,0V2a4.19,4.19,0,0,0-.656-2.3A4.23,4.23,0,0,0,21.7-1.891ZM6.281-5.828A1.863,1.863,0,0,1,8.016-7h7.969a1.863,1.863,0,0,1,1.734,1.172L19.031-2.5H4.969ZM21.75,5.75H2.25V2A2.446,2.446,0,0,1,2.906.406,2.446,2.446,0,0,1,4.5-.25H19.453a2.5,2.5,0,0,1,1.641.656A2.17,2.17,0,0,1,21.75,2Z" transform="translate(0 12.25)" fill="#fff"/>
</svg>
