<svg xmlns="http://www.w3.org/2000/svg" width="16" height="12.444" viewBox="0 0 16 12.444">
  <path id="Path_1323" data-name="Path 1323" d="M10.222-4.333h2.667A.664.664,0,0,0,13.556-5a.664.664,0,0,0-.667-.667H10.222A.664.664,0,0,0,9.556-5,.664.664,0,0,0,10.222-4.333ZM5.778-5a1.8,1.8,0,0,0,1.25-.528,1.8,1.8,0,0,0,.528-1.25,1.8,1.8,0,0,0-.528-1.25,1.8,1.8,0,0,0-1.25-.528,1.8,1.8,0,0,0-1.25.528A1.8,1.8,0,0,0,4-6.778a1.8,1.8,0,0,0,.528,1.25A1.8,1.8,0,0,0,5.778-5Zm8.444-8H1.778a1.8,1.8,0,0,0-1.25.528A1.8,1.8,0,0,0,0-11.222v8.889a1.8,1.8,0,0,0,.528,1.25,1.8,1.8,0,0,0,1.25.528H14.222a1.8,1.8,0,0,0,1.25-.528A1.8,1.8,0,0,0,16-2.333v-8.889a1.8,1.8,0,0,0-.528-1.25A1.8,1.8,0,0,0,14.222-13Zm.444,10.667a.428.428,0,0,1-.444.444H8.889A2.305,2.305,0,0,0,8.25-3.472a2.305,2.305,0,0,0-1.583-.639H4.889a2.305,2.305,0,0,0-1.583.639,2.305,2.305,0,0,0-.639,1.583H1.778a.428.428,0,0,1-.444-.444V-9.444H14.667ZM10.222-6.556h2.667a.664.664,0,0,0,.667-.667.664.664,0,0,0-.667-.667H10.222a.664.664,0,0,0-.667.667A.664.664,0,0,0,10.222-6.556Z" transform="translate(0 13)" fill="#212529"/>
</svg>
