<svg xmlns="http://www.w3.org/2000/svg" width="16" height="10.667" viewBox="0 0 16 10.667">
  <path id="Path_42843" data-name="Path 42843" d="M14.222-12H1.778a1.8,1.8,0,0,0-1.25.528A1.8,1.8,0,0,0,0-10.222v7.111a1.8,1.8,0,0,0,.528,1.25,1.8,1.8,0,0,0,1.25.528H14.222a1.8,1.8,0,0,0,1.25-.528A1.8,1.8,0,0,0,16-3.111v-7.111a1.8,1.8,0,0,0-.528-1.25A1.8,1.8,0,0,0,14.222-12Zm.444,7.556a1.8,1.8,0,0,0-1.25.528,1.8,1.8,0,0,0-.528,1.25H3.111a1.8,1.8,0,0,0-.528-1.25,1.8,1.8,0,0,0-1.25-.528V-8.889a1.8,1.8,0,0,0,1.25-.528,1.8,1.8,0,0,0,.528-1.25h9.778a1.8,1.8,0,0,0,.528,1.25,1.8,1.8,0,0,0,1.25.528ZM10.222-6.667a3.015,3.015,0,0,1-.639,1.889A2.085,2.085,0,0,1,8-4a2.085,2.085,0,0,1-1.583-.778,3.015,3.015,0,0,1-.639-1.889,3.015,3.015,0,0,1,.639-1.889A2.085,2.085,0,0,1,8-9.333a2.085,2.085,0,0,1,1.583.778A3.015,3.015,0,0,1,10.222-6.667Z" transform="translate(0 12)" fill="#212529"/>
</svg>
