<svg xmlns="http://www.w3.org/2000/svg" width="11" height="16" viewBox="0 0 11 16">
  <path id="Path_1321" data-name="Path 1321" d="M9.5-14h-7a2.02,2.02,0,0,0-1.406.594A2.02,2.02,0,0,0,.5-12V0a2.02,2.02,0,0,0,.594,1.406A2.02,2.02,0,0,0,2.5,2h7a2.02,2.02,0,0,0,1.406-.594A2.02,2.02,0,0,0,11.5,0V-12a2.02,2.02,0,0,0-.594-1.406A2.02,2.02,0,0,0,9.5-14ZM10,0a.481.481,0,0,1-.5.5h-7A.481.481,0,0,1,2,0V-12a.481.481,0,0,1,.5-.5h7a.481.481,0,0,1,.5.5ZM6-1.75A.747.747,0,0,0,5.25-1,.747.747,0,0,0,6-.25.747.747,0,0,0,6.75-1,.747.747,0,0,0,6-1.75Z" transform="translate(-0.5 14)" fill="#212121"/>
</svg>
