<svg xmlns="http://www.w3.org/2000/svg" width="32" height="32" viewBox="0 0 32 32">
  <g id="Group_43780" data-name="Group 43780" transform="translate(-24 -608)">
    <rect id="Rectangle_10243" data-name="Rectangle 10243" width="32" height="32" rx="8" transform="translate(24 608)" fill="#00aca1"/>
    <path id="Path_94512" data-name="Path 94512" d="M-9-12a2.02,2.02,0,0,1,.594-1.406A2.02,2.02,0,0,1-7-14h5v4a.973.973,0,0,0,.281.719A.973.973,0,0,0-1-9H3v1.469L.094-6.375A1.764,1.764,0,0,0-1-4.75,9.383,9.383,0,0,0-.406-1.531,7.582,7.582,0,0,0,1.938,1.75,1.752,1.752,0,0,1,1,2H-7a2.02,2.02,0,0,1-1.406-.594A2.02,2.02,0,0,1-9,0ZM3-10H-1v-4ZM4.219-6.937a.664.664,0,0,1,.563,0l3.75,1.5A.74.74,0,0,1,9-4.75a7.5,7.5,0,0,1-.344,2.313A7.1,7.1,0,0,1,7.406.031,6.5,6.5,0,0,1,4.781,1.938a.664.664,0,0,1-.562,0A6.5,6.5,0,0,1,1.594.031,7.1,7.1,0,0,1,.344-2.437,7.5,7.5,0,0,1,0-4.75a.74.74,0,0,1,.469-.687ZM7.469-4.25,4.5-5.437V.438A5.251,5.251,0,0,0,6.75-1.719,6.215,6.215,0,0,0,7.469-4.25Z" transform="translate(40 630)" fill="#fff"/>
  </g>
</svg>
