<svg xmlns="http://www.w3.org/2000/svg" width="19.544" height="20" viewBox="0 0 19.544 20">
    <path data-name="Union 73" d="M9.258 20a2.575 2.575 0 0 1-1.618-.308 2.561 2.561 0 0 1-.8-1.424l-.316-.948a1.132 1.132 0 0 0-.448-.534l-.285-.164a1.152 1.152 0 0 0-.759-.083l-1.1.312a2.613 2.613 0 0 1-1.751.139c-.521-.208-.774-.651-1.162-1.322l-.458-.8A2.568 2.568 0 0 1 .013 13.3a2.6 2.6 0 0 1 .861-1.408l.951-1.075a1.536 1.536 0 0 0-.05-1.7L.867 8.11A2.551 2.551 0 0 1 .008 6.7a2.588 2.588 0 0 1 .546-1.57l.51-.883c.363-.623.6-1.034 1.113-1.237a2.528 2.528 0 0 1 1.695.126l1.187.331a1.144 1.144 0 0 0 .762-.1L6.1 3.2a1.161 1.161 0 0 0 .429-.546l.3-.9a2.618 2.618 0 0 1 .8-1.438A2.554 2.554 0 0 1 9.254 0h1.033a2.568 2.568 0 0 1 1.618.309 2.546 2.546 0 0 1 .8 1.424l.316.947a1.16 1.16 0 0 0 .449.534l.285.163a1.15 1.15 0 0 0 .758.082l1.1-.311a2.6 2.6 0 0 1 1.751-.141c.519.208.774.651 1.16 1.321l.46.8a2.584 2.584 0 0 1 .547 1.581 2.587 2.587 0 0 1-.861 1.408l-.954 1.071a1.542 1.542 0 0 0 .051 1.7l.908 1.006a2.548 2.548 0 0 1 .859 1.415 2.6 2.6 0 0 1-.547 1.57l-.507.878c-.365.625-.605 1.037-1.116 1.24a2.521 2.521 0 0 1-1.695-.124l-1.19-.337a1.156 1.156 0 0 0-.754.107l-.285.165a1.143 1.143 0 0 0-.431.545l-.3.9a2.61 2.61 0 0 1-.8 1.439 2.558 2.558 0 0 1-1.618.308zm-2.8-4.6.342.2a2.549 2.549 0 0 1 1.039 1.25l.32.958a3.623 3.623 0 0 0 .3.752 3.421 3.421 0 0 0 .8.044h1.033a3.669 3.669 0 0 0 .8-.042 3.669 3.669 0 0 0 .3-.755l.311-.929a2.555 2.555 0 0 1 1.018-1.266l.342-.2a2.566 2.566 0 0 1 1.768-.234l1.169.33a3.858 3.858 0 0 0 .851.19 3.326 3.326 0 0 0 .429-.649l.5-.873a3.618 3.618 0 0 0 .368-.726 3.548 3.548 0 0 0-.508-.628l-.964-1.076a2.968 2.968 0 0 1-.051-3.422l1.007-1.138a3.553 3.553 0 0 0 .513-.639 3.773 3.773 0 0 0-.369-.724l-.46-.8a3.626 3.626 0 0 0-.473-.724 3.827 3.827 0 0 0-.851.188l-1.137.32a2.584 2.584 0 0 1-1.77-.207l-.343-.2a2.6 2.6 0 0 1-1.035-1.25l-.321-.958a3.642 3.642 0 0 0-.3-.751 3.467 3.467 0 0 0-.8-.045H9.254a3.58 3.58 0 0 0-.8.043 3.524 3.524 0 0 0-.3.753l-.311.93a2.59 2.59 0 0 1-1.014 1.267l-.343.2a2.582 2.582 0 0 1-1.773.228L3.55 4.49a3.577 3.577 0 0 0-.856-.19 3.329 3.329 0 0 0-.424.644l-.507.877a3.582 3.582 0 0 0-.366.726 3.5 3.5 0 0 0 .507.628l.963 1.077a2.966 2.966 0 0 1 .051 3.422l-1 1.142a3.483 3.483 0 0 0-.515.64 3.9 3.9 0 0 0 .368.719l.46.8a3.713 3.713 0 0 0 .469.725 3.466 3.466 0 0 0 .852-.188l1.137-.321a2.738 2.738 0 0 1 .611-.069 2.525 2.525 0 0 1 1.161.278zm5.906-1.334a3.062 3.062 0 0 0-5.3 0 .7.7 0 0 1-.605.347.689.689 0 0 1-.347-.093.7.7 0 0 1-.256-.954 4.458 4.458 0 0 1 7.72 0 .7.7 0 1 1-1.208.7zM7.157 7.67a2.558 2.558 0 1 1 2.558 2.558A2.56 2.56 0 0 1 7.157 7.67zm1.395 0a1.163 1.163 0 1 0 1.163-1.163A1.165 1.165 0 0 0 8.552 7.67z" style="fill:#616161"/>
</svg>
