<svg xmlns="http://www.w3.org/2000/svg" width="24" height="24" viewBox="0 0 24 24">
  <path id="Path_42802" data-name="Path 42802" d="M21.422-14.531a1.146,1.146,0,0,0-.562,1.5A9.276,9.276,0,0,1,21.75-9a9.682,9.682,0,0,1-2.859,6.891A9.682,9.682,0,0,1,12,.75,9.682,9.682,0,0,1,5.109-2.109,9.682,9.682,0,0,1,2.25-9a9.682,9.682,0,0,1,2.859-6.891A9.682,9.682,0,0,1,12-18.75a9.478,9.478,0,0,1,4.031.891,1.146,1.146,0,0,0,1.5-.562,1.146,1.146,0,0,0-.562-1.5A11.75,11.75,0,0,0,12-21a12.082,12.082,0,0,0-6.047,1.641,11.888,11.888,0,0,0-4.312,4.313A12.082,12.082,0,0,0,0-9,12.082,12.082,0,0,0,1.641-2.953,11.888,11.888,0,0,0,5.953,1.359,12.082,12.082,0,0,0,12,3a12.082,12.082,0,0,0,6.047-1.641,11.888,11.888,0,0,0,4.313-4.312A12.082,12.082,0,0,0,24-9a11.749,11.749,0,0,0-1.078-4.969A1.1,1.1,0,0,0,21.422-14.531ZM10.266-9.562A.717.717,0,0,0,9.75-9.8a.717.717,0,0,0-.516.234q0,.047-.469.281A3.034,3.034,0,0,1,7.5-9a3.791,3.791,0,0,1-1.266-.234,3.973,3.973,0,0,1-.469-.281A.717.717,0,0,0,5.25-9.75a.717.717,0,0,0-.516.234.684.684,0,0,0,0,1.031q.047.141.75.516A4.255,4.255,0,0,0,7.5-7.5a4.255,4.255,0,0,0,2.016-.469q.7-.375.75-.516A.737.737,0,0,0,10.266-9.562Zm7.969.047q0-.047-.047,0a2.021,2.021,0,0,1-.562.328A2.81,2.81,0,0,1,16.5-9a3.791,3.791,0,0,1-1.266-.234,3.973,3.973,0,0,1-.469-.281.717.717,0,0,0-.516-.234.717.717,0,0,0-.516.234.684.684,0,0,0,0,1.031q.047.141.75.516A4.255,4.255,0,0,0,16.5-7.5a4.255,4.255,0,0,0,2.016-.469q.7-.375.75-.516a.684.684,0,0,0,0-1.031.717.717,0,0,0-.516-.234A.624.624,0,0,0,18.234-9.516ZM12-1.125a1.7,1.7,0,0,0,1.313-.562A1.7,1.7,0,0,0,13.875-3a1.7,1.7,0,0,0-.562-1.312A1.7,1.7,0,0,0,12-4.875a1.7,1.7,0,0,0-1.312.563A1.7,1.7,0,0,0,10.125-3a1.7,1.7,0,0,0,.563,1.313A1.7,1.7,0,0,0,12-1.125ZM14.25-15.75A.722.722,0,0,0,15-15h1.172l-1.687,1.734a.747.747,0,0,0-.187.8A.751.751,0,0,0,15-12h3a.722.722,0,0,0,.75-.75A.722.722,0,0,0,18-13.5H16.828l1.688-1.734a.747.747,0,0,0,.188-.8A.751.751,0,0,0,18-16.5H15A.722.722,0,0,0,14.25-15.75Zm6-3.75h1.172l-1.687,1.734a.747.747,0,0,0-.187.8.751.751,0,0,0,.7.469h3a.722.722,0,0,0,.75-.75.722.722,0,0,0-.75-.75H22.078l1.688-1.734a.747.747,0,0,0,.188-.8.751.751,0,0,0-.7-.469h-3a.722.722,0,0,0-.75.75A.722.722,0,0,0,20.25-19.5Z" transform="translate(0 21)" fill="#fff"/>
</svg>
