<svg xmlns="http://www.w3.org/2000/svg" width="16" height="13.995" viewBox="0 0 16 13.995">
  <path id="Path_42805" data-name="Path 42805" d="M2.965-8.5a.481.481,0,0,0,.5-.5.481.481,0,0,0-.5-.5.481.481,0,0,0-.5.5A.506.506,0,0,0,2.965-8.5Zm-3-1a.481.481,0,0,0,.5-.5A.468.468,0,0,0,0-10.5a.549.549,0,0,0-.531.5A.506.506,0,0,0-.034-9.5ZM7.995-5A2.5,2.5,0,0,0,7.12-6.877a.028.028,0,0,1,.031-.031V-6.94a2.211,2.211,0,0,0,.031-2.343A7.5,7.5,0,0,0,4.215-12,9.665,9.665,0,0,0-.034-13,9.4,9.4,0,0,0-4.22-12,7.5,7.5,0,0,0-7.188-9.283,2.211,2.211,0,0,0-7.157-6.94v.031a.028.028,0,0,1,.031.031A2.489,2.489,0,0,0-8-5.19,2.5,2.5,0,0,0-7.406-3.41a1.887,1.887,0,0,0,.469.437.09.09,0,0,0-.031.062A.692.692,0,0,0-7-2.691v1.062A2.545,2.545,0,0,0-6.219.214,2.545,2.545,0,0,0-4.376,1H4.371A2.654,2.654,0,0,0,6.245.214a2.6,2.6,0,0,0,.75-1.843V-2.691a.59.59,0,0,0-.031-.187.127.127,0,0,0-.031-.094A2.461,2.461,0,0,0,7.995-5Zm-13.9-3.5A6.215,6.215,0,0,1-3.47-10.688,7.942,7.942,0,0,1,0-11.5a7.942,7.942,0,0,1,3.468.812A6.215,6.215,0,0,1,5.9-8.5a.712.712,0,0,1-.031.781A.405.405,0,0,1,5.5-7.5h-11a.405.405,0,0,1-.375-.219A.712.712,0,0,1-5.907-8.5ZM5.5-1.629a1.168,1.168,0,0,1-.312.812A1.168,1.168,0,0,1,4.371-.5H-4.376a1.1,1.1,0,0,1-.812-.312A1.168,1.168,0,0,1-5.5-1.629V-2.41h11ZM5.5-4H-5.532a1.043,1.043,0,0,1-.719-.281A.973.973,0,0,1-6.532-5a.973.973,0,0,1,.281-.719A1.043,1.043,0,0,1-5.532-6H5.5a.973.973,0,0,1,.719.281A.973.973,0,0,1,6.5-5a.973.973,0,0,1-.281.719A.973.973,0,0,1,5.5-4ZM-3.033-8.5a.481.481,0,0,0,.5-.5.481.481,0,0,0-.5-.5.481.481,0,0,0-.5.5A.506.506,0,0,0-3.033-8.5Z" transform="translate(8.005 13)" fill="#212529"/>
</svg>
