<svg xmlns="http://www.w3.org/2000/svg" width="241.158" height="229.289" viewBox="0 0 241.158 229.289">
    <g data-name="Group 40180" transform="translate(.602 27.077)">
        <g data-name="Group 40179">
            <path data-name="Path 88685" d="M159.662 118.58s-32.429 1.428-49.609 35.337-34.917 23.325-45.393 53.913 10.649 65.37 24.809 69.14 175.9 0 175.9 0 21.37-14.611 23.046-52.56-30.169-50.624-43.368-56.019-33.541-50.648-85.385-49.811z" transform="translate(-48.802 -106.742)" style="fill:#f3f5f4"/>
            <path data-name="Path 88686" d="M203.674 249.929c37.357-25.135 44.6-38.041 63.04-40.441 44.91-5.845 12 110.245-90.837 135.052-48.863 11.786-109.39-20.361-118.046-45.34-8.368-24.145 14.162-33.2 47.431-20.252s79.378-16.212 98.412-29.019z" transform="translate(-46.346 -145.353)" style="stroke:#bbbfbd;fill:none;stroke-miterlimit:10"/>
            <circle data-name="Ellipse 3291" cx="5.688" cy="5.688" r="5.688" transform="rotate(-47.55 180.982 -176.31)" style="fill:#d9d9d9"/>
            <circle data-name="Ellipse 3292" cx="5.688" cy="5.688" r="5.688" transform="rotate(-45 319.863 -131.453)" style="stroke:#bbbfbd;fill:none;stroke-miterlimit:10"/>
            <circle data-name="Ellipse 3293" cx="5.688" cy="5.688" r="5.688" transform="translate(114.912 52.602)" style="stroke:#bbbfbd;fill:none;stroke-miterlimit:10"/>
            <path data-name="Path 88687" d="m216.82 239.036-5.77 8.031h10.965z" transform="translate(-112.315 -158.022)" style="stroke-linecap:round;stroke-linejoin:round;stroke:#bbbfbd;fill:none;stroke-miterlimit:10"/>
            <path data-name="Path 88688" d="m171.2 416.677-3.627 6.983h10.964z" transform="translate(-93.807 -233.641)" style="fill:#d9d9d9"/>
            <g data-name="Group 40177" transform="translate(0 80.8)">
                <circle data-name="Ellipse 3294" cx="10.851" cy="10.851" r="10.851" transform="rotate(-76.714 13.866 10.973)" style="stroke-linecap:round;stroke-linejoin:round;stroke:#bbbfbd;fill:none;stroke-miterlimit:10"/>
                <text data-name="?" transform="translate(8.859 19)" style="font-size:18px;font-family:SegoeUI,Segoe UI;fill:#2785ff"><tspan x="0" y="0">?</tspan></text>
            </g>
            <g data-name="Group 40178" transform="translate(109.453)">
                <circle data-name="Ellipse 3295" cx="10.851" cy="10.851" r="10.851" transform="rotate(-45 18.524 7.673)" style="fill:#5ea4ff"/>
                <text data-name="?" transform="translate(11.147 20.474)" style="fill:#fff;font-size:18px;font-family:SegoeUI,Segoe UI"><tspan x="0" y="0">?</tspan></text>
            </g>
        </g>
        <circle data-name="Ellipse 3296" cx="5.465" cy="5.465" r="5.465" transform="rotate(-76.774 82.534 29.734)" style="fill:#d9d9d9"/>
    </g>
    <g data-name="Group 40186">
        <g data-name="Group 40181">
            <path data-name="Line 2" transform="translate(187.285 45.363)" style="fill:#d9d9d9" d="M0 0h46.782"/>
            <path data-name="Path 88689" d="M408.1 100.651h-48.9a5.054 5.054 0 0 0-5.055 5.055v29.434a5.054 5.054 0 0 0 5.055 5.055h9.955l-1.974 5.1a1.584 1.584 0 0 0 2.415 1.848l9.453-6.949H408.1a5.054 5.054 0 0 0 5.055-5.055v-29.434a5.055 5.055 0 0 0-5.055-5.054z" transform="translate(-172.626 -72.037)" style="fill:#5ea4ff"/>
            <path data-name="Line 3" transform="translate(187.285 36.865)" style="stroke:#fff;stroke-linecap:round;stroke-linejoin:round;fill:none;stroke-miterlimit:10" d="M0 0h46.782"/>
            <path data-name="Line 4" transform="translate(187.285 41.114)" style="stroke:#fff;stroke-linecap:round;stroke-linejoin:round;fill:none;stroke-miterlimit:10" d="M0 0h46.782"/>
            <path data-name="Line 5" transform="translate(187.285 45.363)" style="stroke:#fff;stroke-linecap:round;stroke-linejoin:round;fill:none;stroke-miterlimit:10" d="M0 0h46.782"/>
            <path data-name="Line 6" transform="translate(187.285 49.613)" style="stroke:#fff;stroke-linecap:round;stroke-linejoin:round;fill:none;stroke-miterlimit:10" d="M0 0h46.782"/>
            <path data-name="Line 7" transform="translate(187.285 53.862)" style="stroke:#fff;stroke-linecap:round;stroke-linejoin:round;fill:none;stroke-miterlimit:10" d="M0 0h46.782"/>
            <path data-name="Line 8" transform="translate(187.285 58.112)" style="stroke:#fff;stroke-linecap:round;stroke-linejoin:round;fill:none;stroke-miterlimit:10" d="M0 0h46.782"/>
        </g>
        <g data-name="Group 40185" transform="translate(18.34 51.66)">
            <path data-name="Path 88690" d="M164.761 254.537a45.247 45.247 0 0 0-1.145-6.172 31.638 31.638 0 0 0-3.384-5.773 4.271 4.271 0 0 0 .5 4.28 41.142 41.142 0 0 0 .05 4.18 77 77 0 0 0-6.169-4.867l-2.342-1.867c-3.434-2.737-5.723-1.891-5.425-1.692.206.137 4.133 3.313 6.564 5.281l-.318.455-3.658-2.918c-3.434-2.737-5.724-1.891-5.425-1.692.25.167 6 4.823 7.873 6.342l-.553.793-3.786-3.02c-3.434-2.737-5.723-1.891-5.425-1.692.256.171 6.278 5.05 8 6.446l-.586.84a45.824 45.824 0 0 0-4.129-3.354c-2.14-1.493-3.683-.8-3.683-.8l.945.846c.945.846 5.872 4.728 5.872 4.728s7.522 6.719 9.41 7.366l1.841 1.756 6.773-7.331z" transform="translate(-100.54 -184.014)" style="fill:#ff996a"/>
            <path data-name="Path 88691" d="M230.876 305.555c-4.039 5.824-9.688 9.421-17.2 7.892-20.112-4.088-43.86-43.128-43.86-43.128l1.2-1.293 8.863-9.589 30.848 28.032 9.633-13.945 9.41-13.618 4.65-6.729s2.723 4.306 4.437 17.995c1.067 8.578-1.192 24.614-7.981 34.383z" transform="translate(-112.502 -188.624)" style="fill:#d3aa7d"/>
            <path data-name="Path 88692" d="M230.876 310.543c-4.039 5.824-9.688 9.421-17.2 7.892-20.112-4.088-43.86-43.128-43.86-43.128l1.2-1.293.737-.409s28.3 38.931 40.225 33.14c7.374-3.58 8.558-17.853 8.383-28.233l9.41-13.618z" transform="translate(-112.502 -193.611)" style="fill:#c1966b"/>
            <path data-name="Path 88693" d="m401.039 337.764-1.833 32.269H392.1l2.793-32.269z" transform="translate(-207.124 -224.631)" style="fill:#2785ff"/>
            <path data-name="Path 88694" d="m325.3 337.764-1.833 32.269h-7.106l2.793-32.269z" transform="translate(-174.885 -224.631)" style="fill:#649176"/>
            <path data-name="Path 88695" d="M359.691 309.127h-56.3a10.133 10.133 0 0 1-10.133-10.133V267.5a10.133 10.133 0 0 1 10.133-10.133h56.3a10.133 10.133 0 0 1 10.132 10.133v31.493a10.133 10.133 0 0 1-10.132 10.134z" transform="translate(-165.048 -190.408)" style="fill:#2785ff"/>
            <path data-name="Path 88696" d="M351.423 309.127h-56.3a10.133 10.133 0 0 1-10.133-10.133V267.5a10.133 10.133 0 0 1 10.133-10.133h56.3a10.133 10.133 0 0 1 10.132 10.133v31.493a10.133 10.133 0 0 1-10.132 10.134z" transform="translate(-161.528 -190.408)" style="fill:#5ea4ff"/>
            <path data-name="Path 88697" d="M300.337 231.959s11.1-1.783 26.042 13.671l3.446 79.3h-62.433s-6.817-53.5 1.129-72.524 22.219-21.297 31.816-20.447z" transform="translate(-152.879 -179.529)" style="fill:#ffd294"/>
            <path data-name="Path 88698" d="m284.294 154.4 2.741-3.753 23.37 7.825-.2 8.778h1.543a5.676 5.676 0 0 1 5.675 5.675 5.675 5.675 0 0 1-5.675 5.675h-1.806l-.275 11.914v10.47l-16.919 2.327-.415-7-.219-3.679-2.455-1.172a20.2 20.2 0 0 1-11.5-18.235 31.912 31.912 0 0 1 6.135-18.825z" transform="translate(-158.618 -144.98)" style="fill:#ff996a"/>
            <path data-name="Path 88699" d="m302.457 214.238.219 3.679a32.821 32.821 0 0 0 1.949-.293c10.45-1.905 14.541-11.35 14.116-16.216.001-.001-3.522 11.702-16.284 12.83z" transform="translate(-168.964 -166.587)" style="fill:#d37a57"/>
            <path data-name="Path 88700" d="M336.218 186.2a2.542 2.542 0 0 0-.985 1.317 1.486 1.486 0 0 1 .952 1.269 1.519 1.519 0 0 1-.952 1.4 1.58 1.58 0 0 0 2.115.608 2.254 2.254 0 0 0-.211-3.728s2.089-.238 2.855.529a1.518 1.518 0 0 0-.7-1.449 2.529 2.529 0 0 0-3.074.054z" transform="translate(-182.916 -159.881)" style="fill:#d37a57"/>
            <path data-name="Path 88701" d="M282.508 150.2s3.164 5.447 7.254 7.209 8.46-.8 12.549 1.537 1.481 6.726 2.4 8.834 1.933 2.389 1.933 2.389.55-5.992 1.776-7.12c0 0 3.672-.031 4.815 1.039a27.352 27.352 0 0 0 2.4-7.384c.353-3.243-3.243-4.3-3.243-4.3s-.846-7.755-10.364-10.646-16.779 1.692-20.586 0-7.262.847-7.473 4.689a5.484 5.484 0 0 0 2.4 5.252 3.685 3.685 0 0 0-1.057 3.774 4.317 4.317 0 0 0 2.918 2.817 64.215 64.215 0 0 1 4.278-8.09z" transform="translate(-156.833 -140.778)" style="fill:#3f2d1f"/>
            <path data-name="Path 88702" d="m292.146 205.365 9.69-.476s-2.243 3.49-5.436 3.457c-2.94-.031-4.254-2.981-4.254-2.981z" transform="translate(-164.575 -168.069)" style="fill:#fff"/>
            <g data-name="Group 40182">
                <path data-name="Path 88703" d="M307.618 176.727a.543.543 0 0 1-.346-.125 3.377 3.377 0 0 0-4.077-.238.546.546 0 1 1-.644-.882 4.437 4.437 0 0 1 5.415.277.546.546 0 0 1-.347.967z" transform="translate(-168.909 -155.213)" style="fill:#3f2d1f"/>
            </g>
            <g data-name="Group 40183">
                <path data-name="Path 88704" d="M286.635 176.727a.542.542 0 0 1-.346-.125 3.377 3.377 0 0 0-4.077-.238.546.546 0 1 1-.644-.882 4.437 4.437 0 0 1 5.415.277.546.546 0 0 1-.347.967z" transform="translate(-159.977 -155.213)" style="fill:#3f2d1f"/>
            </g>
            <path data-name="Path 88705" d="m321.878 230.554-3.067-3.989-12.181 4.292-1.972 3.422-1.334-3.074-1.85-2.02-1.92 3.7s.058 3.712 4.757 4.7 14.964-2.841 17.567-7.031z" transform="translate(-167.728 -177.296)" style="fill:#9c897a"/>
            <path data-name="Path 88706" d="M337.238 179.923a3.714 3.714 0 0 0-3.691.93 3.134 3.134 0 0 0-1.189 3.277s.83-1.958 2.61-1.745 3.074 5.022.7 5.921-5.414-.471-5.307-4.176 1.465-5.8 3.7-6.119a2.811 2.811 0 0 1 3.177 1.912z" transform="translate(-180.84 -156.612)" style="fill:#5ea4ff"/>
            <g data-name="Group 40184">
                <path data-name="Path 88707" d="M312.7 205.025a.489.489 0 0 1-.091-.969c9.213-1.772 12.333-10.447 12.364-10.535a.489.489 0 0 1 .923.32c-.033.093-3.325 9.294-13.1 11.174a.455.455 0 0 1-.096.01z" transform="translate(-173.116 -163.091)" style="fill:#5ea4ff"/>
            </g>
            <path data-name="Path 88708" d="M309.482 211.708a2.062 2.062 0 1 0 2.062-2.062 2.061 2.061 0 0 0-2.062 2.062z" transform="translate(-171.955 -170.094)" style="fill:#2785ff"/>
            <path data-name="Path 88709" d="M337.933 187.023a9.229 9.229 0 0 0 .24 3.5c.5 1.218 1.284.588 1.436-.892s-1.328-3.559-1.676-2.608z" transform="translate(-184.037 -160.361)" style="fill:#2785ff"/>
            <path data-name="Path 88710" d="M303.852 184.739s0 2.126 2.786 2.478a2.967 2.967 0 0 0 3.289-2.478 6.129 6.129 0 0 0-3.623-1.525 2.3 2.3 0 0 0-2.452 1.525z" transform="translate(-169.558 -158.842)" style="fill:#fff"/>
            <path data-name="Path 88711" d="M281.719 184.739s0 2.126 2.726 2.478 3.087-2.476 3.087-2.476a5.376 5.376 0 0 0-3.414-1.527 2.257 2.257 0 0 0-2.399 1.525z" transform="translate(-160.136 -158.842)" style="fill:#fff"/>
            <path data-name="Path 88712" d="M287.532 184.429a6.672 6.672 0 0 0-3.019-1.889 2.137 2.137 0 0 0-2.794 1.889 2 2 0 0 1 1.87-1.314c1.561-.144 3.943 1.314 3.943 1.314z" transform="translate(-160.136 -158.529)" style="fill:#3f2d1f"/>
            <path data-name="Path 88713" d="M309.928 184.36a6.968 6.968 0 0 0-3.155-1.975 2.233 2.233 0 0 0-2.92 1.975 2.092 2.092 0 0 1 1.954-1.374c1.631-.15 4.121 1.374 4.121 1.374z" transform="translate(-169.558 -158.463)" style="fill:#3f2d1f"/>
            <path data-name="Path 88714" d="m293.739 185.976-1.283 7.746a5.9 5.9 0 0 1-2.436-.5s3.352-6.376 3.719-7.246z" transform="translate(-163.67 -160.018)" style="fill:#d37a57"/>
            <path data-name="Path 88715" d="M230.011 387.64s-.208-6.185 6.757-8.123 15.451 3.728 16.813 8.123z" transform="translate(-138.125 -242.238)" style="fill:#005fdb"/>
            <ellipse data-name="Ellipse 3297" cx="1.745" cy="2.208" rx="1.745" ry="2.208" transform="translate(135.22 24.233)" style="fill:#3f2d1f"/>
            <path data-name="Path 88716" d="M287.71 185.352a1.747 1.747 0 1 1-1.7-2.139 1.959 1.959 0 0 1 1.7 2.139z" transform="translate(-161.237 -158.842)" style="fill:#3f2d1f"/>
            <path data-name="Path 88717" d="M318.164 195.142c0 .963-1.14 1.744-2.547 1.744s-2.547-.78-2.547-1.744 1.14-1.743 2.547-1.743 2.547.78 2.547 1.743z" transform="translate(-173.482 -163.178)" style="fill:#d37a57"/>
            <path data-name="Path 88718" d="M281.958 193.687c0 .963-1.14 1.743-2.547 1.743s-2.547-.78-2.547-1.743 1.14-1.744 2.547-1.744 2.547.78 2.547 1.744z" transform="translate(-158.07 -162.558)" style="fill:#d37a57"/>
            <path data-name="Path 88719" d="M347.488 314.337a24.674 24.674 0 0 1-8.809 12.155 27.423 27.423 0 0 1-8.351 4.175c-11.985 3.635-56.374 3.356-56.374 3.356l1.67-13.41 49.7-11.172s-6.43-20.4-6.146-36.874c.257-15.337 4.83-21.657 9.982-18.671a8.512 8.512 0 0 1 1.162.829s7.849 11.7 15.948 35.716c3.319 9.825 3.259 17.729 1.218 23.896z" transform="translate(-156.831 -188.624)" style="fill:#e5bc89"/>
            <path data-name="Path 88720" d="m252.957 372.226-10.545-1.926a7.592 7.592 0 0 0-3.876.507c-1.938.838-4.138 4.924-4.138 4.924a4.859 4.859 0 0 0 2.985-1.06 3.984 3.984 0 0 0 1.362-2.03l3.87.3.069.9a49.166 49.166 0 0 0-6.767 1.891c-2.2.943-3.352 3.823-3.352 3.823a7.845 7.845 0 0 0 4.347-2.2l5.99-.679.043.559a17.031 17.031 0 0 0-5.509 1.273 8.26 8.26 0 0 0-4.033 3.195 9.742 9.742 0 0 0 5.264-1.676l1.463-.121a10.614 10.614 0 0 0-2.694 3.159 5.191 5.191 0 0 0 3.824-1.817l4.121.308c2.14.306 5.377.606 7.227-.011l3.941.606 1.237-9.928h-4.829z" transform="translate(-139.212 -238.455)" style="fill:#ff996a"/>
            <path data-name="Path 88721" d="M271.551 400.44H73.265a3.245 3.245 0 0 1-3.245-3.245 3.245 3.245 0 0 1 3.245-3.245h198.286a3.245 3.245 0 0 1 3.245 3.245 3.245 3.245 0 0 1-3.245 3.245z" transform="translate(-70.02 -248.549)" style="fill:#2785ff"/>
            <path data-name="Path 88722" d="M195.541 400.44H71.967c-1.075 0-1.947-1.453-1.947-3.245s.872-3.245 1.947-3.245h123.574c1.075 0 1.947 1.453 1.947 3.245s-.872 3.245-1.947 3.245z" transform="translate(-70.02 -248.549)" style="fill:#5ea4ff"/>
            <path data-name="Path 88723" d="M162.748 336.771H94.461a4.908 4.908 0 0 1-4.792-3.851l-8.827-40.087A3.151 3.151 0 0 1 83.92 289h69.057a4.348 4.348 0 0 1 4.247 3.413l8.854 40.212a3.409 3.409 0 0 1-3.33 4.146z" transform="translate(-74.595 -203.875)" style="fill:#5ea4ff"/>
            <path data-name="Path 88724" d="M114.477 355.432c-.57 2.873-3.923 4.628-7.488 3.92s-5.993-3.61-5.423-6.483 3.923-4.627 7.488-3.92 5.993 3.61 5.423 6.483z" transform="translate(-83.413 -229.326)" style="fill:#2785ff"/>
            <path data-name="Path 88725" d="m216.646 332.629-8.854-40.213a4.348 4.348 0 0 0-4.246-3.416h-3.981a4.348 4.348 0 0 1 4.246 3.413l8.854 40.213a3.409 3.409 0 0 1-3.329 4.142h3.981a3.409 3.409 0 0 0 3.329-4.139z" transform="translate(-125.165 -203.875)" style="fill:#005fdb"/>
            <path data-name="Path 88726" d="M163.077 372.254a1.606 1.606 0 0 1-1.608 1.608h-56.687a3.294 3.294 0 0 1-2.742-5.128l14.03-21.021a2.151 2.151 0 0 1 1.779-.948h24.53a1.141 1.141 0 0 1 .987 1.716l-11.845 20.463a1.132 1.132 0 0 0 .977 1.7h28.969a1.612 1.612 0 0 1 1.609 1.608z" transform="translate(-83.413 -228.463)" style="fill:#005fdb"/>
            <path data-name="Path 88727" d="M153.106 329.016h-34.778a.734.734 0 0 1-.733-.733.734.734 0 0 1 .733-.733h34.778a.734.734 0 0 1 .733.733.733.733 0 0 1-.733.733z" transform="translate(-90.272 -220.283)" style="fill:#2785ff"/>
            <path data-name="Path 88728" d="M156.025 336.677h-34.779a.734.734 0 0 1-.733-.733.734.734 0 0 1 .733-.733h34.778a.734.734 0 0 1 .733.733.733.733 0 0 1-.732.733z" transform="translate(-91.514 -223.544)" style="fill:#2785ff"/>
            <path data-name="Path 88729" d="M81.563 291.378h73.646a4.889 4.889 0 0 1 1.706.308A4.348 4.348 0 0 0 152.9 289H83.842a3.15 3.15 0 0 0-3.074 2.463 3.6 3.6 0 0 1 .795-.085z" transform="translate(-74.595 -203.875)" style="fill:#8abdff"/>
            <path data-name="Path 88730" d="M204.257 355.432c-.57 2.873-3.923 4.628-7.488 3.92s-5.993-3.61-5.423-6.483 3.923-4.627 7.488-3.92 5.993 3.61 5.423 6.483z" transform="translate(-121.631 -229.326)" style="fill:#2785ff"/>
            <path data-name="Path 88731" d="M181.812 372.372a1.667 1.667 0 0 1-1.69 1.492h-32.261a2.359 2.359 0 0 1-2.359-2.358 2.359 2.359 0 0 1 .364-1.259l14.821-23.479h.43a1.141 1.141 0 0 1 .987 1.716l-11.844 20.462a1.132 1.132 0 0 0 .977 1.7h28.969a1.612 1.612 0 0 1 1.6 1.725z" transform="translate(-102.151 -228.464)" style="fill:#2785ff"/>
            <path data-name="Path 88732" d="M330.329 331.2c-11.985 3.635-56.375 3.356-56.375 3.356l57.352-15.256a12.1 12.1 0 0 0 8.841-13.593c-2.521-15.844-7.4-44.272-10.982-51.273a8.508 8.508 0 0 1 1.162.829s7.849 11.7 15.948 35.716-3.955 36.591-15.946 40.221z" transform="translate(-156.831 -189.157)" style="fill:#d3aa7d"/>
            <path data-name="Path 88733" d="M366.224 352.123a23.607 23.607 0 0 1 14.861 5.965" transform="translate(-196.109 -230.744)" style="stroke:#9c897a;stroke-linecap:round;stroke-linejoin:round;fill:none;stroke-miterlimit:10"/>
            <path data-name="Path 88734" d="M336.346 236s10.791 3.669 16.105 9.96" transform="translate(-183.39 -181.314)" style="stroke:#e5bc89;stroke-linecap:round;stroke-linejoin:round;fill:none;stroke-miterlimit:10"/>
            <path data-name="Path 88735" d="M242.818 316.078s5.959 7.719 6.722 16.608" transform="translate(-143.577 -215.4)" style="stroke:#9c897a;stroke-linecap:round;stroke-linejoin:round;fill:none;stroke-miterlimit:10"/>
            <path data-name="Path 88736" d="M296.312 236.66s-2.266 6.357 7.2 7.136 19.835-8.5 19.835-8.5" transform="translate(-166.247 -181.011)" style="stroke:#e5bc89;stroke-linecap:round;stroke-linejoin:round;fill:none;stroke-miterlimit:10"/>
            <path data-name="Path 88737" d="m272.312 373.7-2.216 9.554 2.429.374 1.237-9.928z" transform="translate(-155.189 -239.928)" style="fill:#d37a57"/>
            <path data-name="Path 88738" d="M304.31 245.755s-2.806 7.995-4.757 28.67" transform="translate(-167.728 -185.465)" style="stroke:#e5bc89;stroke-linecap:round;stroke-linejoin:round;fill:none;stroke-miterlimit:10"/>
            <path data-name="Path 88739" d="M333.147 160.919a16.128 16.128 0 0 0-8.42.492" transform="translate(-178.445 -149.204)" style="stroke:#543e2f;stroke-linecap:round;stroke-linejoin:round;fill:none;stroke-miterlimit:10"/>
            <path data-name="Path 88740" d="M288.843 157.185s-.446 6.473 7.743 7.4" transform="translate(-163.167 -147.762)" style="stroke:#543e2f;stroke-linecap:round;stroke-linejoin:round;fill:none;stroke-miterlimit:10"/>
            <path data-name="Path 88741" d="M340.657 153.747s.953 2.572.128 4.178" transform="translate(-185.225 -146.299)" style="stroke:#543e2f;stroke-linecap:round;stroke-linejoin:round;fill:none;stroke-miterlimit:10"/>
            <path data-name="Path 88742" d="M276.078 149.176a5.569 5.569 0 0 0 3.692 5.538" transform="translate(-157.732 -144.353)" style="stroke:#543e2f;stroke-linecap:round;stroke-linejoin:round;fill:none;stroke-miterlimit:10"/>
            <path data-name="Path 88743" d="M278.589 162.033a3.717 3.717 0 0 0 2.053 4.256" transform="translate(-158.765 -149.826)" style="stroke:#543e2f;stroke-linecap:round;stroke-linejoin:round;fill:none;stroke-miterlimit:10"/>
            <path data-name="Path 88744" d="M301.478 143.784s5.237-2.3 12.676 1.046c6.71 3.015 7.35 6.769 7.35 6.769" transform="translate(-168.547 -141.73)" style="stroke:#543e2f;stroke-linecap:round;stroke-linejoin:round;fill:none;stroke-miterlimit:10"/>
            <path data-name="Path 88745" d="M340.657 163.961a3 3 0 0 1 1.477 2.789 11.431 11.431 0 0 1-1.013 4.225" transform="translate(-185.225 -150.647)" style="stroke:#543e2f;stroke-linecap:round;stroke-linejoin:round;fill:none;stroke-miterlimit:10"/>
            <path data-name="Path 88746" d="M297.835 162.676s1.045 2.769 7.137 3.077 8.062.308 9.723 2.277a4.906 4.906 0 0 1 1.108 4.123" transform="translate(-166.997 -150.1)" style="stroke:#543e2f;stroke-linecap:round;stroke-linejoin:round;fill:none;stroke-miterlimit:10"/>
        </g>
    </g>
    <g data-name="Group 40191">
        <g data-name="Group 40187">
            <path data-name="Path 88747" d="M248.456 50.828h-55.447a5.814 5.814 0 0 0-5.814 5.814v9.493a5.814 5.814 0 0 0 5.814 5.814h7.344l-1.709 5.9a1.242 1.242 0 0 0 1.858 1.394L212 71.95h36.456a5.814 5.814 0 0 0 5.814-5.814v-9.494a5.814 5.814 0 0 0-5.814-5.814z" transform="translate(-101.559 -50.828)" style="fill:#d9d9d9"/>
            <path data-name="Line 9" transform="translate(93.177 5.683)" style="stroke:#fff;stroke-linecap:round;stroke-linejoin:round;fill:none;stroke-miterlimit:10" d="M0 0h52.318"/>
            <path data-name="Line 10" transform="translate(93.177 10.122)" style="stroke:#fff;stroke-linecap:round;stroke-linejoin:round;fill:none;stroke-miterlimit:10" d="M0 0h52.318"/>
            <path data-name="Line 11" transform="translate(93.177 14.561)" style="stroke:#fff;stroke-linecap:round;stroke-linejoin:round;fill:none;stroke-miterlimit:10" d="M0 0h52.318"/>
        </g>
        <g data-name="Group 40190" transform="translate(9.356 10.358)">
            <circle data-name="Ellipse 3298" cx="47.208" cy="47.208" r="47.208" style="stroke:#bbbfbd;fill:none;stroke-miterlimit:10"/>
            <path data-name="Path 88748" d="M148.017 118.288a44.174 44.174 0 0 1-44.208 44.212c-.4 0-.8-.006-1.2-.017q-.369-.009-.737-.033c-.175 0-.344-.005-.519-.022a19.66 19.66 0 0 1-.78-.049c-.109-.006-.218-.011-.327-.028-.311-.017-.617-.049-.922-.076-.355-.038-.7-.076-1.053-.12l10.929-15.809-29.04-31.486-18.95 15.31a40.748 40.748 0 0 1-.715-2.969 24.4 24.4 0 0 1-.207-1.086 16.37 16.37 0 0 1-.12-.72c-.06-.344-.109-.693-.159-1.042-.028-.2-.055-.388-.076-.584-.038-.3-.076-.606-.1-.911l-.017-.18a28.555 28.555 0 0 1-.087-.988 33.286 33.286 0 0 1-.071-1.1v-.022c-.022-.377-.038-.753-.044-1.135s-.016-.759-.016-1.141A44.193 44.193 0 0 1 98.427 74.4a44.836 44.836 0 0 1 5.381-.322 43.992 43.992 0 0 1 20.565 5.07L105.118 94.7l12.853 38.974L142.9 97.629a43.963 43.963 0 0 1 5.117 20.659z" transform="translate(-56.598 -71.084)" style="fill:#8abdff"/>
            <path data-name="Path 88749" d="m64.347 115.55 15.609 16.925-18.95 15.31a40.748 40.748 0 0 1-.715-2.969 24.4 24.4 0 0 1-.207-1.086 16.37 16.37 0 0 1-.12-.72c-.06-.344-.109-.693-.159-1.042-.028-.2-.055-.388-.076-.584-.038-.3-.076-.606-.1-.911l-.016-.18a28.555 28.555 0 0 1-.087-.988c-.027-.366-.055-.731-.071-1.1v-.022c-.022-.377-.038-.753-.044-1.135s-.016-.759-.016-1.141a44 44 0 0 1 4.952-20.357z" transform="translate(-56.511 -88.737)" style="fill:#5ea4ff"/>
            <path data-name="Path 88750" d="M149.391 212.56A44.051 44.051 0 0 1 132.27 216c-.4 0-.8-.006-1.2-.017q-.369-.009-.737-.033a5.63 5.63 0 0 1-.519-.022 19.66 19.66 0 0 1-.78-.049c-.109-.006-.218-.011-.327-.028-.311-.016-.617-.049-.922-.076-.355-.038-.7-.076-1.053-.12l10.932-15.812z" transform="translate(-85.176 -124.619)" style="fill:#7eaf92"/>
            <path data-name="Path 88751" d="M152.954 79.082 133.7 94.632l-6.691-20.3a44.834 44.834 0 0 1 5.381-.322 43.979 43.979 0 0 1 20.564 5.072z" transform="translate(-85.294 -71.055)" style="fill:#5ea4ff"/>
            <path data-name="Path 88752" d="M191.082 135.676a44.2 44.2 0 0 1-22.432 38.483l-7.614-23.1 24.926-36.044a43.952 43.952 0 0 1 5.12 20.661z" transform="translate(-99.78 -88.511)" style="fill:#5ea4ff"/>
            <path data-name="Path 88753" d="m110.2 176.5-10.937 15.816q-.418-.049-.835-.115c-.229-.033-.458-.065-.687-.1a18.192 18.192 0 0 1-.764-.131c-.338-.06-.677-.12-1.015-.191-.289-.06-.578-.12-.863-.186-.18-.038-.36-.082-.54-.126-.24-.055-.475-.115-.715-.175a44.76 44.76 0 0 1-5.253-1.698c-.333-.131-.671-.268-1-.41s-.655-.279-.977-.426a.017.017 0 0 1-.011-.006 42.074 42.074 0 0 1-3.848-1.97c-.295-.175-.589-.349-.879-.524a37.884 37.884 0 0 1-1.8-1.152 45.084 45.084 0 0 1-1.736-1.234c-.011-.006-.022-.017-.038-.028-.268-.2-.54-.409-.8-.617-.235-.186-.464-.366-.693-.557a40.048 40.048 0 0 1-1.742-1.501l-.737-.682c-.028-.028-.055-.049-.076-.071-.24-.235-.48-.469-.72-.709-.207-.207-.415-.42-.622-.633a35.786 35.786 0 0 1-1.541-1.7c-.186-.207-.36-.42-.535-.633a6.587 6.587 0 0 1-.306-.366 47.84 47.84 0 0 1-.513-.639c-.191-.24-.377-.48-.557-.726a24.173 24.173 0 0 1-.715-.977 30.89 30.89 0 0 1-.606-.874 22.72 22.72 0 0 1-.415-.628c-.087-.126-.169-.257-.251-.388a40.972 40.972 0 0 1-1.075-1.774c-.159-.284-.316-.567-.475-.857-.36-.66-.7-1.332-1.026-2.014a19.162 19.162 0 0 1-.4-.862 36.4 36.4 0 0 1-.4-.917c-.011-.022-.016-.049-.027-.071-.137-.322-.273-.65-.4-.977a.145.145 0 0 0-.011-.038c-.131-.327-.257-.66-.377-.993q-.18-.475-.344-.966c-.1-.289-.2-.584-.289-.879-.065-.218-.137-.442-.2-.66a.139.139 0 0 1-.011-.044c-.076-.257-.153-.513-.224-.77l18.95-15.31z" transform="translate(-57.709 -101.281)" style="fill:#2785ff"/>
            <path data-name="Path 88754" d="m176.436 101.32-24.926 36.044-12.853-38.974 19.255-15.55a44.3 44.3 0 0 1 18.524 18.48z" transform="translate(-90.253 -74.813)" style="fill:#2785ff"/>
            <path data-name="Path 88755" d="m133.011 148.889-8.77 12.673L95.2 130.075l24.959-20.161z" transform="translate(-71.754 -86.338)" style="fill:#5ea4ff"/>
            <path data-name="Path 88756" d="m136.762 118.865.139-2.328 1.554-.741a12.785 12.785 0 0 0 7.279-11.538 20.192 20.192 0 0 0-3.886-11.91l-1.734-2.375-14.787 4.951.129 5.554h-.976a3.591 3.591 0 0 0-3.591 3.591 3.591 3.591 0 0 0 3.591 3.591h1.142l.174 7.539v2.646a27.827 27.827 0 0 1-7.739 4.756s5.651 7.1 14.989 7.563 9.7-5.147 9.7-5.147a54.447 54.447 0 0 1-6.092-4.238z" transform="translate(-81.484 -77.85)" style="fill:#ff996a"/>
            <path data-name="Path 88757" d="m143.217 130.208-.139 2.328a20.401 20.401 0 0 1-1.234-.186c-6.612-1.205-9.2-7.182-8.932-10.261a12.087 12.087 0 0 0 10.305 8.119z" transform="translate(-87.8 -91.521)" style="fill:#d37a57"/>
            <path data-name="Path 88758" d="M127.267 112.469a1.61 1.61 0 0 1 .623.833.941.941 0 0 0-.6.8.962.962 0 0 0 .6.887 1 1 0 0 1-1.338.385 1.426 1.426 0 0 1 .134-2.359s-1.322-.15-1.807.335a.961.961 0 0 1 .442-.917 1.6 1.6 0 0 1 1.946.036z" transform="translate(-84.385 -87.278)" style="fill:#d37a57"/>
            <g data-name="Group 40188">
                <path data-name="Path 88759" d="M147.845 105.109a.347.347 0 0 0-.217.085 2.137 2.137 0 0 1-2.574.226.346.346 0 0 0-.391.57 2.807 2.807 0 0 0 3.419-.276.346.346 0 0 0-.237-.605z" transform="translate(-92.746 -84.293)" style="fill:#3f2d1f"/>
            </g>
            <g data-name="Group 40189">
                <path data-name="Path 88760" d="M161.457 105.586a.342.342 0 0 0-.23-.037 2.137 2.137 0 0 1-2.332-1.114.345.345 0 1 0-.626.292 2.808 2.808 0 0 0 3.085 1.5.346.346 0 0 0 .1-.643z" transform="translate(-98.588 -83.922)" style="fill:#3f2d1f"/>
            </g>
            <path data-name="Path 88761" d="M147.136 111.542s0 1.345-1.763 1.568a1.877 1.877 0 0 1-2.081-1.568 3.879 3.879 0 0 1 2.293-.965 1.456 1.456 0 0 1 1.551.965z" transform="translate(-92.227 -86.62)" style="fill:#fff"/>
            <path data-name="Path 88762" d="M161.265 111.542s0 1.345-1.725 1.568a1.746 1.746 0 0 1-1.953-1.567 3.4 3.4 0 0 1 2.16-.967 1.429 1.429 0 0 1 1.518.966z" transform="translate(-98.312 -86.62)" style="fill:#fff"/>
            <path data-name="Path 88763" d="M157.586 111.346a4.219 4.219 0 0 1 1.91-1.2 1.353 1.353 0 0 1 1.768 1.2 1.266 1.266 0 0 0-1.184-.832 5.485 5.485 0 0 0-2.494.832z" transform="translate(-98.311 -86.423)" style="fill:#3f2d1f"/>
            <path data-name="Path 88764" d="M143.292 111.3a4.411 4.411 0 0 1 2-1.249 1.413 1.413 0 0 1 1.848 1.249 1.323 1.323 0 0 0-1.237-.869 5.733 5.733 0 0 0-2.611.869z" transform="translate(-92.227 -86.381)" style="fill:#3f2d1f"/>
            <path data-name="Path 88765" d="m154.641 112.325.812 4.9a3.727 3.727 0 0 0 1.541-.315s-2.121-4.034-2.353-4.585z" transform="translate(-97.058 -87.365)" style="fill:#d37a57"/>
            <path data-name="Path 88766" d="M145.121 111.822a1.135 1.135 0 1 0 1.1-1.4 1.277 1.277 0 0 0-1.1 1.4z" transform="translate(-93.005 -86.556)" style="fill:#3f2d1f"/>
            <path data-name="Path 88767" d="M158.6 111.931a1.105 1.105 0 1 0 1.077-1.354 1.239 1.239 0 0 0-1.077 1.354z" transform="translate(-98.745 -86.62)" style="fill:#3f2d1f"/>
            <ellipse data-name="Ellipse 3299" cx="1.611" cy="1.103" rx="1.611" ry="1.103" transform="translate(48.337 27.658)" style="fill:#d37a57"/>
            <ellipse data-name="Ellipse 3300" cx="1.612" cy="1.103" rx="1.612" ry="1.103" transform="translate(61.494 27.129)" style="fill:#d37a57"/>
            <path data-name="Path 88768" d="M152.818 124.142s-2.6.088-3.655 1.053 2.836 1.257 3.655.877 1.182-2.051 0-1.93z" transform="translate(-94.649 -92.392)" style="fill:#fff"/>
            <path data-name="Path 88769" d="M143.813 111.253a1.172 1.172 0 0 1-1.084-.117s.053.532.324.644z" transform="translate(-91.987 -86.858)" style="fill:#3f2d1f"/>
            <path data-name="Path 88770" d="M162.953 110.712s.612.507 1.077.351c.171-.057-.48.539-.48.539a1.79 1.79 0 0 0-.597-.89z" transform="translate(-100.596 -86.678)" style="fill:#3f2d1f"/>
            <path data-name="Path 88771" d="M167.7 155.93s8.281 15.134 11.438 27.826l-8.538 4.972a55.829 55.829 0 0 1-4.562-17.192c-1.169-10.41 1.662-15.606 1.662-15.606z" transform="translate(-101.789 -105.926)" style="fill:#847062"/>
            <path data-name="Path 88772" d="M141.147 89.6s-8.274 7.83-15.836 6.973c0 0-.819 5.5.546 7.6 0 0-.585.579-1.4-1.621s-.172-5.24-.593-6.156a4.047 4.047 0 0 0-4.182 1.972c-1.658 2.57 1.971 5.707 4.348 5.21l.109 4.725a5.328 5.328 0 0 1-5.023-.933c-2.3-1.949-1.169-3.938-1.169-3.938a13.351 13.351 0 0 1-3.626-8.181c-.156-4.756 3.8-7.745 3.8-7.745s1.306-7.037 10-7.115 11.227 2.534 11.227 2.534a9.548 9.548 0 0 1 7.193 6.92 8.841 8.841 0 0 1-2.4 9.155s-1.153-7.636-2.994-9.4z" transform="translate(-79.89 -73.773)" style="fill:#3f2d1f"/>
            <path data-name="Path 88773" d="M116.068 87.728s-.418-5.11-5.268-4.894-5.785 5.771-3.68 8.344 4.854 1.988 6.9 0 2.048-3.45 2.048-3.45z" transform="translate(-76.378 -74.808)" style="fill:#3f2d1f"/>
            <path data-name="Path 88774" d="m124.162 120.06-3.057 6.364a.4.4 0 0 1-.6.142l-.126-.1-10.015-7.74a.4.4 0 0 1-.109-.508l3.455-6.326.082-.148a.391.391 0 0 1 .6-.115l9.672 7.952a.4.4 0 0 1 .098.479z" transform="translate(-78.143 -87.031)" style="fill:#fff"/>
            <path data-name="Path 88775" d="M141.7 188.692a44.3 44.3 0 0 1-36.535 1.469l-3.27-37.447s.671-2.582 4.677-4.055c4.552-1.681 4.6-1.872 4.6-1.872 17.351 8.733 24.686 2.412 24.686 2.412l3.82 1.943a1.778 1.778 0 0 1 .835.9c.9 2.156 3.886 9.633 4.186 14.785.24 4.1-1.699 15.13-2.999 21.865z" transform="translate(-74.606 -102.034)" style="fill:#9c897a"/>
            <path data-name="Path 88776" d="M100.476 152.684s-4.231 1.68-5.763 12.752.1 16.938.1 16.938l8.422-10s2.887-15.326-2.759-19.69z" transform="translate(-71.269 -104.545)" style="fill:#9c897a"/>
            <path data-name="Path 88777" d="M113.537 122.362a15.011 15.011 0 0 0-3.285 2.556 2.269 2.269 0 0 0-.287.912l-.528-.264a15.586 15.586 0 0 1 .759-2.278 4.339 4.339 0 0 0 1.306-1.111 1.417 1.417 0 0 0 .292-1.192c-.319.184-.833.52-1.369.9l.024-.03a1.419 1.419 0 0 0 .292-1.192 15.571 15.571 0 0 0-3.411 2.654 2.418 2.418 0 0 0-.307 1.045l-.148-.074a15.163 15.163 0 0 1 .805-2.491 4.339 4.339 0 0 0 1.306-1.111 1.419 1.419 0 0 0 .292-1.192 15.57 15.57 0 0 0-3.411 2.654 2.747 2.747 0 0 0-.312 1.481l.312 5.5.307 6.042S95.07 160.584 95.2 166.783s3.848 8.654 3.848 8.654a9.8 9.8 0 0 0 6.51-4.383c2.534-3.915 4.873-33.745 4.873-33.745a11.062 11.062 0 0 0 1.559-3.966c.234-1.939-.656-6.833-.656-6.833a15.562 15.562 0 0 1 .665-1.933 4.173 4.173 0 0 0 1.258-1.07 1.363 1.363 0 0 0 .28-1.145z" transform="translate(-71.753 -90.415)" style="fill:#ff996a"/>
            <path data-name="Path 88778" d="m126.757 120.061-3.057 6.364a.4.4 0 0 1-.6.142l-.126-.1 3.089-6.642-9.763-7.925.082-.148a.391.391 0 0 1 .6-.115l9.672 7.952a.4.4 0 0 1 .103.472z" transform="translate(-80.739 -87.032)" style="fill:#d9d9d9"/>
            <path data-name="Path 88779" d="m115.992 114.373-.424.833 2.105 1.7.482-.8z" transform="translate(-80.425 -88.236)" style="fill:#d9d9d9"/>
            <path data-name="Path 88780" d="m201.832 152.867-2.359.439-.064-.209a6.28 6.28 0 0 0 2.934-1.837 8.6 8.6 0 0 0 1.126-2.46 4.706 4.706 0 0 0-2 2.2l-1.118.208a3.65 3.65 0 0 0 1.124-1 8.6 8.6 0 0 0 1.126-2.46 4.706 4.706 0 0 0-2 2.2l-1.409.262a4.553 4.553 0 0 0 1.452-1.7 8.584 8.584 0 0 0 .584-2.642 4.708 4.708 0 0 0-1.494 2.572l-1.55.647-6.784 2.113.051-.979a11.727 11.727 0 0 0 .972-.716 10.083 10.083 0 0 0 1.61-2.9s-3.554 1.671-4.42 3.512a37.821 37.821 0 0 0-1.691 6.394s-8.15 19.612-9.6 25.016a10.661 10.661 0 0 0-4.131 2.916s2.846 5.224 5.107 5.77c0 0 6.55-1.247 9.668-8.889s4.375-23.075 4.375-23.075l6.547-3.58a5.715 5.715 0 0 0 2.66-1.586 7.01 7.01 0 0 0 .921-2.012 3.854 3.854 0 0 0-1.637 1.796z" transform="translate(-105.38 -101.639)" style="fill:#ff996a"/>
            <path data-name="Path 88781" d="M154.111 196.271a60.746 60.746 0 0 0-10.4-.739 81.662 81.662 0 0 0-13.127 1.231" transform="translate(-86.818 -122.784)" style="stroke:#847062;stroke-linecap:round;stroke-linejoin:round;fill:none;stroke-miterlimit:10"/>
            <path data-name="Path 88782" d="M159.514 88.39a7.875 7.875 0 0 1 .965 3.282" transform="translate(-99.132 -77.176)" style="stroke:#543e2f;stroke-linecap:round;stroke-linejoin:round;fill:none;stroke-miterlimit:10"/>
            <path data-name="Path 88783" d="M151.765 85.818a14.614 14.614 0 0 0-6.644 4.759" transform="translate(-93.005 -76.081)" style="stroke:#543e2f;stroke-linecap:round;stroke-linejoin:round;fill:none;stroke-miterlimit:10"/>
            <path data-name="Path 88784" d="M119.625 89.6a11.052 11.052 0 0 0-.739 2.133S116.6 93.87 116.3 95.1" transform="translate(-80.739 -77.693)" style="stroke:#543e2f;stroke-linecap:round;stroke-linejoin:round;fill:none;stroke-miterlimit:10"/>
            <path data-name="Path 88785" d="M107.085 99.675a4.307 4.307 0 0 0 4.753.393" transform="translate(-76.814 -81.98)" style="stroke:#543e2f;stroke-linecap:round;stroke-linejoin:round;fill:none;stroke-miterlimit:10"/>
            <path data-name="Path 88786" d="M127.006 86.114s5.316-4.9 14.116-2.318" transform="translate(-85.294 -74.9)" style="stroke:#543e2f;stroke-linecap:round;stroke-linejoin:round;fill:none;stroke-miterlimit:10"/>
            <path data-name="Path 88787" d="M128.871 101.631s2.283.921 7.165 0 9.326-5.92 9.326-5.92" transform="translate(-86.088 -80.292)" style="stroke:#543e2f;stroke-linecap:round;stroke-linejoin:round;fill:none;stroke-miterlimit:10"/>
            <path data-name="Path 88788" d="M125.438 152.684a34.68 34.68 0 0 0 13.513 2.374c6.837-.41 7.689-1.641 7.689-1.641" transform="translate(-84.626 -104.545)" style="stroke:#847062;stroke-linecap:round;stroke-linejoin:round;fill:none;stroke-miterlimit:10"/>
        </g>
    </g>
</svg>
