<svg xmlns="http://www.w3.org/2000/svg" width="16" height="11.286" viewBox="0 0 16 11.286">
  <path id="Path_42804" data-name="Path 42804" d="M3.284-4.476h.764a4.1,4.1,0,0,0,2.645-.97,3.563,3.563,0,0,0,1.264-2.41,3.727,3.727,0,0,0-.97-2.91A3.824,3.824,0,0,0,4.2-12H-7.532a.453.453,0,0,0-.47.47l-.029,7.994a2.813,2.813,0,0,0,.823,2,2.813,2.813,0,0,0,2,.823H.433a2.813,2.813,0,0,0,2-.823,2.813,2.813,0,0,0,.823-2Zm0-6.113h.941A2.439,2.439,0,0,1,5.9-9.913a2.439,2.439,0,0,1,.676,1.675A2.439,2.439,0,0,1,5.9-6.563a2.439,2.439,0,0,1-1.675.676H3.284ZM1.873-3.535a1.534,1.534,0,0,1-.411,1,1.534,1.534,0,0,1-1,.411H-5.18a1.534,1.534,0,0,1-1-.411,1.534,1.534,0,0,1-.411-1v-7.054h2.116v1.176l-.911.911a.88.88,0,0,0-.265.647v1.5a.915.915,0,0,0,.265.676.915.915,0,0,0,.676.265h1.381a.915.915,0,0,0,.676-.265.915.915,0,0,0,.265-.676l.029-1.5A.88.88,0,0,0-2.623-8.5l-.911-.911v-1.176H1.873Z" transform="translate(8.031 12)" fill="#212529"/>
</svg>
