<svg xmlns="http://www.w3.org/2000/svg" width="32" height="32" viewBox="0 0 32 32">
  <g id="Group_43778" data-name="Group 43778" transform="translate(-24 -480)">
    <rect id="Rectangle_10241" data-name="Rectangle 10241" width="32" height="32" rx="8" transform="translate(24 480)" fill="#984dd9"/>
    <path id="Path_94511" data-name="Path 94511" d="M-4-14a2.02,2.02,0,0,0-1.406.594A2.02,2.02,0,0,0-6-12V0a2.02,2.02,0,0,0,.594,1.406A2.02,2.02,0,0,0-4,2H4a2.02,2.02,0,0,0,1.406-.594A2.02,2.02,0,0,0,6,0V-9H2a.973.973,0,0,1-.719-.281A.973.973,0,0,1,1-10v-4Zm6,0v4H6Zm-5.5,2h2a.481.481,0,0,1,.5.5.481.481,0,0,1-.5.5h-2a.481.481,0,0,1-.5-.5A.481.481,0,0,1-3.5-12Zm0,2h2a.481.481,0,0,1,.5.5.481.481,0,0,1-.5.5h-2A.481.481,0,0,1-4-9.5.481.481,0,0,1-3.5-10Zm1.688,7.938A1.481,1.481,0,0,1-3.25-1H-3.5A.481.481,0,0,1-4-1.5.481.481,0,0,1-3.5-2h.25a.539.539,0,0,0,.5-.344l.438-1.562A.86.86,0,0,1-1.5-4.5a.86.86,0,0,1,.813.594l.344,1.219A1.284,1.284,0,0,1,.5-3a1.369,1.369,0,0,1,1.188.719L1.813-2H3.5a.481.481,0,0,1,.5.5.481.481,0,0,1-.5.5h-2a.442.442,0,0,1-.437-.281L.781-1.812A.3.3,0,0,0,.5-2a.3.3,0,0,0-.281.188l-.281.531A.5.5,0,0,1-.531-1a.459.459,0,0,1-.437-.344L-1.5-3.094Z" transform="translate(40 502)" fill="#fff"/>
  </g>
</svg>
