<svg xmlns="http://www.w3.org/2000/svg" width="16" height="14" viewBox="0 0 16 14">
  <path id="Path_1292" data-name="Path 1292" d="M13.75-10h-10A.747.747,0,0,0,3-9.25a.747.747,0,0,0,.75.75h10a.747.747,0,0,1,.75.75v6.5a.747.747,0,0,1-.75.75h-11a1.135,1.135,0,0,1-.875-.375A1.135,1.135,0,0,1,1.5-1.75v-8.5a1.135,1.135,0,0,1,.375-.875A1.135,1.135,0,0,1,2.75-11.5h11.5a.747.747,0,0,0,.75-.75.747.747,0,0,0-.75-.75H2.75a2.742,2.742,0,0,0-1.937.813A2.742,2.742,0,0,0,0-10.25v8.5A2.742,2.742,0,0,0,.813.188,2.742,2.742,0,0,0,2.75,1h11A2.268,2.268,0,0,0,15.344.344,2.268,2.268,0,0,0,16-1.25v-6.5a2.268,2.268,0,0,0-.656-1.594A2.268,2.268,0,0,0,13.75-10ZM13-4.5a.973.973,0,0,0-.281-.719A.973.973,0,0,0,12-5.5a.973.973,0,0,0-.719.281A.973.973,0,0,0,11-4.5a.973.973,0,0,0,.281.719A.973.973,0,0,0,12-3.5a.973.973,0,0,0,.719-.281A.973.973,0,0,0,13-4.5Z" transform="translate(0 13)" fill="#212121"/>
</svg>
