<svg xmlns="http://www.w3.org/2000/svg" width="16" height="16" viewBox="0 0 16 16">
  <path id="Path_1291" data-name="Path 1291" d="M14.993-4,11.932-5.316A1.6,1.6,0,0,0,10.9-5.41a1.774,1.774,0,0,0-.875.562L9.152-3.786A9.355,9.355,0,0,1,5.779-7.159l1.062-.875A1.53,1.53,0,0,0,7.4-8.909a1.8,1.8,0,0,0-.125-1.031L6-13a1.566,1.566,0,0,0-.781-.812,1.52,1.52,0,0,0-1.093-.156l-2.842.656a1.7,1.7,0,0,0-.937.593,1.574,1.574,0,0,0-.344,1A13.507,13.507,0,0,0,1.874-4.785a14.175,14.175,0,0,0,4.9,4.9,13.507,13.507,0,0,0,6.934,1.874,1.574,1.574,0,0,0,1-.344,1.7,1.7,0,0,0,.593-.937l.656-2.842a1.52,1.52,0,0,0-.156-1.093A1.566,1.566,0,0,0,14.993-4Zm-.5,1.531L13.838.4a.122.122,0,0,1-.125.094A12.263,12.263,0,0,1,7.528-1.162a12.477,12.477,0,0,1-4.373-4.4A11.914,11.914,0,0,1,1.468-11.72a.122.122,0,0,1,.094-.125l2.9-.656H4.5q.062,0,.125.094L5.935-9.346A.142.142,0,0,1,5.9-9.19L4.373-7.94a.728.728,0,0,0-.219.906,10.574,10.574,0,0,0,2.03,2.842,10.574,10.574,0,0,0,2.842,2.03.728.728,0,0,0,.906-.219l1.249-1.531a.142.142,0,0,1,.156-.031L14.4-2.63A.184.184,0,0,1,14.493-2.474ZM15.243-14h-3.5a.747.747,0,0,0-.75.75.747.747,0,0,0,.75.75h1.687L9.215-8.284a.754.754,0,0,0,0,1.062.754.754,0,0,0,1.062,0l4.217-4.217v1.687a.747.747,0,0,0,.75.75.747.747,0,0,0,.75-.75v-3.5A.747.747,0,0,0,15.243-14Z" transform="translate(0 14.007)" fill="#212121"/>
</svg>
