<svg xmlns="http://www.w3.org/2000/svg" width="16" height="16" viewBox="0 0 16 16">
  <path id="Path_1290" data-name="Path 1290" d="M.75-9a.747.747,0,0,0,.75-.75V-12.5H4.25A.747.747,0,0,0,5-13.25.747.747,0,0,0,4.25-14H1a.973.973,0,0,0-.719.281A.973.973,0,0,0,0-13v3.25A.747.747,0,0,0,.75-9ZM4.25.5H1.5V-2.25A.747.747,0,0,0,.75-3,.747.747,0,0,0,0-2.25V1A.963.963,0,0,0,1,2H4.25a.75.75,0,0,0,0-1.5Zm11-3.5a.747.747,0,0,0-.75.75V.5H11.75a.75.75,0,0,0,0,1.5H15a.963.963,0,0,0,1-1V-2.25A.747.747,0,0,0,15.25-3ZM15-14H11.75a.747.747,0,0,0-.75.75.747.747,0,0,0,.75.75H14.5v2.75a.747.747,0,0,0,.75.75A.747.747,0,0,0,16-9.75V-13a.973.973,0,0,0-.281-.719A.973.973,0,0,0,15-14ZM13-6a5.01,5.01,0,0,0-1.469-3.531A5.01,5.01,0,0,0,8-11,5.01,5.01,0,0,0,4.469-9.531,5.01,5.01,0,0,0,3-6,5.01,5.01,0,0,0,4.469-2.469,5.01,5.01,0,0,0,8-1a5.01,5.01,0,0,0,3.531-1.469A5.01,5.01,0,0,0,13-6ZM8-2.5A3.394,3.394,0,0,1,5.531-3.531,3.394,3.394,0,0,1,4.5-6,3.394,3.394,0,0,1,5.531-8.469,3.394,3.394,0,0,1,8-9.5a3.394,3.394,0,0,1,2.469,1.031A3.394,3.394,0,0,1,11.5-6a3.394,3.394,0,0,1-1.031,2.469A3.394,3.394,0,0,1,8-2.5Zm1.25-4A.747.747,0,0,0,10-7.25.747.747,0,0,0,9.25-8a.747.747,0,0,0-.75.75A.747.747,0,0,0,9.25-6.5Zm-2.5,0a.747.747,0,0,0,.75-.75A.747.747,0,0,0,6.75-8,.747.747,0,0,0,6-7.25.747.747,0,0,0,6.75-6.5ZM9.969-5.437a.472.472,0,0,0-.656.188A1.557,1.557,0,0,1,8-4.5a1.505,1.505,0,0,1-1.312-.75.481.481,0,0,0-.656-.187.513.513,0,0,0-.187.688,2.115,2.115,0,0,0,.906.906A2.35,2.35,0,0,0,8-3.5a2.459,2.459,0,0,0,2.156-1.25A.513.513,0,0,0,9.969-5.437Z" transform="translate(0 14)" fill="#212121"/>
</svg>
