<svg xmlns="http://www.w3.org/2000/svg" width="16" height="15.295" viewBox="0 0 16 15.295">
  <path id="Path_1293" data-name="Path 1293" d="M15.831-8.862l-4.391-.657L9.5-13.462A.965.965,0,0,0,8.6-14a.965.965,0,0,0-.836.538L5.823-9.519l-4.391.657a.884.884,0,0,0-.747.627.93.93,0,0,0,.239.986L4.091-4.2,3.344.19a.819.819,0,0,0,.209.777.936.936,0,0,0,.717.329.889.889,0,0,0,.448-.119L8.631-.856l3.913,2.031a.889.889,0,0,0,.448.119A.936.936,0,0,0,13.71.966.819.819,0,0,0,13.919.19l-.747-4.361,3.167-3.047a.988.988,0,0,0,.239-1.016A.884.884,0,0,0,15.831-8.862ZM11.678-4.411l.687,3.883L8.84-2.379a.51.51,0,0,0-.418,0L4.9-.527l.687-3.883a.676.676,0,0,0-.149-.448L2.627-7.607,6.51-8.175a.4.4,0,0,0,.358-.239l1.763-3.555,1.763,3.525a.4.4,0,0,0,.358.269l3.913.568L11.828-4.859A.52.52,0,0,0,11.678-4.411Z" transform="translate(-0.631 14)" fill="#212121"/>
</svg>
