<svg xmlns="http://www.w3.org/2000/svg" width="16" height="16" viewBox="0 0 16 16">
  <path id="Path_42795" data-name="Path 42795" d="M13.25-1.75h-3a1.135,1.135,0,0,1-.875-.375A1.135,1.135,0,0,1,9-3a1.135,1.135,0,0,1,.375-.875,1.135,1.135,0,0,1,.875-.375H13a10.641,10.641,0,0,0,.781-.937,19.037,19.037,0,0,0,1.438-2.031A4.634,4.634,0,0,0,16-9.25a2.99,2.99,0,0,0-.875-2.125A2.99,2.99,0,0,0,13-12.25a2.99,2.99,0,0,0-2.125.875A2.99,2.99,0,0,0,10-9.25a4,4,0,0,0,.563,1.688A16.182,16.182,0,0,0,11.781-5.75H10.25a2.742,2.742,0,0,0-1.937.813A2.742,2.742,0,0,0,7.5-3a2.742,2.742,0,0,0,.812,1.937A2.742,2.742,0,0,0,10.25-.25h3a1.135,1.135,0,0,1,.875.375A1.135,1.135,0,0,1,14.5,1a1.135,1.135,0,0,1-.375.875,1.135,1.135,0,0,1-.875.375H4.219A16.182,16.182,0,0,0,5.438.438,4,4,0,0,0,6-1.25a2.99,2.99,0,0,0-.875-2.125A2.99,2.99,0,0,0,3-4.25a2.99,2.99,0,0,0-2.125.875A2.99,2.99,0,0,0,0-1.25,4.634,4.634,0,0,0,.781.781,19.037,19.037,0,0,0,2.219,2.813,10.641,10.641,0,0,0,3,3.75H13.25a2.742,2.742,0,0,0,1.938-.812A2.742,2.742,0,0,0,16,1a2.742,2.742,0,0,0-.812-1.938A2.742,2.742,0,0,0,13.25-1.75ZM11.5-9.25a1.631,1.631,0,0,1,.438-1.063A1.631,1.631,0,0,1,13-10.75a1.631,1.631,0,0,1,1.063.438A1.631,1.631,0,0,1,14.5-9.25a3.118,3.118,0,0,1-.437,1.063A13.047,13.047,0,0,1,13-6.625a13.046,13.046,0,0,1-1.062-1.562A3.117,3.117,0,0,1,11.5-9.25ZM3,1.375A13.046,13.046,0,0,1,1.938-.188,3.118,3.118,0,0,1,1.5-1.25a1.631,1.631,0,0,1,.438-1.062A1.631,1.631,0,0,1,3-2.75a1.631,1.631,0,0,1,1.062.438A1.631,1.631,0,0,1,4.5-1.25,2.876,2.876,0,0,1,4.063-.219,15.059,15.059,0,0,1,3,1.375Z" transform="translate(0 12.25)" fill="#bdbdbd"/>
</svg>
