<svg xmlns="http://www.w3.org/2000/svg" width="12" height="16" viewBox="0 0 12 16">
  <path id="Path_42796" data-name="Path 42796" d="M6.75-4.594V-6.5A.747.747,0,0,0,6-7.25a.747.747,0,0,0-.75.75v2.25a.682.682,0,0,0,.281.563l1.5,1.25A.708.708,0,0,0,7.5-2.25a.682.682,0,0,0,.562-.281.7.7,0,0,0-.094-1.031ZM10-9.938v-.813a1.631,1.631,0,0,0-.437-1.062A1.631,1.631,0,0,0,8.5-12.25h-5a1.631,1.631,0,0,0-1.063.438A1.631,1.631,0,0,0,2-10.75v.813a2.54,2.54,0,0,0-1.437.844A2.6,2.6,0,0,0,0-7.5V-1A2.6,2.6,0,0,0,.563.594,2.54,2.54,0,0,0,2,1.438V2.25a1.631,1.631,0,0,0,.438,1.063A1.631,1.631,0,0,0,3.5,3.75h5a1.631,1.631,0,0,0,1.063-.437A1.631,1.631,0,0,0,10,2.25V1.438A2.54,2.54,0,0,0,11.438.594,2.6,2.6,0,0,0,12-1V-7.5a2.6,2.6,0,0,0-.562-1.594A2.54,2.54,0,0,0,10-9.938ZM10.5-1a.973.973,0,0,1-.281.719A.973.973,0,0,1,9.5,0h-7a.973.973,0,0,1-.719-.281A.973.973,0,0,1,1.5-1V-7.5a.973.973,0,0,1,.281-.719A.973.973,0,0,1,2.5-8.5h7a.973.973,0,0,1,.719.281A.973.973,0,0,1,10.5-7.5Z" transform="translate(0 12.25)" fill="#bdbdbd"/>
</svg>
