<svg xmlns="http://www.w3.org/2000/svg" width="16" height="16" viewBox="0 0 16 16">
  <path id="Path_42794" data-name="Path 42794" d="M6-8.219a11.412,11.412,0,0,0-4.125.688Q.094-6.844,0-5.5V1Q.094,2.344,1.875,3.063A11.412,11.412,0,0,0,6,3.75a11.412,11.412,0,0,0,4.125-.687Q11.906,2.344,12,1V-5.5q-.094-1.344-1.875-2.031A11.412,11.412,0,0,0,6-8.219ZM10.5,1q0,.281-1.156.75A10.553,10.553,0,0,1,6,2.25a10.553,10.553,0,0,1-3.344-.5Q1.5,1.281,1.5,1V-.375A7.741,7.741,0,0,0,3.563.281,13.1,13.1,0,0,0,6,.5,13.1,13.1,0,0,0,8.438.281,7.741,7.741,0,0,0,10.5-.375Zm0-3.25q0,.281-1.156.75A10.553,10.553,0,0,1,6-1a10.553,10.553,0,0,1-3.344-.5Q1.5-1.969,1.5-2.25V-3.625a7.741,7.741,0,0,0,2.063.656A13.1,13.1,0,0,0,6-2.75a13.1,13.1,0,0,0,2.437-.219A7.741,7.741,0,0,0,10.5-3.625ZM6-4.25a10.553,10.553,0,0,1-3.344-.5Q1.5-5.219,1.5-5.5t1.156-.75A10.553,10.553,0,0,1,6-6.75a10.553,10.553,0,0,1,3.344.5q1.156.469,1.156.75t-1.156.75A10.553,10.553,0,0,1,6-4.25Zm4-8a11.674,11.674,0,0,0-4.219.719q-1.531.688-1.563,1.406a.747.747,0,0,0,.188.5.658.658,0,0,0,.563.25.942.942,0,0,0,.625-.281,4.624,4.624,0,0,1,1.344-.688A9.537,9.537,0,0,1,10-10.75a10.553,10.553,0,0,1,3.344.5q1.156.469,1.156.75.031.063-.25.281a3.581,3.581,0,0,1-1,.5.759.759,0,0,0-.5.719.747.747,0,0,0,.75.75,2.4,2.4,0,0,0,.531-.156q.344-.156.469-.219V-6.25q.031.062-.25.281a3.584,3.584,0,0,1-1.031.5.8.8,0,0,0-.5.719.747.747,0,0,0,.75.75,2.805,2.805,0,0,0,.594-.156,3.969,3.969,0,0,0,.438-.219V-3q.031.062-.25.281a3.581,3.581,0,0,1-1,.5.759.759,0,0,0-.5.719.747.747,0,0,0,.75.75A3.481,3.481,0,0,0,14.25-1a3.654,3.654,0,0,0,1.156-.719A1.736,1.736,0,0,0,16-3V-9.5q-.094-1.344-1.875-2.063A11.412,11.412,0,0,0,10-12.25Z" transform="translate(0 12.25)" fill="#bdbdbd"/>
</svg>
