<svg xmlns="http://www.w3.org/2000/svg" width="21.083" height="21.091" viewBox="0 0 21.083 21.091">
    <path data-name="Union 76" d="M1.994 18.015A6.448 6.448 0 0 1 0 13.185a1 1 0 1 1 1.992.1 4.45 4.45 0 0 0 1.4 3.308A4.55 4.55 0 0 0 6.749 18a1 1 0 1 1 .1 2h-.161a6.547 6.547 0 0 1-4.694-1.985zm5.939-1.891h-.016a4.58 4.58 0 0 1-4.072-4.052A1 1 0 0 1 4.766 11a1 1 0 0 1 1.073.921 2.586 2.586 0 0 0 2.231 2.208 1 1 0 0 1-.068 2zm7.353-.419-2.21-2.205-.326.326a1.75 1.75 0 0 1-2.475 0l-4.1-4.105a1.75 1.75 0 0 1 0-2.475l.325-.331-2.214-2.209a1 1 0 0 1 0-1.414l3-3a1 1 0 0 1 1.414 0l2.427 2.427a4.629 4.629 0 0 1 6.147 6.147l2.426 2.425a1 1 0 0 1 0 1.414l-3 3a1 1 0 0 1-1.414 0zm-.8-3.624 1.5 1.5L17.578 12l-1.5-1.5zM6.407 4l1.5 1.5L9.5 3.916 8 2.416z" transform="translate(.501 .591)" style="fill:#7d5fff;stroke:transparent;stroke-miterlimit:10"/>
</svg>
