<svg xmlns="http://www.w3.org/2000/svg" width="19.995" height="20" viewBox="0 0 19.995 20">
    <path data-name="Union 72" d="M6.7 20A6.707 6.707 0 0 1 0 13.327a.769.769 0 0 1 .766-.772.77.77 0 0 1 .77.766 5.165 5.165 0 0 0 5.164 5.14.081.081 0 0 1 .021 0 .77.77 0 0 1 0 1.539zm1.16-3.969a4.425 4.425 0 0 1-3.91-3.883.769.769 0 1 1 1.527-.184A2.9 2.9 0 0 0 8.032 14.5a.769.769 0 0 1-.085 1.534.571.571 0 0 1-.089-.003zm6.79-1.246-1.47-1.467a2.31 2.31 0 0 1-1.078.5 2.413 2.413 0 0 1-.381.03 2.361 2.361 0 0 1-.379-.03c-.781-.123-1.311-.653-2.275-1.615L7.8 10.939c-.969-.968-1.5-1.5-1.625-2.284a2.451 2.451 0 0 1 0-.762 2.3 2.3 0 0 1 .5-1.077L5.213 5.349C4.54 4.676 4.1 4.232 4.1 3.546s.442-1.13 1.113-1.8l.631-.631C6.514.443 6.958 0 7.644 0s1.134.444 1.8 1.118l1.529 1.587a4.492 4.492 0 0 1 2.348-.611 4.639 4.639 0 0 1 3.992 6.891l1.567 1.567c.671.67 1.115 1.114 1.115 1.8s-.442 1.128-1.113 1.8l-.631.632c-.672.672-1.116 1.115-1.8 1.115s-1.132-.442-1.803-1.114zm-.263-2.591-.077.076 1.425 1.43a4.714 4.714 0 0 0 .743.669c.058-.042.391-.376.685-.669l.628-.629a4.637 4.637 0 0 0 .668-.741 16.395 16.395 0 0 0-.668-.686l-1.426-1.427zm-3.3-7.688L8.891 6.7c-.718.717-1.147 1.147-1.191 1.434a.837.837 0 0 0 0 .28c.045.291.477.721 1.192 1.437l1.256 1.256c.72.719 1.149 1.148 1.435 1.193a.879.879 0 0 0 .283 0c.286-.045.718-.477 1.434-1.193l2.2-2.2a3.117 3.117 0 0 0-2.2-5.277h-.049a3.018 3.018 0 0 0-2.166.877zM6.93 2.2l-.63.632a4.612 4.612 0 0 0-.669.743c.042.057.375.391.667.684l1.429 1.429.073-.072L9.756 3.66 8.344 2.192a4.515 4.515 0 0 0-.728-.657c-.059.041-.393.374-.686.665z" style="fill:#616161"/>
</svg>
