<svg xmlns="http://www.w3.org/2000/svg" width="15" height="20" viewBox="0 0 15 20">
  <path id="Path_42771" data-name="Path 42771" d="M11.313-.875H5.688A.934.934,0,0,0,4.75.063.934.934,0,0,0,5.688,1h5.625A.934.934,0,0,0,12.25.063.934.934,0,0,0,11.313-.875Zm0-4.375H5.688a.934.934,0,0,0-.937.938.934.934,0,0,0,.938.938h5.625a.934.934,0,0,0,.938-.937A.934.934,0,0,0,11.313-5.25ZM13.5-9H12.25v-3.125a1.808,1.808,0,0,0-.547-1.328A2.038,2.038,0,0,0,10.375-14H6.625a2.038,2.038,0,0,0-1.328.547,2.038,2.038,0,0,0-.547,1.328V-9H3.5a2.525,2.525,0,0,0-1.758.742A2.525,2.525,0,0,0,1-6.5V2.25a2.535,2.535,0,0,0,2.5,2.5,1.217,1.217,0,0,0,.352.9A1.3,1.3,0,0,0,4.75,6,1.2,1.2,0,0,0,6,4.75h5a1.217,1.217,0,0,0,.352.9,1.3,1.3,0,0,0,.9.352A1.2,1.2,0,0,0,13.5,4.75,2.535,2.535,0,0,0,16,2.25V-6.5a2.525,2.525,0,0,0-.742-1.758A2.525,2.525,0,0,0,13.5-9ZM6.625-12.125h3.75V-9H6.625Zm7.5,14.375a.6.6,0,0,1-.625.625H3.5a.633.633,0,0,1-.625-.625V-6.5A.633.633,0,0,1,3.5-7.125h10a.6.6,0,0,1,.625.625Z" transform="translate(-1 14)" fill="#7d5fff"/>
</svg>
