<svg xmlns="http://www.w3.org/2000/svg" width="56.065" height="56.304" viewBox="0 0 56.065 56.304">
    <g data-name="icons8-whatsapp (1)">
        <path data-name="Path 45000" d="m4.868 58.508 3.763-13.739a26.525 26.525 0 1 1 22.983 13.28H31.6a26.494 26.494 0 0 1-12.671-3.229z" transform="translate(-3.471 -3.603)" style="fill-rule:evenodd;fill:#fff"/>
        <path data-name="Path 45001" d="M5.066 59.405a.7.7 0 0 1-.673-.881L8.08 45.063a27.219 27.219 0 1 1 10.959 10.7l-13.8 3.617a.639.639 0 0 1-.173.025z" transform="translate(-3.669 -3.802)" style="fill-rule:evenodd;fill:#fff"/>
        <path data-name="Path 45002" d="M32.012 5.4a26.524 26.524 0 0 1 0 53.049H32a26.494 26.494 0 0 1-12.675-3.228l-14.06 3.684 3.764-13.739A26.527 26.527 0 0 1 32.012 5.4M32.012 4A27.928 27.928 0 0 0 7.528 45.352L3.917 58.538a1.4 1.4 0 0 0 1.7 1.72L19.15 56.71A27.923 27.923 0 1 0 32.012 4z" style="fill:#cfd8dc;fill-rule:evenodd" transform="translate(-3.868 -4)"/>
        <path data-name="Path 45003" d="M45.872 14.668A22.047 22.047 0 0 0 11.6 41.971l.525.834L9.9 50.937l8.344-2.188.806.478A22 22 0 0 0 30.271 52.3h.008a22.047 22.047 0 0 0 15.593-37.63z" transform="translate(-2.135 -2.33)" style="fill:#40c351;fill-rule:evenodd"/>
        <path data-name="Path 45004" d="M21.214 16.375c-.5-1.1-1.018-1.126-1.492-1.146-.387-.017-.828-.015-1.27-.015a2.436 2.436 0 0 0-1.767.83 7.428 7.428 0 0 0-2.32 5.526c0 3.261 2.375 6.412 2.706 6.854s4.585 7.347 11.321 10c5.6 2.207 6.738 1.769 7.953 1.658s3.921-1.6 4.473-3.15a5.55 5.55 0 0 0 .387-3.15c-.166-.277-.608-.441-1.27-.774s-3.921-1.935-4.529-2.156-1.049-.331-1.492.332-1.711 2.156-2.1 2.6-.774.5-1.436.166a18.141 18.141 0 0 1-5.329-3.288 19.967 19.967 0 0 1-3.687-4.589c-.387-.662-.042-1.021.291-1.352.3-.3.662-.774.995-1.161a4.532 4.532 0 0 0 .662-1.105 1.219 1.219 0 0 0-.056-1.161c-.162-.331-1.454-3.609-2.04-4.919z" transform="translate(.299 .452)" style="fill-rule:evenodd;fill:#fff"/>
    </g>
</svg>
