<svg version="1.2" xmlns="http://www.w3.org/2000/svg" viewBox="0 0 40 40" width="40" height="40">
	<title>WorkIcon</title>
	<style>
		.s0 { fill: #d9d9d9 } 
		.s1 { fill: #000000 } 
	</style>
	<g id="Group 56809">
		<path id="Ellipse 3400" fill-rule="evenodd" class="s0" d="m20 40c-11.1 0-20-8.9-20-20 0-11.1 8.9-20 20-20 11.1 0 20 8.9 20 20 0 11.1-8.9 20-20 20z"/>
		<path id="Layer 1" class="s1" d="m27.2 20.8c0.7 0 1.3-0.6 1.2-1.4 0-0.7-0.6-1.3-1.3-1.2l-6.1 0.2-0.2-6.1c0-0.8-0.6-1.3-1.4-1.3-0.7 0-1.3 0.6-1.2 1.4l0.2 6.1-6.1 0.2c-0.8 0-1.3 0.6-1.3 1.3 0 0.7 0.6 1.3 1.4 1.3l6.1-0.2 0.2 6.1c0 0.7 0.6 1.3 1.3 1.2 0.7 0 1.3-0.6 1.3-1.3l-0.2-6.1z"/>
	</g>
</svg>