<svg xmlns="http://www.w3.org/2000/svg" width="26.507" height="24" viewBox="0 0 26.507 24">
    <path data-name="Path 89352" d="M.741.889a3.891 3.891 0 0 1 0-3.84l4.693-8.16a3.865 3.865 0 0 1 3.36-1.92h9.387a3.865 3.865 0 0 1 3.36 1.92l4.693 8.16a3.891 3.891 0 0 1 0 3.84l-4.693 8.16a3.865 3.865 0 0 1-3.36 1.92H8.794a3.865 3.865 0 0 1-3.36-1.92zm11.467 2.773a1.28 1.28 0 1 0 2.56 0V.249h3.413a1.275 1.275 0 0 0 1.28-1.28 1.275 1.275 0 0 0-1.28-1.28h-3.413v-3.414A1.275 1.275 0 0 0 13.488-7a1.275 1.275 0 0 0-1.28 1.28v3.413H8.794a1.275 1.275 0 0 0-1.28 1.28A1.275 1.275 0 0 0 8.794.249h3.413z" transform="translate(-.234 13.031)" style="fill:#212529"/>
</svg>
