<svg xmlns="http://www.w3.org/2000/svg" width="24" height="24" viewBox="0 0 24 24">
    <path data-name="Path 42764" d="M12-6.109a4.113 4.113 0 0 0-2.906 1.218 4.113 4.113 0 0 0-1.219 2.907A4.113 4.113 0 0 0 9.094.922 4.113 4.113 0 0 0 12 2.141 4.113 4.113 0 0 0 14.906.922a4.113 4.113 0 0 0 1.219-2.906 4.113 4.113 0 0 0-1.219-2.906A4.113 4.113 0 0 0 12-6.109zm0 6a1.756 1.756 0 0 1-1.359-.562 1.778 1.778 0 0 1-.516-1.312 1.881 1.881 0 0 1 .516-1.317A2 2 0 0 1 12-3.859a1.8 1.8 0 0 1 1.313.563 1.949 1.949 0 0 1 .563 1.313 1.949 1.949 0 0 1-.562 1.313A1.8 1.8 0 0 1 12-.109zm10.875-3h-1.969a9.053 9.053 0 0 0-2.531-5.25 9.053 9.053 0 0 0-5.25-2.531v-2.016a1.1 1.1 0 0 0-1.078-1.125 1.085 1.085 0 0 0-.8.328 1.021 1.021 0 0 0-.375.8v2.016a9.053 9.053 0 0 0-5.25 2.531 9.053 9.053 0 0 0-2.531 5.25H1.078A1.08 1.08 0 0 0 0-2.031a1.085 1.085 0 0 0 .328.8.977.977 0 0 0 .75.375h1.969a9.3 9.3 0 0 0 2.578 5.25 9.053 9.053 0 0 0 5.25 2.531v1.966a1.042 1.042 0 0 0 1.078 1.078 1.183 1.183 0 0 0 .8-.281 1.021 1.021 0 0 0 .375-.8V6.922a9.053 9.053 0 0 0 5.25-2.531 9.053 9.053 0 0 0 2.531-5.25h1.969A1.1 1.1 0 0 0 24-1.937a1.085 1.085 0 0 0-.328-.8 1.021 1.021 0 0 0-.797-.372zM12 4.766A6.919 6.919 0 0 1 7.219 2.8 6.919 6.919 0 0 1 5.25-1.984a6.919 6.919 0 0 1 1.969-4.782A6.919 6.919 0 0 1 12-8.734a6.919 6.919 0 0 1 4.781 1.969 6.919 6.919 0 0 1 1.969 4.781A6.919 6.919 0 0 1 16.781 2.8 6.919 6.919 0 0 1 12 4.766z" transform="translate(0 14.031)" style="fill:#212529"/>
</svg>
