<svg xmlns="http://www.w3.org/2000/svg" width="23.999" height="24" viewBox="0 0 23.999 24">
    <g data-name="Layer 2">
        <path data-name="Path 116630" d="m24.294 10.938-1.219-1.217a1.591 1.591 0 0 1-.468-1.13V7.166a3.275 3.275 0 0 0-3.271-3.272h-1.425a1.609 1.609 0 0 1-1.129-.467l-1.218-1.219a3.275 3.275 0 0 0-4.626 0L9.721 3.427a1.613 1.613 0 0 1-1.13.468H7.164a3.275 3.275 0 0 0-3.271 3.272v1.424a1.591 1.591 0 0 1-.467 1.13l-1.218 1.217a3.275 3.275 0 0 0 0 4.626l1.219 1.217a1.591 1.591 0 0 1 .468 1.13v1.426a3.275 3.275 0 0 0 3.271 3.272h1.425a1.609 1.609 0 0 1 1.129.468l1.218 1.218a3.274 3.274 0 0 0 4.626 0l1.217-1.218a1.613 1.613 0 0 1 1.13-.468h1.427a3.275 3.275 0 0 0 3.271-3.272v-1.426a1.591 1.591 0 0 1 .468-1.13l1.218-1.217a3.275 3.275 0 0 0 0-4.626zm-7.1.67-4.466 4.466a.835.835 0 0 1-1.183 0L9.31 13.84a.837.837 0 0 1 1.183-1.183l1.642 1.643 3.874-3.873a.837.837 0 0 1 1.183 1.183z" transform="translate(-1.251 -1.251)" style="fill:#00920a"/>
    </g>
</svg>
