<svg xmlns="http://www.w3.org/2000/svg" width="14" height="14" viewBox="0 0 14 14">
    <path data-name="Path 116618" d="M7-10.5a7.167 7.167 0 0 1 3.5.93A7.234 7.234 0 0 1 13.07-7 7.088 7.088 0 0 1 14-3.5a7.088 7.088 0 0 1-.93 3.5 7.234 7.234 0 0 1-2.57 2.57A7.167 7.167 0 0 1 7 3.5a7.167 7.167 0 0 1-3.5-.93A7.234 7.234 0 0 1 .93 0 7.088 7.088 0 0 1 0-3.5 7.088 7.088 0 0 1 .93-7 7.234 7.234 0 0 1 3.5-9.57 7.167 7.167 0 0 1 7-10.5zm-.656 3.281V-3.5a.611.611 0 0 0 .3.547L9.27-1.2a.629.629 0 0 0 .9-.191.63.63 0 0 0-.191-.9L7.656-3.855v-3.364A.654.654 0 0 0 7-7.875a.654.654 0 0 0-.656.656z" transform="translate(0 10.5)" style="fill:#888"/>
</svg>
