<svg version="1.2" xmlns="http://www.w3.org/2000/svg" viewBox="0 0 40 40" width="40" height="40">
	<title>WorkIcon</title>
	<style>
		.s0 { fill: #fcf8b1 } 
		.s1 { fill: #ffe500 } 
	</style>
	<g id="Group 56809">
		<path id="Ellipse 3400" fill-rule="evenodd" class="s0" d="m20 40c-11.1 0-20-8.9-20-20 0-11.1 8.9-20 20-20 11.1 0 20 8.9 20 20 0 11.1-8.9 20-20 20z"/>
		<path id="Shape 1" class="s1" d="m12.8 22.5l6.6 6.3c0.3 0.2 0.7 0.4 1 0.4 0.4 0 0.8-0.2 1.1-0.4l6.6-6.3c1.1-1 1.8-2.5 1.8-4v-0.2c0-2.6-1.9-4.8-4.4-5.2-1.7-0.3-3.4 0.2-4.6 1.4l-0.5 0.5-0.4-0.5c-1.2-1.2-2.9-1.7-4.6-1.4-2.5 0.4-4.4 2.6-4.4 5.2v0.2c0 1.5 0.6 3 1.8 4z"/>
	</g>
</svg>