<svg xmlns="http://www.w3.org/2000/svg" width="40" height="40" viewBox="0 0 40 40">
    <g data-name="Group 57260">
        <g data-name="Ellipse 3412" style="fill:#f9e6ff;stroke:#fff">
            <circle cx="20" cy="20" r="20" style="stroke:none"/>
            <circle cx="20" cy="20" r="19.5" style="fill:none"/>
        </g>
        <path data-name="Path 118039" d="m21.63 38.7-.15.12.114.154a2.169 2.169 0 0 0 1.684 1.048 2.178 2.178 0 0 0 1.65-.954 3.687 3.687 0 0 0 2.372 1.538 3.728 3.728 0 0 0 2.4-1.574 2.513 2.513 0 0 0 1.944.9 1.883 1.883 0 0 0 1.382-.968l.088-.136-.114-.114a1.629 1.629 0 0 1-.4-2.184 4.022 4.022 0 0 0 .072-3.264c-.016-.044-.036-.086-.054-.13a3.678 3.678 0 0 1-2 2.054 5.61 5.61 0 0 1-.4.176v1.164c0 1.978-1.962 3.68-2.926 3.68s-2.912-1.7-2.912-3.68v-1.2c-.106-.044-.2-.092-.31-.142A3.753 3.753 0 0 1 22 33.12c-.052.132-.1.268-.148.4a4.64 4.64 0 0 0 .134 3.164c.274.858.44 1.378-.356 2.016z" transform="translate(-6.69 -16.496)" style="fill-rule:evenodd;fill:#ff00d5"/>
        <path data-name="Path 118040" d="M26.853 76.444a7.678 7.678 0 0 0-3.4-1.906 5.1 5.1 0 0 1-3.318 1.132 5.134 5.134 0 0 1-3.37-1.18 7.879 7.879 0 0 0-3.565 1.954 2.636 2.636 0 0 0-.664 2.246c0 .2.012.436.012.7v.2h14.957v-.2c0-.266 0-.5.012-.7a2.636 2.636 0 0 0-.664-2.246z" transform="translate(.469 -49.592)" style="fill-rule:evenodd;fill:#ff00d5"/>
        <path data-name="Path 118041" d="M21.264 5.633s.01.63.024.656C21.612 7.835 23.75 9 26.28 9s4.65-1.158 5.028-2.69c0 0 .016-.8.018-.812.1-.258.91-2 1.012-2.276A.2.2 0 0 0 32.27 3a1.3 1.3 0 0 1-.552-1.06.2.2 0 0 0-.2-.2A8.718 8.718 0 0 1 26.436.051a.2.2 0 0 0-.264 0 8.959 8.959 0 0 1-5.156 1.688.2.2 0 0 0-.2.2A1.3 1.3 0 0 1 20.268 3a.2.2 0 0 0-.068.23c.1.27.968 2.145 1.064 2.403zm.4.368v-.958c0-.152.18-.232.328-.27a17.146 17.146 0 0 1 4.3-.572 18.548 18.548 0 0 1 4.3.572 1.082 1.082 0 0 1 .248.086.252.252 0 0 1 .08.184V6z" transform="translate(-5.656 9.999)" style="fill-rule:evenodd;fill:#ff00d5"/>
        <path data-name="Rectangle 12020" transform="translate(19.616 14.8)" style="fill:#ff00d5" d="M0 0h.394v.4H0z"/>
        <path data-name="Rectangle 12021" transform="translate(20.014 15.2)" style="fill:#ff00d5" d="M0 0h.394v.4H0z"/>
        <path data-name="Rectangle 12022" transform="translate(20.414 14.8)" style="fill:#ff00d5" d="M0 0h.394v.4H0z"/>
        <path data-name="Rectangle 12023" transform="translate(20.816 15.2)" style="fill:#ff00d5" d="M0 0h.394v.4H0z"/>
        <path data-name="Rectangle 12024" transform="translate(21.216 14.8)" style="fill:#ff00d5" d="M0 0h.394v.4H0z"/>
    </g>
</svg>
