<svg xmlns="http://www.w3.org/2000/svg" width="40" height="40" viewBox="0 0 40 40">
    <g data-name="Group 56810" transform="translate(-16 -744)">
        <circle data-name="Ellipse 3401" cx="20" cy="20" r="20" transform="translate(16 744)" style="fill:#f5f5f5"/>
        <path data-name="Path 116623" d="M1.5-10.656v-1.594A.747.747 0 0 0 .75-13a.747.747 0 0 0-.75.75v3.5A.747.747 0 0 0 .75-8h3.5A.747.747 0 0 0 5-8.75a.747.747 0 0 0-.75-.75H2.531a6.471 6.471 0 0 1 2.313-2.187A6.639 6.639 0 0 1 8-12.5a6.455 6.455 0 0 1 4.594 1.906A6.455 6.455 0 0 1 14.5-6a6.455 6.455 0 0 1-1.906 4.594A6.455 6.455 0 0 1 8 .5 6.565 6.565 0 0 1 4.406-.562a.729.729 0 0 0-1.031.188.789.789 0 0 0 .219 1.062A8 8 0 0 0 8 2 7.939 7.939 0 0 0 12.031.906a7.925 7.925 0 0 0 2.875-2.875A7.939 7.939 0 0 0 16-6a7.939 7.939 0 0 0-1.094-4.031 7.925 7.925 0 0 0-2.875-2.875A7.939 7.939 0 0 0 8-14a8.239 8.239 0 0 0-3.719.906A8.046 8.046 0 0 0 1.5-10.656zM8-10a.747.747 0 0 0-.75.75V-6a.723.723 0 0 0 .219.531l2.25 2.25a.754.754 0 0 0 1.063 0 .754.754 0 0 0 0-1.062L8.75-6.312V-9.25A.747.747 0 0 0 8-10z" transform="translate(28 770)" style="fill:#9e9e9e"/>
    </g>
</svg>
