<svg xmlns="http://www.w3.org/2000/svg" width="16" height="13.143" viewBox="0 0 16 13.143">
    <path data-name="Path 42763" d="M15.143-.321H.821a.787.787 0 0 0-.571.25A.787.787 0 0 0 0 .5a.856.856 0 0 0 .821.893h14.322A.839.839 0 0 0 16 .571a.869.869 0 0 0-.857-.892zm0-11.429H.821a.787.787 0 0 0-.571.25.787.787 0 0 0-.25.571.827.827 0 0 0 .25.607.744.744 0 0 0 .571.286h14.322a.839.839 0 0 0 .857-.821.827.827 0 0 0-.25-.607.778.778 0 0 0-.607-.286zm0 5.714H.821A.839.839 0 0 0 0-5.179a.839.839 0 0 0 .821.857h14.322A.854.854 0 0 0 16-5.179a.854.854 0 0 0-.857-.857z" transform="translate(0 11.75)" style="fill:#212529"/>
</svg>
