<svg xmlns="http://www.w3.org/2000/svg" width="40" height="40" viewBox="0 0 40 40">
    <g data-name="Group 56808" transform="translate(-16 -632)">
        <circle data-name="Ellipse 3402" cx="20" cy="20" r="20" transform="translate(16 632)" style="fill:#eaf1ff"/>
        <path data-name="Path 92711" d="M9.25 1.75a1.776 1.776 0 0 1 1.1.382l1.877 1.48v-.754a.744.744 0 0 1 .744-.744h1.106a.744.744 0 0 1 .744.744v2.8l2.153 1.7.055.049a.727.727 0 0 1-.9 1.134l-.057-.041-.277-.219v6.549a2.181 2.181 0 0 1-2.182 2.179H4.886A2.181 2.181 0 0 1 2.7 14.826V8.277l-.271.223a.727.727 0 1 1-.9-1.141L8.15 2.132l.121-.088a1.777 1.777 0 0 1 .979-.294zm2.821 9.775a.744.744 0 0 0-.982-.174l-.063.044a2.888 2.888 0 0 1-1.775.587 2.925 2.925 0 0 1-1.6-.459l-.18-.129-.062-.044a.744.744 0 0 0-.909 1.17l.057.049.139.1a4.47 4.47 0 0 0 5.241-.1L12 12.52a.744.744 0 0 0 .07-.995z" style="fill:#37f" transform="translate(26.75 642.25)"/>
        <path data-name="Path 92712" d="M15.907 11.5v5.953a1.488 1.488 0 0 1-1.488 1.488H5.488A1.488 1.488 0 0 1 4 17.453V11.5" transform="translate(26.046 639.756)" style="fill:none"/>
    </g>
</svg>
