<svg xmlns="http://www.w3.org/2000/svg" width="17.148" height="20" viewBox="0 0 17.148 20">
    <path data-name="Path 118042" d="M53.247 3.12 45.3.019a.606.606 0 0 0-.453 0L36.9 3.12a.623.623 0 0 0-.4.59c.043 4.066.281 6.9 1.391 9.332 1.152 2.531 3.2 4.578 6.855 6.84a.621.621 0 0 0 .656 0c3.652-2.262 5.7-4.308 6.855-6.84 1.109-2.433 1.348-5.265 1.391-9.332a.623.623 0 0 0-.4-.59zm-8.4-.375-5.383 2.1a.626.626 0 0 0-.4.6 17.508 17.508 0 0 0 1.164 6.609 12.3 12.3 0 0 0 4.488 4.785.616.616 0 0 0 .355.109.624.624 0 0 0 .355-.109 12.284 12.284 0 0 0 4.492-4.785 17.662 17.662 0 0 0 1.164-6.609.618.618 0 0 0-.4-.6l-5.382-2.1a.606.606 0 0 0-.453 0zm.227 15.866c-6.461-4.086-7.218-7.324-7.32-14.484l7.32-2.855 7.32 2.855c-.104 7.161-.861 10.399-7.322 14.485z" transform="translate(-36.498 .025)" style="fill:#1f9c00"/>
</svg>
