<svg xmlns="http://www.w3.org/2000/svg" width="32" height="32" viewBox="0 0 32 32">
    <g data-name="Group 57259" transform="translate(-328 -520)">
        <circle data-name="Ellipse 3411" cx="16" cy="16" r="16" transform="translate(328 520)" style="fill:#e6efff"/>
        <path data-name="Path 118038" d="M3-4a.973.973 0 0 0-.719.281A.973.973 0 0 0 2-3a.973.973 0 0 0 .281.719A.973.973 0 0 0 3-2a.973.973 0 0 0 .719-.281A.973.973 0 0 0 4-3a.973.973 0 0 0-.281-.719A.973.973 0 0 0 3-4zm2.844 0H15a.973.973 0 0 1 .719.281A.973.973 0 0 1 16-3a.973.973 0 0 1-.281.719A.973.973 0 0 1 15-2H5.844A3.247 3.247 0 0 1 4.75-.562 3.125 3.125 0 0 1 3 0 2.99 2.99 0 0 1 .875-.875 2.99 2.99 0 0 1 0-3a2.99 2.99 0 0 1 .875-2.125A2.99 2.99 0 0 1 3-6a3.125 3.125 0 0 1 1.75.563A3.247 3.247 0 0 1 5.844-4zM12-9a.973.973 0 0 0 .281.719A.973.973 0 0 0 13-8a.973.973 0 0 0 .719-.281A.973.973 0 0 0 14-9a.973.973 0 0 0-.281-.719A.973.973 0 0 0 13-10a.973.973 0 0 0-.719.281A.973.973 0 0 0 12-9zm-1.812-1a3.039 3.039 0 0 1 1.063-1.437A3.125 3.125 0 0 1 13-12a2.99 2.99 0 0 1 2.125.875A2.99 2.99 0 0 1 16-9a2.99 2.99 0 0 1-.875 2.125A2.99 2.99 0 0 1 13-6a3.125 3.125 0 0 1-1.75-.562A3.039 3.039 0 0 1 10.188-8H1a.973.973 0 0 1-.719-.281A.973.973 0 0 1 0-9a.973.973 0 0 1 .281-.719A.973.973 0 0 1 1-10z" transform="translate(336 542)" style="fill:#003988"/>
    </g>
</svg>
