<svg xmlns="http://www.w3.org/2000/svg" width="14" height="14" viewBox="0 0 14 14">
    <path data-name="Path 116619" d="M8.5 1.5a7 7 0 1 0 7 7 7 7 0 0 0-7-7zm1.4 4.948h.335a.467.467 0 1 1 0 .933h-.222a2.214 2.214 0 0 1-2.2 2h-.149l1.776 1.874a.467.467 0 1 1-.677.642l-2.524-2.66a.467.467 0 0 1 .338-.788h1.235a1.277 1.277 0 0 0 1.257-1.067H6.6a.467.467 0 1 1 0-.933h2.266a1.276 1.276 0 0 0-1.052-.555H6.58a.467.467 0 1 1 0-.933h3.657a.467.467 0 1 1 0 .933h-.62a2.207 2.207 0 0 1 .284.553z" transform="translate(-1.5 -1.5)" style="fill:#888"/>
</svg>
