<svg xmlns="http://www.w3.org/2000/svg" width="14" height="14" viewBox="0 0 14 14">
    <g data-name="route-03-solid-standard (1)">
        <path data-name="Path 116615" d="M16.343 1.25a3.106 3.106 0 0 0-3.093 3.119 3.3 3.3 0 0 0 .942 2.231c.22.251.463.49.691.713l.085.083a8.9 8.9 0 0 1 .7.743.889.889 0 0 0 1.362.014c.209-.25.449-.491.709-.748l.029-.028c.246-.244.509-.5.746-.782a3.357 3.357 0 0 0 .927-2.222 3.106 3.106 0 0 0-3.098-3.123zm0 1.953a1.14 1.14 0 0 0 0 2.279h.006a1.14 1.14 0 0 0 0-2.279z" transform="translate(-5.436 -1.25)" style="fill:#888;fill-rule:evenodd"/>
        <path data-name="Path 116616" d="M1.25 17.692a2.442 2.442 0 1 1 2.442 2.442 2.442 2.442 0 0 1-2.442-2.442z" transform="translate(-1.25 -6.134)" style="fill:#888;fill-rule:evenodd"/>
        <path data-name="Path 116617" d="M5 8.6A2.782 2.782 0 0 1 7.93 6h.977a.651.651 0 1 1 0 1.3H7.93A1.492 1.492 0 0 0 6.3 8.6a1.492 1.492 0 0 0 1.628 1.3h1.956a2.782 2.782 0 0 1 2.93 2.6 2.782 2.782 0 0 1-2.93 2.6h-.977a.651.651 0 1 1 0-1.3h.977a1.492 1.492 0 0 0 1.628-1.3 1.492 1.492 0 0 0-1.628-1.3H7.93A2.782 2.782 0 0 1 5 8.6z" transform="translate(-2.558 -2.907)" style="fill:#888;fill-rule:evenodd"/>
    </g>
</svg>
