<svg xmlns="http://www.w3.org/2000/svg" width="48" height="48" viewBox="0 0 48 48">
    <g data-name="Group 40501">
        <g data-name="Ellipse 3204" style="fill:#4b48ab;stroke:#fff">
            <circle cx="24" cy="24" r="24" style="stroke:none"/>
            <circle cx="24" cy="24" r="23.5" style="fill:none"/>
        </g>
        <path data-name="Path 89328" d="M15.694 1.628a1.255 1.255 0 0 0-.626.793 1.256 1.256 0 0 0 .125 1.043l4.007 6.929a1.255 1.255 0 0 0 .793.626 1.508 1.508 0 0 0 1.043-.125l2.3-1.336a1.264 1.264 0 0 0 .626-.835 1.413 1.413 0 0 0-.125-1L19.826.793a1.264 1.264 0 0 0-.835-.626 1.413 1.413 0 0 0-1 .125zM.5 14.316a.966.966 0 0 0-.376 1.336L1.21 17.53a1.021 1.021 0 0 0 1.377.376l1.837-1.043.042.042a1.468 1.468 0 0 0 .793.626 1.413 1.413 0 0 0 1-.125l3.673-1.962L8.1 19.951a.992.992 0 0 0 1.837.751l2.755-6.72 2.755 6.72a.992.992 0 0 0 1.837-.751l-2.838-6.929 3.631-1.962h-.042l-4.011-6.928-.083-.25-11.353 7.262a1.27 1.27 0 0 0-.543.835 1.287 1.287 0 0 0 .125.96l.167.292z" transform="translate(12 12.875)" style="fill:#fff"/>
    </g>
</svg>
