<svg xmlns="http://www.w3.org/2000/svg" width="40" height="40" viewBox="0 0 40 40">
    <g data-name="Group 56809" transform="translate(-16 -688)">
        <circle data-name="Ellipse 3400" cx="20" cy="20" r="20" transform="translate(16 688)" style="fill:#e6f7e5"/>
        <path d="M7.39 2.25a1.674 1.674 0 0 0-1.675 1.674v1.3H4.041A2.791 2.791 0 0 0 1.25 8.017v5.953a2.791 2.791 0 0 0 2.791 2.791h10.418a2.791 2.791 0 0 0 2.791-2.791V8.017a2.791 2.791 0 0 0-2.791-2.791h-1.674v-1.3A1.674 1.674 0 0 0 11.11 2.25zm4.279 2.977v-1.3a.558.558 0 0 0-.558-.558H7.39a.558.558 0 0 0-.558.558v1.3zM4.252 8.6a.558.558 0 0 1 .7-.368l.485.15a13.076 13.076 0 0 0 7.629 0l.485-.15a.558.558 0 0 1 .33 1.066l-.485.15a13.975 13.975 0 0 1-3.587.608v.941a.558.558 0 1 1-1.116 0v-.941a13.976 13.976 0 0 1-3.587-.608l-.485-.15a.558.558 0 0 1-.369-.698z" transform="translate(26.75 698.75)" style="fill:#0cb400;fill-rule:evenodd"/>
    </g>
</svg>
