<svg xmlns="http://www.w3.org/2000/svg" width="32" height="32" viewBox="0 0 32 32">
  <g id="Group_43781" data-name="Group 43781" transform="translate(-24 -672)">
    <rect id="Rectangle_10245" data-name="Rectangle 10245" width="32" height="32" rx="8" transform="translate(24 672)" fill="#616161"/>
    <path id="Path_94516" data-name="Path 94516" d="M0,2A8.19,8.19,0,0,0,4,.938,8.267,8.267,0,0,0,6.938-2,8.1,8.1,0,0,0,8-6a8.1,8.1,0,0,0-1.062-4A8.267,8.267,0,0,0,4-12.937,8.19,8.19,0,0,0,0-14a8.19,8.19,0,0,0-4,1.063A8.267,8.267,0,0,0-6.937-10,8.1,8.1,0,0,0-8-6,8.1,8.1,0,0,0-6.937-2,8.267,8.267,0,0,0-4,.938,8.19,8.19,0,0,0,0,2ZM-1.25-3.5H-.5v-2h-.75A.747.747,0,0,1-2-6.25.747.747,0,0,1-1.25-7H.25A.747.747,0,0,1,1-6.25V-3.5h.25A.747.747,0,0,1,2-2.75.747.747,0,0,1,1.25-2h-2.5A.747.747,0,0,1-2-2.75.747.747,0,0,1-1.25-3.5ZM0-10a.973.973,0,0,1,.719.281A.973.973,0,0,1,1-9a.973.973,0,0,1-.281.719A.973.973,0,0,1,0-8a.973.973,0,0,1-.719-.281A.973.973,0,0,1-1-9a.973.973,0,0,1,.281-.719A.973.973,0,0,1,0-10Z" transform="translate(40 694)" fill="#fff"/>
  </g>
</svg>
