<svg xmlns="http://www.w3.org/2000/svg" width="45.394" height="32" viewBox="0 0 45.394 32">
  <g id="Group_25767" data-name="Group 25767" transform="translate(-93.735 -48.564)">
    <g id="Group_26122" data-name="Group 26122" transform="translate(93.735 48.564)">
      <rect id="Rectangle_7094" data-name="Rectangle 7094" width="0.795" height="0.885" transform="translate(43.098 20.15)" fill="#e39355"/>
      <path id="Path_41957" data-name="Path 41957" d="M262.656,111.517l-2.607.475a.343.343,0,0,1-.4-.276l-.006-.034a.343.343,0,0,1,.276-.4l2.607-.476Z" transform="translate(-228.133 -98.075)" fill="#1b1c20"/>
      <path id="Path_41958" data-name="Path 41958" d="M289.3,157.778a4.356,4.356,0,1,0,4.356,4.356A4.356,4.356,0,0,0,289.3,157.778Zm0,6.565a2.209,2.209,0,1,1,2.209-2.209A2.209,2.209,0,0,1,289.3,164.343Z" transform="translate(-248.265 -135.439)" fill="#1b1c20"/>
      <path id="Path_41960" data-name="Path 41960" d="M304.723,175.254a2.613,2.613,0,1,1-2.49-2.73A2.613,2.613,0,0,1,304.723,175.254Z" transform="translate(-261.099 -148.425)" fill="#efefef"/>
      <path id="Path_41961" data-name="Path 41961" d="M298.742,166.766l-.075.044a.274.274,0,0,1-.375-.1l-1.723-2.93.547-.322,1.723,2.93A.274.274,0,0,1,298.742,166.766Z" transform="translate(-257.509 -139.959)" fill="#4f4f4f"/>
      <rect id="Rectangle_7100" data-name="Rectangle 7100" width="0.943" height="11.868" transform="translate(33.63 14.898) rotate(-30.464)" fill="#4f4f4f"/>
      <path id="Path_41962" data-name="Path 41962" d="M281.8,144.36c-3.231,0-3.915,3.969-3.915,6.415l.038.039h1.212a.819.819,0,0,0,.81-.662,3.282,3.282,0,0,1,3.433-2.652h4.435v-.479C287.292,146.111,285.467,144.36,281.8,144.36Z" transform="translate(-242.644 -124.765)" fill="#d6d6d6"/>
      <path id="Path_41963" data-name="Path 41963" d="M279.564,160.149c-.074.405-.437.554-.848.554h-.828c0,.14-.006.28-.007.422l.038.039h1.212a.819.819,0,0,0,.81-.662,3.282,3.282,0,0,1,3.433-2.652h4.435v-.479h-4.647A3.439,3.439,0,0,0,279.564,160.149Z" transform="translate(-242.644 -135.114)" fill="#fff"/>
      <rect id="Rectangle_7101" data-name="Rectangle 7101" width="1.906" height="2.555" transform="translate(37.776 14.315)" fill="#d1d1d1"/>
      <path id="Path_41964" data-name="Path 41964" d="M299.746,120.7h.154a.372.372,0,0,0,.372-.372v-2.091a.372.372,0,0,0-.372-.372h-.154a.135.135,0,0,0-.135.135v2.565A.135.135,0,0,0,299.746,120.7Z" transform="translate(-259.929 -103.687)" fill="#1b1c20"/>
      <path id="Path_41965" data-name="Path 41965" d="M207.913,62.275h-.4a.659.659,0,0,1-.617-.42l-1.331-3.37.372-.147,1.331,3.37a.262.262,0,0,0,.245.167h.4Z" transform="translate(-185.117 -56.34)" fill="#edeeef"/>
      <path id="Path_41966" data-name="Path 41966" d="M122.257,130.657H108.989v-1.983h13.268a.779.779,0,0,1,.779.78v.425A.779.779,0,0,1,122.257,130.657Z" transform="translate(-108.298 -112.288)" fill="#1b1c20"/>
      <rect id="Rectangle_7104" data-name="Rectangle 7104" width="5.44" height="6.026" transform="translate(23.132 19.111)" fill="#4f4f4f"/>
      <rect id="Rectangle_7105" data-name="Rectangle 7105" width="5.44" height="0.437" transform="translate(23.132 20.481)" fill="#1b1c20"/>
      <path id="Path_41972" data-name="Path 41972" d="M214.722,114.2l-.694-5.065a.629.629,0,0,0-.623-.543h-.369a.677.677,0,0,0-.671.769l.94,6.855h6.482a.353.353,0,0,0,.353-.353V115a.283.283,0,0,0-.283-.284h-4.546A.6.6,0,0,1,214.722,114.2Z" transform="translate(-190.524 -96.316)" fill="#1b1c20"/>
      <rect id="Rectangle_7107" data-name="Rectangle 7107" width="0.671" height="22.094" transform="translate(22.796 2.159)" fill="#edeeef"/>
      <path id="Path_41973" data-name="Path 41973" d="M147.363,113.275a1.174,1.174,0,0,0-.813-.294h-7.125v.434h5.917v.745h-3.168v.328h3.168v.619h-1.316v.434h1.316v1.288h.431v-1.288h1.473a.506.506,0,0,0,.506-.506v-.7A1.378,1.378,0,0,0,147.363,113.275Zm-1.591.14h.8a.735.735,0,0,1,.5.179.86.86,0,0,1,.24.567h-1.536Zm1.473,1.693h-1.473v-.619h1.545v.547A.072.072,0,0,1,147.245,115.107Z" transform="translate(-132.507 -99.804)" fill="#edeeef"/>
      <path id="Path_41974" data-name="Path 41974" d="M131.429,51.167H121.184a1.34,1.34,0,0,0-1.34,1.34v9.979H108.989V52.428A3.864,3.864,0,0,1,113,48.567l18.651.688a1.357,1.357,0,0,1,.235.029L142.517,51.4a.257.257,0,0,1,.207.252v.1h-2.538Z" transform="translate(-108.298 -48.564)" fill="#303030"/>
      <path id="Path_41975" data-name="Path 41975" d="M147.312,74.2H144.75a.884.884,0,0,1-.848-.637L141.435,65.1a.349.349,0,0,1,.335-.447h.04l-.267-.463h-1.356L141.905,75.1a4.612,4.612,0,0,1,0,1.459l-1.038,6.387a2.727,2.727,0,0,1-2.691,2.289h-4.195a1.459,1.459,0,0,1-1.459-1.459V79.1a.341.341,0,0,0-.341-.341h-1.5a.341.341,0,0,0-.341.341v4.674a1.459,1.459,0,0,1-1.459,1.459h-2.959a2.727,2.727,0,0,1-2.655-2.108l-.982-4.218a3.44,3.44,0,0,0-.267-.745l-1.37-2.771a.853.853,0,0,0-.765-.475H108.989v9.114a3.346,3.346,0,0,0,.766,2.131l.406.492a1.277,1.277,0,0,0,.985.464h30.859a2.924,2.924,0,0,0,2.739-1.9l2.815-7.531A4.206,4.206,0,0,0,147.312,74.2Z" transform="translate(-108.298 -60.991)" fill="#ebebeb"/>
      <circle id="Ellipse_2579" data-name="Ellipse 2579" cx="4.356" cy="4.356" r="4.356" transform="translate(3.672 30.029) rotate(-76.96)" fill="#1b1c20"/>
      <circle id="Ellipse_2580" data-name="Ellipse 2580" cx="2.638" cy="2.638" r="2.638" transform="translate(6.261 24.131)" fill="#efefef"/>
      <path id="Path_41977" data-name="Path 41977" d="M126.553,148.431a5.613,5.613,0,0,0-5.8,5.656l.038.039h1.478a.819.819,0,0,0,.81-.661,3.6,3.6,0,0,1,6.949,0,.819.819,0,0,0,.81.661h1.517A5.614,5.614,0,0,0,126.553,148.431Z" transform="translate(-117.655 -128.004)" fill="#a1a1a1"/>
      <path id="Path_41979" data-name="Path 41979" d="M106.607,157.21h-.446a.552.552,0,0,1-.552-.552v-1.294a.552.552,0,0,1,.552-.552h.446Z" transform="translate(-105.609 -133.079)" fill="#edeeef"/>
      <path id="Path_41980" data-name="Path 41980" d="M269.89,76h2.763l0,0-5.5-9.544h-.241a.349.349,0,0,0-.335.447l2.467,8.464A.884.884,0,0,0,269.89,76Z" transform="translate(-233.638 -62.791)" fill="#404040"/>
      <path id="Path_41981" data-name="Path 41981" d="M275.271,115.393h-5.692l.069.435c0,.023.006.047.01.07h5.779A4.156,4.156,0,0,0,275.271,115.393Z" transform="translate(-236.04 -101.723)" fill="#1b1c20"/>
      <path id="Path_41982" data-name="Path 41982" d="M150.733,116.124H150.7a.38.38,0,0,1-.38-.38v-1.7h.8v1.7A.38.38,0,0,1,150.733,116.124Z" transform="translate(-141.172 -100.65)" fill="#303030"/>
      <path id="Path_41983" data-name="Path 41983" d="M117.671,116.124h-.036a.38.38,0,0,1-.38-.38v-1.7h.8v1.7A.38.38,0,0,1,117.671,116.124Z" transform="translate(-114.873 -100.65)" fill="#303030"/>
      <rect id="Rectangle_7111" data-name="Rectangle 7111" width="2.086" height="0.784" rx="0.392" transform="translate(34.683 16.381)" fill="#f26914"/>
      <path id="Path_41985" data-name="Path 41985" d="M315.351,141.752l-.963-.11a.714.714,0,0,1-.633-.709v-.167a.713.713,0,0,1,.633-.709l.963-.11Z" transform="translate(-271.18 -121.255)" fill="#ffb073"/>
      <path id="Path_41986" data-name="Path 41986" d="M321.571,141.517h.107a.259.259,0,0,0,.259-.259v-1.451a.259.259,0,0,0-.259-.259h-.107a.094.094,0,0,0-.094.094v1.78A.094.094,0,0,0,321.571,141.517Z" transform="translate(-277.322 -120.938)" fill="#1b1c20"/>
    </g>
    <ellipse id="Ellipse_2581" data-name="Ellipse 2581" cx="22.697" cy="0.897" rx="22.697" ry="0.897" transform="translate(93.735 78.769)" opacity="0.1"/>
  </g>
</svg>
