<svg xmlns="http://www.w3.org/2000/svg" width="17.504" height="20" viewBox="0 0 17.504 20">
    <path data-name="Path 14625" d="M10 4.75v-.742a6.087 6.087 0 0 0 3.555-2.148A6.181 6.181 0 0 0 15-2.125v-.742a7.387 7.387 0 0 1 1.914-4.961l.273-.352a1.184 1.184 0 0 0 .2-1.328 1.258 1.258 0 0 0-1.133-.742h-15a1.258 1.258 0 0 0-1.133.742 1.184 1.184 0 0 0 .2 1.328l.313.352A7.48 7.48 0 0 1 2.5-2.867v.742a6.293 6.293 0 0 0 1.407 3.984A6.266 6.266 0 0 0 7.5 4.008v.742a1.25 1.25 0 1 0 2.5 0zM8.75-14a2.4 2.4 0 0 0-1.758.742A2.4 2.4 0 0 0 6.25-11.5h5a2.4 2.4 0 0 0-.742-1.758A2.4 2.4 0 0 0 8.75-14z" transform="rotate(180 8.751 3)" style="fill:#fff"/>
</svg>
