<svg xmlns="http://www.w3.org/2000/svg" width="16" height="14" viewBox="0 0 16 14">
    <path data-name="Path 43846" d="M6-11H3.75l-.25-.719a2.346 2.346 0 0 0-.75-.937A1.94 1.94 0 0 0 1.625-13h-3.25a1.94 1.94 0 0 0-1.125.344 1.906 1.906 0 0 0-.719.938L-3.75-11H-6a2.02 2.02 0 0 0-1.406.594A2.02 2.02 0 0 0-8-9v8A2.02 2.02 0 0 0-7.406.406 2.02 2.02 0 0 0-6 1H6A2.02 2.02 0 0 0 7.406.406 2.02 2.02 0 0 0 8-1v-8a2.02 2.02 0 0 0-.594-1.406A2.02 2.02 0 0 0 6-11zm.5 10a.481.481 0 0 1-.5.5H-6a.481.481 0 0 1-.5-.5v-8a.481.481 0 0 1 .5-.5h3.281l.625-1.687a.575.575 0 0 1 .469-.312h3.25a.575.575 0 0 1 .469.313L2.719-9.5H6a.481.481 0 0 1 .5.5zM0-8.5a3.394 3.394 0 0 0-2.469 1.031A3.394 3.394 0 0 0-3.5-5a3.394 3.394 0 0 0 1.031 2.469A3.394 3.394 0 0 0 0-1.5a3.394 3.394 0 0 0 2.469-1.031A3.394 3.394 0 0 0 3.5-5a3.394 3.394 0 0 0-1.031-2.469A3.394 3.394 0 0 0 0-8.5zM0-3a2.02 2.02 0 0 1-1.406-.594A2.02 2.02 0 0 1-2-5a2.02 2.02 0 0 1 .594-1.406A2.02 2.02 0 0 1 0-7a2.02 2.02 0 0 1 1.406.594A2.02 2.02 0 0 1 2-5a2.02 2.02 0 0 1-.594 1.406A2.02 2.02 0 0 1 0-3z" transform="translate(8 13)" style="fill:#7d5fff"/>
</svg>
