<?xml version="1.0" encoding="UTF-8"?>
<svg id="Layer_2" data-name="Layer 2" xmlns="http://www.w3.org/2000/svg" viewBox="0 0 538.54 113.59">
  <defs>
    <style>
      .cls-1 {
        fill: #000;
      }

      .cls-1, .cls-2, .cls-3, .cls-4 {
        stroke-width: 0px;
      }

      .cls-2 {
        fill: #820000;
      }

      .cls-3 {
        fill: #ba141a;
      }

      .cls-4 {
        fill: #ed1c24;
      }
    </style>
  </defs>
  <g id="Layer_1-2" data-name="Layer 1">
    <g>
      <path class="cls-3" d="M516.1,57.05l-.02.04-.07,14.04,22.53-12.9L442.31,1.95l-.11,28.58,14.42-8.27,59.49,34.79Z"/>
      <path class="cls-4" d="M516.01,71.13l.07-14.04-74.23,42.42-.1,14.08,74.25-42.46Z"/>
      <path class="cls-4" d="M458.25,35.21l-.12-.07-16.04,9.2-.03,13.79,16.12-9.26.07-13.67Z"/>
      <path class="cls-3" d="M458.25,35.21l-.07,13.67,11.84-6.78-11.77-6.88Z"/>
      <path class="cls-3" d="M481.95,49.07l-.09.06-.1,13.81,12.07-6.91-11.89-6.95Z"/>
      <path class="cls-4" d="M481.77,62.93l.1-13.81-39.9,22.82-.07,13.77,39.88-22.78Z"/>
    </g>
    <g>
      <path class="cls-2" d="M516.1,57.05l-.02.04-.07,14.04,22.53-12.9L442.31,1.95l-.11,28.58,14.42-8.27,59.49,34.79Z"/>
      <path class="cls-4" d="M516.01,71.13l.07-14.04-74.23,42.42-.1,14.08,74.25-42.46Z"/>
      <path class="cls-4" d="M458.25,35.21l-.12-.07-16.04,9.2-.03,13.79,16.12-9.26.07-13.67Z"/>
      <path class="cls-2" d="M458.25,35.21l-.07,13.67,11.84-6.78-11.77-6.88Z"/>
      <path class="cls-2" d="M481.95,49.07l-.09.06-.1,13.81,12.07-6.91-11.89-6.95Z"/>
      <path class="cls-4" d="M481.77,62.93l.1-13.81-39.9,22.82-.07,13.77,39.88-22.78Z"/>
    </g>
    <g>
      <path class="cls-1" d="M386.7,0h-16.9v52.8h60.5v-14.1h-43.6V0Z"/>
      <path class="cls-1" d="M318.7,36.8h26.6v16h16.9V5.2c-.7-2.9-2.5-4.6-5.3-5.2h-50c-2.8.7-4.5,2.4-5.1,5.2v47.6h16.9v-16ZM345.3,22.7h-26.6v-8.6h26.6v8.6Z"/>
      <path class="cls-1" d="M430.3,94.2v-14.1h-43.6v-5.3h43.6v-14.1h-60.5v52.8h60.5v-14.1h-43.6v-5.2h43.6Z"/>
      <path class="cls-1" d="M362.1,74.7l.2-14h-60.4v14.1h35.8l-35.7,24.7-.1,14h60.4v-14.1h-35.8l35.6-24.7Z"/>
      <path class="cls-1" d="M187.7,14.2v38.6h16.9V14.2h21.8V0h-60.5v14.2h21.8Z"/>
      <path class="cls-1" d="M158.5,35.6V4.7c-.9-2.6-2.7-4.2-5.2-4.7h-55.3v52.8h17V14.2h26.7v11.9h-21v5.8l17.2,20.9h20.6l-10.2-12.3c5.3.8,8.7-.8,10.2-4.9Z"/>
      <path class="cls-1" d="M233.8,0v47.5c.6,2.8,2.3,4.6,5.2,5.3h49.9c2.9-.6,4.7-2.4,5.4-5.3V0h-17v38.7h-26.6V0h-16.9Z"/>
      <path class="cls-1" d="M66.4,0h-17.1v35.9L20.7,0H0l42.9,53.2h23.5V0Z"/>
      <path class="cls-1" d="M73.7,0v52.8h16.9V0h-16.9Z"/>
      <path class="cls-1" d="M294.2,65.9c-.8-2.9-2.5-4.7-5.3-5.3h-50c-2.8.7-4.6,2.5-5.2,5.3v47.5h16.9v-15.9h26.7v15.9h16.9v-47.5ZM250.6,74.7h26.7v8.6h-26.7v-8.6Z"/>
      <path class="cls-1" d="M201.6,74.8h7.5v38.7h17v-52.8h-60.7c-2.7.6-4.5,2.4-5.2,5.2v47.6h16.9v-38.7h7.6v38.7h16.9v-38.7Z"/>
    </g>
  </g>
</svg>