<svg xmlns="http://www.w3.org/2000/svg" width="24" height="24" viewBox="0 0 24 24">
  <path id="Path_94402" data-name="Path 94402" d="M12-17.5a1.46,1.46,0,0,1,1.078.422A1.46,1.46,0,0,1,13.5-16v1.641a9.131,9.131,0,0,1,4.875,2.484A9.131,9.131,0,0,1,20.859-7H22.5a1.46,1.46,0,0,1,1.078.422A1.46,1.46,0,0,1,24-5.5a1.46,1.46,0,0,1-.422,1.078A1.46,1.46,0,0,1,22.5-4H20.859A9.131,9.131,0,0,1,18.375.875,9.131,9.131,0,0,1,13.5,3.359V5a1.5,1.5,0,1,1-3,0V3.359A9.131,9.131,0,0,1,5.625.875,9.131,9.131,0,0,1,3.141-4H1.5A1.46,1.46,0,0,1,.422-4.422,1.46,1.46,0,0,1,0-5.5,1.46,1.46,0,0,1,.422-6.578,1.46,1.46,0,0,1,1.5-7H3.141a9.131,9.131,0,0,1,2.484-4.875A9.131,9.131,0,0,1,10.5-14.359V-16a1.46,1.46,0,0,1,.422-1.078A1.46,1.46,0,0,1,12-17.5ZM6-5.5a5.824,5.824,0,0,0,.8,3A6.2,6.2,0,0,0,9-.3a5.989,5.989,0,0,0,3,.8,5.989,5.989,0,0,0,3-.8,6.2,6.2,0,0,0,2.2-2.2,5.824,5.824,0,0,0,.8-3,5.824,5.824,0,0,0-.8-3A6.2,6.2,0,0,0,15-10.7a5.989,5.989,0,0,0-3-.8,5.989,5.989,0,0,0-3,.8A6.2,6.2,0,0,0,6.8-8.5,5.824,5.824,0,0,0,6-5.5Zm6-3.75a3.689,3.689,0,0,1,3.234,1.875,3.667,3.667,0,0,1,0,3.75A3.689,3.689,0,0,1,12-1.75,3.689,3.689,0,0,1,8.766-3.625a3.667,3.667,0,0,1,0-3.75A3.689,3.689,0,0,1,12-9.25Z" transform="translate(0 17.5)" fill="#019aff"/>
</svg>
