<svg xmlns="http://www.w3.org/2000/svg" width="14" height="16" viewBox="0 0 14 16">
  <path id="Path_1320" data-name="Path 1320" d="M3-10a4.035,4.035,0,0,1,1.156-2.844A4.035,4.035,0,0,1,7-14a4.035,4.035,0,0,1,2.844,1.156A4.035,4.035,0,0,1,11-10v.313a4.085,4.085,0,0,0,1.188,2.875l.094.094a.688.688,0,0,1,.219.5.72.72,0,0,1-.719.719H2.219a.734.734,0,0,1-.75-.719.823.823,0,0,1,.25-.5l.125-.094A4.028,4.028,0,0,0,2.969-9.687Zm6.281-1H9.25a1.924,1.924,0,0,1-1.562-.781A2.506,2.506,0,0,1,5.5-10.5H4.563A2.055,2.055,0,0,0,4.5-10v.5a2.594,2.594,0,0,0,.719,1.781A2.594,2.594,0,0,0,7-7a2.594,2.594,0,0,0,1.781-.719A2.594,2.594,0,0,0,9.5-9.5V-10A2.336,2.336,0,0,0,9.281-11ZM8.969-4a5.122,5.122,0,0,1,3.563,1.469A5.122,5.122,0,0,1,14,1.031a.935.935,0,0,1-.281.688A.935.935,0,0,1,13.031,2H.969a.935.935,0,0,1-.687-.281A.935.935,0,0,1,0,1.031,5.122,5.122,0,0,1,1.469-2.531,5.122,5.122,0,0,1,5.031-4Z" transform="translate(0 14)" fill="#212121"/>
</svg>
