<svg xmlns="http://www.w3.org/2000/svg" width="20" height="20" viewBox="0 0 20 20">
  <path id="Path_94410" data-name="Path 94410" d="M9.813-5.25H4.188a.934.934,0,0,1-.937-.937v-5.625a.925.925,0,0,1,.586-.859.885.885,0,0,1,1.016.2l1.563,1.563,2.852-2.852A.75.75,0,0,1,9.813-14a.75.75,0,0,1,.547.234l1.406,1.406a.75.75,0,0,1,.234.547.75.75,0,0,1-.234.547L8.914-8.414l1.563,1.563a.885.885,0,0,1,.2,1.016A.925.925,0,0,1,9.813-5.25Zm0,2.5a.925.925,0,0,1,.859.586.885.885,0,0,1-.2,1.016L8.914.414l2.852,2.852a.755.755,0,0,1,0,1.094L10.359,5.8a.828.828,0,0,1-.547.2.75.75,0,0,1-.547-.234L6.414,2.914,4.852,4.477a.885.885,0,0,1-1.016.2.925.925,0,0,1-.586-.859V-1.812a.934.934,0,0,1,.938-.937Zm-10,0a.934.934,0,0,1,.938.938V3.813a.925.925,0,0,1-.586.859.885.885,0,0,1-1.016-.2L-2.414,2.914-5.266,5.766A.75.75,0,0,1-5.812,6a.75.75,0,0,1-.547-.234L-7.766,4.359A.75.75,0,0,1-8,3.813a.75.75,0,0,1,.234-.547L-4.914.414-6.477-1.148a.885.885,0,0,1-.2-1.016.925.925,0,0,1,.859-.586Zm-5.625-2.5a.925.925,0,0,1-.859-.586.885.885,0,0,1,.2-1.016l1.563-1.562-2.852-2.852A.75.75,0,0,1-8-11.812a.75.75,0,0,1,.234-.547l1.406-1.406A.75.75,0,0,1-5.812-14a.75.75,0,0,1,.547.234l2.852,2.852,1.563-1.562a.885.885,0,0,1,1.016-.2.925.925,0,0,1,.586.859v5.625a.934.934,0,0,1-.937.938Z" transform="translate(8 14)" fill="#5aac62"/>
</svg>
