<svg id="Group_528" data-name="Group 528" xmlns="http://www.w3.org/2000/svg" width="71.291" height="32" viewBox="0 0 71.291 32">
  <g id="Group_25764" data-name="Group 25764" transform="translate(0 0)">
    <ellipse id="Ellipse_2519" data-name="Ellipse 2519" cx="35.646" cy="1" rx="35.646" ry="1" transform="translate(0 30)" opacity="0.1"/>
    <path id="Path_39153" data-name="Path 39153" d="M70.276,24.022a1.575,1.575,0,0,1-1.449,1.284c-1.284.132-8.528.1-11.425.1H9A42.949,42.949,0,0,1,1.028,23.3a3.723,3.723,0,0,1-.922-2.338,16.594,16.594,0,0,1,0-3.762c.115-.593.609-.691.708-1.7S.707,10.48,2.181,7.986s4.832-6,5.375-6.125A93.243,93.243,0,0,1,26.893.009C36.92.157,40.3,1.022,44.4,2.775S56.158,9.591,56.6,9.888s8.1,2.34,10.2,3.664,3.342,4.09,3.474,4.14a3.124,3.124,0,0,1,1,1.062,13.68,13.68,0,0,1-1,5.268" transform="translate(-0.001 -0.001)" fill="#efefef"/>
    <path id="Path_39154" data-name="Path 39154" d="M91.73,29.987c-.018.383.619.724,1.423.762s1.47-.241,1.488-.624-.618-.724-1.422-.762-1.47.242-1.488.625" transform="translate(-59.596 -17.758)" fill="#efefef"/>
    <path id="Path_39155" data-name="Path 39155" d="M90.524,30.472c-.009.2.848.395,1.916.445s1.94-.067,1.949-.262-.848-.395-1.915-.445-1.941.067-1.949.262" transform="translate(-58.866 -18.266)" fill="#fff"/>
    <path id="Path_39156" data-name="Path 39156" d="M141.73,27.879c-.018.383.619.724,1.423.762s1.47-.241,1.488-.624-.618-.724-1.423-.762-1.47.242-1.488.625" transform="translate(-129.353 -16.483)" fill="#efefef"/>
    <path id="Path_39157" data-name="Path 39157" d="M140.524,28.363c-.01.2.848.395,1.916.445s1.94-.067,1.949-.262-.848-.395-1.915-.445-1.941.067-1.949.262" transform="translate(-128.623 -16.991)" fill="#fff"/>
    <path id="Path_39158" data-name="Path 39158" d="M20.817,29.028H19.024c-.2,0-8.17-2.657-8.525-2.843a1.1,1.1,0,0,1-.441-1.221l.034.023a1.021,1.021,0,0,0,.156.072.889.889,0,0,0,.343.952c.317.166,8.126,2.776,8.433,2.82h1.529c.09.064.177.13.263.2" transform="translate(46.509 -15.1)" fill="#efefef"/>
    <path id="Path_39159" data-name="Path 39159" d="M57.547,2.47c1.09-.759,4.085-.914,6.272-1.027.291-.015.563-.029.809-.043,3.666-.217,12.825-.094,16.787.759,3.841.828,4.117,2.227,4.127,2.287l-.195.034c0-.013-.291-1.334-3.974-2.127a61.5,61.5,0,0,0-9.65-.812c.158,2.141.48,4.077.821,6.121.308,1.841.626,3.745.815,5.824a92.056,92.056,0,0,1-.124,11.524h18.3c.042,0,.091,0,.143.007.332.021.572.011.633-.321.8-4.347,1.072-8.212.741-10.338A5.268,5.268,0,0,0,91.6,11.319l.129-.15a5.365,5.365,0,0,1,1.515,3.156c.335,2.147.058,6.037-.741,10.4a.575.575,0,0,1-.655.49c-.066,0-.13,0-.186-.008s-.091-.006-.13-.006h-30.2c-.972,0-1.649-.548-2.262-1.834a31.357,31.357,0,0,0-2.79-4.826A19.788,19.788,0,0,1,53.8,12.618a8.552,8.552,0,0,1,.25-4.94A12.788,12.788,0,0,1,57.547,2.47M54,12.57a19.594,19.594,0,0,0,2.454,5.861,31.515,31.515,0,0,1,2.807,4.855c.724,1.517,1.46,1.722,2.084,1.722h11.7A91.935,91.935,0,0,0,73.163,13.5c-.188-2.071-.505-3.971-.813-5.809-.344-2.056-.667-4-.825-6.159-2.741-.062-5.317-.032-6.885.061-.245.015-.518.028-.81.043-2.041.106-5.126.266-6.169.993a12.638,12.638,0,0,0-3.421,5.115A8.35,8.35,0,0,0,54,12.57" transform="translate(-43.257 -0.79)" fill="#dfb700"/>
    <path id="Path_39160" data-name="Path 39160" d="M18.116,51.993H12.353c-.017-.206-.032-.414-.032-.626a7.409,7.409,0,1,1,14.818,0c0,.2-.014.405-.03.605-2.752.036-6.95.02-8.992.02" transform="translate(39.284 -26.59)" fill="#212121"/>
    <path id="Path_39161" data-name="Path 39161" d="M140.155,49.994a7.407,7.407,0,0,1,14.685,1.374c0,.211-.014.419-.032.626h-6.883a47.03,47.03,0,0,1-7.77-2" transform="translate(-138.929 -26.59)" fill="#212121"/>
    <path id="Path_39162" data-name="Path 39162" d="M15.071,53.031a6.322,6.322,0,1,0,6.322-6.322,6.322,6.322,0,0,0-6.322,6.322" transform="translate(37.621 -28.253)" fill="#404040"/>
    <path id="Path_39163" data-name="Path 39163" d="M20.136,56.095a4.321,4.321,0,1,0,4.321-4.321,4.321,4.321,0,0,0-4.321,4.321" transform="translate(34.557 -31.317)" fill="#efefef"/>
    <path id="Path_39164" data-name="Path 39164" d="M142.9,53.031a6.322,6.322,0,1,0,6.322-6.322,6.322,6.322,0,0,0-6.322,6.322" transform="translate(-140.724 -28.253)" fill="#404040"/>
    <path id="Path_39165" data-name="Path 39165" d="M147.97,56.095a4.321,4.321,0,1,0,4.321-4.321,4.321,4.321,0,0,0-4.321,4.321" transform="translate(-143.789 -31.317)" fill="#efefef"/>
    <path id="Path_39166" data-name="Path 39166" d="M108.34,9.235C109,7.852,110.579,4.361,112.752,4a87.285,87.285,0,0,1,11.641-.736.293.293,0,0,1,.328.275c.025.164.725,7.425.774,8.051a.535.535,0,0,1-.559.612c-8.138-.289-15.937-.562-16.267-.562-.658,0-.988-1.021-.329-2.4" transform="translate(-96.874 -1.974)" fill="#404040"/>
    <path id="Path_39167" data-name="Path 39167" d="M44.1,11.915c-.049-.247-1.185-7.244-1.268-7.8s-.212-.806.228-.8A56.267,56.267,0,0,1,54.691,4.621c2.8.675,8,4.017,9.714,5.17s3.984,2.733,3.523,3.1-4.478.132-8,0c-1.537-.057-8.185-.3-15.245-.548a.581.581,0,0,1-.577-.423" transform="translate(-13.59 -2.004)" fill="#404040"/>
    <path id="Path_39168" data-name="Path 39168" d="M162.581,11.334a29.072,29.072,0,0,1,4.889-5.8c.176.283.336.667.14.932-.346.469-1.729,1.927-3.038,3.556s-1.63,2.371-1.877,2.519a1.759,1.759,0,0,1-.748.23,7.267,7.267,0,0,1,.633-1.44" transform="translate(-160.4 -3.349)" fill="#d1114d"/>
    <path id="Path_39169" data-name="Path 39169" d="M171.925,32.22a.891.891,0,0,0,.9.967,1.051,1.051,0,0,0,1.034-.967l.155-2.239a.891.891,0,0,0-.9-.967,1.052,1.052,0,0,0-1.034.967Z" transform="translate(-170.657 -17.55)" fill="#efefef"/>
    <path id="Path_39170" data-name="Path 39170" d="M3.273,36.22a15.045,15.045,0,0,1,1.865-.015,13.393,13.393,0,0,1,2.294,3.062,5.569,5.569,0,0,1-2.554-.429,4.534,4.534,0,0,1-1.605-1.556c-.346-.618-.123-.988,0-1.062" transform="translate(62.639 -21.889)" fill="#ffb073"/>
    <path id="Path_39171" data-name="Path 39171" d="M.547,55.707l.347-1.481a1.1,1.1,0,0,1,1.011-.819H3.848a15.173,15.173,0,0,1-.809,2.918,1.323,1.323,0,0,1-.052.2H1.174a.628.628,0,0,1-.627-.819" transform="translate(67.236 -32.304)" fill="#4f4f4f"/>
  </g>
</svg>
