<svg xmlns="http://www.w3.org/2000/svg" width="32" height="32" viewBox="0 0 32 32">
  <g id="Group_43777" data-name="Group 43777" transform="translate(-24 -416)">
    <rect id="Rectangle_10244" data-name="Rectangle 10244" width="32" height="32" rx="8" transform="translate(24 416)" fill="#3fa231"/>
    <path id="Path_94514" data-name="Path 94514" d="M0-12.5a6.455,6.455,0,0,0-4.594,1.906A6.455,6.455,0,0,0-6.5-6v1.25A.747.747,0,0,1-7.25-4,.747.747,0,0,1-8-4.75V-6a7.939,7.939,0,0,1,1.094-4.031,7.925,7.925,0,0,1,2.875-2.875A7.939,7.939,0,0,1,0-14a7.939,7.939,0,0,1,4.031,1.094,7.925,7.925,0,0,1,2.875,2.875A7.939,7.939,0,0,1,8-6v4.5A2.742,2.742,0,0,1,7.188.438,2.742,2.742,0,0,1,5.25,1.25H1.813A1.505,1.505,0,0,1,.5,2h-1a1.631,1.631,0,0,1-1.062-.437A1.631,1.631,0,0,1-2,.5,1.631,1.631,0,0,1-1.562-.562,1.631,1.631,0,0,1-.5-1h1a1.505,1.505,0,0,1,1.313.75H5.25a1.135,1.135,0,0,0,.875-.375A1.135,1.135,0,0,0,6.5-1.5V-6a6.455,6.455,0,0,0-1.906-4.594A6.455,6.455,0,0,0,0-12.5Zm-3.5,5H-3a.973.973,0,0,1,.719.281A.973.973,0,0,1-2-6.5V-3a.973.973,0,0,1-.281.719A.973.973,0,0,1-3-2h-.5a2.02,2.02,0,0,1-1.406-.594A2.02,2.02,0,0,1-5.5-4V-5.5a2.02,2.02,0,0,1,.594-1.406A2.02,2.02,0,0,1-3.5-7.5Zm7,0a2.02,2.02,0,0,1,1.406.594A2.02,2.02,0,0,1,5.5-5.5V-4a2.02,2.02,0,0,1-.594,1.406A2.02,2.02,0,0,1,3.5-2H3a.973.973,0,0,1-.719-.281A.973.973,0,0,1,2-3V-6.5a.973.973,0,0,1,.281-.719A.973.973,0,0,1,3-7.5Z" transform="translate(40 438)" fill="#fff"/>
  </g>
</svg>
