<svg xmlns="http://www.w3.org/2000/svg" width="32" height="32" viewBox="0 0 32 32">
  <g id="Group_43782" data-name="Group 43782" transform="translate(-24 -736)">
    <rect id="Rectangle_10246" data-name="Rectangle 10246" width="32" height="32" rx="8" transform="translate(24 736)" fill="#567b9b"/>
    <path id="Path_94519" data-name="Path 94519" d="M-2.429-10.714A2.251,2.251,0,0,1-3.571-8.75a2.192,2.192,0,0,1-2.286,0A2.251,2.251,0,0,1-7-10.714a2.251,2.251,0,0,1,1.143-1.964,2.192,2.192,0,0,1,2.286,0A2.251,2.251,0,0,1-2.429-10.714Zm0,5.714A2.251,2.251,0,0,1-3.571-3.036a2.192,2.192,0,0,1-2.286,0A2.251,2.251,0,0,1-7-5,2.251,2.251,0,0,1-5.857-6.964a2.192,2.192,0,0,1,2.286,0A2.251,2.251,0,0,1-2.429-5ZM-4.714,3A2.251,2.251,0,0,1-6.679,1.857a2.192,2.192,0,0,1,0-2.286A2.251,2.251,0,0,1-4.714-1.571,2.251,2.251,0,0,1-2.75-.429a2.192,2.192,0,0,1,0,2.286A2.251,2.251,0,0,1-4.714,3Zm8-13.714A2.251,2.251,0,0,1,2.143-8.75a2.192,2.192,0,0,1-2.286,0,2.251,2.251,0,0,1-1.143-1.964A2.251,2.251,0,0,1-.143-12.679a2.192,2.192,0,0,1,2.286,0A2.251,2.251,0,0,1,3.286-10.714ZM1-2.714A2.251,2.251,0,0,1-.964-3.857a2.192,2.192,0,0,1,0-2.286A2.251,2.251,0,0,1,1-7.286,2.251,2.251,0,0,1,2.964-6.143a2.192,2.192,0,0,1,0,2.286A2.251,2.251,0,0,1,1-2.714ZM3.286.714A2.251,2.251,0,0,1,2.143,2.679a2.192,2.192,0,0,1-2.286,0A2.251,2.251,0,0,1-1.286.714,2.251,2.251,0,0,1-.143-1.25a2.192,2.192,0,0,1,2.286,0A2.251,2.251,0,0,1,3.286.714ZM6.714-8.429A2.251,2.251,0,0,1,4.75-9.571a2.192,2.192,0,0,1,0-2.286A2.251,2.251,0,0,1,6.714-13a2.251,2.251,0,0,1,1.964,1.143,2.192,2.192,0,0,1,0,2.286A2.251,2.251,0,0,1,6.714-8.429ZM9-5A2.251,2.251,0,0,1,7.857-3.036a2.192,2.192,0,0,1-2.286,0A2.251,2.251,0,0,1,4.429-5,2.251,2.251,0,0,1,5.571-6.964a2.192,2.192,0,0,1,2.286,0A2.251,2.251,0,0,1,9-5ZM6.714,3A2.251,2.251,0,0,1,4.75,1.857a2.192,2.192,0,0,1,0-2.286,2.259,2.259,0,0,1,3.929,0,2.192,2.192,0,0,1,0,2.286A2.251,2.251,0,0,1,6.714,3Z" transform="translate(39 757)" fill="#fff"/>
  </g>
</svg>
