<svg id="Group_28279" data-name="Group 28279" xmlns="http://www.w3.org/2000/svg" width="40.681" height="32.897" viewBox="0 0 40.681 32.897">
  <ellipse id="Ellipse_2728" data-name="Ellipse 2728" cx="20.34" cy="0.897" rx="20.34" ry="0.897" transform="translate(0 31.102)" opacity="0.1"/>
  <g id="Group_28135" data-name="Group 28135" transform="translate(29.985 21.304)">
    <g id="Group_28125" data-name="Group 28125" transform="translate(0)">
      <g id="Group_28124" data-name="Group 28124">
        <g id="Group_28123" data-name="Group 28123">
          <path id="Path_43267" data-name="Path 43267" d="M2234.235,1218.951a5.348,5.348,0,1,1-5.348,5.348A5.326,5.326,0,0,1,2234.235,1218.951Zm0,8.891a3.543,3.543,0,1,0-3.543-3.543A3.543,3.543,0,0,0,2234.235,1227.842Z" transform="translate(-2228.887 -1218.951)" fill="#404040"/>
        </g>
      </g>
    </g>
    <g id="Group_28130" data-name="Group 28130" transform="translate(7.451 3.04)">
      <g id="Group_28129" data-name="Group 28129" transform="translate(0)">
        <g id="Group_28128" data-name="Group 28128">
          <g id="Group_28127" data-name="Group 28127">
            <g id="Group_28126" data-name="Group 28126">
              <path id="Path_43268" data-name="Path 43268" d="M2350.113,1332.528h0Z" transform="translate(-2350.113 -1332.528)" fill="#404040"/>
            </g>
          </g>
        </g>
      </g>
    </g>
    <g id="Group_28134" data-name="Group 28134" transform="translate(3.522 3.522)">
      <g id="Group_28133" data-name="Group 28133" transform="translate(0 0)">
        <g id="Group_28132" data-name="Group 28132">
          <g id="Group_28131" data-name="Group 28131">
            <ellipse id="Ellipse_2724" data-name="Ellipse 2724" cx="1.761" cy="1.761" rx="1.761" ry="1.761" transform="matrix(-0.037, -0.999, 0.999, -0.037, 0.132, 3.652)" fill="#404040"/>
          </g>
        </g>
      </g>
    </g>
  </g>
  <g id="Group_28148" data-name="Group 28148" transform="translate(0.412 21.304)">
    <g id="Group_28138" data-name="Group 28138">
      <g id="Group_28137" data-name="Group 28137">
        <g id="Group_28136" data-name="Group 28136">
          <path id="Path_43269" data-name="Path 43269" d="M3339.164,1218.951a5.348,5.348,0,1,1-5.348,5.348A5.348,5.348,0,0,1,3339.164,1218.951Zm0,8.891a3.543,3.543,0,1,0-3.543-3.543A3.543,3.543,0,0,0,3339.164,1227.842Z" transform="translate(-3333.816 -1218.951)" fill="#404040"/>
        </g>
      </g>
    </g>
    <g id="Group_28143" data-name="Group 28143" transform="translate(7.443 3.035)">
      <g id="Group_28142" data-name="Group 28142" transform="translate(0)">
        <g id="Group_28141" data-name="Group 28141">
          <g id="Group_28140" data-name="Group 28140">
            <g id="Group_28139" data-name="Group 28139">
              <path id="Path_43270" data-name="Path 43270" d="M3455.336,1332.354h0Z" transform="translate(-3455.336 -1332.354)" fill="#404040"/>
            </g>
          </g>
        </g>
      </g>
    </g>
    <g id="Group_28147" data-name="Group 28147" transform="translate(2.857 2.857)">
      <g id="Group_28146" data-name="Group 28146" transform="translate(0 0)">
        <g id="Group_28145" data-name="Group 28145">
          <g id="Group_28144" data-name="Group 28144">
            <ellipse id="Ellipse_2725" data-name="Ellipse 2725" cx="1.764" cy="1.759" rx="1.764" ry="1.759" transform="translate(2.493 4.982) rotate(-134.971)" fill="#404040"/>
          </g>
        </g>
      </g>
    </g>
  </g>
  <g id="Group_28151" data-name="Group 28151" transform="translate(26.537 8.43)">
    <g id="Group_28150" data-name="Group 28150" transform="translate(0)">
      <g id="Group_28149" data-name="Group 28149">
        <path id="Path_43271" data-name="Path 43271" d="M2420.677,756.594h0a.436.436,0,0,1-.584-.2l-8.38-17.826a.436.436,0,0,1,.2-.584h0a.436.436,0,0,1,.584.2l8.38,17.826A.436.436,0,0,1,2420.677,756.594Z" transform="translate(-2411.667 -737.941)" fill="#282828"/>
      </g>
    </g>
  </g>
  <g id="Group_28154" data-name="Group 28154" transform="translate(32.755 21.685)">
    <g id="Group_28153" data-name="Group 28153" transform="translate(0)">
      <g id="Group_28152" data-name="Group 28152">
        <path id="Path_43272" data-name="Path 43272" d="M2480.229,1234.257l-.662.646-.57-1.192.725-.53Z" transform="translate(-2478.997 -1233.18)" fill="#404040"/>
      </g>
    </g>
  </g>
  <g id="Group_28157" data-name="Group 28157" transform="translate(26.923 9.532)">
    <g id="Group_28156" data-name="Group 28156" transform="translate(0)">
      <g id="Group_28155" data-name="Group 28155">
        <path id="Path_43273" data-name="Path 43273" d="M2694.81,779.634l-.291-.493-1.033.537.28.534Z" transform="translate(-2693.486 -779.141)" fill="#404040"/>
      </g>
    </g>
  </g>
  <g id="Group_28160" data-name="Group 28160" transform="translate(27.461 9.692)">
    <g id="Group_28159" data-name="Group 28159">
      <g id="Group_28158" data-name="Group 28158">
        <path id="Path_43274" data-name="Path 43274" d="M2339.152,795.425h5.34l-9.192-10.31-1.213.667Z" transform="translate(-2334.087 -785.116)" fill="#ebebeb"/>
      </g>
    </g>
  </g>
  <g id="Group_28163" data-name="Group 28163" transform="translate(2.903 12.741)">
    <g id="Group_28162" data-name="Group 28162">
      <g id="Group_28161" data-name="Group 28161">
        <path id="Path_43275" data-name="Path 43275" d="M3185.406,908.783l-2.324-6.93-6.646-2.833s-2.788,1.959-3.541,2.712Z" transform="translate(-3172.895 -899.02)" fill="#ebebeb"/>
      </g>
    </g>
  </g>
  <g id="Group_28170" data-name="Group 28170" transform="translate(5.814 24.586)">
    <g id="Group_28166" data-name="Group 28166" transform="translate(0 0.871)">
      <g id="Group_28165" data-name="Group 28165">
        <g id="Group_28164" data-name="Group 28164">
          <path id="Rectangle_7485" data-name="Rectangle 7485" d="M0,0H16.354a0,0,0,0,1,0,0V0a2.183,2.183,0,0,1-2.183,2.183H0a0,0,0,0,1,0,0V0A0,0,0,0,1,0,0Z" fill="#404040"/>
        </g>
      </g>
    </g>
    <g id="Group_28169" data-name="Group 28169" transform="translate(9.217)">
      <g id="Group_28168" data-name="Group 28168" transform="translate(0)">
        <g id="Group_28167" data-name="Group 28167">
          <rect id="Rectangle_7486" data-name="Rectangle 7486" width="2.798" height="1.723" fill="#404040"/>
        </g>
      </g>
    </g>
  </g>
  <g id="Group_28173" data-name="Group 28173" transform="translate(5.302 19.311)">
    <g id="Group_28172" data-name="Group 28172">
      <g id="Group_28171" data-name="Group 28171">
        <path id="Path_43276" data-name="Path 43276" d="M3388.554,1152.261h0a.455.455,0,0,0,.608-.209l3.483-7.146-.818-.4-3.484,7.146A.455.455,0,0,0,3388.554,1152.261Z" transform="translate(-3388.298 -1144.507)" fill="#282828"/>
      </g>
    </g>
  </g>
  <g id="Group_28197" data-name="Group 28197" transform="translate(8.057 20.425)">
    <g id="Group_28193" data-name="Group 28193" transform="translate(0 3.274)">
      <g id="Group_28176" data-name="Group 28176">
        <g id="Group_28175" data-name="Group 28175">
          <g id="Group_28174" data-name="Group 28174">
            <rect id="Rectangle_7487" data-name="Rectangle 7487" width="7.761" height="3.396" rx="1.698" fill="#282828"/>
          </g>
        </g>
      </g>
      <g id="Group_28179" data-name="Group 28179" transform="translate(0.54 0.585)">
        <g id="Group_28178" data-name="Group 28178">
          <g id="Group_28177" data-name="Group 28177">
            <ellipse id="Ellipse_2726" data-name="Ellipse 2726" cx="1.113" cy="1.113" rx="1.113" ry="1.113" fill="#404040"/>
          </g>
        </g>
      </g>
      <g id="Group_28192" data-name="Group 28192" transform="translate(3.88 0.634)">
        <g id="Group_28182" data-name="Group 28182" transform="translate(0)">
          <g id="Group_28181" data-name="Group 28181">
            <g id="Group_28180" data-name="Group 28180">
              <path id="Path_43277" data-name="Path 43277" d="M3291.615,1334.236a.152.152,0,0,0,.152-.152v-1.825a.152.152,0,0,0-.3,0v1.825A.152.152,0,0,0,3291.615,1334.236Z" transform="translate(-3291.463 -1332.108)" fill="#1b1b2d"/>
            </g>
          </g>
        </g>
        <g id="Group_28185" data-name="Group 28185" transform="translate(0.682)">
          <g id="Group_28184" data-name="Group 28184">
            <g id="Group_28183" data-name="Group 28183">
              <path id="Path_43278" data-name="Path 43278" d="M3266.149,1334.236a.152.152,0,0,0,.151-.152v-1.825a.152.152,0,0,0-.3,0v1.825A.152.152,0,0,0,3266.149,1334.236Z" transform="translate(-3265.997 -1332.108)" fill="#1b1b2d"/>
            </g>
          </g>
        </g>
        <g id="Group_28188" data-name="Group 28188" transform="translate(1.363)">
          <g id="Group_28187" data-name="Group 28187">
            <g id="Group_28186" data-name="Group 28186">
              <path id="Path_43279" data-name="Path 43279" d="M3240.68,1334.236a.152.152,0,0,0,.152-.152v-1.825a.151.151,0,1,0-.3,0v1.825A.151.151,0,0,0,3240.68,1334.236Z" transform="translate(-3240.529 -1332.108)" fill="#1b1b2d"/>
            </g>
          </g>
        </g>
        <g id="Group_28191" data-name="Group 28191" transform="translate(2.045)">
          <g id="Group_28190" data-name="Group 28190">
            <g id="Group_28189" data-name="Group 28189">
              <path id="Path_43280" data-name="Path 43280" d="M3215.214,1334.236a.152.152,0,0,0,.152-.152v-1.825a.152.152,0,0,0-.3,0v1.825A.152.152,0,0,0,3215.214,1334.236Z" transform="translate(-3215.062 -1332.108)" fill="#1b1b2d"/>
            </g>
          </g>
        </g>
      </g>
    </g>
    <g id="Group_28196" data-name="Group 28196" transform="translate(1.576)">
      <g id="Group_28195" data-name="Group 28195">
        <g id="Group_28194" data-name="Group 28194">
          <path id="Path_43281" data-name="Path 43281" d="M3205.376,1186.1v3.82h4.912Z" transform="translate(-3205.376 -1186.102)" fill="#282828"/>
        </g>
      </g>
    </g>
  </g>
  <g id="Group_28200" data-name="Group 28200" transform="translate(0.336 17.74)">
    <g id="Group_28199" data-name="Group 28199">
      <g id="Group_28198" data-name="Group 28198">
        <path id="Path_43282" data-name="Path 43282" d="M3547.743,1086.462l-3.023,3.232s-2.02,1.325-2.16,1.185c-.046-.046.872-.7,1.673-1.5l2.293-3.57Z" transform="translate(-3542.558 -1085.805)" fill="#404040"/>
      </g>
    </g>
  </g>
  <g id="Group_28203" data-name="Group 28203" transform="translate(12.965 15.472)">
    <g id="Group_28202" data-name="Group 28202">
      <g id="Group_28201" data-name="Group 28201">
        <path id="Path_43283" data-name="Path 43283" d="M2986.6,1001.281a5.864,5.864,0,0,0-.993,3.381,56.508,56.508,0,0,0,1.969,6.031l-1.321-.455-3.843-2.165-2.45-7.032Z" transform="translate(-2979.963 -1001.041)" fill="#282828"/>
      </g>
    </g>
  </g>
  <g id="Group_28206" data-name="Group 28206" transform="translate(26.753 10.359)">
    <g id="Group_28205" data-name="Group 28205" transform="translate(0)">
      <g id="Group_28204" data-name="Group 28204">
        <path id="Path_43284" data-name="Path 43284" d="M2534.31,810.036l-.708.366,2.375,7.425c.852,2.177-.625,4.846-1.945,7.246,2.433.126,5.059-2.375,5.343-5.395Z" transform="translate(-2533.602 -810.036)" fill="#282828"/>
      </g>
    </g>
  </g>
  <g id="Group_28209" data-name="Group 28209" transform="translate(25.779 4.82)">
    <g id="Group_28208" data-name="Group 28208">
      <g id="Group_28207" data-name="Group 28207">
        <path id="Path_43285" data-name="Path 43285" d="M2584.762,605.038l.784-.6.266-1.37c2.317.29,4.089,1.378,4.327,3.583,0,.921-2.475.777-2.475.777Z" transform="translate(-2584.762 -603.07)" fill="#ebebeb"/>
      </g>
    </g>
  </g>
  <g id="Group_28213" data-name="Group 28213" transform="translate(28.651 5.907)">
    <g id="Group_28212" data-name="Group 28212" transform="translate(0)">
      <g id="Group_28211" data-name="Group 28211">
        <g id="Group_28210" data-name="Group 28210">
          <path id="Path_43286" data-name="Path 43286" d="M2584.892,643.858a1.909,1.909,0,0,1,1.125-.142,3.184,3.184,0,0,1,1.347,2.463C2586.224,645.5,2584.62,644.13,2584.892,643.858Z" transform="translate(-2584.861 -643.704)" fill="#eaeaea"/>
        </g>
      </g>
    </g>
  </g>
  <g id="Group_28216" data-name="Group 28216" transform="translate(25.48 6.788)">
    <g id="Group_28215" data-name="Group 28215" transform="translate(0)">
      <g id="Group_28214" data-name="Group 28214">
        <path id="Path_43287" data-name="Path 43287" d="M2680.437,679l-2.321,1.179c-.789-1.747-1.2-3.14-.581-3.571C2679.992,676.609,2680.437,678.193,2680.437,679Z" transform="translate(-2677.236 -676.609)" fill="#282828"/>
      </g>
    </g>
  </g>
  <g id="Group_28226" data-name="Group 28226" transform="translate(25.044 0)">
    <g id="Group_28219" data-name="Group 28219" transform="translate(2.289 5.337)">
      <g id="Group_28218" data-name="Group 28218">
        <g id="Group_28217" data-name="Group 28217">
          <path id="Path_43288" data-name="Path 43288" d="M2701.327,623.707v-.946a.361.361,0,0,0-.361-.361h0a.361.361,0,0,0-.361.361v.739A1.034,1.034,0,0,0,2701.327,623.707Z" transform="translate(-2700.605 -622.4)" fill="#1e1d28"/>
        </g>
      </g>
    </g>
    <g id="Group_28222" data-name="Group 28222" transform="translate(1.614 2.817)">
      <g id="Group_28221" data-name="Group 28221">
        <g id="Group_28220" data-name="Group 28220">
          <path id="Path_43289" data-name="Path 43289" d="M2709.467,531.042a.152.152,0,0,0,.143-.2l-.885-2.515a.152.152,0,1,0-.286.1l.885,2.515A.152.152,0,0,0,2709.467,531.042Z" transform="translate(-2708.431 -528.223)" fill="#1e1d28"/>
        </g>
      </g>
    </g>
    <g id="Group_28225" data-name="Group 28225">
      <g id="Group_28224" data-name="Group 28224">
        <g id="Group_28223" data-name="Group 28223">
          <path id="Path_43290" data-name="Path 43290" d="M2733.947,424.526c.24.952.153,1.455-.218,1.606,0,0-1.179.234-1.646-.634s.052-2.513.909-2.513C2733.292,422.986,2733.707,423.574,2733.947,424.526Z" transform="translate(-2731.908 -422.986)" fill="#404040"/>
        </g>
      </g>
    </g>
  </g>
  <g id="Group_28242" data-name="Group 28242" transform="translate(2.664 15.453)">
    <g id="Group_28229" data-name="Group 28229" transform="translate(25.839 4.549)">
      <g id="Group_28228" data-name="Group 28228" transform="translate(0)">
        <g id="Group_28227" data-name="Group 28227">
          <path id="Path_43291" data-name="Path 43291" d="M2337.874,1170.313h5.34s.135.845-.845.845h-1.1c-1.009,0-2.641,1.439-4.192,2.874l-.02.018a10.33,10.33,0,0,1-3.207,1.38C2335.8,1174.52,2337.874,1171.607,2337.874,1170.313Z" transform="translate(-2333.851 -1170.313)" fill="#ddd"/>
        </g>
      </g>
    </g>
    <g id="Group_28232" data-name="Group 28232" transform="translate(11.697 8.286)">
      <g id="Group_28231" data-name="Group 28231">
        <g id="Group_28230" data-name="Group 28230">
          <path id="Path_43292" data-name="Path 43292" d="M2569.632,1311.228l7.5.364a2.641,2.641,0,0,0,1.1-.278,10.326,10.326,0,0,0,3.207-1.38c-1.677,1.551-2.509,2.173-2.509,3.068h-8.174a8.848,8.848,0,0,1-4.711-1.359l-1.954-1.229a27.187,27.187,0,0,0,5.495.787Z" transform="translate(-2564.09 -1309.934)" fill="#b9bdc1"/>
        </g>
      </g>
    </g>
    <g id="Group_28235" data-name="Group 28235" transform="translate(0.157)">
      <g id="Group_28234" data-name="Group 28234">
        <g id="Group_28233" data-name="Group 28233">
          <path id="Path_43293" data-name="Path 43293" d="M3007.056,1000.334l16.952,9.554a27.174,27.174,0,0,1-5.495-.787l-10.851-6.826A1.784,1.784,0,0,1,3007.056,1000.334Z" transform="translate(-3006.973 -1000.334)" fill="#ddd"/>
        </g>
      </g>
    </g>
    <g id="Group_28238" data-name="Group 28238" transform="translate(1.358 1.589)">
      <g id="Group_28237" data-name="Group 28237">
        <g id="Group_28236" data-name="Group 28236">
          <path id="Path_43294" data-name="Path 43294" d="M3116.48,1067.494a.061.061,0,0,0,.031-.113l-13.135-7.666a.061.061,0,1,0-.061.1l13.135,7.666A.059.059,0,0,0,3116.48,1067.494Z" transform="translate(-3103.284 -1059.707)" fill="#b9bdc1"/>
        </g>
      </g>
    </g>
    <g id="Group_28241" data-name="Group 28241" transform="translate(0)">
      <g id="Group_28240" data-name="Group 28240">
        <g id="Group_28239" data-name="Group 28239">
          <path id="Path_43295" data-name="Path 43295" d="M3561.505,1002.274c-.857-.6-1.071-1.476-.606-1.94l2.133,1.165Z" transform="translate(-3560.659 -1000.334)" fill="#c91741"/>
        </g>
      </g>
    </g>
  </g>
  <g id="Group_28245" data-name="Group 28245" transform="translate(16.916 24.122)">
    <g id="Group_28244" data-name="Group 28244" transform="translate(0)">
      <g id="Group_28243" data-name="Group 28243">
        <path id="Path_43296" data-name="Path 43296" d="M2696.56,1325.521c-1.323,0-4.465-.065-7.19-.191-2.7-.2-4.152-.722-2.753-.722,2.015.038,5.5.184,7.631.184,2.028,0,2.887.026,3.357-.546Z" transform="translate(-2686.076 -1324.247)" fill="#282828"/>
      </g>
    </g>
  </g>
  <g id="Group_28248" data-name="Group 28248" transform="translate(6.444 11.269)">
    <g id="Group_28247" data-name="Group 28247">
      <g id="Group_28246" data-name="Group 28246">
        <path id="Path_43297" data-name="Path 43297" d="M2991.357,845.534a2.176,2.176,0,0,1,1.637,1.94h0a1.092,1.092,0,0,1-1.091,1.091h-4.884a9.223,9.223,0,0,1-4.239-1.032l-3.95-2.044a2.389,2.389,0,0,1,2.28-1.472c1.152,0,2.607.788,3.941,1.031S2989.72,844.988,2991.357,845.534Z" transform="translate(-2978.83 -844.018)" fill="#404040"/>
      </g>
    </g>
  </g>
  <g id="Group_28252" data-name="Group 28252" transform="translate(28.597 5.483)" opacity="0.6">
    <g id="Group_28251" data-name="Group 28251" transform="translate(0)">
      <g id="Group_28250" data-name="Group 28250">
        <g id="Group_28249" data-name="Group 28249">
          <path id="Path_43298" data-name="Path 43298" d="M2598.1,628.687c.6.592.834,1.215.7,1.35s-.535-.411-1.139-1-1.18-1.006-1.047-1.142S2597.5,628.095,2598.1,628.687Z" transform="translate(-2596.597 -627.862)" fill="#fff"/>
        </g>
      </g>
    </g>
  </g>
  <g id="Group_28265" data-name="Group 28265" transform="translate(12.577 17.895)">
    <g id="Group_28255" data-name="Group 28255" transform="translate(0)">
      <g id="Group_28254" data-name="Group 28254">
        <g id="Group_28253" data-name="Group 28253">
          <path id="Path_43299" data-name="Path 43299" d="M3236.511,1092.332a.152.152,0,0,0,.07-.286l-.858-.446a.152.152,0,0,0-.14.269l.858.446A.152.152,0,0,0,3236.511,1092.332Z" transform="translate(-3235.501 -1091.583)" fill="#282828"/>
        </g>
      </g>
    </g>
    <g id="Group_28258" data-name="Group 28258" transform="translate(0.313 0.972)">
      <g id="Group_28257" data-name="Group 28257">
        <g id="Group_28256" data-name="Group 28256">
          <path id="Path_43300" data-name="Path 43300" d="M3224.835,1128.657a.152.152,0,0,0,.07-.286l-.859-.446a.152.152,0,1,0-.14.269l.859.446A.149.149,0,0,0,3224.835,1128.657Z" transform="translate(-3223.825 -1127.908)" fill="#282828"/>
        </g>
      </g>
    </g>
    <g id="Group_28261" data-name="Group 28261" transform="translate(0.625 1.945)">
      <g id="Group_28260" data-name="Group 28260">
        <g id="Group_28259" data-name="Group 28259">
          <path id="Path_43301" data-name="Path 43301" d="M3213.158,1164.987a.152.152,0,0,0,.07-.286l-.858-.446a.152.152,0,1,0-.14.269l.858.446A.149.149,0,0,0,3213.158,1164.987Z" transform="translate(-3212.148 -1164.238)" fill="#282828"/>
        </g>
      </g>
    </g>
    <g id="Group_28264" data-name="Group 28264" transform="translate(0.938 2.917)">
      <g id="Group_28263" data-name="Group 28263">
        <g id="Group_28262" data-name="Group 28262">
          <path id="Path_43302" data-name="Path 43302" d="M3201.479,1201.314a.152.152,0,0,0,.07-.286l-.858-.446a.152.152,0,0,0-.14.269l.858.446A.151.151,0,0,0,3201.479,1201.314Z" transform="translate(-3200.47 -1200.565)" fill="#282828"/>
        </g>
      </g>
    </g>
  </g>
  <g id="Group_28272" data-name="Group 28272" transform="translate(0 11.545)">
    <g id="Group_28268" data-name="Group 28268" transform="translate(2.958)">
      <g id="Group_28267" data-name="Group 28267" transform="translate(0)">
        <g id="Group_28266" data-name="Group 28266">
          <path id="Path_43303" data-name="Path 43303" d="M3586.563,857.417a.154.154,0,0,0,.057-.011.152.152,0,0,0,.084-.2l-1.115-2.771a.152.152,0,1,0-.281.113l1.115,2.771A.152.152,0,0,0,3586.563,857.417Z" transform="translate(-3585.296 -854.343)" fill="#1e1d28"/>
        </g>
      </g>
    </g>
    <g id="Group_28271" data-name="Group 28271" transform="translate(0 0)">
      <g id="Group_28270" data-name="Group 28270">
        <g id="Group_28269" data-name="Group 28269">
          <path id="Path_43304" data-name="Path 43304" d="M3515.22,855.877a.152.152,0,0,0,.137-.216l-.119-.253c-.038-.089-.073-.175-.106-.253-.236-.574-.334-.811-.98-.811h-5.05a.152.152,0,1,0,0,.3h5.05c.443,0,.468.059.7.623.032.079.068.166.109.261l.121.258A.152.152,0,0,0,3515.22,855.877Z" transform="translate(-3508.952 -854.344)" fill="#1e1d28"/>
        </g>
      </g>
    </g>
  </g>
  <g id="Group_28275" data-name="Group 28275" transform="translate(25.845 7.596)">
    <g id="Group_28274" data-name="Group 28274" transform="translate(0 0)">
      <g id="Group_28273" data-name="Group 28273">
        <ellipse id="Ellipse_2727" data-name="Ellipse 2727" cx="0.822" cy="0.822" rx="0.822" ry="0.822" transform="translate(0.378 1.977) rotate(-103.283)" fill="#404040"/>
      </g>
    </g>
  </g>
  <g id="Group_28278" data-name="Group 28278" transform="translate(27.017 8.381)">
    <g id="Group_28277" data-name="Group 28277" transform="translate(0)">
      <g id="Group_28276" data-name="Group 28276">
        <path id="Path_43305" data-name="Path 43305" d="M2691.736,736.1l.69.073s.634-.222.582.182c-.056.438-.605.049-.605.049l-.623.083Z" transform="translate(-2691.736 -736.105)" fill="#404040"/>
      </g>
    </g>
  </g>
</svg>
