<svg xmlns="http://www.w3.org/2000/svg" width="86.647" height="32" viewBox="0 0 86.647 32">
  <g id="Group_529" data-name="Group 529" transform="translate(0)">
    <g id="Group_25765" data-name="Group 25765" transform="translate(0 0)">
      <ellipse id="Ellipse_2520" data-name="Ellipse 2520" cx="43.323" cy="1" rx="43.323" ry="1" transform="translate(0 30)" opacity="0.1"/>
      <path id="Path_39172" data-name="Path 39172" d="M84.259,25.648s-7.8.712-9.29.712-3.346-.712-4.841-.712h-50.3c-1.922,0-11.39-1.032-13.74-1.317S1.324,24.047.719,22.872a14.76,14.76,0,0,1-.569-6.407C.5,15.433,1,15.646,1.5,13.831S3.21,7.78,3.637,7.531,8.478,7,12.892,5.431s9.86-4.343,17.94-5.09S46.173.02,52.082,2.191s13.846,6.8,16.053,7.261,9.29,1.53,13.1,3.488,4.449,3.488,4.912,5.553a33.189,33.189,0,0,1,.4,4.707,1.2,1.2,0,0,1,0,.961,2.712,2.712,0,0,1-2.287,1.486" transform="translate(0 0)" fill="#ebebeb"/>
      <path id="Path_39173" data-name="Path 39173" d="M8.608,17.7c.209-.342.425-.659.653-.994a18.09,18.09,0,0,0,1.265-2.069l.191.1A18.276,18.276,0,0,1,9.438,16.83c-.226.333-.441.648-.647.985a2.825,2.825,0,0,0-.344,2.777c.258.485,2.542,2.984,4.751,5.4,1.611,1.762,3.133,3.426,3.859,4.3a5.139,5.139,0,0,0,4.429,2.124h8.357c0-.7.024-4.815,0-9.476-.026-5.053-.6-6.486-.606-6.5l.2-.083c.024.057.6,1.466.622,6.581.024,4.66,0,8.775,0,9.478H50.4c1.236,0,1.347-.278,1.476-.6.1-.24.438-1.41.82-6.4a20.33,20.33,0,0,0-.29-6.608l-.042-.138h.144a7.048,7.048,0,0,1,1.386.217c.868.2,2.073.374,3.372.534a14.89,14.89,0,0,1-1.121-1.731.218.218,0,0,1,.025-.189.782.782,0,0,1,.387-.239c.1.044.205.088.3.128-.3.082-.5.173-.512.232a17.677,17.677,0,0,0,1.206,1.834c.93.112,1.9.217,2.818.315,1.75.189,3.261.352,3.882.5.735.18,2.7.835,4.432,1.412,1.624.541,3.157,1.052,3.405,1.084a1.886,1.886,0,0,0,.993-.391c.066.044.125.088.188.132a2.194,2.194,0,0,1-1.208.471c-.269-.035-1.741-.525-3.445-1.093-1.729-.576-3.689-1.229-4.415-1.407-.607-.149-2.111-.311-3.854-.5-.946-.1-1.943-.21-2.9-.325l-.009.007-.006-.009c-1.378-.167-2.668-.352-3.588-.562a8.789,8.789,0,0,0-1.2-.2,21.691,21.691,0,0,1,.259,6.541c-.374,4.885-.708,6.149-.835,6.465-.177.444-.39.735-1.674.735H21.487a5.366,5.366,0,0,1-4.594-2.2c-.723-.868-2.243-2.531-3.852-4.291-2.218-2.427-4.511-4.936-4.782-5.445a3.03,3.03,0,0,1,.35-2.989" transform="translate(9.958 -8.387)" fill="#d1d1d1"/>
      <path id="Path_39174" data-name="Path 39174" d="M151.936,37.755a7.717,7.717,0,0,1,7.528,9.522h-5.01c-1.359,0-6.489-.516-10.209-.919a7.852,7.852,0,0,1-.05-.861,7.741,7.741,0,0,1,7.742-7.742" transform="translate(-134.621 -21.629)" fill="#a1a1a1"/>
      <path id="Path_39175" data-name="Path 39175" d="M22.313,47.277H16.574a7.74,7.74,0,1,1,14.947.425c-1.875.153-3.717.287-4.367.287-1.495,0-3.346-.712-4.841-.712" transform="translate(47.815 -21.629)" fill="#a1a1a1"/>
      <path id="Path_39176" data-name="Path 39176" d="M18.486,46.714A6.834,6.834,0,1,0,25.32,39.88a6.834,6.834,0,0,0-6.834,6.834" transform="translate(46.597 -22.846)" fill="#404040"/>
      <path id="Path_39177" data-name="Path 39177" d="M23.55,49.616a4.671,4.671,0,1,0,4.671-4.671,4.671,4.671,0,0,0-4.671,4.671" transform="translate(43.696 -25.747)" fill="#efefef"/>
      <path id="Path_39178" data-name="Path 39178" d="M146.319,46.714a6.834,6.834,0,1,0,6.834-6.834,6.834,6.834,0,0,0-6.834,6.834" transform="translate(-135.839 -22.846)" fill="#404040"/>
      <path id="Path_39179" data-name="Path 39179" d="M151.384,49.616a4.671,4.671,0,1,0,4.67-4.671,4.671,4.671,0,0,0-4.67,4.671" transform="translate(-138.74 -25.747)" fill="#efefef"/>
      <path id="Path_39180" data-name="Path 39180" d="M72.964,2.44a41.772,41.772,0,0,1,8.409.854c3.844.828,10.171,4.191,12.734,5.793s4.779,3.2,4.779,3.2-13.936-1.121-21.33-1.709S58.2,9.22,56.76,9.06s-6.941-1.709-6.834-2S59.483,1.852,72.964,2.44" transform="translate(-33.563 -1.37)" fill="#4f4f4f"/>
      <path id="Path_39181" data-name="Path 39181" d="M58.26,10.629c-.265-.02-.244-.113-.311-.366s-.792-5.878-.833-6.127-.03-.56.165-.554h0l.129,0a36.3,36.3,0,0,1,7.257.807c3.9.84,10.284,4.292,12.6,5.738.5.314.992.629,1.455.932.773.505.6,1.244-.321,1.17-4.679-.376-12.5-1-17.425-1.4-.849-.067-1.763-.138-2.713-.209" transform="translate(-16.946 -2.052)" fill="#404040"/>
      <path id="Path_39182" data-name="Path 39182" d="M4.737,28.067a35.081,35.081,0,0,1,7.395,1.976c1.842.774,3.15,2.242,3.043,2.8s-3.016-.027-5.1-.988a24.322,24.322,0,0,1-5.339-3.791" transform="translate(69.449 -16.078)" fill="#fff"/>
      <path id="Path_39183" data-name="Path 39183" d="M114.485,7.914a4.113,4.113,0,0,1,2.521-2.878,50.952,50.952,0,0,1,12.887-1.644l.181,0c.168.006.251.182.26.322s.156,5.717.142,6.118-.48.39-.48.39h0c-2.178-.157-4.378-.311-6.346-.449-3.906-.274-6.991-.49-7.675-.566-.136-.015-.305-.042-.5-.078-.9-.2-.994-.655-.994-1.217" transform="translate(-92.73 -1.943)" fill="#404040"/>
      <path id="Path_39184" data-name="Path 39184" d="M178.006,26.752c.238-.865.636-2.276,1.035-3.547a2.094,2.094,0,0,1,1.367-.582c1.246-.107,6.638-.071,6.71,0s.018.623-.819,1.014c-.792.371-6.424,2.371-8.345,3.292.017-.059.035-.114.052-.177" transform="translate(-176.505 -12.921)" fill="#ef3061"/>
      <path id="Path_39185" data-name="Path 39185" d="M2.13,49.5A1.689,1.689,0,0,1,.537,48.376l-.356-1.3A1.106,1.106,0,0,1,1.324,45.63H3.236c.238,1.757.135,3.441.225,3.711.018.053.031.107.045.16Z" transform="translate(83.085 -26.14)" fill="#4f4f4f"/>
      <path id="Path_39186" data-name="Path 39186" d="M96.781,26.25c-.049.411.612.828,1.476.931s1.6-.148,1.652-.56-.612-.828-1.475-.931-1.6.149-1.653.56" transform="translate(-54.602 -14.704)" fill="#d1d1d1"/>
      <path id="Path_39187" data-name="Path 39187" d="M95.582,26.612c-.025.21.885.49,2.032.626s2.1.076,2.122-.134-.885-.49-2.031-.626-2.1-.076-2.122.134" transform="translate(-53.916 -15.127)" fill="#fff"/>
      <path id="Path_39188" data-name="Path 39188" d="M146.343,23.748c-.049.411.612.828,1.476.931s1.6-.148,1.652-.56-.612-.828-1.475-.93-1.6.148-1.653.559" transform="translate(-125.333 -13.271)" fill="#d1d1d1"/>
      <path id="Path_39189" data-name="Path 39189" d="M145.144,24.11c-.025.21.885.49,2.032.626s2.1.076,2.122-.134-.885-.49-2.032-.626-2.1-.076-2.122.134" transform="translate(-124.648 -13.694)" fill="#fff"/>
    </g>
  </g>
</svg>
