<svg id="Group_530" data-name="Group 530" xmlns="http://www.w3.org/2000/svg" width="78.223" height="32" viewBox="0 0 78.223 32">
  <g id="Group_25766" data-name="Group 25766" transform="translate(0 0)">
    <ellipse id="Ellipse_2521" data-name="Ellipse 2521" cx="39.111" cy="1" rx="39.111" ry="1" transform="translate(0 30)" opacity="0.1"/>
    <path id="Path_39190" data-name="Path 39190" d="M169.515,1.428s-3.253.164-4.009.24-1.084.177-1.109.391,1.059,1.033,1.929,1.222Z" transform="translate(-157.614 -0.852)" fill="#575757"/>
    <path id="Path_39191" data-name="Path 39191" d="M61.363,26.105h-50.5A92.637,92.637,0,0,1,.849,24.122,3.108,3.108,0,0,1,0,21.793V18.667c0-.5.933-1.664.933-2.8V10.825A21.1,21.1,0,0,1,3.354,6.816C4.161,5.732,9.833.79,12.027.462S34.342-.294,38.452.286A27.808,27.808,0,0,1,48.941,4.421c3.051,1.815,7.816,4.614,8.447,4.765S65.279,10.3,69.314,11.1s6.732,1.815,7.236,2.345a2.975,2.975,0,0,1,.765,1.95,10.949,10.949,0,0,0,.437,2.1,2.458,2.458,0,0,1,.471,1.345v3.967c0,.488-2.622,2.723-3.614,2.891s-9.38.4-13.246.4" transform="translate(0 0)" fill="#ebebeb"/>
    <path id="Path_39192" data-name="Path 39192" d="M55.209,8.839l.156.127a5.632,5.632,0,0,0-1.638,4.248c.149,1.345,1.785,2.73,3.68,4.334.593.5,1.206,1.021,1.805,1.567a9.846,9.846,0,0,1,3,6.294l.006.046c.076.611.391.921.934.921H73.693a17.115,17.115,0,0,0,.53-4.337A50.66,50.66,0,0,0,73.2,12.572c-.035-.307-.075-.693-.119-1.121-.117-1.126-.262-2.527-.422-3.549-.228-1.449-.58-4.1-.643-4.571-.68-.054-1.434-.105-2.187-.139l.009-.2c2.4.107,4.8.388,4.823.391l-.024.2c-.016,0-1.042-.122-2.416-.235.077.58.415,3.117.636,4.523.161,1.028.307,2.431.424,3.559.044.427.084.812.116,1.1a50.9,50.9,0,0,1,1.025,9.508,17.5,17.5,0,0,1-.523,4.337H92.57a1.04,1.04,0,0,0,1.163-.965,58.034,58.034,0,0,0,.67-7.188v-.316a8.317,8.317,0,0,0-.9-4.713,8.413,8.413,0,0,0-2.918-2.9l.1-.175a8.455,8.455,0,0,1,3,2.983,8.473,8.473,0,0,1,.919,4.808v.316a56.856,56.856,0,0,1-.675,7.234,1.235,1.235,0,0,1-1.359,1.12H63.154a1.078,1.078,0,0,1-1.134-1.1l-.006-.046a9.651,9.651,0,0,0-2.938-6.17c-.6-.543-1.208-1.061-1.8-1.562-1.927-1.632-3.592-3.041-3.75-4.466a5.888,5.888,0,0,1,1.682-4.4" transform="translate(-37.965 -1.784)" fill="#d1d1d1"/>
    <path id="Path_39193" data-name="Path 39193" d="M11.366,51.188A7.6,7.6,0,1,1,26.3,50.87c-2.577.152-8.99.317-12.23.317Z" transform="translate(47.297 -25.082)" fill="#a1a1a1"/>
    <path id="Path_39194" data-name="Path 39194" d="M139.1,50.564a7.6,7.6,0,1,1,14.976.623h-11.1a36.735,36.735,0,0,1-3.872-.623" transform="translate(-132.107 -25.082)" fill="#a1a1a1"/>
    <path id="Path_39195" data-name="Path 39195" d="M14.042,51.332A6.455,6.455,0,1,0,20.5,44.877a6.455,6.455,0,0,0-6.455,6.455" transform="translate(45.606 -26.772)" fill="#404040"/>
    <path id="Path_39196" data-name="Path 39196" d="M19.107,54.354a4.411,4.411,0,1,0,4.411-4.411,4.412,4.412,0,0,0-4.411,4.411" transform="translate(42.585 -29.795)" fill="#efefef"/>
    <path id="Path_39197" data-name="Path 39197" d="M141.875,51.332a6.455,6.455,0,1,0,6.455-6.455,6.455,6.455,0,0,0-6.455,6.455" transform="translate(-133.798 -26.772)" fill="#404040"/>
    <path id="Path_39198" data-name="Path 39198" d="M146.94,54.354a4.411,4.411,0,1,0,4.411-4.411,4.412,4.412,0,0,0-4.411,4.411" transform="translate(-136.82 -29.795)" fill="#efefef"/>
    <path id="Path_39199" data-name="Path 39199" d="M60.718,12.4c-.226-.007-.479-.22-.624-.648s-.888-6.279-1.014-7.11-.122-1.133.351-1.1c1.831.14,3.656.327,5.3.57a20.714,20.714,0,0,1,5.514,2.051,88.323,88.323,0,0,1,7.833,5.211c.739.841.269,1.547-1.076,1.513-.615-.015-8.2-.242-16.28-.486" transform="translate(-24.006 -2.111)" fill="#404040"/>
    <path id="Path_39200" data-name="Path 39200" d="M109.333,10.27c.773-1.95,4.908-6.959,7.6-7.363a63.809,63.809,0,0,1,9.04.007.573.573,0,0,1,.642.581c.045.548.53,6.2.58,7.186s-.58,1.158-.58,1.158c-8.555-.26-16.732-.512-16.91-.528-.37-.033-.547-.594-.37-1.042" transform="translate(-93.053 -1.645)" fill="#404040"/>
    <path id="Path_39201" data-name="Path 39201" d="M5.16,25.157a2.239,2.239,0,0,1-1.557-.6c-.125-.2-.664-1.218-1.018-1.884a1.051,1.051,0,0,0,.121.041c.031.008.083.017.145.029.349.656.814,1.527.925,1.709a2.084,2.084,0,0,0,1.4.507c.332.027,4.459.843,8.45,1.632,3.424.677,6.964,1.378,7.182,1.393.326.023,1.17.013,1.642.006.017.062.032.132.048.2-.25,0-.623.009-.97.009-.3,0-.574,0-.734-.015-.23-.017-3.463-.656-7.206-1.4-3.8-.752-8.106-1.6-8.427-1.629" transform="translate(54.682 -13.524)" fill="#d1d1d1"/>
    <path id="Path_39202" data-name="Path 39202" d="M7.513,32.856a4.688,4.688,0,0,1,1.576,2.4c.139.883.013,1.173-.454,1.1a14.8,14.8,0,0,1-3.051-1.009,16.012,16.012,0,0,1-2.736-2.483c-.138-.3.416-.643.832-.693a10.124,10.124,0,0,1,3.833.693" transform="translate(67.94 -19.181)" fill="#fff"/>
    <path id="Path_39203" data-name="Path 39203" d="M153.137,11.646c-.928.022-3.032.015-4.365.008.432-.678.894-1.357,1.222-1.8a34.147,34.147,0,0,1,5.245-4.532c2.58-.089,9.247-.308,9.464-.2.269.134.168.47-.387.857s-6.791,4.623-7.917,5.127a7.2,7.2,0,0,1-3.261.537" transform="translate(-146.64 -3.04)" fill="#404040"/>
    <path id="Path_39204" data-name="Path 39204" d="M184.939,31.1h-3.908V27.271h1.337c.353,0,1.487,1.353,2.143,2.051s1.134,1.782.428,1.782" transform="translate(-180.098 -16.269)" fill="#ef3061"/>
    <path id="Path_39205" data-name="Path 39205" d="M93.161,30.453c-.019.391.632.739,1.453.778s1.5-.246,1.519-.637-.631-.739-1.452-.778-1.5.247-1.519.638" transform="translate(-55.494 -17.785)" fill="#d1d1d1"/>
    <path id="Path_39206" data-name="Path 39206" d="M91.955,30.93c-.01.2.866.4,1.956.454s1.98-.069,1.99-.268-.866-.4-1.955-.454-1.981.068-1.99.267" transform="translate(-54.775 -18.285)" fill="#fff"/>
    <path id="Path_39207" data-name="Path 39207" d="M143.161,28.344c-.019.391.632.739,1.453.778s1.5-.246,1.519-.637-.631-.739-1.452-.778-1.5.247-1.519.638" transform="translate(-125.666 -16.527)" fill="#d1d1d1"/>
    <path id="Path_39208" data-name="Path 39208" d="M141.955,28.822c-.01.2.866.4,1.956.454s1.98-.069,1.99-.268-.866-.4-1.955-.454-1.981.068-1.99.267" transform="translate(-124.946 -17.028)" fill="#fff"/>
  </g>
</svg>
