<svg xmlns="http://www.w3.org/2000/svg" width="16" height="16" viewBox="0 0 16 16">
  <g id="Layer_2" data-name="Layer 2" transform="translate(-1.251 -1.251)">
    <path id="Path_91544" data-name="Path 91544" d="M16.614,7.709,15.8,6.9a1.061,1.061,0,0,1-.312-.753v-.95a2.184,2.184,0,0,0-2.181-2.181h-.95a1.073,1.073,0,0,1-.752-.311l-.812-.813a2.184,2.184,0,0,0-3.084,0L6.9,2.7a1.075,1.075,0,0,1-.753.312H5.194A2.184,2.184,0,0,0,3.013,5.195v.95A1.061,1.061,0,0,1,2.7,6.9l-.813.811a2.184,2.184,0,0,0,0,3.084L2.7,11.6a1.061,1.061,0,0,1,.312.753v.95A2.184,2.184,0,0,0,5.194,15.49h.95A1.072,1.072,0,0,1,6.9,15.8l.812.812a2.183,2.183,0,0,0,3.084,0L11.6,15.8a1.075,1.075,0,0,1,.753-.312h.951a2.184,2.184,0,0,0,2.181-2.181v-.95A1.061,1.061,0,0,1,15.8,11.6l.812-.811a2.184,2.184,0,0,0,0-3.084Zm-4.735.447L8.9,11.133a.557.557,0,0,1-.789,0L6.624,9.644a.558.558,0,0,1,.789-.789L8.507,9.95,11.09,7.368a.558.558,0,0,1,.789.789Z" fill="#fff"/>
  </g>
</svg>
