<svg xmlns="http://www.w3.org/2000/svg" width="32" height="11.307" viewBox="0 0 32 11.307">
    <g data-name="Group 56812">
        <path data-name="Path 116625" d="M91.605 339.161h.24l-.224.932a.4.4 0 0 0 .019.312.283.283 0 0 0 .255.1.453.453 0 0 0 .3-.1.585.585 0 0 0 .167-.312l.224-.932h.243l-.228.954a.811.811 0 0 1-.266.464.765.765 0 0 1-.5.156.5.5 0 0 1-.422-.152.554.554 0 0 1-.042-.464zm1.194 1.532.38-1.593.722.935c.019.027.038.053.057.084s.038.065.061.1l.255-1.061h.226l-.38 1.589-.738-.954-.057-.08a.41.41 0 0 1-.046-.091l-.255 1.065H92.8zm1.68 0 .365-1.532h.243l-.365 1.532zm.589 0 .365-1.532h.833l-.049.213h-.589l-.091.38h.589l-.053.217h-.589l-.171.719h-.243zm1.1 0 .365-1.532h.243l-.365 1.532zm.589 0 .365-1.532h.833l-.049.213h-.586l-.091.384h.589l-.053.217h-.589l-.118.494h.589l-.053.224h-.833zm1.114 0 .365-1.532h.327a1.883 1.883 0 0 1 .441.034.453.453 0 0 1 .2.11.484.484 0 0 1 .133.259.915.915 0 0 1-.019.361 1.189 1.189 0 0 1-.152.361.882.882 0 0 1-.259.259.743.743 0 0 1-.251.11 1.7 1.7 0 0 1-.4.034h-.392zm.3-.228h.205a1.132 1.132 0 0 0 .259-.023.5.5 0 0 0 .163-.076.62.62 0 0 0 .171-.186.835.835 0 0 0 .1-.259.677.677 0 0 0 .019-.255.35.35 0 0 0-.084-.186.257.257 0 0 0-.133-.076 1.14 1.14 0 0 0-.27-.023h-.171zm2.27-.46-.163.688h-.228l.365-1.532h.369a1.111 1.111 0 0 1 .236.019.234.234 0 0 1 .118.061.253.253 0 0 1 .076.144.5.5 0 0 1-.008.2.636.636 0 0 1-.087.2.522.522 0 0 1-.144.145.508.508 0 0 1-.148.061 1.247 1.247 0 0 1-.243.019h-.141zm.065-.205h.061a.618.618 0 0 0 .281-.046.237.237 0 0 0 .106-.16.164.164 0 0 0-.03-.171.427.427 0 0 0-.251-.049h-.061zm1.525.893-.076-.4h-.593l-.266.4h-.255l1.1-1.593.342 1.593zm-.525-.6h.414l-.068-.35a.467.467 0 0 1-.008-.076.761.761 0 0 1 0-.1.747.747 0 0 1-.049.1.739.739 0 0 1-.046.08zm1.129.6.167-.7-.3-.829h.255l.19.521c0 .015.008.03.015.053s.011.046.019.068l.046-.068a.607.607 0 0 1 .046-.061l.445-.513h.243l-.711.825-.167.7h-.243zm2.315-.757c0-.011 0-.046.011-.1s.008-.08.011-.11c-.015.034-.03.068-.049.106a.836.836 0 0 1-.068.106l-.586.817-.19-.833a.971.971 0 0 1-.019-.1.8.8 0 0 1-.008-.1l-.03.1a.851.851 0 0 1-.046.11l-.342.753h-.224l.734-1.6.209.966a.679.679 0 0 1 .011.076c0 .034.011.08.019.133.027-.046.061-.1.106-.167a.346.346 0 0 0 .027-.042l.662-.966-.023 1.6h-.224l.019-.76zm.4.757.365-1.532h.833l-.049.213h-.589l-.091.384h.589l-.053.217h-.589l-.118.494h.589l-.053.224zm1.11 0 .38-1.593.722.935c.019.027.038.053.057.084s.038.065.061.1l.255-1.061h.224l-.38 1.589-.738-.954-.057-.08a.409.409 0 0 1-.046-.091l-.255 1.065h-.224zm2.475-1.323-.316 1.319h-.243l.316-1.319h-.4l.049-.213h1.034l-.049.213zm.255 1.015.217-.091a.2.2 0 0 0 .065.156.267.267 0 0 0 .175.053.289.289 0 0 0 .186-.061.276.276 0 0 0 .1-.164q.034-.137-.16-.239a.244.244 0 0 0-.042-.023.732.732 0 0 1-.274-.224.326.326 0 0 1-.023-.243.53.53 0 0 1 .2-.3.574.574 0 0 1 .354-.118.477.477 0 0 1 .262.065.252.252 0 0 1 .11.186l-.213.1a.229.229 0 0 0-.072-.107.185.185 0 0 0-.114-.034.275.275 0 0 0-.167.053.242.242 0 0 0-.091.141c-.023.091.042.179.19.259a.224.224 0 0 0 .027.015.617.617 0 0 1 .255.205.342.342 0 0 1 .023.251.6.6 0 0 1-.217.346.629.629 0 0 1-.392.129.429.429 0 0 1-.293-.091.3.3 0 0 1-.102-.264zm1.791.308.365-1.532h.243l-.365 1.532zm.593 0 .38-1.593.722.935c.019.027.038.053.057.084s.038.065.061.1l.255-1.061h.224l-.38 1.589-.738-.954-.057-.08a.409.409 0 0 1-.046-.091l-.255 1.065h-.224zm2.475-1.323-.316 1.319h-.243l.316-1.319h-.4l.049-.213h1.045l-.049.213zm.262 1.323.365-1.532h.836l-.049.213h-.589l-.091.384h.589l-.053.217h-.589l-.118.494h.589l-.053.224zm1.5-.688-.163.684h-.228l.365-1.532h.338a1.064 1.064 0 0 1 .224.019.247.247 0 0 1 .125.065.262.262 0 0 1 .072.144.486.486 0 0 1-.008.194.56.56 0 0 1-.156.289.516.516 0 0 1-.285.125l.346.7h-.274l-.331-.684zm.061-.194h.046a.545.545 0 0 0 .266-.046.246.246 0 0 0 .1-.164c.019-.084.011-.144-.027-.179a.38.38 0 0 0-.24-.053h-.046zm.719.882.365-1.532h.833l-.049.213h-.589l-.091.38h.589l-.053.217h-.589l-.171.719h-.236zm2.007 0-.076-.4h-.593l-.266.4h-.255l1.1-1.593.342 1.593zm-.528-.6h.414l-.068-.35a.467.467 0 0 1-.008-.076.764.764 0 0 1 0-.1 2.513 2.513 0 0 1-.1.175zm2.365-.555a.482.482 0 0 0-.186-.133.56.56 0 0 0-.232-.046.667.667 0 0 0-.437.16.758.758 0 0 0-.255.418.5.5 0 0 0 .053.411.382.382 0 0 0 .338.16.713.713 0 0 0 .262-.049 1.087 1.087 0 0 0 .266-.144l-.068.281a.84.84 0 0 1-.24.107.965.965 0 0 1-.259.034.761.761 0 0 1-.3-.057.531.531 0 0 1-.217-.171.543.543 0 0 1-.106-.259.771.771 0 0 1 .019-.319 1.051 1.051 0 0 1 .133-.316 1 1 0 0 1 .232-.259.97.97 0 0 1 .3-.171.948.948 0 0 1 .323-.057.725.725 0 0 1 .243.038.637.637 0 0 1 .2.118zm.023 1.16.365-1.532h.833l-.049.213h-.589l-.091.384h.589l-.053.217h-.589l-.118.494h.589l-.053.224z" transform="translate(-91.349 -329.45)" style="fill:#3d3d3c"/>
        <path data-name="Path 116626" d="M137.364 93.676H135.7l2.319-8.376h1.669zm-.867-8.114a.614.614 0 0 0-.536-.24h-9.171l-.452 1.642h8.342l-.487 1.753h-8.342l-1.384 5h1.669l.928-3.353h7.5a1.057 1.057 0 0 0 .662-.24 1.114 1.114 0 0 0 .407-.593l.928-3.353a.68.68 0 0 0-.061-.616zm-13 7.589a.769.769 0 0 1-.738.563h-8.6a.6.6 0 0 1-.525-.24.658.658 0 0 1-.072-.593l2.1-7.558h1.669l-1.874 6.752h6.676L124 85.323h1.669z" transform="translate(-112.676 -85.3)" style="fill:#70706e"/>
        <path data-name="Path 116627" d="m818.627 85.7 2.11 4.2-4.437 4.2z" transform="translate(-788.737 -85.685)" style="fill:#098041"/>
        <path data-name="Path 116628" d="m779.531 85.7 2.11 4.2-4.441 4.2z" transform="translate(-751.124 -85.685)" style="fill:#e97626"/>
    </g>
</svg>
