<svg xmlns="http://www.w3.org/2000/svg" width="24" height="20.211" viewBox="0 0 24 20.211">
    <g data-name="Group 43966">
        <g data-name="Group 43940">
            <g data-name="Group 43929">
                <g data-name="Group 43920">
                    <g data-name="Group 43919">
                        <g data-name="Group 43916">
                            <path data-name="Path 92675" d="m41.847 32.346-.008 2.28-7.146 4.153.007-2.279z" transform="translate(-17.846 -18.568)" style="fill:#5eaf5f"/>
                        </g>
                        <g data-name="Group 43917">
                            <path data-name="Path 92676" d="m17.854 30.925-.008 2.28L1 23.478l.008-2.28z" transform="translate(-1 -12.993)" style="fill:#7bc578"/>
                        </g>
                        <g data-name="Group 43918">
                            <path data-name="Path 92677" d="m25.008 22.619-7.146 4.153-16.847-9.726 7.146-4.153z" transform="translate(-1.007 -8.841)" style="fill:#98d095"/>
                        </g>
                    </g>
                </g>
                <g data-name="Group 43921">
                    <path data-name="Path 92678" d="m34.767 31.377-.195.113c.172.155.173.343-.019.454L34.3 31.8c.087-.05.044-.165-.091-.244a.512.512 0 0 0-.424-.054c-.087.05-.044.165.094.245.28.162.321.4.093.532a.989.989 0 0 1-.781.01L33 32.4l-.25-.144.195-.113c-.175-.153-.176-.341.016-.452l.25.144c-.087.05-.041.164.1.244a.5.5 0 0 0 .418.054c.09-.052.044-.165-.092-.243-.28-.162-.324-.4-.1-.534a1 1 0 0 1 .784-.012l.195-.113z" transform="translate(-16.875 -18.01)" style="fill:#46a046"/>
                </g>
                <g data-name="Group 43922">
                    <path data-name="Path 92679" d="m15.248 20.107-.195.113c.172.155.176.344-.015.456l-.253-.146c.087-.05.047-.164-.091-.244a.511.511 0 0 0-.424-.054c-.087.05-.044.165.094.245.28.162.324.4.1.534a1 1 0 0 1-.784.009l-.195.113-.25-.144.195-.113c-.175-.153-.176-.341.016-.452l.25.144c-.087.05-.041.164.1.244a.5.5 0 0 0 .418.054c.09-.052.047-.163-.092-.244-.28-.162-.324-.4-.1-.534a1 1 0 0 1 .784-.012l.194-.113z" transform="translate(-7.116 -12.376)" style="fill:#46a046"/>
                </g>
                <g data-name="Group 43923">
                    <path data-name="Path 92680" d="M15.041 15.438a.42.42 0 0 1 0 .8 1.516 1.516 0 0 1-1.376 0 .422.422 0 0 1 0-.8 1.515 1.515 0 0 1 1.376 0z" transform="translate(-7.191 -10.031)" style="fill:#46a046"/>
                </g>
                <g data-name="Group 43924">
                    <path data-name="Path 92681" d="m25.008 24.237-.482.28c.428.379.431.842-.045 1.119l-.618-.357c.215-.125.109-.405-.232-.6a1.254 1.254 0 0 0-1.04-.132c-.216.125-.106.407.232.6.693.4.8.988.236 1.315a2.444 2.444 0 0 1-1.928.028l-.485.282-.618-.357.485-.282c-.432-.377-.434-.844.039-1.119l.618.357c-.216.125-.106.407.232.6a1.249 1.249 0 0 0 1.04.132c.215-.125.109-.405-.232-.6-.69-.4-.8-.99-.236-1.315a2.459 2.459 0 0 1 1.934-.028l.482-.28z" transform="translate(-10.515 -14.335)" style="fill:#46a046"/>
                </g>
                <g data-name="Group 43925">
                    <path data-name="Path 92682" d="M6.786 20.236a.42.42 0 0 1 0 .8 1.509 1.509 0 0 1-1.373 0 .42.42 0 0 1-.007-.8 1.515 1.515 0 0 1 1.38 0z" transform="translate(-3.065 -12.43)" style="fill:#46a046"/>
                </g>
                <g data-name="Group 43926">
                    <path data-name="Path 92683" d="M42.655 31.381a.42.42 0 0 1 0 .8 1.516 1.516 0 0 1-1.376 0 .42.42 0 0 1 0-.8 1.509 1.509 0 0 1 1.373 0z" transform="translate(-20.999 -18.003)" style="fill:#46a046"/>
                </g>
                <g data-name="Group 43927">
                    <path data-name="Path 92684" d="M34.4 36.179a.42.42 0 0 1 0 .8 1.509 1.509 0 0 1-1.373 0 .419.419 0 0 1 0-.793 1.509 1.509 0 0 1 1.373-.007z" transform="translate(-16.873 -20.402)" style="fill:#46a046"/>
                </g>
                <g data-name="Group 43928">
                    <path data-name="Path 92685" d="m9.3 14.2 15.711 9.07-6.023 3.5-6.472-3.737L3.274 17.7zm1.85 8.025a6.628 6.628 0 0 0 6.007 0c1.649-.959 1.644-2.519-.02-3.479a6.633 6.633 0 0 0-6.007 0c-1.649.959-1.641 2.521.02 3.479m-5.08-4.012 3.408 1.954a2.5 2.5 0 0 1 1.327-1.609 6.447 6.447 0 0 1 2.774-.774l-3.4-1.961c.5-.292.5-.755.006-1.04a1.972 1.972 0 0 0-1.784 0 .545.545 0 0 0 .009 1.032L6.076 17.19a1.976 1.976 0 0 0-1.8-.01.546.546 0 0 0 .006 1.033 1.961 1.961 0 0 0 1.784 0m13.8 6.939 2.341-1.374a1.964 1.964 0 0 0 1.793.009.546.546 0 0 0 0-1.034 1.965 1.965 0 0 0-1.781 0L18.807 20.8a2.523 2.523 0 0 1-1.33 1.607 6.458 6.458 0 0 1-2.771.776l3.4 1.961c-.506.294-.5.755-.009 1.039a1.961 1.961 0 0 0 1.784 0 .545.545 0 0 0-.009-1.032m-8.393-9.361-.446.259 1.82 1.051.446-.259zm8.958 5.172-.446.259 1.809 1.05.446-.259zM7.852 20l.443-.258-1.82-1.042-.443.257zm8.955 5.17.443-.257-1.817-1.049-.443.258z" transform="translate(-2.137 -9.494)" style="fill:#46a046"/>
                </g>
            </g>
            <g data-name="Group 43934">
                <g data-name="Group 43933">
                    <g data-name="Group 43930">
                        <path data-name="Path 92686" d="m28.267 24.5-7.146 4.153-.329-.19 7.146-4.153z" transform="translate(-10.896 -14.55)" style="fill:#86aedc"/>
                    </g>
                    <g data-name="Group 43931">
                        <path data-name="Path 92687" d="m30.515 25.8-7.146 4.153-1.919-1.11 7.15-4.152z" transform="translate(-11.225 -14.74)" style="fill:#e3e6f0"/>
                    </g>
                    <g data-name="Group 43932">
                        <path data-name="Path 92688" d="m32.761 27.1-7.146 4.153-.327-.189 7.146-4.153z" transform="translate(-13.145 -15.848)" style="fill:#86aedc"/>
                    </g>
                </g>
            </g>
            <g data-name="Group 43939">
                <g data-name="Group 43938">
                    <g data-name="Group 43935">
                        <path data-name="Path 92689" d="m21.106 32.806-.015 2.281-.329-.19.015-2.281z" transform="translate(-10.881 -18.702)" style="fill:#678cc8"/>
                    </g>
                    <g data-name="Group 43936">
                        <path data-name="Path 92690" d="m23.352 34.1-.015 2.281-1.917-1.104.015-2.277z" transform="translate(-11.21 -18.892)" style="fill:#d4dbe9"/>
                    </g>
                    <g data-name="Group 43937">
                        <path data-name="Path 92691" d="m25.6 35.4-.015 2.281-.329-.19.015-2.28z" transform="translate(-13.127 -19.999)" style="fill:#678cc8"/>
                    </g>
                </g>
            </g>
        </g>
        <g data-name="Group 43965">
            <g data-name="Group 43954">
                <g data-name="Group 43945">
                    <g data-name="Group 43944">
                        <g data-name="Group 43941">
                            <path data-name="Path 92692" d="m41.847 24.242-.008 2.28-7.146 4.153.008-2.28z" transform="translate(-17.846 -14.516)" style="fill:#5eaf5f"/>
                        </g>
                        <g data-name="Group 43942">
                            <path data-name="Path 92693" d="m17.854 22.821-.008 2.28L1 15.375l.008-2.28z" transform="translate(-1 -8.942)" style="fill:#7bc578"/>
                        </g>
                        <g data-name="Group 43943">
                            <path data-name="Path 92694" d="m25.008 14.516-7.146 4.153L1.015 8.942l7.146-4.153z" transform="translate(-1.007 -4.789)" style="fill:#98d095"/>
                        </g>
                    </g>
                </g>
                <g data-name="Group 43948">
                    <path data-name="Path 92697" d="M15.041 7.335a.42.42 0 0 1 0 .8 1.516 1.516 0 0 1-1.376 0 .422.422 0 0 1 0-.8 1.515 1.515 0 0 1 1.376 0z" transform="translate(-7.191 -5.98)" style="fill:#46a046"/>
                </g>
                <g data-name="Group 43950">
                    <path data-name="Path 92699" d="M6.786 12.133a.42.42 0 0 1 0 .8 1.509 1.509 0 0 1-1.373 0 .42.42 0 0 1-.007-.8 1.515 1.515 0 0 1 1.38 0z" transform="translate(-3.065 -8.379)" style="fill:#46a046"/>
                </g>
                <g data-name="Group 43951">
                    <path data-name="Path 92700" d="M42.655 23.278a.42.42 0 0 1 0 .8 1.516 1.516 0 0 1-1.376 0 .42.42 0 0 1 0-.8 1.509 1.509 0 0 1 1.376 0z" transform="translate(-20.999 -13.952)" style="fill:#46a046"/>
                </g>
                <g data-name="Group 43952">
                    <path data-name="Path 92701" d="M34.4 28.076a.42.42 0 0 1 0 .8 1.509 1.509 0 0 1-1.373 0 .419.419 0 0 1 0-.793 1.509 1.509 0 0 1 1.373-.007z" transform="translate(-16.873 -16.351)" style="fill:#46a046"/>
                </g>
                <g data-name="Group 43953">
                    <path data-name="Path 92702" d="m9.3 6.094 15.714 9.072-6.023 3.5-6.476-3.736-9.241-5.336zm1.85 8.025a6.627 6.627 0 0 0 6.007 0c1.649-.959 1.644-2.519-.02-3.479a6.633 6.633 0 0 0-6.007 0c-1.649.959-1.641 2.521.02 3.479m-5.08-4.01 3.408 1.954a2.5 2.5 0 0 1 1.327-1.609 6.446 6.446 0 0 1 2.774-.774l-3.4-1.961c.5-.292.5-.755.006-1.04a1.972 1.972 0 0 0-1.784 0 .545.545 0 0 0 .013 1.031L6.076 9.086a1.976 1.976 0 0 0-1.8-.01.546.546 0 0 0 .006 1.033 1.961 1.961 0 0 0 1.784 0m13.8 6.939 2.341-1.374a1.964 1.964 0 0 0 1.793.009.546.546 0 0 0 0-1.033 1.966 1.966 0 0 0-1.781 0l-3.412-1.95a2.523 2.523 0 0 1-1.33 1.608 6.459 6.459 0 0 1-2.771.776l3.4 1.961c-.506.294-.5.755-.009 1.039a1.961 1.961 0 0 0 1.784 0 .545.545 0 0 0-.009-1.032m-8.397-9.364-.446.259L12.848 9l.446-.259zm8.958 5.172-.446.259 1.813 1.049.446-.259zM7.852 11.9l.443-.257-1.82-1.051-.443.258zm8.955 5.17.443-.257-1.817-1.049-.443.257z" transform="translate(-2.137 -5.442)" style="fill:#46a046"/>
                </g>
            </g>
            <g data-name="Group 43959">
                <g data-name="Group 43958">
                    <g data-name="Group 43955">
                        <path data-name="Path 92703" d="m28.267 16.4-7.146 4.15-.329-.19 7.146-4.153z" transform="translate(-10.896 -10.498)" style="fill:#86aedc"/>
                    </g>
                    <g data-name="Group 43956">
                        <path data-name="Path 92704" d="m30.515 17.7-7.146 4.153-1.919-1.113 7.15-4.153z" transform="translate(-11.225 -10.688)" style="fill:#e3e6f0"/>
                    </g>
                    <g data-name="Group 43957">
                        <path data-name="Path 92705" d="m32.761 18.992-7.146 4.153-.327-.189 7.146-4.156z" transform="translate(-13.145 -11.796)" style="fill:#86aedc"/>
                    </g>
                </g>
            </g>
            <g data-name="Group 43964">
                <g data-name="Group 43963">
                    <g data-name="Group 43960">
                        <path data-name="Path 92706" d="m21.106 24.7-.015 2.281-.329-.19.015-2.281z" transform="translate(-10.881 -14.651)" style="fill:#678cc8"/>
                    </g>
                    <g data-name="Group 43961">
                        <path data-name="Path 92707" d="m23.352 26-.015 2.281-1.917-1.108.015-2.281z" transform="translate(-11.21 -14.84)" style="fill:#d4dbe9"/>
                    </g>
                    <g data-name="Group 43962">
                        <path data-name="Path 92708" d="m25.6 27.3-.015 2.281-.329-.19.015-2.281z" transform="translate(-13.127 -15.948)" style="fill:#678cc8"/>
                    </g>
                </g>
            </g>
        </g>
    </g>
</svg>
