<svg data-name="4697587_2464875" xmlns="http://www.w3.org/2000/svg" width="268.536" height="240" viewBox="0 0 268.536 240">
    <defs>
        <clipPath id="bnis1po3ma">
            <path data-name="Path 89543" d="M351.7 153.505H310a21.222 21.222 0 0 1-21.16-21.16v-40.41A21.222 21.222 0 0 1 310 70.775h41.7a21.222 21.222 0 0 1 21.16 21.16v40.411a21.222 21.222 0 0 1-21.16 21.159z" transform="translate(-288.844 -70.775)"/>
        </clipPath>
    </defs>
    <g data-name="Group 40478">
        <path data-name="Path 89509" d="M99.424 240.054h-1.73a12.993 12.993 0 0 1 .364-3.061l1.681.408a11.26 11.26 0 0 0-.315 2.653zm1.252-5.153-1.536-.8a12.973 12.973 0 0 1 1.735-2.548l1.3 1.137a11.242 11.242 0 0 0-1.499 2.21zm3.486-4-1-1.412a12.924 12.924 0 0 1 2.711-1.469l.637 1.609a11.191 11.191 0 0 0-2.348 1.271zm4.93-1.95-.235-1.714a13.1 13.1 0 0 1 1.774-.121h1.222v1.73h-1.222a11.358 11.358 0 0 0-1.539.107zm36.848-.1h-2.366v-1.73h.635v-.521h1.73zm-5.249 0h-2.884v-1.73h2.884zm-5.768 0h-2.884v-1.73h2.884zm-5.768 0h-2.884v-1.73h2.884zm-5.768 0H120.5v-1.73h2.884zm-5.768 0h-2.884v-1.73h2.884zm28.319-5.132h-1.73v-2.884h1.73zm0-5.768h-1.73v-2.884h1.73zm0-5.768h-1.73V209.3h1.73zm0-5.768h-1.73v-2.885h1.73zm-2.128-3.64h-2.884v-1.73h2.884zm-5.768 0h-2.884v-1.73h2.884zm-5.768 0h-2.884v-1.73h2.884zm-5.768 0h-2.884v-1.73h2.884zm-5.768 0h-2.884v-1.73h2.884zm-5.768 0h-2.884v-1.73h2.884zm-5.768 0h-2.884v-1.73h2.884zm-5.768 0h-2.884v-1.73h2.884zm-5.768 0h-.883a11.58 11.58 0 0 1-2.15-.2l.322-1.7a9.848 9.848 0 0 0 1.828.171h.883zm-5.982-1.191a11.507 11.507 0 0 1-2.572-1.745l1.156-1.288a9.778 9.778 0 0 0 2.186 1.483zm-4.584-4.115a11.44 11.44 0 0 1-1.3-2.823l1.655-.505a9.71 9.71 0 0 0 1.108 2.4zm-1.8-5.892v-.291a11.532 11.532 0 0 1 .343-2.8l1.678.42a9.8 9.8 0 0 0-.292 2.378v.248zm3-5.118-1.5-.857a11.527 11.527 0 0 1 1.891-2.467l1.219 1.228a9.8 9.8 0 0 0-1.604 2.095zm3.715-3.689-.847-1.509a11.424 11.424 0 0 1 2.894-1.139l.408 1.681a9.693 9.693 0 0 0-2.449.966zm8-1.242h-2.882V179.8h2.884zm3.178-.423-.685-1.589a3.507 3.507 0 0 0 1.678-1.527l1.517.832a5.245 5.245 0 0 1-2.508 2.279zm1.375-5.352a3.491 3.491 0 0 0-1.076-1.995l1.173-1.272a5.229 5.229 0 0 1 1.611 2.989zm-3.152-2.905a3.353 3.353 0 0 0-.284-.011H98.6v-1.73h2.53c.141 0 .283.006.423.017zm-5.7-.011h-2.879v-1.73h2.883zm-5.768 0h-2.879v-1.73h2.884zm-5.768 0H81.3v-1.73h2.884zm-5.768 0h-2.878v-1.73h2.884zm-5.768 0h-.005a14.478 14.478 0 0 1-3.039-.322l.364-1.692a12.743 12.743 0 0 0 2.676.283h.005zm-5.944-1.285a14.4 14.4 0 0 1-2.637-1.558l1.034-1.388a12.669 12.669 0 0 0 2.319 1.37zm-4.885-3.636a14.445 14.445 0 0 1-1.76-2.506l1.514-.838a12.71 12.71 0 0 0 1.549 2.205zm-2.949-5.329a14.371 14.371 0 0 1-.56-3.011l1.725-.134a12.637 12.637 0 0 0 .493 2.648zm1.24-5.84-1.715-.231a14.331 14.331 0 0 1 .731-2.975l1.626.591a12.6 12.6 0 0 0-.648 2.614zm1.827-5.034-1.464-.923a14.467 14.467 0 0 1 1.9-2.4l1.231 1.21a12.735 12.735 0 0 0-1.669 2.112zm3.75-3.83-.954-1.444a14.371 14.371 0 0 1 2.721-1.406l.625 1.613a12.637 12.637 0 0 0-2.394 1.236zm4.994-1.935-.267-1.71a14.543 14.543 0 0 1 2.238-.173h.771v1.73h-.771a12.8 12.8 0 0 0-1.974.153zm14.042-.152h-2.651v-1.73h2.649zm-5.533 0H76.3v-1.73h2.884z" transform="translate(-24.677 -60.975)" style="fill:#eadcff"/>
        <path data-name="Path 89510" d="M243.252 161.438a10.941 10.941 0 0 1-1.907-.167l.3-1.7a9.209 9.209 0 0 0 1.6.141zm-4.871-1.153a10.858 10.858 0 0 1-2.558-1.791l1.186-1.26a9.13 9.13 0 0 0 2.15 1.506zm-4.5-4.234a10.779 10.779 0 0 1-1.167-2.9l1.682-.407a9.049 9.049 0 0 0 .98 2.433zm.259-5.963h-1.73v-2.869l1.73-.029v.186zm-2.152-5.46a9.069 9.069 0 0 0-1.144-2.361l1.432-.971a10.8 10.8 0 0 1 1.362 2.811zm-2.914-4.3a9.106 9.106 0 0 0-2.247-1.356l.671-1.595a10.835 10.835 0 0 1 2.674 1.614zm-4.787-2.012a9.265 9.265 0 0 0-.992-.053h-1.8v-1.73h1.8a11 11 0 0 1 1.178.063zm-5.673-.053h-2.884v-1.73h2.884zm-5.768 0h-2.884v-1.73h2.884zm-5.768 0h-2.884v-1.73h2.884zm-5.768 0h-2.884v-1.73h2.884zm-5.768 0h-2.884v-1.73h2.884zm-5.768 0h-2.884v-1.73h2.884zm-5.768 0h-2.884v-1.73h2.884z" transform="translate(-76.661 -57.786)" style="fill:#eadcff"/>
        <path data-name="Path 89511" d="M323.539 221.557h-2.884v-1.73h2.884zm-5.768 0h-2.884v-1.73h2.884zm-5.768 0h-2.883v-1.73H312zm-5.768 0h-2.884v-1.73h2.884zm-5.768 0h-2.884v-1.73h2.884zm-5.768 0h-2.884v-1.73h2.885zm-5.768 0h-2.881v-1.73h2.884zm-5.768 0h-2.887l.007-1.73h2.88zm-5.985-.489a10.237 10.237 0 0 1-2.805-1.4l1-1.411a8.509 8.509 0 0 0 2.332 1.168zm-5.056-3.587a10.248 10.248 0 0 1-1.491-2.76l1.63-.58a8.521 8.521 0 0 0 1.24 2.294zm-2.077-5.842c0-.12-.006-.243-.006-.363a10.3 10.3 0 0 1 .372-2.751l1.667.462a8.574 8.574 0 0 0-.31 2.289c0 .1 0 .2.005.3zm3.107-5.028-1.449-.945a10.315 10.315 0 0 1 2.092-2.335l1.1 1.337a8.588 8.588 0 0 0-1.739 1.943zm3.985-3.274-.644-1.606a10.228 10.228 0 0 1 3.057-.708l.128 1.726a8.5 8.5 0 0 0-2.537.588zm8.243-.612h-2.88v-1.73h2.884z" transform="translate(-114.295 -85.07)" style="fill:#eadcff"/>
        <path data-name="Path 89512" d="M398.63 281.13h-.1v-1.73h.1a10.8 10.8 0 0 0 2.557-.306l.41 1.681a12.526 12.526 0 0 1-2.967.355zm-2.979 0h-2.884v-1.73h2.884zm-5.768 0H387v-1.73h2.884zm-5.768 0h-2.884v-1.73h2.884zm-5.768 0h-2.884v-1.73h2.884zm-5.768 0H369.7v-1.73h2.884zm-5.768 0h-2.884v-1.73h2.884zm-5.768 0h-2.884v-1.73h2.884zm-5.768 0h-2.884v-1.73h2.884zm-5.768 0h-2.884v-1.73h2.884zm-5.768 0h-2.884v-1.73h2.884zm-5.768 0h-1.132v-1.73h1.132zm66.51-1.457-.813-1.527a10.779 10.779 0 0 0 2.177-1.533l1.163 1.281a12.513 12.513 0 0 1-2.522 1.779zm4.541-4.122-1.441-.958a10.712 10.712 0 0 0 1.186-2.382l1.633.572a12.446 12.446 0 0 1-1.373 2.768zm2.029-5.79-1.724-.151c.028-.315.042-.636.042-.954a10.866 10.866 0 0 0-.135-1.709l1.709-.273a12.6 12.6 0 0 1 .157 1.982c0 .368-.012.744-.044 1.105zm-2.561-5.369a10.743 10.743 0 0 0-1.353-2.293l1.37-1.057a12.48 12.48 0 0 1 1.571 2.662zm-3.227-4.185a10.749 10.749 0 0 0-2.28-1.375l.7-1.581a12.48 12.48 0 0 1 2.647 1.6zm-4.827-2.143a10.86 10.86 0 0 0-1.811-.152h-.919v-1.73h.919a12.593 12.593 0 0 1 2.1.176zm-5.614-.152h-2.884v-1.73h2.884zm-5.768 0h-2.884v-1.73h2.884z" transform="translate(-142.569 -108.428)" style="fill:#eadcff"/>
    </g>
    <g data-name="Group 40483">
        <path data-name="Path 89513" d="M233.456 285.253h-37.18v-50.7s7.243-5.311 18.832-5.311 18.349 5.311 18.349 5.311z" transform="translate(-83.074 -97.026)" style="fill:#4d326e"/>
        <path data-name="Path 89514" d="m220.752 231.548 4.184 12.125 4.829-12.34z" transform="translate(-93.433 -97.911)" style="fill:#b4cbdb"/>
        <path data-name="Path 89515" d="m219.2 223.1-.322 1.932 5.15 3.863 5.15-2.576v-2.414z" transform="translate(-92.641 -94.427)" style="fill:#edc6a4"/>
        <path data-name="Path 89516" d="m217.464 226.45 4.507 2.575-5.473 4.668-.965-5.311z" transform="translate(-91.224 -95.845)" style="fill:#cbe2f6"/>
        <path data-name="Path 89517" d="m233.155 226.45-4.507 2.575 5.472 4.668.966-5.311z" transform="translate(-96.775 -95.845)" style="fill:#cbe2f6"/>
        <g data-name="Group 40482">
            <path data-name="Path 89518" d="M248.789 164.821a35.063 35.063 0 0 1 1.863 11.139c0 3.007-.187 3-.187 3l-8.723-11.255z" transform="translate(-102.317 -69.76)" style="fill:#312e4c"/>
            <g data-name="Group 40479">
                <path data-name="Path 89519" d="M260.948 189.938a4.173 4.173 0 1 1-4.338-4 4.165 4.165 0 0 1 4.338 4z" transform="translate(-106.915 -78.698)" style="fill:#f4dabc"/>
                <path data-name="Path 89520" d="M260.466 191.338a2.36 2.36 0 1 1-2.454-2.26 2.356 2.356 0 0 1 2.454 2.26z" transform="translate(-108.246 -80.026)" style="fill:#edc6a4"/>
            </g>
            <path data-name="Path 89521" d="M232.619 180.614c.36 8.913-4.493 16.713-6.463 17.932-3.683 2.279-16.593 2.6-19.7-.75s-6-11.446-6.182-15.9a16.184 16.184 0 0 1 32.342-1.279z" transform="translate(-84.762 -69.879)" style="fill:#f4dabc"/>
            <g data-name="Group 40480">
                <path data-name="Path 89522" d="M219.738 192.423a1.789 1.789 0 1 1-1.859-1.713 1.785 1.785 0 0 1 1.859 1.713z" transform="translate(-91.49 -80.717)" style="fill:#312e4c"/>
                <path data-name="Path 89523" d="M237.889 191.7a1.789 1.789 0 1 1-1.859-1.713 1.785 1.785 0 0 1 1.859 1.713z" transform="translate(-99.173 -80.414)" style="fill:#312e4c"/>
            </g>
            <path data-name="Path 89524" d="M247.293 197.646c.819.769.452 1.761-.821 2.215a4.057 4.057 0 0 1-3.787-.57c-.819-.769-.452-1.761.821-2.215a4.057 4.057 0 0 1 3.787.57z" transform="translate(-102.532 -83.317)" style="fill:#e2a089"/>
            <path data-name="Path 89525" d="M210.231 197.646c.819.769.452 1.761-.821 2.215a4.057 4.057 0 0 1-3.787-.57c-.819-.769-.452-1.761.821-2.215a4.057 4.057 0 0 1 3.787.57z" transform="translate(-86.846 -83.317)" style="fill:#e2a089"/>
            <g data-name="Group 40481">
                <path data-name="Path 89526" d="M197.374 191.221a4.173 4.173 0 1 1-4.338-4 4.166 4.166 0 0 1 4.338 4z" transform="translate(-80.007 -79.241)" style="fill:#f4dabc"/>
                <path data-name="Path 89527" d="M196.893 192.621a2.36 2.36 0 1 1-2.453-2.26 2.356 2.356 0 0 1 2.453 2.26z" transform="translate(-81.338 -80.569)" style="fill:#edc6a4"/>
            </g>
            <path data-name="Path 89528" d="M229.993 200.122c.053 1.319-4.732 1.508-4.786.189s.871-5 2.192-5.055 2.541 3.544 2.594 4.866z" transform="translate(-95.318 -82.642)" style="fill:#edc6a4"/>
            <path data-name="Path 89529" d="m214.86 186.261-.876-.751a3.812 3.812 0 0 1 1.408-.957 4.213 4.213 0 0 1 3.717.359.577.577 0 1 1-.557 1.01 2.9 2.9 0 0 0-3.692.339z" transform="translate(-90.57 -77.994)" style="fill:#312e4c"/>
            <path data-name="Path 89530" d="M237.159 185.936a2.9 2.9 0 0 0-3.694-.342.577.577 0 1 1-.557-1.01 4.213 4.213 0 0 1 3.717-.359 3.812 3.812 0 0 1 1.408.957l-.876.751z" transform="translate(-98.452 -77.856)" style="fill:#312e4c"/>
            <path data-name="Path 89531" d="M217.629 206.664a5.871 5.871 0 0 0 3.668 1.595 51.076 51.076 0 0 0 9.079-.3s-.159 3.248-2.575 4.507-7.088.527-7.908-.176c-1.64-1.405-2.264-5.626-2.264-5.626z" transform="translate(-92.111 -87.47)" style="fill:#c8242c"/>
            <path data-name="Path 89532" d="M206.85 159.862s-6.753-2.751-5-4.5 4.255 2.028 4.255 2.028-1.754-3.529 1-4.029-.255 6.501-.255 6.501z" transform="translate(-85.31 -64.898)" style="fill:#312e4c"/>
            <path data-name="Path 89533" d="M209.806 151.007a5.826 5.826 0 0 1 4.507 1.932s.965-3.7 6.277-3.219 5.794 3.7 5.794 3.7 6.581-.574 7.4 3.541c1.449 7.243-5.311 5.633-5.311 5.633s-.161 3.541-5.633 3.058-5.15-4.185-5.15-4.185-1.288 2.9-3.7 2.9-5.15-2.575-5.15-2.575 1.288 3.058-4.185 4.185a2.473 2.473 0 0 1-2.9-1.61s-.483 8.209-2.092 8.209-3.541-3.219-3.219-6.76.856-6.051 2.092-7.082a10.1 10.1 0 0 1 4.668-1.932s.164-5.634 6.602-5.795z" transform="translate(-83.131 -63.351)" style="fill:#43416b"/>
        </g>
        <path data-name="Path 89534" d="m233.933 174.12-2.31-.1a23.208 23.208 0 0 0-.489-4.939 18.505 18.505 0 0 0-4.286-8.9c-2.738-2.924-6.577-4.472-11.409-4.6-4.878-.13-8.789 1.215-11.625 4-5.142 5.046-5.138 13.177-5.138 13.258l-2.311.018a24.178 24.178 0 0 1 .691-5.28 23.125 23.125 0 0 1 1.712-4.831 17.537 17.537 0 0 1 3.427-4.816c3.3-3.239 7.777-4.806 13.306-4.659 5.48.146 9.87 1.944 13.047 5.345a18.173 18.173 0 0 1 3.3 5.067 24.006 24.006 0 0 1 1.566 5.008 25.007 25.007 0 0 1 .519 5.429z" transform="translate(-83.112 -64.871)" style="fill:#4d326e"/>
        <path data-name="Path 89535" d="M195.871 189.825c.385 3.446.007 5.991-2.379 6.258a5.625 5.625 0 0 1-5.762-5.187c-.385-3.446 1.983-7.024 4.369-7.29s3.388 2.774 3.772 6.219z" transform="translate(-79.439 -77.704)" style="fill:#664a8e"/>
        <path data-name="Path 89536" d="M207.647 212.182c-.695 0-1.562-.01-2.477-.045a33.394 33.394 0 0 1-3.177-.252 6.6 6.6 0 0 1-2.506-.71c-.57-.356-1.5-1.32-3.012-5.553-.792-2.224-1.362-4.279-1.386-4.365a.865.865 0 0 1 1.668-.461c.006.021.579 2.089 1.351 4.254 1.407 3.948 2.159 4.573 2.3 4.658.206.129 1.163.559 4.833.7 2.04.078 3.894.027 3.912.027a.865.865 0 1 1 .049 1.73c-.048 0-.657.017-1.555.017z" transform="translate(-82.558 -84.717)" style="fill:#4d326e"/>
        <path data-name="Path 89537" d="M188.469 238.45s-11.106 22.966-10.623 27.858.965 11.415.965 11.415h8.689s-2.9-12.23.965-16.715.004-22.558.004-22.558z" transform="translate(-75.266 -100.924)" style="fill:#4d326e"/>
        <path data-name="Path 89538" d="M183.072 300.911c-6.229-.779-3.863 5.311-3.863 5.311h8.691s2.9-4.345-4.828-5.311z" transform="translate(-75.663 -127.331)" style="fill:#f4dabc"/>
    </g>
    <path data-name="Path 89539" d="M259.735 238.45s11.106 27.2 10.623 33-.966 13.52-.966 13.52H260.7s2.9-14.486-.965-19.8 0-26.72 0-26.72z" transform="translate(-109.206 -100.924)" style="fill:#4d326e"/>
    <path data-name="Path 89540" d="M253.681 189.825c-.385 3.446-.007 5.991 2.379 6.258a5.625 5.625 0 0 0 5.762-5.187c.385-3.446-1.983-7.024-4.369-7.29s-3.388 2.774-3.772 6.219z" transform="translate(-107.315 -77.704)" style="fill:#664a8e"/>
    <g data-name="Group 40491">
        <path data-name="Path 89541" d="M351.7 153.505H310a21.222 21.222 0 0 1-21.16-21.16v-40.41A21.222 21.222 0 0 1 310 70.775h41.7a21.222 21.222 0 0 1 21.16 21.16v40.411a21.222 21.222 0 0 1-21.16 21.159z" transform="translate(-122.253 -29.955)" style="fill:#ba9ee5"/>
        <g data-name="Group 40490">
            <g data-name="Group 40484" style="clip-path:url(#bnis1po3ma)" transform="translate(166.591 40.82)">
                <path data-name="Path 89542" d="M338.7 78.925c-4.16 1.133-13.551 8.692-13.132 23.982s-3.073 16.417-1.816 18.671 44.985 4.829 44.286-2.253-2.566-14.165-2.654-19.475c-.142-8.37-6.01-26.558-26.684-20.925z" transform="translate(-303.501 -73.774)" style="fill:#6f563e"/>
            </g>
            <g data-name="Group 40487" style="clip-path:url(#bnis1po3ma)" transform="translate(166.591 40.82)">
                <path data-name="Path 89544" d="M366.352 170.351c0-6.015-8.216-10.891-18.352-10.891s-18.352 4.876-18.352 10.891l-3.613 20.775 7.138 2.563 2.745-12.263a26.235 26.235 0 0 1 2.38 7.871c.366 3.844.915 6.589.915 6.589l19.768-.915s.549-11.9 2.2-14.827" transform="translate(-304.585 -108.311)" style="fill:#f29c55"/>
                <path data-name="Path 89545" d="M356.5 148.411v7.5a4.9 4.9 0 0 0 3.947 2.237 5.742 5.742 0 0 0 4.473-2.105l-.263-8.288z" transform="translate(-317.48 -103.356)" style="fill:#edc6a4"/>
                <path data-name="Path 89546" d="M382.865 142.154s-2.521-3.448-1.239-5.462 4.21-8.237 6.04-9.335 3.478 11.9-.921 13.9a13.076 13.076 0 0 1-3.88.897z" transform="translate(-327.96 -94.695)" style="fill:#f4dabc"/>
                <path data-name="Path 89547" d="m385.841 132.227-3.92.48a1.95 1.95 0 0 1-2.173-1.7l-1.382-11.277a1.95 1.95 0 0 1 1.7-2.173l3.92-.48a1.95 1.95 0 0 1 2.173 1.7l1.383 11.277a1.95 1.95 0 0 1-1.701 2.173z" transform="translate(-326.728 -90.367)" style="fill:#312e4c"/>
                <path data-name="Path 89548" d="M366.768 109.639c.37 9.161-9.781 16.767-16.335 16.9s-16.533-6.42-16.9-15.58a16.632 16.632 0 0 1 33.239-1.315z" transform="translate(-307.751 -80.477)" style="fill:#f4dabc"/>
                <g data-name="Group 40485">
                    <path data-name="Path 89549" d="M353.53 121.406a1.838 1.838 0 1 1-1.911-1.761 1.835 1.835 0 0 1 1.911 1.761z" transform="translate(-314.667 -91.459)" style="fill:#312e4c"/>
                    <path data-name="Path 89550" d="M372.184 121.406a1.838 1.838 0 1 1-1.911-1.761 1.835 1.835 0 0 1 1.911 1.761z" transform="translate(-322.563 -91.459)" style="fill:#312e4c"/>
                </g>
                <path data-name="Path 89551" d="M358.238 135.975c-.671.023-1.192.361-1.122.73.483 2.541 1.829 4.372 3.352 4.32s2.737-1.97 3.041-4.538c.044-.373-.5-.675-1.171-.652z" transform="translate(-317.737 -98.311)" style="fill:#c8242c"/>
                <g data-name="Group 40486">
                    <path data-name="Path 89552" d="M344.514 128.528a2.817 2.817 0 1 1-2.929-2.7 2.812 2.812 0 0 1 2.929 2.7z" transform="translate(-310.022 -94.075)" style="fill:#e2a089"/>
                    <path data-name="Path 89553" d="M382.3 127.034a2.817 2.817 0 1 1-2.929-2.7 2.812 2.812 0 0 1 2.929 2.7z" transform="translate(-326.014 -93.443)" style="fill:#e2a089"/>
                </g>
                <path data-name="Path 89554" d="M362.737 128.173a1.34 1.34 0 0 1-2.678.106c-.03-.738.487-2.8 1.227-2.828s1.421 1.984 1.451 2.722z" transform="translate(-318.985 -93.916)" style="fill:#edc6a4"/>
                <path data-name="Path 89555" d="M345.541 94.993a8.771 8.771 0 0 1 10.122.841c5.141 4.113-3.439-7.525-6.78-7.268a4.4 4.4 0 0 0-3.984 4.755 2.389 2.389 0 0 0 .642 1.672z" transform="translate(-312.563 -78.303)" style="fill:#4f3929"/>
                <path data-name="Path 89556" d="M348.068 115a.283.283 0 0 1-.215-.468 3.723 3.723 0 0 1 1.355-.917 4.118 4.118 0 0 1 3.632.36.284.284 0 1 1-.274.5 3.574 3.574 0 0 0-3.124-.339 3.215 3.215 0 0 0-1.159.769.284.284 0 0 1-.215.095z" transform="translate(-313.79 -88.794)" style="fill:#312e4c"/>
                <path data-name="Path 89557" d="M372.536 115a.283.283 0 0 1-.215-.1 3.215 3.215 0 0 0-1.159-.769 3.574 3.574 0 0 0-3.124.339.284.284 0 0 1-.274-.5 4.118 4.118 0 0 1 3.632-.36 3.722 3.722 0 0 1 1.355.917.284.284 0 0 1-.215.468z" transform="translate(-322.185 -88.794)" style="fill:#312e4c"/>
                <path data-name="Path 89558" d="M356.266 86.4c3.412 2.73 3.556 6.457 5.615 6.645 0 0-2.714-3.837-2.059-4.96s1.591 1.685 3.089 2.059c0 0-2.433-4.4-1.591-4.3s1.591 2.994 2.527 2.62a7.207 7.207 0 0 0-1.966-3.463c-1.5-1.31-2.34-.749-1.966 0s1.03 2.433.374 2.059-1.591-2.433-2.152-2.433.562 2.9.562 2.9a5.062 5.062 0 0 0-2.808-2.62c-2.025-.737-4.646-.228-3.182.093 1.313.283 1.686-.1 3.557 1.4z" transform="translate(-315.695 -76.461)" style="fill:#43416b"/>
                <path data-name="Path 89559" d="M335.934 140.489c.469 3.05.675 5.205-.771 5.784s0-2.217-.386-3.663-.386 2.6-1.253 1.928-.1-3.278-.867-2.6-1.157 2.892-1.832-.1c-.427-1.89.1-4.53 1.06-4.53s-.771 3.374-.385 4.145 1.06-2.41 1.928-2.313-.578 2.988.482 2.313 1.638-3.471 2.024-.964z" transform="translate(-306.549 -98.935)" style="fill:#775b45"/>
                <path data-name="Path 89560" d="M349.7 120.881a1.747 1.747 0 0 1-1.07-.3l.339-.44a2.212 2.212 0 0 0 1.629.051l.163.531a3.917 3.917 0 0 1-1.061.158z" transform="translate(-314.146 -91.668)" style="fill:#312e4c"/>
                <path data-name="Path 89561" d="M373.6 120.881a3.916 3.916 0 0 1-1.061-.16l.163-.531a2.211 2.211 0 0 0 1.628-.051l.339.44a1.748 1.748 0 0 1-1.069.302z" transform="translate(-324.267 -91.668)" style="fill:#312e4c"/>
                <path data-name="Path 89562" d="M341.021 98.273s-1.433-3.432-3.649-1.216-3.166 10.289-3.166 10.289 3.816-9.123 6.815-9.073z" transform="translate(-308.044 -81.583)" style="fill:#4f3929"/>
                <path data-name="Path 89563" d="M339.057 92.334s-.385-4.54 3.2-4.962 5.909 2.11 7.809 7.175 12.03 20.26 14.984 15.406 1.432-16.039-2.577-21.527-15.828-8.547-24.376-3.8c-9.008 5-9.346 18.361-7.869 24.059s4.01 2.533 4.01-1.267-1.477-10.13.633-13.929c1.249-2.241 4.186-1.155 4.186-1.155z" transform="translate(-306.079 -75.645)" style="fill:#6f563e"/>
                <path data-name="Path 89564" d="M369.74 95.761c2.068 2.415 4.612 3.278 4.184 1.92s-1.87-2.224-1.053-2.235 3.659 3.427 3.845 1.993-1.766-4.543-3-4.8 1.6 2.228 1.745 3.044-2.763-2.689-4.4-2.531.36 1.427.646 2.377-3.353-1.385-1.967.232z" transform="translate(-322.949 -80.021)" style="fill:#775b45"/>
                <path data-name="Path 89565" d="m381.891 151.066 5.851-.194s9.158 26.186 5.131 28.565-7.688-1.282-8.237-4.576-2.745-23.795-2.745-23.795z" transform="translate(-328.226 -104.676)" style="fill:#f29c55"/>
            </g>
            <g data-name="Group 40488" style="clip-path:url(#bnis1po3ma)" transform="translate(166.591 40.82)">
                <path data-name="Path 89568" d="M338.519 183.478s1.288-5.633 3.058-7.243 5.794-4.507 8.37-3.7-3.219 6.921-3.219 6.921-2.414 4.668-4.507 4.507a34.474 34.474 0 0 1-3.702-.485z" transform="translate(-309.869 -113.785)" style="fill:#f4dabc"/>
            </g>
            <g data-name="Group 40489" style="clip-path:url(#bnis1po3ma)" transform="translate(166.591 40.82)">
                <path data-name="Path 89570" d="m334.664 188.263 5.955 1.288-3.7 16.739-7.889-1.29z" transform="translate(-305.853 -120.502)" style="fill:#f29c55"/>
            </g>
        </g>
        <path data-name="Line 12" d="m.073 12.418-.546-.185L3.711-.16l.546.185z" transform="translate(191.418 108.649)" style="fill:#d68345"/>
        <path data-name="Line 13" d="m.074 8.388-.56-.14L1.607-.121l.56.14z" transform="translate(199.47 109.921)" style="fill:#d68345"/>
        <path data-name="Path 89572" d="M385.078 181.436c-.184-.161-.411-.577-.779-3.5-.2-1.628-.426-3.84-.659-6.576a484.82 484.82 0 0 1-.69-9.323l.576-.036c0 .045.289 4.568.677 9.166.228 2.7.445 4.895.647 6.527.344 2.786.56 3.245.618 3.319l-.011-.011z" transform="translate(-162.083 -68.566)" style="fill:#d68345"/>
    </g>
    <path data-name="Path 89573" d="M91.129 253.937a7.275 7.275 0 0 1-5.178-2.145l-14.985-14.984a7.323 7.323 0 0 1 0-10.357l.867-.867a3.628 3.628 0 0 1 5.13 0l2.944 2.944a3.632 3.632 0 0 1 0 5.13l-1.21 1.21 9.193 9.193 1.21-1.21a3.628 3.628 0 0 1 5.13 0l2.944 2.944a3.632 3.632 0 0 1 0 5.13l-.867.867a7.275 7.275 0 0 1-5.178 2.145zM74.4 225.593a2.541 2.541 0 0 0-1.808.749l-.867.867a6.252 6.252 0 0 0 0 8.842l14.984 14.984a6.252 6.252 0 0 0 8.842 0l.867-.867a2.56 2.56 0 0 0 0-3.615l-2.944-2.944a2.557 2.557 0 0 0-3.615 0l-1.967 1.967-10.709-10.708 1.967-1.968a2.56 2.56 0 0 0 0-3.615l-2.944-2.944a2.539 2.539 0 0 0-1.806-.748z" transform="translate(-29.129 -95.028)" style="fill:#e0e0e0"/>
    <g data-name="Group 40495">
        <path data-name="Ellipse 3301" d="M18.921-.929a19.844 19.844 0 0 1 14.036 33.886A19.85 19.85 0 1 1 11.195.632a19.726 19.726 0 0 1 7.726-1.561zm0 38.629A18.779 18.779 0 1 0 .143 18.921 18.8 18.8 0 0 0 18.921 37.7z" transform="translate(205.373 129.698)" style="fill:#e0e0e0"/>
        <path data-name="Path 89574" d="m381.379 250.626-8.988-11.484.843-.66 8.4 10.728 13.595-8.438.565.91z" transform="translate(-157.614 -100.937)" style="fill:#e0e0e0"/>
        <g data-name="Group 40494">
            <g data-name="Group 40492">
                <path data-name="Line 14" d="M.143 2.736H-.929V0H.143z" transform="translate(224.687 131.799)" style="fill:#e0e0e0"/>
                <path data-name="Line 15" d="M.143 2.736H-.929V0H.143z" transform="translate(224.687 162.702)" style="fill:#e0e0e0"/>
            </g>
            <g data-name="Group 40493">
                <path data-name="Line 16" d="M2.736.143H0V-.929h2.736z" transform="translate(207.474 149.012)" style="fill:#e0e0e0"/>
                <path data-name="Line 17" d="M2.737.143H0V-.929h2.737z" transform="translate(238.377 149.012)" style="fill:#e0e0e0"/>
            </g>
        </g>
    </g>
    <g data-name="Group 40496" transform="translate(35.203 49.496)">
        <circle data-name="Ellipse 3302" cx="3.058" cy="3.058" r="3.058" transform="translate(42.864)" style="fill:#ba9ee5"/>
        <circle data-name="Ellipse 3303" cx="1.932" cy="1.932" r="1.932" transform="translate(76.02 17.076)" style="fill:#ba9ee5"/>
        <circle data-name="Ellipse 3304" cx="1.932" cy="1.932" r="1.932" transform="translate(220.557 82.745)" style="fill:#ba9ee5"/>
        <circle data-name="Ellipse 3305" cx="1.932" cy="1.932" r="1.932" transform="translate(0 115.056)" style="fill:#ba9ee5"/>
        <circle data-name="Ellipse 3306" cx="3.219" cy="3.219" r="3.219" transform="translate(54.434 74.77)" style="fill:#ba9ee5"/>
        <circle data-name="Ellipse 3307" cx="3.219" cy="3.219" r="3.219" transform="translate(203.818 130.387)" style="fill:#ba9ee5"/>
    </g>
    <g data-name="Group 40497" transform="translate(143.642 143.229)">
        <path data-name="Path 89575" d="M297.968 307.424h-48.037a.878.878 0 0 1-.878-.878v-1.505a.878.878 0 0 1 .878-.878h48.037a.878.878 0 0 1 .878.878v1.505a.877.877 0 0 1-.878.878z" transform="translate(-249.053 -271.966)" style="fill:#7dc3c6"/>
        <path data-name="Path 89576" d="M296.023 282.053h-44.147a2.823 2.823 0 0 1-2.823-2.823v-28.069a2.823 2.823 0 0 1 2.823-2.823h44.147a2.823 2.823 0 0 1 2.823 2.823v28.068a2.824 2.824 0 0 1-2.823 2.824z" transform="translate(-249.053 -248.338)" style="fill:#cbe2f6"/>
        <circle data-name="Ellipse 3308" cx="2.616" cy="2.616" r="2.616" transform="translate(22.756 12.994)" style="fill:#fff"/>
    </g>
    <g data-name="Group 40498">
        <path data-name="Rectangle 10061" transform="translate(62.928 182.977)" style="fill:#ba9ee5" d="M0 0h158.466v56.064H0z"/>
        <path data-name="Path 89577" d="M265.636 315.54h-159.49a2.824 2.824 0 0 1-2.824-2.824 2.824 2.824 0 0 1 2.824-2.824h159.49a2.824 2.824 0 0 1 2.824 2.824 2.824 2.824 0 0 1-2.824 2.824z" transform="translate(-43.731 -131.161)" style="fill:#ba9ee5"/>
    </g>
    <path data-name="Line 18" d="M163.529.077H0V-.5h163.529z" transform="translate(58.913 185.38)" style="fill:#eadcff"/>
    <path data-name="Path 89578" d="M116.84 110.331h20.084a12.2 12.2 0 0 1 4.794.974 12.459 12.459 0 0 1 6.575 6.575 12.193 12.193 0 0 1 .975 4.794v13.217a12.39 12.39 0 0 1-10.127 12.143 5.1 5.1 0 0 0 .021 2.122 19.453 19.453 0 0 0 1.829 4.943l.639 1.278-1.347-.476a14.123 14.123 0 0 1-3.264-1.806 13.891 13.891 0 0 1-2.635-2.485 11.725 11.725 0 0 1-1.916-3.374H116.84a12.2 12.2 0 0 1-4.795-.974 12.458 12.458 0 0 1-6.575-6.575 12.2 12.2 0 0 1-.974-4.795v-13.217a12.2 12.2 0 0 1 .974-4.795 12.458 12.458 0 0 1 6.575-6.575 12.2 12.2 0 0 1 4.795-.974zm22.434 43.831c-1.335-3.036-1.709-5.336-1.11-6.849l.122-.308.327-.05a11.27 11.27 0 0 0 9.5-11.062v-13.218a11.2 11.2 0 0 0-11.191-11.19H116.84a11.2 11.2 0 0 0-11.191 11.191v13.217a11.2 11.2 0 0 0 11.191 11.191h16.46l.129.4a11.511 11.511 0 0 0 4.268 5.68 14.436 14.436 0 0 0 1.578.998z" transform="translate(-44.228 -46.697)" style="fill:#e0e0e0"/>
    <path data-name="Path 89579" d="M223.61 35.68h28.89a17.292 17.292 0 0 1 6.8 1.382 17.67 17.67 0 0 1 9.325 9.325 17.291 17.291 0 0 1 1.382 6.8V72.2a17.561 17.561 0 0 1-15.852 17.422c-.067 2.2.882 5.287 2.828 9.178l.639 1.278-1.347-.476A19.754 19.754 0 0 1 252 97.291a20.21 20.21 0 0 1-3.575-3.164 16.953 16.953 0 0 1-2.849-4.424H223.61a17.292 17.292 0 0 1-6.8-1.382A17.67 17.67 0 0 1 207.487 79a17.292 17.292 0 0 1-1.382-6.8V53.185a17.292 17.292 0 0 1 1.382-6.8 17.67 17.67 0 0 1 9.325-9.325 17.291 17.291 0 0 1 6.798-1.38zm31.659 62.22c-1.71-3.714-2.46-6.694-2.23-8.872l.051-.483.485-.032A16.387 16.387 0 0 0 268.853 72.2V53.184A16.37 16.37 0 0 0 252.5 36.833h-28.89a16.37 16.37 0 0 0-16.351 16.351V72.2a16.37 16.37 0 0 0 16.351 16.35h22.732l.147.358a17.27 17.27 0 0 0 6.169 7.437 20.892 20.892 0 0 0 2.611 1.555z" transform="translate(-87.234 -15.101)" style="fill:#e0e0e0"/>
    <g data-name="Group 40499">
        <path data-name="Line 19" d="M41.208.154H0V-1h41.208z" transform="translate(130.043 38.782)" style="fill:#e0e0e0"/>
        <path data-name="Line 20" d="M41.208.154H0V-1h41.208z" transform="translate(130.043 47.558)" style="fill:#e0e0e0"/>
        <path data-name="Line 21" d="M41.208.154H0V-1h41.208z" transform="translate(130.043 56.716)" style="fill:#e0e0e0"/>
    </g>
    <g data-name="Group 40500">
        <path data-name="Line 22" d="M28.646.154H0V-1h28.646z" transform="translate(69.005 76.327)" style="fill:#e0e0e0"/>
        <path data-name="Line 23" d="M28.646.154H0V-1h28.646z" transform="translate(69.005 82.428)" style="fill:#e0e0e0"/>
        <path data-name="Line 24" d="M28.646.154H0V-1h28.646z" transform="translate(69.005 88.793)" style="fill:#e0e0e0"/>
    </g>
    <path data-name="Line 25" d="M235.637.15H0V-.977h235.637z" transform="translate(26.37 239.85)" style="fill:#ba9ee5"/>
</svg>
