<svg xmlns="http://www.w3.org/2000/svg" width="21.53" height="24" viewBox="0 0 21.53 24">
    <g data-name="Group 40415">
        <path data-name="Path 89416" d="m32.967 356.313-1.951-3.135-1.765.493a3.992 3.992 0 0 0-2.9 3.829v2.62a.5.5 0 0 0 .5.5h7.89l.38-3.457a1.932 1.932 0 0 1-2.154-.85z" transform="translate(-26.349 -336.623)" />
        <path data-name="Path 89417" d="m304.379 353.617-1.762-.493-1.951 3.14a1.935 1.935 0 0 1-2.157.847l.38 3.46h7.89a.5.5 0 0 0 .5-.5v-2.62a4 4 0 0 0-2.9-3.834z" transform="translate(-285.751 -336.571)" />
        <path data-name="Path 89418" d="M160.08 333.353a.939.939 0 0 0 1.328-.279l1.52-2.447-2.064-1.276-2.748 2.656-.255.174.254-.174-2.748-2.656-2.064 1.276 1.52 2.447a.939.939 0 0 0 1.328.279l.26-.178.78.78-.395 3.59h2.642l-.395-3.588.782-.782z" transform="translate(-147.348 -313.913)" />
        <path data-name="Path 89419" d="M121.776 4.363a1.5 1.5 0 0 1 1.089-.465h10.009a1.5 1.5 0 0 1 1.091.468 1.542 1.542 0 0 0 .123-1.257c-.366-1.031-1.184-.88-5.617-2.984a1.5 1.5 0 0 0-1.194 0c-4.5 2.136-5.254 1.96-5.619 2.982a1.514 1.514 0 0 0 .118 1.257z" transform="translate(-117.107)" />
        <path data-name="Path 89420" d="M145.794 104.621h-10.009a.5.5 0 0 0-.488.382 5.851 5.851 0 0 0-.171 1.587 1.221 1.221 0 0 0 .449.955c.119 4.1 1.472 5.391 3.3 6.948a2.2 2.2 0 0 0 1.43.528h.971a2.2 2.2 0 0 0 1.43-.528c1.791-1.526 3.166-2.764 3.3-6.95a1.266 1.266 0 0 0 .45-.97 5.6 5.6 0 0 0-.179-1.571.5.5 0 0 0-.483-.381zm-3.736 9.107a1.2 1.2 0 0 1-.777.287h-.97a1.2 1.2 0 0 1-.778-.288c-1.442-1.224-2.759-2.208-2.94-5.885h.042l1.179 1.144a2.721 2.721 0 0 0 1.906.772h2.15a2.728 2.728 0 0 0 1.9-.769l1.184-1.147h.036c-.181 3.519-1.338 4.528-2.932 5.886z" transform="translate(-130.027 -99.717)"/>
    </g>
</svg>
