<svg xmlns="http://www.w3.org/2000/svg" width="20" height="17.778" viewBox="0 0 20 17.778">
    <path data-name="Path 89282" d="M3.333-12.889v1.111H1.667a1.812 1.812 0 0 0-1.181.486A1.812 1.812 0 0 0 0-10.111v1.667h15.556v-1.667a1.812 1.812 0 0 0-.486-1.181 1.812 1.812 0 0 0-1.181-.486h-1.667v-1.111a1.081 1.081 0 0 0-.312-.8 1.081 1.081 0 0 0-.8-.312 1.081 1.081 0 0 0-.8.313 1.081 1.081 0 0 0-.312.8v1.111H5.556v-1.111a1.081 1.081 0 0 0-.312-.8 1.081 1.081 0 0 0-.8-.312 1.081 1.081 0 0 0-.8.313 1.081 1.081 0 0 0-.311.798zm12.223 5.556H0v9.444a1.812 1.812 0 0 0 .486 1.181 1.812 1.812 0 0 0 1.181.486h9.826a5.9 5.9 0 0 1-1.91-2.153 5.89 5.89 0 0 1-.694-2.847 6.012 6.012 0 0 1 1.806-4.306A6.012 6.012 0 0 1 15-7.333a4.475 4.475 0 0 1 .556.035zM20-1.222a4.923 4.923 0 0 0-.66-2.5 5.012 5.012 0 0 0-1.84-1.84 5.048 5.048 0 0 0-2.5-.66 5.048 5.048 0 0 0-2.5.66 5.012 5.012 0 0 0-1.84 1.84 4.923 4.923 0 0 0-.66 2.5 4.923 4.923 0 0 0 .66 2.5 5.012 5.012 0 0 0 1.84 1.84 5.048 5.048 0 0 0 2.5.66 5.048 5.048 0 0 0 2.5-.66 5.012 5.012 0 0 0 1.84-1.84 4.923 4.923 0 0 0 .66-2.5zM15-4a.535.535 0 0 1 .556.556v1.667h1.111a.535.535 0 0 1 .556.556.535.535 0 0 1-.556.556H15a.535.535 0 0 1-.556-.556v-2.223A.535.535 0 0 1 15-4z" transform="translate(0 14)"/>
</svg>
